<?xml version="1.0" encoding="UTF-8" standalone="no"?>
<svg xmlns="http://www.w3.org/2000/svg" xmlns:xlink="http://www.w3.org/1999/xlink" width="431.800mm" height="279.400mm" viewBox="0.000000 0.000000 431.799988 279.399994" stroke-linejoin="round" stroke-linecap="round" fill="none" fill-rule="evenodd"><desc>Composer Export</desc><script type="text/ecmascript"><![CDATA[
if(typeof(top) != "undefined")
{
	top.ShowPaper = ShowPaper;
}
function ShowHotSpot(evt,hotspotid)
{
	var svgDocument = evt.target.ownerDocument;
	var strId = "hotspot."+hotspotid;
	var hotspot = svgDocument.getElementById(strId);
	if(hotspot)
		hotspot.setAttribute("opacity",".5");
}
function HideHotSpot(evt,hotspotid)
{
	var svgDocument = evt.target.ownerDocument;
	var strId = "hotspot."+hotspotid;
	var hotspot = svgDocument.getElementById(strId);
	if(hotspot)
		hotspot.setAttribute("opacity","0");

	var toolTip = svgDocument.getElementById('ToolTip');
	if(toolTip)
		toolTip.setAttribute("visibility","hidden");
}
function ShowToolTip(evt,hotspotid,strTooltip)
{
	if(strTooltip=="")
	return;

	// change text
	var svgDocument = evt.target.ownerDocument;
	var tiptext = svgDocument.getElementById('ToolTipText');
	if( !tiptext )
	return;
	tiptext.firstChild.nodeValue = " " + strTooltip + "  " ;

	// show tooltip before, else some refresh issue

	var toolTip = svgDocument.getElementById('ToolTip');
	if(!toolTip)
	return;

	toolTip.setAttribute("visibility","visible");
	toolTip.setAttribute("opacity",".95");

	// move tooltip
	// get viewbox

	var root = svgDocument.documentElement;
	var vbox = (root.getAttribute("viewBox")).split(' ');
	var x0 = parseFloat(vbox[0]);
	var y0 = parseFloat(vbox[1]);
	var vboxW = parseFloat(vbox[2]);
	var vboxH = parseFloat(vbox[3]);

	// get default width of svg

	var strW = root.getAttribute("width");
	var svgW = parseFloat(strW);
	if(strW.indexOf('mm') != -1)
	svgW *= 3.779;

	var strH = root.getAttribute("height");
	var svgH = parseFloat(strH);
	if(strH.indexOf('mm') != -1)
	svgH *= 3.779;  	// 96 dpi  -> 96/25.4 = 3.779

	// update the viewbox / width / height if svg is embedded in html with zoom fit all
	var realx0 = x0;
	var realy0 = y0;
	var realvboxW = vboxW;
	var realvboxH = vboxH;
	var realsvgW = svgW;
	var realsvgH = svgH;

	if ((typeof(top) == "undefined") || (typeof(top.svgctl1) != "undefined")) // embedded in html
	{
		// get window size in pxl

		svgW = window.innerWidth;
		svgH = window.innerHeight;

		// calculate real viewbox

		realsvgW = svgW;
		realsvgH = svgH;
		if((svgW / svgH) > (vboxW / vboxH))
		{
			realvboxW = (vboxH * svgW) / svgH;
			realvboxH = vboxH;
			realx0 = x0 - (realvboxW - vboxW)/2 ;
		}
		else
		{
			realvboxH = (vboxW * svgH) / svgW;
			realvboxW = vboxW;
			realy0 = y0 - (realvboxH - vboxH)/2 ;
		}
	}

	// get user zoom/pan

	var newScale = root.currentScale;
	var translation = root.currentTranslate;

	// transform pxl to user unit

	var xPos = (((evt.clientX+10- translation.x)/newScale) * realvboxW)/realsvgW  + realx0 ;
	var yPos = (((evt.clientY+5- translation.y)/newScale) * realvboxH)/ realsvgH  + realy0 ;
	var scaleForWidth = ( (1 / newScale) * realvboxH) / realsvgH;

	// move tooltip

	toolTip.setAttribute("transform", "translate(" + xPos + "," + yPos + ")" );

	// resize tooltip

	var fontsize = 12;
	tiptext.setAttribute("font-size",fontsize*scaleForWidth);
	tiptext.setAttribute("y", fontsize*scaleForWidth);
	var tipBG = svgDocument.getElementById('ToolTipBG');
	var outline = tiptext.getBBox();
	if(tipBG)
	{
		tipBG.setAttribute("stroke-width", 1*scaleForWidth);
		tipBG.setAttribute("width", Number(outline.width) );
		tipBG.setAttribute("height", Number(outline.height) + fontsize*.5*scaleForWidth );
	}
	var ToolTipShadow = svgDocument.getElementById('ToolTipShadow');
	if(ToolTipShadow)
	{
		ToolTipShadow.setAttribute("width", Number(outline.width) );
		ToolTipShadow.setAttribute("height", Number(outline.height) + fontsize*.5*scaleForWidth );
		ToolTipShadow.setAttribute("x", 3*scaleForWidth);
		ToolTipShadow.setAttribute("y", 3*scaleForWidth);
	}
}
function ShowPaper()
{
  var svgDocument = getDocument();
  var paper = svgDocument.getElementById("paperID");
  if(paper)
  {
    paper.setAttribute("transform","scale(1)");
    paper.setAttribute("opacity","1");
    paper.setAttribute("visibility","visible");
  }
  var svg = svgDocument.getRootElement();
  if(svg)
  {
    svg.setAttribute("width","441.800mm");
    svg.setAttribute("height","289.400mm");
    svg.setAttribute("viewBox","-5.000000 -5.000000 441.799988 289.399994");
  }
}
]]></script><defs><mask id="mask0" x="0" y="0" height="100%" width="100%"><image x="0.000000" y="254.000015" height="25.000000" width="25.000000" xlink:href="89195-901_files/8514590c921ecbca_mask_0.jpg"/></mask><mask id="mask1" x="0" y="0" height="100%" width="100%"><image x="0.629476" y="0.656952" height="25.000000" width="25.000000" xlink:href="89195-901_files/8514590c921ecbca_mask_1.jpg"/></mask><mask id="mask2" x="0" y="0" height="100%" width="100%"><image x="407.000000" y="254.000015" height="25.000000" width="25.000000" xlink:href="89195-901_files/8514590c921ecbca_mask_2.jpg"/></mask><mask id="mask3" x="0" y="0" height="100%" width="100%"><image x="407.000000" y="0.000000" height="25.000000" width="25.000000" xlink:href="89195-901_files/8514590c921ecbca_mask_3.jpg"/></mask></defs><g><path style="fill:#ffffff" d="M431.81,279.31L0.08,279.31L0.08,0.08L431.81,0.08z"/><path style="fill:#0000c0" d="M20.06,160.57L21.26,160.64L21.82,160.85L22.53,160.90L23.35,161.09L38.30,163.64L38.47,163.76L74.35,169.97L78.17,170.72L82.20,171.34L341.32,216.65L348.92,217.93L392.82,225.54L393.22,225.69L403.48,227.40L403.78,228.89L403.66,229.15L403.41,232.70L403.26,233.46L403.16,233.73L402.43,233.49L401.69,233.50L401.25,233.43L391.20,231.51L380.74,229.73L380.53,230.31L378.77,230.24L356.86,226.40L356.17,227.26L355.93,230.83L355.92,234.31L356.77,234.65L356.28,234.79L354.49,234.41L353.48,234.27L352.97,234.15L351.96,234.02L350.17,233.65L349.17,233.51L347.38,233.14L346.38,233.00L345.86,232.89L344.85,232.75L343.07,232.38L342.06,232.24L338.76,231.62L337.75,231.48L335.96,231.11L334.96,230.97L334.44,230.86L333.44,230.72L331.65,230.35L330.64,230.21L327.34,229.59L326.33,229.45L324.55,229.08L323.54,228.95L320.23,228.32L319.23,228.18L317.44,227.81L316.44,227.68L315.92,227.56L315.26,227.27L315.07,224.38L314.96,227.62L314.71,233.97L314.81,234.32L325.77,236.30L326.03,236.57L326.01,237.17L325.06,238.84L324.90,238.87L324.44,239.44L324.34,240.31L324.20,240.50L296.52,235.60L296.21,235.39L296.28,234.36L297.58,232.11L297.82,230.57L297.84,224.40L297.43,224.24L296.39,224.12L294.60,223.75L293.60,223.62L290.29,222.99L289.28,222.86L285.98,222.23L284.97,222.09L283.18,221.72L282.18,221.59L278.87,220.96L277.86,220.83L276.08,220.45L275.07,220.32L274.56,220.20L273.55,220.06L271.77,219.69L270.76,219.56L267.45,218.93L266.45,218.80L264.66,218.42L263.65,218.29L260.35,217.66L259.34,217.53L256.03,216.90L255.03,216.77L253.24,216.39L252.24,216.26L248.93,215.63L247.92,215.50L246.14,215.12L245.13,214.99L244.61,214.87L243.61,214.74L241.82,214.36L240.82,214.23L237.51,213.60L236.50,213.47L234.72,213.09L233.71,212.96L230.40,212.33L229.40,212.20L226.09,211.57L225.08,211.44L223.30,211.06L222.29,210.93L218.98,210.30L217.98,210.17L216.19,209.79L215.19,209.66L211.88,209.03L210.87,208.90L207.57,208.27L206.56,208.14L204.77,207.76L203.77,207.63L200.46,207.00L199.45,206.87L196.15,206.24L195.14,206.11L193.36,205.73L192.35,205.60L189.04,204.97L188.04,204.84L186.25,204.46L185.24,204.33L181.94,203.70L180.93,203.57L177.62,202.94L176.62,202.81L174.83,202.43L173.83,202.30L170.52,201.67L169.51,201.54L166.20,200.91L165.20,200.78L163.41,200.40L162.41,200.27L159.10,199.64L158.09,199.51L156.31,199.14L155.30,199.00L151.99,198.37L150.99,198.24L147.68,197.61L146.67,197.48L144.89,197.11L143.88,196.97L140.57,196.34L139.57,196.21L136.26,195.58L135.25,195.45L133.47,195.08L132.46,194.94L129.16,194.31L128.15,194.18L122.05,193.05L121.04,192.91L117.74,192.28L116.73,192.15L114.95,191.78L113.94,191.64L110.63,191.02L109.63,190.88L107.89,190.57L107.76,186.57L107.77,191.08L107.90,192.34L108.04,196.92L108.50,197.29L110.55,197.77L110.61,197.93L110.50,197.99L108.51,200.37L108.14,201.22L108.00,201.40L101.16,200.30L82.86,197.03L82.54,196.81L82.64,196.08L85.11,193.19L91.01,194.21L92.55,194.30L92.30,187.85L92.13,187.72L91.10,187.59L87.79,186.96L86.79,186.82L85.00,186.45L84.00,186.31L80.69,185.69L79.68,185.55L73.58,184.42L72.58,184.28L69.27,183.66L68.26,183.52L62.17,182.39L61.16,182.25L57.85,181.63L56.85,181.49L55.06,181.12L54.05,180.99L52.25,180.63L52.33,180.17L52.69,179.74L52.18,173.63L52.02,173.51L51.70,173.14L50.31,172.79L48.73,171.73L48.15,171.35L41.20,170.33L40.91,170.59L40.01,170.61L31.72,169.21L31.40,168.81L31.04,168.73L19.45,166.55L15.74,166.16L14.47,165.99L14.14,165.77L11.75,165.37L11.33,160.97L11.24,159.18L12.35,159.19z"/><path style="fill:#5a5a5a" d="M137.21,140.40L137.46,142.71L136.43,142.69L129.74,141.64L127.68,144.19L127.45,144.79L127.77,145.01L150.64,148.78L151.83,148.78L153.72,146.32L153.70,145.76L153.20,145.46L152.07,145.33L152.09,142.92L321.67,170.86L330.04,172.39L330.06,174.76L328.24,177.80L328.18,178.29L328.76,178.50L353.14,182.53L354.66,182.61L356.22,179.82L356.20,179.25L346.01,177.47L346.17,174.93L361.61,177.43L361.54,177.80L341.32,216.65L82.20,171.34L89.92,162.74L105.14,145.74L111.48,138.64L113.69,136.45z"/><path style="fill:#6a6e6e" d="M63.12,119.18L40.54,141.79L38.48,144.05L21.82,160.85L21.26,160.64L28.61,152.95L54.47,127.04L56.52,124.78L61.40,119.96L62.52,119.06z"/><path style="fill:#868c8c" d="M378.77,230.24L380.53,230.31L380.74,229.73L391.20,231.51L401.25,233.43L401.63,233.95L401.73,234.25L401.85,234.81L402.47,235.16L402.68,235.23L403.03,235.97L403.53,237.24L403.65,238.55L403.77,239.29L403.76,240.06L403.67,240.33L403.40,238.85L402.14,236.30L401.35,235.55L401.35,236.32L401.89,236.80L403.14,239.11L403.39,241.18L403.52,241.34L403.41,242.34L403.28,243.87L402.80,245.72L401.79,247.25L400.37,248.37L398.49,249.03L394.75,249.02L380.53,246.49L379.78,246.23L379.84,239.78L379.82,239.05L379.38,238.71L378.62,238.58L378.08,238.47L377.35,238.32L376.83,238.20L375.82,238.07L375.30,237.95L374.29,237.82L373.77,237.71L373.04,237.56L372.51,237.44L371.50,237.31L370.98,237.20L369.99,237.05L369.71,236.95L368.72,236.81L368.19,236.68L367.19,236.55L366.66,236.44L365.94,236.29L365.40,236.17L364.40,236.05L363.88,235.92L362.87,235.79L362.35,235.68L361.62,235.53L361.09,235.41L360.08,235.28L359.56,235.17L358.57,235.02L358.30,234.92L357.30,234.78L356.77,234.65L355.92,234.31L355.93,230.83L356.17,227.26L356.86,226.40z"/><path style="fill:#595c5c" d="M76.04,119.35L78.66,119.97L78.50,120.11L78.85,128.08L77.33,129.60L76.89,130.36L70.11,130.75L69.29,131.65L66.17,134.68L64.11,136.94L59.57,141.53L57.52,143.79L52.72,148.64L38.30,163.64L23.35,161.09L37.98,146.33L40.03,144.07L57.77,126.28L59.82,124.02L65.16,118.68L64.27,118.57L56.02,126.81L53.96,129.07L33.43,149.65L31.38,151.91L22.53,160.90L21.82,160.85L38.48,144.05L40.54,141.79L63.12,119.18L62.52,119.06L61.40,119.96L62.14,118.53L62.94,117.96L65.22,117.68z"/><path style="fill:#4a4a4a" d="M368.11,173.14L368.89,173.88L369.90,175.41L369.90,176.79L369.02,178.63L348.92,217.93L341.32,216.65L361.54,177.80L361.61,177.43L363.96,173.39L364.73,172.89L366.32,172.62z"/><path style="fill:#0000c0" d="M428.74,170.34L428.80,170.52L428.25,176.04L426.32,175.88L425.96,175.67L407.18,172.63L406.35,172.65L406.26,172.80L78.66,119.97L76.04,119.35L65.22,117.68L63.45,117.43L60.29,116.83L60.05,115.54L59.96,110.97L61.32,110.98z"/><path style="fill:#808080" d="M22.26,167.55L23.76,168.34L26.81,168.33L29.60,168.83L30.96,168.94L31.12,169.10L31.72,169.21L40.01,170.61L40.91,170.59L41.20,170.33L48.15,171.35L48.73,171.73L47.77,172.87L45.84,176.27L43.55,183.12L42.21,186.59L41.02,186.59L37.19,185.86L36.43,185.35L31.87,184.32L31.40,177.45L30.64,178.08L27.98,180.99L28.97,193.63L28.61,193.73L16.14,191.41L14.38,191.41L13.08,191.19L12.33,190.67L6.75,189.63L4.73,189.64L3.18,189.42L2.88,189.21L2.97,187.95L5.44,185.34L5.24,182.54L5.30,176.08L5.24,175.69L4.91,175.57L4.70,175.19L4.74,173.73L5.26,171.73L6.68,170.10L7.70,169.34L8.19,169.07L12.51,168.59L12.94,168.44L18.35,168.32L19.70,167.37L20.45,167.30z"/><path style="fill:#5a5a5a" d="M83.73,131.50L85.18,131.78L88.03,132.16L88.19,132.28L103.70,134.83L105.57,135.28L104.71,136.43L75.94,168.05L74.35,169.97L38.47,163.76L38.30,163.64L52.72,148.64L57.52,143.79L59.57,141.53L64.11,136.94L66.17,134.68L69.29,131.65L79.52,133.34L80.13,132.90L80.19,130.98z"/><path style="fill:#5a5a5a" d="M390.69,182.28L395.35,182.96L396.11,183.16L399.66,183.67L400.09,183.81L405.06,184.58L405.55,183.71L406.71,183.98L406.84,184.23L406.67,184.90L406.67,187.11L407.43,187.37L409.75,187.78L409.72,187.94L392.82,225.54L348.92,217.93L369.02,178.63z"/><path style="fill:#30305d" d="M90.26,130.50L89.28,131.65L88.03,132.16L85.18,131.78L83.73,131.50L85.60,131.28L86.59,129.98L87.27,129.97z"/><path style="fill:#007847" d="M391.97,234.55L395.77,234.81L396.79,235.05L398.31,235.82L399.64,237.22L399.53,237.59L400.86,239.87L401.00,242.35L400.35,243.85L400.32,244.97L400.76,245.90L400.58,246.56L400.29,246.77L398.57,246.73L397.56,245.96L395.01,245.97L393.47,245.73L391.49,244.67L390.45,243.93L388.90,241.42L388.90,238.18L389.44,237.18L389.45,236.32L389.16,235.83L389.15,234.62L389.83,233.77L390.96,233.78z"/><path style="fill:#787e7e" d="M357.58,228.64L357.45,228.78L357.33,228.22L357.47,228.11z"/><path style="fill:#878787" d="M378.58,238.73L379.13,238.83L379.82,239.05L379.84,239.78L376.80,238.60L377.32,238.46L377.85,238.58z"/><path style="fill:#737373" d="M50.31,172.79L50.92,173.90L51.68,176.19L51.80,180.67L51.67,180.84L50.93,184.15L49.65,186.93L47.91,188.99L46.03,189.91L43.81,189.89L38.47,188.89L37.45,188.14L32.12,187.10L32.16,190.25L30.87,191.75L28.97,193.63L27.98,180.99L30.64,178.08L31.40,177.45L31.87,184.32L36.43,185.35L37.19,185.86L41.02,186.59L42.21,186.59L43.55,183.12L45.84,176.27L47.77,172.87L48.73,171.73z"/><path style="fill:#363652" d="M155.46,137.37L204.69,146.00L254.18,153.86L308.99,161.73L364.56,168.83L389.16,177.72L398.40,181.18L395.41,180.99L394.66,182.27L395.35,182.96L390.69,182.28L369.02,178.63L369.90,176.79L369.90,175.41L368.89,173.88L368.11,173.14L366.32,172.62L364.73,172.89L363.96,173.39L361.61,177.43L346.17,174.93L346.01,177.47L356.20,179.25L356.22,179.82L354.66,182.61L353.14,182.53L328.76,178.50L328.18,178.29L328.24,177.80L330.06,174.76L330.04,172.39L321.67,170.86L152.09,142.92L152.07,145.33L153.20,145.46L153.70,145.76L153.72,146.32L151.83,148.78L150.64,148.78L127.77,145.01L127.45,144.79L127.68,144.19L129.74,141.64L136.43,142.69L137.46,142.71L137.21,140.40L113.69,136.45L114.12,135.43L114.12,133.80L113.11,132.26L112.92,132.17L112.07,131.54L111.32,131.27L109.69,131.26L109.05,131.63L105.57,135.28L103.70,134.83L88.19,132.28L88.03,132.16L89.28,131.65L90.26,130.50L87.27,129.97L104.89,128.99L111.31,128.99z"/><path style="fill:#868c8c" d="M19.45,166.55L31.04,168.73L30.96,168.94L29.60,168.83L26.81,168.33L23.76,168.34L22.26,167.55L20.45,167.30L19.70,167.37L18.35,168.32L12.94,168.44L13.48,167.72L15.74,166.16z"/><path style="fill:#868c8c" d="M425.96,175.67L426.32,175.88L426.85,176.63L426.98,177.46L427.52,177.93L428.52,179.98L428.80,181.43L429.04,181.79L428.78,183.46L428.65,183.46L428.51,181.77L427.01,178.70L424.98,176.92L423.43,175.94L419.37,174.92L406.26,172.80L406.35,172.65L407.18,172.63z"/><path style="fill:#868c8c" d="M51.70,173.14L52.02,173.51L51.87,173.64L52.33,180.17L52.25,180.63L51.80,180.67L51.68,176.19L50.92,173.90L50.31,172.79z"/><path style="fill:#868c8c" d="M10.39,181.97L10.31,182.10L10.30,183.05L10.66,184.16L10.23,184.81L8.29,184.81L7.53,184.05L7.51,182.34L7.95,181.75L9.07,181.39L9.56,181.02z"/><path style="fill:#868c8c" d="M396.17,240.06L395.66,241.40L396.17,243.35L395.78,244.29L395.20,244.72L393.22,244.72L392.23,244.19L391.69,243.45L391.70,241.73L392.88,239.62L393.39,239.36L395.02,239.36z"/><path style="fill:#595c5c" d="M419.37,174.92L423.43,175.94L424.98,176.92L427.01,178.70L428.51,181.77L428.65,183.46L428.60,184.74L428.33,185.49L428.20,185.61L427.88,186.77L427.02,188.29L426.05,188.71L425.94,188.11L426.44,187.32L426.49,186.88L426.74,186.88L426.71,186.33L427.19,185.55L427.19,185.10L427.76,183.90L427.75,181.77L427.13,180.43L427.04,180.12L426.78,179.45L425.99,178.98L425.55,179.14L425.44,178.18L425.16,178.19L405.16,223.98L403.48,227.40L393.22,225.69L392.82,225.54L409.72,187.94L409.75,187.78L410.79,185.90L410.75,185.59L406.84,184.23L406.71,183.98L406.96,180.48L406.50,180.11L406.69,173.39L406.26,172.80z"/><path style="fill:#27276f" d="M406.26,172.80L406.69,173.39L406.50,180.11L406.36,180.25L406.19,182.38L405.55,183.71L405.06,184.58L400.09,183.81L399.66,183.67L398.72,183.03L399.37,181.85L399.16,181.39L398.40,181.18L389.16,177.72L364.56,168.83L308.99,161.73L254.18,153.86L204.69,146.00L155.46,137.37L111.31,128.99L104.89,128.99L87.27,129.97L86.59,129.98L85.60,131.28L83.73,131.50L80.19,130.98L76.89,130.36L77.33,129.60L78.85,128.08L78.50,120.11L78.66,119.97z"/><path style="fill:#0000c0" d="M357.58,228.64L357.47,228.11L357.62,227.91L358.19,227.92L358.35,228.13L358.31,228.81z"/><path style="fill:#0000ac" d="M358.55,228.82L358.31,228.81L358.35,228.13L358.57,228.17z"/><path style="fill:#0000ac" d="M403.52,233.20L403.26,233.46L403.41,232.70z"/><path style="fill:#0000ac" d="M357.27,234.92L356.28,234.79L356.77,234.65L357.30,234.78z"/><path style="fill:#0000ac" d="M358.54,235.18L357.79,235.05L358.30,234.92L358.57,235.02z"/><path style="fill:#0000ac" d="M360.05,235.43L359.33,235.29L359.56,235.17L360.08,235.28z"/><path style="fill:#0000ac" d="M361.59,235.68L360.58,235.55L361.09,235.41L361.62,235.53z"/><path style="fill:#0000ac" d="M362.84,235.94L362.12,235.79L362.35,235.68L362.87,235.79z"/><path style="fill:#0000ac" d="M364.38,236.19L363.38,236.06L363.88,235.92L364.40,236.05z"/><path style="fill:#0000ac" d="M365.90,236.44L364.90,236.32L365.40,236.17L365.94,236.29z"/><path style="fill:#0000ac" d="M367.16,236.70L366.43,236.56L366.66,236.44L367.19,236.55z"/><path style="fill:#0000ac" d="M368.69,236.95L367.69,236.82L368.19,236.68L368.72,236.81z"/><path style="fill:#0000ac" d="M369.96,237.21L369.21,237.08L369.71,236.95L369.99,237.05z"/><path style="fill:#0000ac" d="M371.47,237.46L370.74,237.32L370.98,237.20L371.50,237.31z"/><path style="fill:#0000ac" d="M373.01,237.71L372.00,237.58L372.51,237.44L373.04,237.56z"/><path style="fill:#0000ac" d="M374.26,237.97L373.53,237.82L373.77,237.71L374.29,237.82z"/><path style="fill:#0000ac" d="M375.79,238.23L374.79,238.09L375.30,237.95L375.82,238.07z"/><path style="fill:#0000ac" d="M377.32,238.46L376.80,238.60L376.06,238.33L376.83,238.20L377.35,238.32z"/><path style="fill:#0000ac" d="M378.58,238.73L377.85,238.58L378.08,238.47L378.62,238.58z"/><path style="fill:#6a6e6e" d="M403.48,227.40L405.16,223.98L425.16,178.19L425.44,178.18L425.55,179.14L425.29,179.86L425.15,180.03L422.96,184.99L422.75,185.69L422.61,185.87L420.42,190.83L420.22,191.53L420.07,191.71L417.88,196.66L417.68,197.37L417.54,197.54L416.10,200.72L415.90,201.43L415.34,202.50L415.14,203.20L415.00,203.38L413.57,206.56L413.37,207.27L412.81,208.33L412.60,209.04L412.46,209.22L411.03,212.39L410.83,213.10L410.27,214.17L410.07,214.88L409.92,215.05L408.49,218.23L408.29,218.94L407.73,220.01L407.53,220.71L406.71,222.29L406.51,223.00L405.95,224.07L405.75,224.77L405.61,224.95L404.18,228.13L403.97,228.82L403.78,228.89z"/><path style="fill:#30305d" d="M398.40,181.18L399.16,181.39L399.37,181.85L398.72,183.03L399.66,183.67L396.11,183.16L395.35,182.96L394.66,182.27L395.41,180.99z"/><path style="fill:#787e7e" d="M31.72,169.21L31.12,169.10L30.96,168.94L31.04,168.73L31.40,168.81z"/><path style="fill:#787e7e" d="M51.87,173.64L52.02,173.51L52.18,173.63L52.69,179.74L52.33,180.17z"/><path style="fill:#787e7e" d="M427.77,177.68L428.77,179.73L428.80,181.43L428.52,179.98L427.52,177.93L426.98,177.46L426.85,176.63L426.99,176.68z"/><path style="fill:#787e7e" d="M11.11,183.04L11.11,183.64L10.66,184.16L10.30,183.05L10.31,182.10L10.39,181.97z"/><path style="fill:#787e7e" d="M8.81,183.64L8.73,183.31L9.02,183.26z"/><path style="fill:#787e7e" d="M428.60,184.74L428.65,183.46L428.78,183.46z"/><path style="fill:#787e7e" d="M357.32,233.23L357.19,233.63L357.10,232.77L357.27,232.73z"/><path style="fill:#787e7e" d="M402.16,234.43L402.47,235.16L401.85,234.81L401.73,234.25z"/><path style="fill:#787e7e" d="M402.14,236.30L403.40,238.85L403.67,240.33L403.52,241.34L403.39,241.18L403.14,239.11L401.89,236.80L401.35,236.32L401.35,235.55z"/><path style="fill:#787e7e" d="M403.78,238.03L403.65,238.55L403.53,237.24L403.65,237.25z"/><path style="fill:#787e7e" d="M396.80,240.89L396.79,242.00L396.17,243.35L395.66,241.40L396.17,240.06z"/><path style="fill:#787e7e" d="M382.83,237.94L381.55,240.74L381.56,237.68L381.80,235.89L383.09,233.28z"/><path style="fill:#787e7e" d="M403.51,242.57L403.28,243.87L403.41,242.34z"/><path style="fill:#878787" d="M61.40,119.96L56.52,124.78L54.47,127.04L28.61,152.95L21.26,160.64L20.06,160.57L42.80,137.70L44.85,135.44L61.75,118.57L62.14,118.53z"/><path style="fill:#878787" d="M15.74,166.16L13.48,167.72L13.89,166.65L14.47,165.99z"/><path style="fill:#878787" d="M406.96,180.48L406.71,183.98L405.55,183.71L406.19,182.38L406.36,180.25L406.50,180.11z"/><path style="fill:#878787" d="M427.04,188.50L404.33,241.67L403.51,242.57L403.41,242.34L403.52,241.34L403.67,240.33L403.76,240.06L404.40,238.74L404.77,237.76L405.16,237.16L405.15,236.96L405.54,235.98L405.92,235.39L405.92,235.19L406.30,234.21L406.68,233.61L406.68,233.41L407.06,232.43L407.44,231.84L407.44,231.63L407.82,230.65L408.20,230.06L408.20,229.86L408.58,228.88L408.96,228.28L408.96,228.08L409.34,227.10L409.72,226.51L409.72,226.30L410.10,225.32L410.48,224.73L410.48,224.53L411.02,223.30L411.25,222.76L411.78,221.52L412.01,220.99L412.54,219.75L412.77,219.21L413.30,217.97L413.53,217.43L414.07,216.20L414.29,215.66L414.83,214.42L415.05,213.88L415.59,212.64L415.82,212.11L416.35,210.87L416.58,210.33L417.11,209.09L417.34,208.55L417.87,207.31L418.10,206.78L418.63,205.54L418.86,205.00L419.51,203.51L419.71,202.80L420.27,201.73L420.47,201.02L421.03,199.95L421.23,199.25L421.79,198.18L421.99,197.47L422.55,196.40L422.75,195.69L423.31,194.63L423.51,193.92L424.06,192.84L424.44,192.25L424.44,192.05L424.82,191.07L425.20,190.47L425.20,190.27L425.59,189.30L425.86,188.80L426.05,188.71L427.02,188.29z"/><path style="fill:#737373" d="M4.91,175.57L5.24,175.69L5.30,176.08L5.00,175.93z"/><path style="fill:#737373" d="M13.10,180.10L14.65,178.72L15.14,185.19L14.29,185.86L13.78,185.85L14.13,184.90L14.14,182.52L13.11,180.73z"/><path style="fill:#737373" d="M11.85,182.52L11.84,183.91L11.33,182.28L11.07,181.99L10.99,181.50L11.29,181.49z"/><path style="fill:#737373" d="M36.20,184.67L36.20,179.83L36.45,178.70z"/><path style="fill:#737373" d="M3.87,187.57L4.12,187.31L4.49,187.35L4.53,187.92L4.21,187.92z"/><path style="fill:#737373" d="M15.13,189.76L14.54,189.71L14.52,189.39L14.90,189.34z"/><path style="fill:#505252" d="M426.78,179.45L427.04,180.12L426.64,180.02L403.52,233.20L403.41,232.70L403.66,229.15L403.78,228.89L403.97,228.82L404.14,228.80L404.18,228.13L405.61,224.95L405.75,224.77L406.01,224.33L405.95,224.07L406.51,223.00L406.77,222.55L406.71,222.29L407.53,220.71L407.78,220.27L407.73,220.01L408.29,218.94L408.55,218.49L408.49,218.23L409.92,215.05L410.07,214.88L410.32,214.43L410.27,214.17L410.83,213.10L411.08,212.65L411.03,212.39L412.46,209.22L412.60,209.04L412.86,208.59L412.81,208.33L413.37,207.27L413.62,206.82L413.57,206.56L415.00,203.38L415.14,203.20L415.40,202.76L415.34,202.50L415.90,201.43L416.16,200.98L416.10,200.72L417.54,197.54L417.68,197.37L417.93,196.92L417.88,196.66L420.07,191.71L420.22,191.53L420.47,191.08L420.42,190.83L422.61,185.87L422.75,185.69L423.01,185.25L422.96,184.99L425.15,180.03L425.29,179.86L425.56,179.43L425.55,179.14L425.99,178.98z"/><path style="fill:#505252" d="M427.75,181.77L427.76,183.90L427.19,185.10L427.19,185.55L426.71,186.33L426.74,186.88L426.49,186.88L426.44,187.32L425.94,188.11L426.05,188.71L425.86,188.80L425.72,188.65L425.59,189.30L425.20,190.27L424.88,190.40L424.82,191.07L424.44,192.05L424.11,192.18L424.06,192.84L423.51,193.92L423.36,193.97L423.31,194.63L422.75,195.69L422.60,195.75L422.55,196.40L421.99,197.47L421.83,197.52L421.79,198.18L421.23,199.25L421.07,199.30L421.03,199.95L420.47,201.02L420.31,201.07L420.27,201.73L419.71,202.80L419.55,202.85L419.51,203.51L418.86,205.00L418.52,205.14L418.63,205.54L418.10,206.78L417.76,206.92L417.87,207.31L417.34,208.55L417.00,208.70L417.11,209.09L416.58,210.33L416.24,210.47L416.35,210.87L415.82,212.11L415.48,212.25L415.59,212.64L415.05,213.88L414.72,214.03L414.83,214.42L414.29,215.66L413.95,215.80L414.07,216.20L413.53,217.43L413.19,217.58L413.30,217.97L412.77,219.21L412.43,219.35L412.54,219.75L412.01,220.99L411.67,221.13L411.78,221.52L411.25,222.76L410.91,222.91L411.02,223.30L410.48,224.53L410.16,224.66L410.10,225.32L409.72,226.30L409.40,226.43L409.34,227.10L408.96,228.08L408.64,228.21L408.58,228.88L408.20,229.86L407.87,229.98L407.82,230.65L407.44,231.63L407.11,231.76L407.06,232.43L406.68,233.41L406.35,233.54L406.30,234.21L405.92,235.19L405.59,235.31L405.54,235.98L405.15,236.96L404.83,237.09L404.77,237.76L404.40,238.74L403.77,239.29L403.65,238.55L403.78,238.03L427.51,183.14L427.51,182.28L427.42,182.27L403.65,237.25L403.53,237.24L403.03,235.97L413.45,211.97L427.13,180.43z"/><path style="fill:#505252" d="M403.16,233.73L402.68,235.23L402.47,235.16L402.16,234.43L402.43,233.49z"/><path style="fill:#868c8c" d="M65.22,117.68L62.94,117.96L63.45,117.43z"/><path style="fill:#868c8c" d="M428.27,186.45L427.88,186.77L428.20,185.61L428.33,185.49z"/><path style="fill:#868c8c" d="M390.99,235.30L390.28,235.46L389.99,235.18L390.11,235.02L390.73,235.03z"/><path style="fill:#868c8c" d="M382.08,238.25L381.82,238.47L381.79,237.96L382.06,237.07z"/><path style="fill:#868c8c" d="M399.62,245.47L399.62,245.78L398.96,245.51L398.96,245.20L399.32,245.16z"/><path style="fill:#595c5c" d="M425.56,179.43L425.29,179.86L425.55,179.14z"/><path style="fill:#595c5c" d="M423.01,185.25L422.75,185.69L422.96,184.99z"/><path style="fill:#595c5c" d="M420.47,191.08L420.22,191.53L420.42,190.83z"/><path style="fill:#595c5c" d="M417.93,196.92L417.68,197.37L417.88,196.66z"/><path style="fill:#595c5c" d="M416.16,200.98L415.90,201.43L416.10,200.72z"/><path style="fill:#595c5c" d="M415.40,202.76L415.14,203.20L415.34,202.50z"/><path style="fill:#595c5c" d="M413.62,206.82L413.37,207.27L413.57,206.56z"/><path style="fill:#595c5c" d="M412.86,208.59L412.60,209.04L412.81,208.33z"/><path style="fill:#595c5c" d="M411.08,212.65L410.83,213.10L411.03,212.39z"/><path style="fill:#595c5c" d="M410.32,214.43L410.07,214.88L410.27,214.17z"/><path style="fill:#595c5c" d="M408.55,218.49L408.29,218.94L408.49,218.23z"/><path style="fill:#595c5c" d="M407.78,220.27L407.53,220.71L407.73,220.01z"/><path style="fill:#595c5c" d="M406.77,222.55L406.51,223.00L406.71,222.29z"/><path style="fill:#595c5c" d="M406.01,224.33L405.75,224.77L405.95,224.07z"/><path style="fill:#595c5c" d="M404.14,228.80L403.97,228.82L404.18,228.13z"/><path style="fill:#595c5c" d="M401.73,234.25L401.63,233.95L401.69,233.50L402.43,233.49L402.16,234.43z"/><path style="fill:#006c3f" d="M390.28,235.46L389.92,235.66L389.83,235.33L389.99,235.18z"/><path style="fill:#006c3f" d="M400.13,237.56L401.10,239.62L401.00,242.35L400.86,239.87L399.53,237.59L399.64,237.22z"/><path style="fill:#006c3f" d="M399.11,238.56L400.09,240.64L400.09,242.00L399.81,242.76L399.59,240.63L398.85,239.09L398.54,238.84L398.47,238.35L398.79,238.32z"/><path style="fill:#006c3f" d="M400.86,244.95L400.76,245.90L400.32,244.97L400.35,243.85z"/><path style="fill:#5f6363" d="M427.04,180.12L427.13,180.43L413.45,211.97L403.03,235.97L402.68,235.23L403.16,233.73L403.26,233.46L403.52,233.20L426.64,180.02z"/><path style="fill:#5f6363" d="M425.86,188.80L425.59,189.30L425.72,188.65z"/><path style="fill:#5f6363" d="M425.20,190.47L424.82,191.07L424.88,190.40L425.20,190.27z"/><path style="fill:#5f6363" d="M424.44,192.25L424.06,192.84L424.11,192.18L424.44,192.05z"/><path style="fill:#5f6363" d="M423.31,194.63L423.36,193.97L423.51,193.92z"/><path style="fill:#5f6363" d="M422.55,196.40L422.60,195.75L422.75,195.69z"/><path style="fill:#5f6363" d="M421.79,198.18L421.83,197.52L421.99,197.47z"/><path style="fill:#5f6363" d="M421.03,199.95L421.07,199.30L421.23,199.25z"/><path style="fill:#5f6363" d="M420.27,201.73L420.31,201.07L420.47,201.02z"/><path style="fill:#5f6363" d="M419.51,203.51L419.55,202.85L419.71,202.80z"/><path style="fill:#5f6363" d="M418.63,205.54L418.52,205.14L418.86,205.00z"/><path style="fill:#5f6363" d="M417.87,207.31L417.76,206.92L418.10,206.78z"/><path style="fill:#5f6363" d="M417.11,209.09L417.00,208.70L417.34,208.55z"/><path style="fill:#5f6363" d="M416.35,210.87L416.24,210.47L416.58,210.33z"/><path style="fill:#5f6363" d="M415.59,212.64L415.48,212.25L415.82,212.11z"/><path style="fill:#5f6363" d="M414.83,214.42L414.72,214.03L415.05,213.88z"/><path style="fill:#5f6363" d="M414.07,216.20L413.95,215.80L414.29,215.66z"/><path style="fill:#5f6363" d="M413.30,217.97L413.19,217.58L413.53,217.43z"/><path style="fill:#5f6363" d="M412.54,219.75L412.43,219.35L412.77,219.21z"/><path style="fill:#5f6363" d="M411.78,221.52L411.67,221.13L412.01,220.99z"/><path style="fill:#5f6363" d="M411.02,223.30L410.91,222.91L411.25,222.76z"/><path style="fill:#5f6363" d="M410.48,224.73L410.10,225.32L410.16,224.66L410.48,224.53z"/><path style="fill:#5f6363" d="M409.72,226.51L409.34,227.10L409.40,226.43L409.72,226.30z"/><path style="fill:#5f6363" d="M408.96,228.28L408.58,228.88L408.64,228.21L408.96,228.08z"/><path style="fill:#5f6363" d="M408.20,230.06L407.82,230.65L407.87,229.98L408.20,229.86z"/><path style="fill:#5f6363" d="M407.44,231.84L407.06,232.43L407.11,231.76L407.44,231.63z"/><path style="fill:#5f6363" d="M406.68,233.61L406.30,234.21L406.35,233.54L406.68,233.41z"/><path style="fill:#5f6363" d="M405.92,235.39L405.54,235.98L405.59,235.31L405.92,235.19z"/><path style="fill:#5f6363" d="M405.16,237.16L404.77,237.76L404.83,237.09L405.15,236.96z"/><path style="fill:#5f6363" d="M427.51,183.14L403.78,238.03L403.65,237.25L427.42,182.27L427.51,182.28z"/><path style="fill:#5f6363" d="M403.76,240.06L403.77,239.29L404.40,238.74z"/><path style="fill:#4f5151" d="M112.07,131.54L112.92,132.17L111.23,133.81L79.74,168.81L78.17,170.72L74.35,169.97L75.94,168.05L104.71,136.43L105.57,135.28L109.05,131.63L109.69,131.26L111.32,131.27z"/><path style="fill:#4a4a4a" d="M80.19,130.98L80.13,132.90L79.52,133.34L69.29,131.65L70.11,130.75L76.89,130.36z"/><path style="fill:#4a4a4a" d="M114.12,133.80L114.12,135.43L113.69,136.45L111.48,138.64L105.14,145.74L89.92,162.74L82.20,171.34L78.17,170.72L79.74,168.81L111.23,133.81L112.92,132.17L113.11,132.26z"/><path style="fill:#4a4a4a" d="M410.75,185.59L410.79,185.90L409.75,187.78L407.43,187.37L406.67,187.11L406.67,184.90L406.84,184.23z"/><path style="fill:#0000c0" d="M379.02,231.76L379.56,232.26L378.01,232.27L358.55,228.82L358.57,228.17L359.48,228.21z"/><path style="fill:#0000c0" d="M378.81,236.30L379.07,236.57L378.95,237.10L357.45,233.30L357.32,233.23L357.27,232.73L358.72,232.78z"/><path style="fill:#0000c0" d="M358.30,234.92L357.79,235.05L357.27,234.92L357.30,234.78z"/><path style="fill:#0000c0" d="M359.56,235.17L359.33,235.29L358.54,235.18L358.57,235.02z"/><path style="fill:#0000c0" d="M361.09,235.41L360.58,235.55L360.05,235.43L360.08,235.28z"/><path style="fill:#0000c0" d="M362.35,235.68L362.12,235.79L361.59,235.68L361.62,235.53z"/><path style="fill:#0000c0" d="M363.88,235.92L363.38,236.06L362.84,235.94L362.87,235.79z"/><path style="fill:#0000c0" d="M365.40,236.17L364.90,236.32L364.38,236.19L364.40,236.05z"/><path style="fill:#0000c0" d="M366.66,236.44L366.43,236.56L365.90,236.44L365.94,236.29z"/><path style="fill:#0000c0" d="M368.19,236.68L367.69,236.82L367.16,236.70L367.19,236.55z"/><path style="fill:#0000c0" d="M369.71,236.95L369.21,237.08L368.69,236.95L368.72,236.81z"/><path style="fill:#0000c0" d="M370.98,237.20L370.74,237.32L369.96,237.21L369.99,237.05z"/><path style="fill:#0000c0" d="M372.51,237.44L372.00,237.58L371.47,237.46L371.50,237.31z"/><path style="fill:#0000c0" d="M373.77,237.71L373.53,237.82L373.01,237.71L373.04,237.56z"/><path style="fill:#0000c0" d="M375.30,237.95L374.79,238.09L374.26,237.97L374.29,237.82z"/><path style="fill:#0000c0" d="M376.83,238.20L376.06,238.33L375.79,238.23L375.82,238.07z"/><path style="fill:#0000c0" d="M378.08,238.47L377.85,238.58L377.32,238.46L377.35,238.32z"/><path style="fill:#0000c0" d="M379.38,238.71L379.13,238.83L378.58,238.73L378.62,238.58z"/><path style="fill:#0000ac" d="M59.34,174.05L59.55,176.29L59.28,175.71L59.28,173.89z"/><path style="fill:#0000ac" d="M87.47,178.93L87.46,181.37L87.10,178.72z"/><path style="fill:#0000ac" d="M107.89,190.57L107.77,191.08L107.76,186.57z"/><path style="fill:#0000ac" d="M85.70,195.55L85.10,195.59L85.33,195.18L85.72,195.22z"/><path style="fill:#0000ac" d="M108.04,196.92L107.90,192.34L108.00,192.43z"/><path style="fill:#0000ac" d="M108.33,198.42L108.67,198.51L109.06,198.28L109.06,198.57L108.44,199.28L107.42,199.30L107.99,199.10L108.25,198.29z"/><path style="fill:#0000ac" d="M110.59,198.34L109.20,200.04L108.14,201.22L108.51,200.37L110.50,197.99L110.61,197.93z"/><path style="fill:#0000ac" d="M315.26,227.27L315.92,227.56L314.96,227.62L315.07,224.38z"/><path style="fill:#0000ac" d="M319.65,237.68L319.31,237.68L319.31,237.34L319.65,237.34z"/><path style="fill:#0000ac" d="M379.82,239.05L379.13,238.83L379.38,238.71z"/><path style="fill:#0000ac" d="M324.34,240.31L324.44,239.44L324.90,238.87L325.06,238.84z"/><path style="fill:#6a6e6e" d="M65.16,118.68L59.82,124.02L57.77,126.28L40.03,144.07L37.98,146.33L23.35,161.09L22.53,160.90L31.38,151.91L33.43,149.65L53.96,129.07L56.02,126.81L64.27,118.57z"/><path style="fill:#6a6e6e" d="M401.25,233.43L401.69,233.50L401.63,233.95z"/><g id="Actor_.0"><g style="stroke:#000000;stroke-width:0.176;stroke-opacity:0.39"><path d="M13.65,166.94L14.67,165.92"/><path d="M60.15,120.09L59.43,121.91"/><path d="M61.68,119.76L62.13,119.32L62.46,119.19"/><path d="M63.11,118.93L63.90,118.63L64.17,118.62"/><path d="M345.00,163.75L65.94,118.62L65.21,118.62"/><path d="M80.45,131.04L69.14,131.60"/><path d="M345.77,167.27L311.20,162.87L259.28,155.47L208.57,147.45L158.98,138.84L110.47,129.64L109.71,129.59L90.32,130.55"/><path d="M347.05,167.43L364.39,169.64L365.28,169.86L395.33,180.81"/><path d="M346.29,163.96L406.52,173.70"/><path d="M400.99,233.40L401.03,233.44"/><path d="M404.16,241.87L404.77,239.59L404.51,237.15L403.41,234.80L402.25,233.52"/><path d="M402.63,235.27L402.69,235.39"/><path d="M408.52,185.61L405.17,184.39"/><path d="M407.79,173.90L420.90,176.02L423.14,176.71L425.16,178.00"/><path d="M410.48,186.32L409.84,186.09"/><path d="M428.06,186.02L426.73,187.85L426.00,188.33"/><path d="M425.20,178.05L426.68,179.77"/><path d="M426.74,179.89L427.53,181.63L427.55,181.79"/><path d="M427.21,185.63L427.51,184.50"/><path d="M427.63,182.70L427.73,183.69L427.67,183.90"/></g><g style="stroke:#000000;stroke-width:0.529;stroke-opacity:0.39"><path d="M13.28,167.91L13.65,166.94L14.66,165.92"/><path d="M15.14,166.74L15.80,166.12"/><path d="M47.56,132.78L19.99,160.55"/><path d="M344.82,162.91L65.90,117.85L63.60,117.86L61.61,118.64L48.48,131.84"/><path d="M76.93,130.44L69.93,130.79"/><path d="M345.59,166.46L311.21,162.09L259.29,154.70L208.59,146.69L159.01,138.09L110.50,128.90L109.34,128.82L86.66,129.95"/><path d="M346.88,166.63L364.39,168.85L365.52,169.12L399.46,181.49"/><path d="M406.38,172.86L346.11,163.12"/><path d="M379.87,239.82L375.96,238.36"/><path d="M400.95,233.35L400.81,233.26"/><path d="M401.04,233.45L402.63,235.27"/><path d="M403.46,242.82L404.16,241.87L428.06,186.02L428.65,183.84L428.43,181.53L427.41,179.30L425.72,177.39L423.49,175.98L420.96,175.21L407.65,173.06"/><path d="M403.55,240.75L427.21,185.63L427.05,185.84"/><path d="M403.51,240.44L403.53,240.38"/><path d="M402.69,235.40L403.55,237.25L403.57,237.42"/><path d="M403.61,237.82L403.79,239.42L403.73,239.63"/><path d="M408.37,184.73L405.49,183.68"/><path d="M409.69,185.21L410.80,185.62"/></g></g><g id="Actor_.1"><g style="stroke:#000000;stroke-width:0.176"><path d="M397.48,245.09L397.48,245.09L397.12,245.56L397.11,245.57L397.05,245.61L395.54,245.89L393.96,245.75L392.43,245.20L391.09,244.29L390.07,243.11L389.45,241.74L389.30,240.37"/><path d="M388.80,238.48L388.80,238.49"/><path d="M388.78,238.66L388.79,238.59"/><path d="M389.49,236.45L389.48,236.44"/><path d="M389.54,236.97L389.55,236.94"/><path d="M390.98,235.47L391.00,235.58L390.96,235.75L390.86,235.89L390.71,235.99L390.53,236.04L390.33,236.03L390.13,235.96L389.96,235.84L389.84,235.68L389.78,235.51L389.78,235.33L389.85,235.17L389.98,235.05L390.01,235.03"/><path d="M399.72,242.93L399.47,243.49L398.68,244.61L398.62,244.65L397.96,244.80L397.48,245.09"/><path d="M398.87,245.31L398.84,245.32L398.71,245.44L398.64,245.60L398.64,245.77L398.70,245.95L398.82,246.10L398.99,246.22L399.18,246.29L399.38,246.31L399.57,246.26L399.72,246.16L399.82,246.02L399.86,245.85L399.84,245.73"/><path d="M400.13,244.22L400.24,243.98L400.33,243.82"/></g><g style="stroke:#000000;stroke-width:0.529"><path d="M388.76,240.78L388.88,241.43L389.58,242.87L390.67,244.13L392.06,245.13L393.66,245.80L395.34,246.09L396.98,245.98L397.29,245.96L397.60,246.03L397.88,246.18L398.45,246.71L398.88,246.93L399.34,247.02L399.80,246.99L400.20,246.83L400.51,246.56L400.52,246.55L400.70,246.19L400.89,245.74L400.93,245.33L400.81,244.92L400.39,244.30L400.31,244.03L400.33,243.82L400.89,242.70L401.13,242.07L401.26,240.43L400.81,238.75L399.81,237.21L398.38,235.93L396.63,235.05L394.74,234.65L392.57,234.77L392.26,234.70L391.99,234.55L391.41,234.02L390.98,233.80L390.52,233.71L390.06,233.74L389.66,233.90L389.35,234.18L389.18,234.53L388.97,234.98L388.94,235.40L389.06,235.81L389.48,236.44L389.56,236.71L389.55,236.94L388.80,238.48"/><path d="M388.69,239.31L388.78,238.66"/><path d="M388.79,238.59L388.80,238.49"/><path d="M390.19,235.34L390.06,235.18L390.01,235.03L390.15,234.97L390.34,234.96L390.54,235.00L390.73,235.10L390.87,235.24L390.97,235.40L390.98,235.47L390.94,235.50L390.75,235.54L390.55,235.53L390.35,235.46L390.19,235.34"/><path d="M398.87,245.31L399.01,245.25L399.20,245.23L399.40,245.27L399.59,245.37L399.73,245.51L399.83,245.68L399.84,245.73L399.79,245.76L399.60,245.81L399.40,245.79L399.20,245.72L399.04,245.60L398.92,245.45L398.87,245.31"/></g></g><g id="Actor_.2"><g style="stroke:#000000;stroke-width:0.176"><path d="M328.18,177.85L348.84,181.29"/><path d="M354.56,182.82L354.59,182.25L350.13,181.51"/><path d="M350.13,179.61L350.12,179.64L350.16,179.73L350.25,179.81L350.38,179.87L350.54,179.91L353.19,180.35L353.37,180.36L353.54,180.35L353.69,180.31L353.81,180.25L353.88,180.18L353.89,180.09L353.85,180.01L353.76,179.93L353.63,179.87L353.47,179.83L350.82,179.39L350.65,179.37L350.47,179.38L350.32,179.42L350.21,179.48L350.14,179.56L350.13,179.61"/><path d="M354.59,182.25L356.20,179.19"/></g><g style="stroke:#000000;stroke-width:0.529"><path d="M348.97,181.89L328.16,178.42L328.18,177.85L329.89,174.83L330.01,174.85"/><path d="M348.08,177.85L345.91,177.49"/><path d="M350.26,182.10L354.56,182.82L356.17,179.76L356.20,179.19L349.38,178.06"/></g></g><g id="Actor_.3"><g style="stroke:#000000;stroke-width:0.176"><path d="M11.11,159.36L205.81,193.36"/><path d="M59.25,176.57L59.08,173.74L59.38,173.80"/><path d="M87.21,181.51L87.07,178.67L87.36,178.72"/><path d="M129.40,188.96L129.30,186.11L129.54,186.15"/><path d="M203.68,202.09L203.68,201.12"/><path d="M207.05,193.58L403.66,227.92L403.23,233.69"/><path d="M280.55,215.68L280.63,212.75L280.80,212.78"/><path d="M326.64,223.82L326.77,220.87L326.92,220.90"/><path d="M358.29,228.04L358.24,228.83"/><path d="M358.51,226.46L358.38,226.44L358.36,226.69"/><path d="M379.70,230.19L379.74,229.55L379.88,229.58"/><path d="M403.66,227.92L403.81,227.56"/></g><g style="stroke:#000000;stroke-width:0.529"><path d="M17.39,166.40L11.63,165.39L11.11,159.36L11.41,159.06L205.94,193.02"/><path d="M40.92,170.55L31.07,168.81"/><path d="M202.04,201.80L193.81,200.35L193.79,197.46L129.57,186.15L129.66,188.65L129.40,188.96L119.86,187.28L119.75,184.42L87.36,178.72L87.48,181.20L87.21,181.51L77.85,179.85L77.70,177.02L59.38,173.80L59.51,176.29L59.25,176.57L54.21,175.68L54.03,172.85L49.32,172.02"/><path d="M203.28,202.02L203.68,202.09L203.92,201.76L203.91,200.61"/><path d="M355.97,229.00L347.64,227.53L347.79,224.58L326.93,220.90L326.82,223.47L326.64,223.82L316.21,221.98L316.33,219.03L280.82,212.78L280.75,215.34L280.55,215.68L270.34,213.87L270.40,210.95L204.47,199.34"/><path d="M358.52,226.72L358.53,226.47L379.70,230.19L379.86,229.84L379.88,229.58L403.23,233.69L403.39,233.33L403.81,227.56L207.20,193.24"/><path d="M358.44,228.07L358.40,228.86"/></g></g><g id="Actor_.4"><g style="stroke:#000000;stroke-width:0.176"><path d="M379.22,237.03L379.23,237.12L379.18,237.31L379.06,237.48L378.88,237.60L378.67,237.65L378.43,237.64L357.64,233.95L357.41,233.87L357.20,233.74L357.05,233.57L356.95,233.37L356.92,233.16L356.97,232.96L357.09,232.79L357.17,232.74"/><path d="M356.10,227.30L356.22,227.13L356.40,227.01L356.62,226.95L356.86,226.96L379.75,230.99L379.99,231.00L380.21,230.94L380.39,230.82L380.52,230.65L380.57,230.45L380.58,230.36"/><path d="M379.52,232.37L379.53,232.46L379.48,232.65L379.36,232.82L379.18,232.94L378.97,232.99L378.73,232.98L357.90,229.30L357.67,229.23L357.46,229.10L357.30,228.92L357.21,228.72L357.18,228.51L357.23,228.31L357.35,228.15L357.43,228.09"/><path d="M381.24,241.46L382.84,237.97L383.17,232.88L381.71,232.63L380.11,236.10L381.58,236.36L381.24,241.46L379.87,241.22"/><path d="M380.11,236.10L379.91,239.12"/><path d="M381.97,238.43L381.89,238.63L381.82,238.72L381.77,238.71L381.73,238.58L381.72,238.35L381.74,238.06L381.80,237.68L381.85,237.38L381.93,237.07L382.01,236.83L382.09,236.68L382.15,236.64L382.20,236.72L382.22,236.89L382.21,237.16L382.18,237.48L382.13,237.82L382.06,238.15L381.97,238.43"/><path d="M381.58,236.36L383.17,232.88"/><path d="M402.68,246.06L403.18,244.16L403.37,241.62L403.13,239.32L402.09,237.09L400.36,235.16L398.10,233.72L395.55,232.91L380.58,230.28"/></g><g style="stroke:#000000;stroke-width:0.529"><path d="M380.99,246.60L395.38,249.18L397.67,249.28L399.77,248.75L401.50,247.64L402.68,246.06L402.89,245.56L403.40,243.66L403.59,241.12L403.34,238.82L402.31,236.59L400.58,234.66L398.32,233.22L395.77,232.42L380.81,229.78L380.58,230.28L380.58,230.36L380.44,230.45L380.22,230.51L379.97,230.50L357.10,226.47L356.86,226.46L356.64,226.52L356.46,226.64L356.34,226.81L356.10,227.30L356.05,227.50L355.71,233.75L355.73,233.96L355.83,234.17L355.99,234.35L356.20,234.48L356.44,234.56L379.25,238.62L379.49,238.69L379.70,238.83L379.86,239.01L379.91,239.12L379.78,241.20L379.87,241.22L379.58,245.67L379.60,245.88L379.69,246.06"/><path d="M357.18,232.83L357.19,232.87L357.29,233.08L357.44,233.25L357.65,233.38L357.88,233.46L378.66,237.15L378.89,237.16L379.11,237.10L379.22,237.03L379.21,236.91L379.11,236.70L378.95,236.53L378.75,236.40L378.52,236.32L357.71,232.63L357.48,232.62L357.26,232.68L357.17,232.74L357.18,232.83"/><path d="M357.97,227.98L378.82,231.66L379.05,231.73L379.25,231.86L379.41,232.04L379.51,232.24L379.52,232.37L379.41,232.44L379.20,232.50L378.96,232.49L358.14,228.81L357.91,228.74L357.70,228.61L357.55,228.43L357.45,228.23L357.43,228.09L357.52,228.03L357.74,227.97L357.97,227.98"/></g></g><g id="Actor_.5"><g style="stroke:#000000;stroke-width:0.176"><path d="M298.07,220.49L315.02,223.50L315.16,223.25"/><path d="M314.57,236.67L314.54,236.63L314.52,236.54L314.52,236.42L315.02,223.50"/><path d="M315.57,234.48L314.72,236.05L314.70,236.08L314.69,236.08L314.67,236.06L314.67,236.03L314.67,235.97L314.73,234.33"/></g><g style="stroke:#000000;stroke-width:0.529"><path d="M298.94,233.85L297.70,233.63L297.67,233.59L297.66,233.51L297.65,233.39L298.07,220.49L298.21,220.25L315.16,223.25L314.73,234.33L315.57,234.48L315.55,234.91L314.64,236.60L314.60,236.66L314.57,236.67L298.94,233.85"/></g></g><g id="Actor_.6"><g style="stroke:#000000;stroke-width:0.176"><path d="M329.14,177.47L344.96,180.11L344.93,180.52"/><path d="M344.96,180.11L345.69,178.74L345.71,178.70L345.73,178.65L345.74,178.58L345.75,178.52L345.76,178.45L345.93,174.91"/></g><g style="stroke:#000000;stroke-width:0.529"><path d="M346.04,174.93L345.86,178.42L345.85,178.56L345.83,178.71L345.80,178.85L345.76,178.96L345.73,179.05L344.93,180.52L329.12,177.88L329.14,177.47L329.90,176.12L329.92,176.08L329.93,176.02L329.95,175.96L329.96,175.89L329.96,175.83L330.12,172.30"/></g></g><g id="Actor_.7"><g style="stroke:#000000;stroke-width:0.176"><path d="M82.35,196.36L107.94,200.97L107.97,201.55"/><path d="M85.53,195.72L85.37,195.70L85.22,195.65L85.11,195.59L85.05,195.51L85.04,195.42L85.08,195.33L85.18,195.25L85.32,195.19L85.49,195.15L85.67,195.14L85.84,195.15L88.39,195.61L88.54,195.65L88.65,195.72L88.72,195.80L88.73,195.89L88.68,195.98L88.58,196.06L88.44,196.12L88.26,196.16"/><path d="M107.94,200.97L110.60,197.77"/></g><g style="stroke:#000000;stroke-width:0.529"><path d="M92.55,194.52L85.10,193.19L82.35,196.36L82.38,196.93L107.97,201.55L110.63,198.34L110.60,197.77L109.49,197.56"/><path d="M85.87,195.73L88.26,196.16L88.09,196.17L87.92,196.15L85.53,195.72L85.70,195.71L85.87,195.73"/></g></g><g id="Actor_.8"><g style="stroke:#000000;stroke-width:0.176"><path d="M92.04,184.01L107.48,186.74L107.67,186.51"/><path d="M108.11,199.50L108.07,199.46L108.03,199.37L108.02,199.26L107.48,186.74"/><path d="M109.49,197.49L108.30,198.92L108.27,198.94L108.24,198.95L108.22,198.93L108.21,198.89L108.20,198.83L108.13,197.25"/></g><g style="stroke:#000000;stroke-width:0.529"><path d="M93.00,196.78L92.74,196.73L92.70,196.69L92.66,196.61L92.65,196.49L92.04,184.01L92.23,183.78L107.67,186.51L108.13,197.25L109.49,197.49L109.50,197.91L108.23,199.44L108.17,199.50L108.11,199.50L93.00,196.78"/></g></g><g id="Actor_.9"><g style="stroke:#000000;stroke-width:0.176"><path d="M76.92,130.06L106.03,134.87"/><path d="M78.44,120.02L344.92,163.40"/><path d="M347.40,174.74L113.69,136.14"/><path d="M346.22,163.61L406.47,173.42"/><path d="M361.84,177.12L348.70,174.95"/><path d="M405.03,184.68L405.06,184.26L369.11,178.32"/><path d="M405.06,184.26L406.14,181.84L406.68,174.66"/></g><g style="stroke:#000000;stroke-width:0.529"><path d="M344.87,163.15L78.62,119.83L78.44,120.02L78.85,127.91L78.78,128.12L76.92,130.06L76.94,130.46L105.72,135.22"/><path d="M347.50,175.17L113.43,136.49"/><path d="M406.43,173.17L346.16,163.36"/><path d="M361.64,177.51L348.79,175.39"/><path d="M406.74,175.02L406.21,181.97L406.11,182.32L405.03,184.68L368.91,178.71"/></g></g><g id="Actor_.10"><g style="stroke:#000000;stroke-width:0.176"><path d="M21.54,167.47L17.96,166.84L15.81,166.79L13.93,167.42L12.53,168.62"/><path d="M25.79,168.22L22.19,167.59"/><path d="M31.06,168.66L30.68,169.05"/><path d="M52.10,180.56L52.19,180.40L52.21,180.20L51.82,174.25L51.78,174.04L51.67,173.84L51.51,173.67L51.32,173.55L51.11,173.48L50.60,173.39"/></g><g style="stroke:#000000;stroke-width:0.529"><path d="M31.18,169.13L31.12,169.02L31.07,168.82L31.06,168.66L18.37,166.42L16.22,166.38L14.34,167.00L12.91,168.23L12.53,168.62"/><path d="M51.61,180.73L51.78,180.73L51.96,180.67L52.10,180.56L52.50,180.13L52.58,179.97L52.60,179.78L52.22,173.82L52.17,173.61L52.07,173.42L51.91,173.25L51.72,173.12L51.51,173.06L50.19,172.82"/></g></g><g id="Actor_.11"><g style="stroke:#000000;stroke-width:0.176"><path d="M296.00,234.89L324.21,239.98L324.19,240.58"/><path d="M319.59,237.87L319.46,237.84L319.32,237.76L319.23,237.67L319.19,237.57L319.21,237.48L319.29,237.39L319.42,237.32L319.58,237.28L319.77,237.26L319.96,237.28L322.78,237.79L322.96,237.84L323.10,237.91L323.19,238.00L323.23,238.10L323.21,238.20L323.13,238.28L323.00,238.35L322.84,238.40L322.81,238.40"/><path d="M324.21,239.98L326.07,236.45"/></g><g style="stroke:#000000;stroke-width:0.529"><path d="M297.70,231.88L296.00,234.89L295.98,235.49L324.19,240.58L326.05,237.04L326.07,236.45L315.57,234.56"/><path d="M319.63,237.88L319.59,237.87L319.74,237.86L319.93,237.88L322.76,238.39L322.81,238.40L322.65,238.41L322.46,238.39L319.63,237.88"/></g></g><g id="Actor_.12"><g style="stroke:#000000;stroke-width:0.176"><path d="M136.27,145.37L150.77,147.79L150.78,148.19"/><path d="M150.77,147.79L151.81,146.54L151.83,146.50L151.85,146.45L151.87,146.39L151.88,146.32L151.88,146.26L151.79,142.83"/></g><g style="stroke:#000000;stroke-width:0.529"><path d="M151.96,142.86L152.05,146.25L152.04,146.38L152.02,146.52L151.99,146.65L151.94,146.76L151.89,146.84L150.78,148.19L136.28,145.77L136.27,145.37L137.33,144.13L137.35,144.10L137.37,144.04L137.39,143.98L137.40,143.92L137.40,143.86L137.29,140.44"/></g></g><g id="Actor_.13"><g style="stroke:#000000;stroke-width:0.176"><path d="M59.69,111.07L343.50,156.87"/><path d="M104.91,124.11L105.17,124.15"/><path d="M131.33,128.41L131.58,128.45"/><path d="M171.15,134.89L171.38,134.93"/><path d="M241.15,146.28L241.32,146.31"/><path d="M313.41,158.03L313.55,158.06"/><path d="M344.79,157.08L405.37,166.85"/><path d="M356.65,165.10L356.78,165.09"/><path d="M386.25,169.90L386.36,169.91"/><path d="M406.19,173.13L406.23,172.53L406.31,172.54"/><path d="M428.19,176.10L428.64,170.61L406.64,167.06"/><path d="M428.64,170.61L428.77,170.30"/></g><g style="stroke:#000000;stroke-width:0.529"><path d="M100.14,123.33L60.04,116.81L59.69,111.07L59.96,110.81L343.42,156.53"/><path d="M122.49,126.97L105.17,124.15"/><path d="M131.58,128.45L162.15,133.42"/><path d="M231.85,144.76L171.38,134.93"/><path d="M303.81,156.47L241.34,146.31"/><path d="M313.57,158.06L344.87,163.15"/><path d="M405.31,166.52L344.71,156.74"/><path d="M346.87,163.48L346.16,163.36"/><path d="M376.34,168.30L356.79,165.09"/><path d="M386.37,169.91L406.19,173.13L406.33,172.82L406.34,172.65"/><path d="M406.58,166.72L428.77,170.30L428.32,175.79L428.19,176.10L407.59,172.75"/></g></g><g id="Actor_.14"><g style="stroke:#000000;stroke-width:0.176"><path d="M379.86,229.84L380.59,229.97L380.57,230.36"/><path d="M380.70,229.72L380.59,229.97"/></g><g style="stroke:#000000;stroke-width:0.529"><path d="M31.59,169.20L31.57,168.90"/><path d="M92.23,187.86L51.93,180.69"/><path d="M199.73,206.99L107.85,190.64"/><path d="M297.94,224.47L200.96,207.21"/><path d="M379.89,239.06L315.00,227.51"/><path d="M380.71,229.73L380.69,230.04"/></g></g><g id="Actor_.15"><g style="stroke:#000000;stroke-width:0.176"><path d="M127.37,144.41L151.50,148.43L151.51,148.98"/><path d="M130.28,143.03L130.37,142.97L130.50,142.91L130.65,142.88L130.82,142.87L130.98,142.88L133.38,143.28L133.52,143.32L133.63,143.37L133.70,143.44L133.71,143.52L133.67,143.60L133.58,143.67L133.46,143.72L133.29,143.76L133.13,143.77L132.97,143.75L130.57,143.35L130.43,143.32L130.32,143.26L130.26,143.19L130.24,143.11L130.28,143.03"/><path d="M151.50,148.43L153.81,145.63"/></g><g style="stroke:#000000;stroke-width:0.529"><path d="M137.37,142.91L129.77,141.64L127.37,144.41L127.39,144.96L151.51,148.98L153.83,146.18L153.81,145.63L152.03,145.34"/></g></g><g id="Actor_.16"><g style="stroke:#000000;stroke-width:0.176"/><g style="stroke:#000000;stroke-width:0.529"><path d="M352.04,195.95L341.28,216.64"/><path d="M352.92,194.27L363.27,174.37L363.80,173.54L364.62,172.95L365.65,172.66L366.77,172.71L367.86,173.08L368.36,173.38L368.80,173.74L369.50,174.63L369.86,175.62L369.87,176.63L369.50,177.55L348.89,217.97"/></g></g><g id="Actor_.17"><g style="stroke:#000000;stroke-width:0.176"><path d="M424.85,175.55L426.03,176.30L427.63,178.10L428.58,180.20L428.79,182.38L428.59,184.80L428.10,186.61"/></g><g style="stroke:#000000;stroke-width:0.529"><path d="M406.38,179.94L406.48,179.98L406.68,180.10L406.83,180.27L406.92,180.47L406.94,180.67L406.50,186.60L406.52,186.80L406.61,186.99L406.76,187.16L406.95,187.29L407.17,187.35L408.86,187.63"/><path d="M426.01,175.74L426.21,175.87L427.81,177.67L428.76,179.77L428.97,181.95L428.77,184.37L428.28,186.17L428.10,186.61L426.98,188.12L425.73,188.96"/></g></g><g id="Actor_.18"><g style="stroke:#000000;stroke-width:0.176"><path d="M10.61,185.10L11.17,184.76L11.53,184.23L11.66,183.56L11.54,182.83L11.27,182.29L11.18,182.11L10.63,181.49L9.94,181.02L9.19,180.77L8.47,180.76L7.83,180.99L7.37,181.43"/><path d="M8.20,181.57L8.33,181.47L8.35,181.46"/><path d="M8.83,181.34L9.16,181.00L8.80,180.93L8.83,181.34L8.81,181.34"/><path d="M9.16,181.00L9.63,181.08L9.66,181.49L9.66,181.49"/><path d="M10.79,184.13L10.71,184.26L10.65,184.30"/><path d="M11.03,183.43L11.04,183.34L11.01,183.19"/><path d="M10.99,183.70L10.97,183.85L10.93,183.92"/><path d="M10.29,181.90L10.20,181.80L10.06,181.72"/><path d="M10.95,182.89L10.93,182.79L10.85,182.64"/><path d="M10.70,182.36L10.63,182.25L10.52,182.13"/></g><g style="stroke:#000000;stroke-width:0.529"><path d="M7.62,181.13L7.42,181.34L7.37,181.43L7.12,182.04L7.12,182.75L7.22,183.05"/><path d="M11.46,184.50L11.25,184.71L10.69,185.05L10.61,185.10L9.92,185.21L9.32,185.10"/></g></g><g id="Actor_.19"><g style="stroke:#000000;stroke-width:0.176"><path d="M109.50,131.35L109.50,131.35"/></g><g style="stroke:#000000;stroke-width:0.529"><path d="M82.16,171.41L113.49,136.43L113.98,135.70L114.16,134.80L114.02,133.82L113.55,132.88L112.83,132.07L111.92,131.49L110.92,131.20L109.95,131.22L109.50,131.35L109.10,131.56L108.47,132.18L74.13,170.01"/></g></g><g id="Actor_.20"><g style="stroke:#000000;stroke-width:0.176"><path d="M14.53,178.54L27.89,180.93L31.30,177.37L32.00,187.12"/><path d="M16.46,176.55L17.98,175.00L31.30,177.37"/><path d="M20.54,175.46L21.15,173.19L22.20,170.81L23.45,169.08L22.97,169.49L21.80,171.11L20.82,173.33L20.26,175.41"/><path d="M23.45,169.08L24.20,168.57"/><path d="M28.84,193.79L27.89,180.93"/><path d="M36.54,186.35L36.20,185.47L35.92,183.05L36.06,180.25L36.61,177.38L37.51,174.75L38.66,172.65L39.29,171.87L39.58,171.62L38.44,173.23L37.32,175.82L36.52,178.83L36.15,181.94L36.22,184.79L36.65,186.64L36.54,186.35"/><path d="M37.37,188.09L36.75,187.09L36.65,186.64"/><path d="M39.58,171.62L39.77,171.35L40.60,170.77"/></g><g style="stroke:#000000;stroke-width:0.529"><path d="M47.31,189.39L47.14,189.54L46.25,189.84L45.36,190.12L44.64,190.09L38.87,189.08L37.67,188.57L37.37,188.09L32.00,187.12L32.22,190.19L28.84,193.79L15.54,191.36L14.53,178.54L16.46,176.55L16.64,175.38L16.96,173.97L17.37,172.62L17.85,171.37L17.89,171.30L18.41,170.24L19.01,169.28L19.65,168.50L20.30,167.93L20.95,167.58L21.58,167.47L22.18,167.58L24.20,168.57L24.76,168.19L25.98,168.23L40.60,170.77L41.15,170.38L42.44,170.43L47.80,171.32L48.48,171.54L49.29,172.00L50.00,172.55L50.63,173.44L51.03,174.15L51.46,175.33L51.71,176.83L51.77,178.55L51.76,178.89L51.64,180.54L51.52,181.28L51.36,182.22L50.93,183.85L50.20,185.78L49.46,187.19L48.65,188.28L48.26,188.60"/></g></g><g id="Actor_.21"><g style="stroke:#000000;stroke-width:0.176"><path d="M63.91,117.44L63.26,117.66L61.88,118.86"/><path d="M79.70,133.21L79.78,133.06L79.80,132.87L79.70,130.92"/></g><g style="stroke:#000000;stroke-width:0.529"><path d="M63.53,117.38L62.24,118.50L61.88,118.86L61.28,120.04"/><path d="M80.07,130.98L80.15,132.50L80.13,132.68L80.05,132.84L79.70,133.21L79.57,133.32L79.40,133.38L79.21,133.38L69.05,131.69"/></g></g><g id="Actor_.22"><g style="stroke:#000000;stroke-width:0.176"><path d="M9.16,181.00L8.34,181.84L7.86,181.96L7.48,182.25"/><path d="M8.67,183.68L8.60,183.58L8.55,183.47L8.54,183.36L8.57,183.27L8.63,183.20L8.72,183.16L8.83,183.15L8.94,183.18L9.04,183.24L9.13,183.33L9.19,183.43L9.21,183.54L9.21,183.64L9.16,183.72L9.08,183.78L8.99,183.81L8.88,183.80L8.77,183.75L8.67,183.68"/><path d="M10.11,184.87L10.41,184.51L10.55,184.04L10.50,183.51L10.28,182.97L9.91,182.49L9.43,182.12L9.17,181.99L9.19,182.26L8.36,182.11L9.41,181.04"/><path d="M9.17,181.99L9.66,181.49"/><path d="M8.34,181.84L8.36,182.11"/><path d="M15.93,166.15L15.19,166.72"/><path d="M71.24,121.78L70.46,120.74L69.14,119.72"/><path d="M70.94,129.72L70.96,129.71"/></g><g style="stroke:#000000;stroke-width:0.529"><path d="M10.60,184.36L10.11,184.87L9.67,185.08L9.15,185.11L8.60,184.97L8.08,184.66L8.02,184.60L7.64,184.23L7.34,183.72L7.21,183.18L7.26,182.67L7.48,182.25L7.98,181.75"/><path d="M14.95,166.80L15.65,166.10"/><path d="M47.89,133.56L20.97,160.73"/><path d="M71.24,121.78L71.82,122.54L72.59,124.55L72.73,125.57L72.70,126.56L72.14,128.34L70.95,129.72L38.17,163.73"/><path d="M69.14,119.72L68.67,119.36L66.65,118.54L64.60,118.37L62.77,118.87L61.34,119.99L48.82,132.62"/></g></g><g id="Actor_.23"><g style="stroke:#000000;stroke-width:0.176"><path d="M2.73,188.10L15.32,190.39L15.42,191.65"/><path d="M3.84,187.52L3.95,187.43L4.12,187.35L4.32,187.30L4.54,187.28L4.75,187.30L4.92,187.35L5.04,187.43L5.10,187.53L5.09,187.63L5.01,187.74L4.86,187.83L4.68,187.89L4.46,187.93L4.25,187.93L4.05,187.89L3.90,187.82L3.81,187.73L3.79,187.63L3.84,187.52"/><path d="M4.91,178.61L5.32,178.68L5.31,180.30L5.54,179.67L6.47,178.72L7.77,178.23L9.28,178.25L10.83,178.78L12.25,179.76L13.37,181.07L14.06,182.57L14.24,184.09L13.94,185.35L13.76,185.70L12.85,186.64L11.54,187.15L10.00,187.14L8.42,186.59L7.60,186.02L5.52,185.64L5.41,183.21"/><path d="M5.85,189.91L5.82,189.53L6.16,189.59"/><path d="M5.46,185.31L5.51,185.32"/><path d="M7.60,186.02L6.98,185.58L5.89,184.28L5.65,183.85L5.25,182.78"/><path d="M5.78,182.96L6.41,184.24L7.39,185.35L8.62,186.18L9.96,186.63L11.26,186.66L12.39,186.25L13.22,185.47L13.66,184.38L13.67,183.11L13.62,182.94L13.24,181.79L12.42,180.57L11.30,179.59L9.99,178.94L9.96,178.93L8.65,178.69L7.42,178.89L6.43,179.50L5.78,180.45L5.56,181.65L5.78,182.96"/><path d="M5.31,180.30L5.10,180.89"/><path d="M5.54,179.67L6.50,177.93L7.53,176.88L8.97,176.34L10.63,176.36L12.35,176.95L13.92,178.03L14.54,178.76"/><path d="M5.32,178.68L5.32,178.20"/><path d="M15.03,178.02L15.03,177.40L15.01,177.30L14.97,176.33L15.20,175.23L15.43,174.72L15.48,174.36L16.31,171.67L16.76,170.76L13.36,170.99L9.44,171.46L6.51,171.95L5.54,172.06L5.33,176.24"/><path d="M5.54,172.06L5.75,171.54L6.11,170.86"/><path d="M5.98,170.88L6.10,170.88"/><path d="M7.80,180.96L7.95,180.79L8.03,180.75"/><path d="M8.33,180.60L8.55,180.50L8.64,180.49"/><path d="M9.36,180.48L9.27,180.45L9.01,180.47"/><path d="M9.76,180.58L10.03,180.65L10.11,180.70"/><path d="M8.30,178.75L8.65,178.69"/><path d="M11.67,184.18L11.56,184.39L11.50,184.44"/><path d="M11.13,181.45L11.34,181.66L11.39,181.75"/><path d="M11.78,182.46L11.75,182.37L11.61,182.12"/><path d="M10.49,180.92L10.74,181.07L10.82,181.14"/><path d="M12.28,186.86L15.22,187.40"/><path d="M12.85,186.64L14.58,185.63L15.05,185.22"/><path d="M11.89,183.56L11.87,183.81L11.83,183.88"/><path d="M11.87,182.85L11.94,183.12L11.93,183.20"/><path d="M15.37,189.24L15.23,189.20L15.02,189.18L14.80,189.20L14.60,189.25L14.43,189.33L14.32,189.43L14.27,189.53L14.29,189.64L14.39,189.73L14.54,189.80L14.73,189.83L14.95,189.83L15.16,189.80L15.35,189.73L15.41,189.70"/><path d="M13.94,185.35L14.41,185.03L13.76,185.70L15.05,185.15"/><path d="M14.41,185.03L15.01,184.62"/><path d="M15.32,190.39L15.45,190.25"/><path d="M15.03,177.40L15.04,177.22L15.43,174.72"/><path d="M16.78,174.79L16.81,174.59L16.86,174.43"/><path d="M17.58,172.08L17.63,171.90L17.70,171.77"/><path d="M16.76,170.76L17.43,169.43L18.27,168.43"/><path d="M18.67,169.82L18.75,169.67L18.82,169.58"/><path d="M19.94,168.25L20.03,168.14L20.10,168.10"/><path d="M21.33,167.48L21.24,167.53"/></g><g style="stroke:#000000;stroke-width:0.529"><path d="M21.39,167.50L21.33,167.48L20.01,167.25L18.71,167.91L18.27,168.43L15.87,168.45L12.24,168.64L9.56,168.88L8.60,168.99L7.83,169.22L7.13,169.64L6.79,169.94L6.22,170.66L6.11,170.86L5.98,170.88L5.56,171.23L5.17,171.83L4.86,172.62L4.65,173.50L4.58,174.39L4.65,175.19L4.84,175.80L5.15,176.17L5.33,176.24L5.32,178.20L4.91,178.61L5.10,180.89L5.08,180.96L5.13,182.44L5.25,182.78L5.46,185.31L2.73,188.10L2.84,189.36L5.85,189.91L6.15,189.59L6.17,189.59L12.37,190.72L12.40,191.10L15.42,191.65L15.67,191.39"/></g></g><g id="Actor_.24"><g style="stroke:#000000;stroke-width:0.176"><path d="M391.78,243.59L391.64,243.38L391.49,242.70L391.58,242.05L391.92,241.49L392.37,241.15L392.46,241.08L393.15,240.87L393.92,240.88L394.67,241.11L395.33,241.54L395.83,242.12L396.11,242.78L396.14,243.45L395.92,244.07L396.62,242.46"/><path d="M391.58,242.05L392.29,240.44"/><path d="M392.46,231.79L392.38,231.82"/><path d="M394.85,244.86L395.47,244.56L395.92,244.07"/><path d="M403.51,240.43L403.63,240.10L403.53,237.83L402.60,235.61L400.94,233.68L400.09,233.14"/></g><g style="stroke:#000000;stroke-width:0.529"><path d="M390.17,231.39L390.15,231.43"/><path d="M391.78,243.59L392.04,244.00L392.62,244.51L393.34,244.84L394.11,244.97L394.85,244.86"/><path d="M409.14,189.29L392.76,225.63"/><path d="M410.04,187.30L413.49,179.65L414.56,177.83L416.28,176.50L418.46,175.79L420.87,175.79L423.23,176.49L425.30,177.82L426.85,179.63L427.70,181.73L427.77,183.89L427.06,185.87L403.54,240.65"/></g></g><g id="PMI589119-Belt.0"><g><path style="stroke:#000000;stroke-width:0.250" d="M192.11,216.87L195.99,216.87L215.19,173.84"/></g><g><path style="fill:#000000" d="M216.19,173.83L216.18,173.74L216.17,173.64L216.15,173.54L216.11,173.45L216.07,173.36L216.02,173.28L215.96,173.20L215.90,173.13L215.82,173.06L215.74,173.00L215.66,172.95L215.57,172.91L215.48,172.88L215.38,172.85L215.29,172.84L215.19,172.83L215.09,172.84L214.99,172.85L214.90,172.88L214.81,172.91L214.72,172.95L214.63,173.00L214.55,173.06L214.48,173.13L214.42,173.20L214.36,173.28L214.31,173.36L214.26,173.45L214.23,173.54L214.21,173.64L214.19,173.74L214.19,173.83L214.19,173.93L214.21,174.03L214.23,174.12L214.26,174.22L214.31,174.31L214.36,174.39L214.42,174.47L214.48,174.54L214.55,174.61L214.63,174.67L214.72,174.72L214.81,174.76L214.90,174.79L214.99,174.82L215.09,174.83L215.19,174.83L215.29,174.83L215.38,174.82L215.48,174.79L215.57,174.76L215.66,174.72L215.74,174.67L215.82,174.61L215.90,174.54L215.96,174.47L216.02,174.39L216.07,174.31L216.11,174.22L216.15,174.12L216.17,174.03L216.18,173.93z"/></g><g><path style="fill:#ffffa0" d="M170.94,219.96L192.89,219.96L192.89,213.76L170.94,213.76z"/><path style="stroke:#000000;stroke-width:0.250;stroke-opacity:0.98" d="M170.94,219.96L192.89,219.96L192.89,213.76L170.94,213.76z"/><text xml:space="preserve" fill="#000000" stroke-width="0" x="171.71" y="218.22" font-size="3.78" opacity="1.00" font-family="MS Shell Dlg">589119-Belt</text></g></g><g id="PMI591986-Drive Roller.0"><g><path style="stroke:#000000;stroke-width:0.250" d="M38.87,119.98L42.75,119.98L50.53,138.28"/></g><g><path style="fill:#000000" d="M51.56,138.28L51.56,138.18L51.54,138.08L51.52,137.99L51.48,137.90L51.44,137.81L51.39,137.72L51.33,137.64L51.27,137.57L51.19,137.50L51.12,137.45L51.03,137.40L50.94,137.35L50.85,137.32L50.76,137.30L50.66,137.28L50.56,137.28L50.46,137.28L50.37,137.30L50.27,137.32L50.18,137.35L50.09,137.40L50.00,137.45L49.93,137.50L49.85,137.57L49.79,137.64L49.73,137.72L49.68,137.81L49.64,137.90L49.60,137.99L49.58,138.08L49.57,138.18L49.56,138.28L49.57,138.38L49.58,138.47L49.60,138.57L49.64,138.66L49.68,138.75L49.73,138.83L49.79,138.91L49.85,138.98L49.93,139.05L50.00,139.11L50.09,139.16L50.18,139.20L50.27,139.23L50.37,139.26L50.46,139.27L50.56,139.28L50.66,139.27L50.76,139.26L50.85,139.23L50.94,139.20L51.03,139.16L51.12,139.11L51.19,139.05L51.27,138.98L51.33,138.91L51.39,138.83L51.44,138.75L51.48,138.66L51.52,138.57L51.54,138.47L51.56,138.38z"/></g><g><path style="fill:#ffffa0" d="M4.38,123.09L39.67,123.09L39.67,116.88L4.38,116.88z"/><path style="stroke:#000000;stroke-width:0.250;stroke-opacity:0.98" d="M4.38,123.09L39.67,123.09L39.67,116.88L4.38,116.88z"/><text xml:space="preserve" fill="#000000" stroke-width="0" x="5.16" y="121.35" font-size="3.78" opacity="1.00" font-family="MS Shell Dlg">591986-Drive Roller</text></g></g><g id="PMI480474-Gearmotor.0"><g><path style="stroke:#000000;stroke-width:0.250" d="M72.10,206.33L68.22,206.33L39.52,182.02"/></g><g><path style="fill:#000000" d="M40.54,182.01L40.53,181.91L40.52,181.82L40.49,181.72L40.46,181.63L40.42,181.54L40.37,181.46L40.31,181.38L40.25,181.31L40.17,181.24L40.09,181.18L40.01,181.13L39.92,181.09L39.83,181.06L39.73,181.03L39.64,181.02L39.54,181.01L39.44,181.02L39.34,181.03L39.25,181.06L39.16,181.09L39.07,181.13L38.98,181.18L38.90,181.24L38.83,181.31L38.76,181.38L38.71,181.46L38.66,181.54L38.61,181.63L38.58,181.72L38.56,181.82L38.54,181.91L38.54,182.01L38.54,182.11L38.56,182.21L38.58,182.30L38.61,182.40L38.66,182.48L38.71,182.57L38.76,182.65L38.83,182.72L38.90,182.79L38.98,182.84L39.07,182.89L39.16,182.94L39.25,182.97L39.34,182.99L39.44,183.01L39.54,183.01L39.64,183.01L39.73,182.99L39.83,182.97L39.92,182.94L40.01,182.89L40.09,182.84L40.17,182.79L40.25,182.72L40.31,182.65L40.37,182.57L40.42,182.48L40.46,182.40L40.49,182.30L40.52,182.21L40.53,182.11z"/></g><g><path style="fill:#ffffa0" d="M71.35,209.43L105.02,209.43L105.02,203.22L71.35,203.22z"/><path style="stroke:#000000;stroke-width:0.250;stroke-opacity:0.98" d="M71.35,209.43L105.02,209.43L105.02,203.22L71.35,203.22z"/><text xml:space="preserve" fill="#000000" stroke-width="0" x="72.12" y="207.68" font-size="3.80" opacity="1.00" font-family="MS Shell Dlg">480474-Gearmotor</text></g></g><g id="PMI591988-Tracking Roller.0"><g><path style="stroke:#000000;stroke-width:0.250" d="M336.96,141.74L340.84,141.74L353.54,199.80"/></g><g><path style="fill:#000000" d="M354.50,199.79L354.50,199.69L354.49,199.60L354.46,199.50L354.43,199.41L354.39,199.32L354.34,199.24L354.28,199.16L354.21,199.08L354.14,199.02L354.06,198.96L353.98,198.91L353.89,198.87L353.80,198.83L353.70,198.81L353.60,198.80L353.50,198.79L353.41,198.80L353.31,198.81L353.21,198.83L353.12,198.87L353.03,198.91L352.95,198.96L352.87,199.02L352.80,199.08L352.73,199.16L352.67,199.24L352.62,199.32L352.58,199.41L352.55,199.50L352.52,199.60L352.51,199.69L352.50,199.79L352.51,199.89L352.52,199.99L352.55,200.08L352.58,200.17L352.62,200.26L352.67,200.35L352.73,200.43L352.80,200.50L352.87,200.56L352.95,200.62L353.03,200.67L353.12,200.71L353.21,200.75L353.31,200.77L353.41,200.79L353.50,200.79L353.60,200.79L353.70,200.77L353.80,200.75L353.89,200.71L353.98,200.67L354.06,200.62L354.14,200.56L354.21,200.50L354.28,200.43L354.34,200.35L354.39,200.26L354.43,200.17L354.46,200.08L354.49,199.99L354.50,199.89z"/></g><g><path style="fill:#ffffa0" d="M296.70,144.84L337.71,144.84L337.71,138.64L296.70,138.64z"/><path style="stroke:#000000;stroke-width:0.250;stroke-opacity:0.98" d="M296.70,144.84L337.71,144.84L337.71,138.64L296.70,138.64z"/><text xml:space="preserve" fill="#000000" stroke-width="0" x="297.48" y="143.10" font-size="3.79" opacity="1.00" font-family="MS Shell Dlg">591988-Tracking Roller</text></g></g><g id="PMI591987-Idler Roller.0"><g><path style="stroke:#000000;stroke-width:0.250" d="M398.43,144.80L402.31,144.80L411.50,199.45"/></g><g><path style="fill:#000000" d="M412.46,199.44L412.46,199.34L412.44,199.24L412.42,199.15L412.39,199.05L412.34,198.96L412.29,198.88L412.24,198.80L412.17,198.73L412.10,198.66L412.02,198.60L411.93,198.55L411.85,198.51L411.75,198.48L411.66,198.45L411.56,198.44L411.46,198.44L411.36,198.44L411.27,198.45L411.17,198.48L411.08,198.51L410.99,198.55L410.91,198.60L410.83,198.66L410.76,198.73L410.69,198.80L410.63,198.88L410.58,198.96L410.54,199.05L410.51,199.15L410.48,199.24L410.47,199.34L410.46,199.44L410.47,199.53L410.48,199.63L410.51,199.73L410.54,199.82L410.58,199.91L410.63,199.99L410.69,200.07L410.76,200.14L410.83,200.21L410.91,200.27L410.99,200.32L411.08,200.36L411.17,200.39L411.27,200.42L411.36,200.43L411.46,200.44L411.56,200.43L411.66,200.42L411.75,200.39L411.85,200.36L411.93,200.32L412.02,200.27L412.10,200.21L412.17,200.14L412.24,200.07L412.29,199.99L412.34,199.91L412.39,199.82L412.42,199.73L412.44,199.63L412.46,199.53z"/></g><g><path style="fill:#ffffa0" d="M365.36,147.90L399.17,147.90L399.17,141.70L365.36,141.70z"/><path style="stroke:#000000;stroke-width:0.250;stroke-opacity:0.98" d="M365.36,147.90L399.17,147.90L399.17,141.70L365.36,141.70z"/><text xml:space="preserve" fill="#000000" stroke-width="0" x="366.14" y="146.16" font-size="3.78" opacity="1.00" font-family="MS Shell Dlg">591987-Idler Roller</text></g></g><g id="PMI419864-Bearing.0"><g><path style="stroke:#000000;stroke-width:0.250" d="M367.73,252.91L371.61,252.91L391.22,238.21"/></g><g><path style="fill:#000000" d="M392.19,238.19L392.19,238.09L392.18,238.00L392.15,237.90L392.12,237.81L392.08,237.72L392.03,237.64L391.97,237.56L391.90,237.49L391.83,237.42L391.75,237.36L391.67,237.31L391.58,237.27L391.49,237.24L391.39,237.21L391.29,237.20L391.19,237.19L391.10,237.20L391.00,237.21L390.90,237.24L390.81,237.27L390.72,237.31L390.64,237.36L390.56,237.42L390.49,237.49L390.42,237.56L390.36,237.64L390.31,237.72L390.27,237.81L390.24,237.90L390.21,238.00L390.20,238.09L390.19,238.19L390.20,238.29L390.21,238.39L390.24,238.48L390.27,238.58L390.31,238.66L390.36,238.75L390.42,238.83L390.49,238.90L390.56,238.97L390.64,239.02L390.72,239.07L390.81,239.12L390.90,239.15L391.00,239.17L391.10,239.19L391.19,239.19L391.29,239.19L391.39,239.17L391.49,239.15L391.58,239.12L391.67,239.07L391.75,239.02L391.83,238.97L391.90,238.90L391.97,238.83L392.03,238.75L392.08,238.66L392.12,238.58L392.15,238.48L392.18,238.39L392.19,238.29z"/></g><g><path style="fill:#ffffa0" d="M339.87,255.99L368.48,255.99L368.48,249.79L339.87,249.79z"/><path style="stroke:#000000;stroke-width:0.250;stroke-opacity:0.98" d="M339.87,255.99L368.48,255.99L368.48,249.79L339.87,249.79z"/><text xml:space="preserve" fill="#000000" stroke-width="0" x="340.64" y="254.25" font-size="3.80" opacity="1.00" font-family="MS Shell Dlg">419864-Bearing</text></g></g><g/><g><g/><g><image x="0.000000" y="254.000015" height="25.000000" width="25.000000" xlink:href="89195-901_files/8514590c921ecbca_image_0.jpg" mask="url(#mask0)"/></g></g><g><g/><g><image x="0.629476" y="0.656952" height="25.000000" width="25.000000" xlink:href="89195-901_files/8514590c921ecbca_image_1.jpg" mask="url(#mask1)"/></g></g><g><g/><g><image x="407.000000" y="254.000015" height="25.000000" width="25.000000" xlink:href="89195-901_files/8514590c921ecbca_image_2.jpg" mask="url(#mask2)"/></g></g><g><g/><g><image x="407.000000" y="0.000000" height="25.000000" width="25.000000" xlink:href="89195-901_files/8514590c921ecbca_image_3.jpg" mask="url(#mask3)"/></g></g><g><g/><g><path style="stroke:#000000;stroke-width:0.125;fill:#ffffff" d="M144.96,11.89L296.55,11.89L296.55,26.56L144.96,26.56z"/><text xml:space="preserve" fill="#000000" stroke-width="0" x="146.80" y="21.98" font-size="9.00" opacity="1.00" font-family="MS Shell Dlg">Waste Conveyor Frames 091 and Up</text></g></g><g/><g id="paperID" visibility="hidden" opacity="0.00" transform="scale(0.000100)"><path style="stroke:#000000;stroke-width:0.500;fill:#e6e6e6;fill-rule:evenodd" d="M-2000.00,-2000.00L2431.80,-2000.00L2431.80,2279.40L-2000.00,2279.40zM0.00,0.00L431.80,0.00L431.80,279.40L0.00,279.40z"/><path style="fill:#000000;fill-opacity:0.118" d="M3.00,279.40L431.80,279.40L431.80,3.00L434.80,3.00L434.80,282.40L3.00,282.40z"/></g><g><g><path style="stroke:#000000;stroke-width:0.353;fill:#f0f0ff" d="M119.77,38.74L216.07,38.74L216.07,45.16L119.77,45.16z"/><text xml:space="preserve" fill="#000000" stroke-width="0" x="122.24" y="43.68" font-size="4.62" opacity="1.00" font-family="MS Shell Dlg" font-weight="bold">Description</text><text xml:space="preserve" fill="#000000" stroke-width="0" x="151.13" y="43.68" font-size="4.63" opacity="1.00" font-family="MS Shell Dlg" font-weight="bold">BOM ID</text><text xml:space="preserve" fill="#000000" stroke-width="0" x="206.28" y="43.68" font-size="4.58" opacity="1.00" font-family="MS Shell Dlg" font-weight="bold">Qty</text><path style="stroke:#000000;stroke-width:0.353" d="M148.66,38.74L148.66,45.16"/><path style="stroke:#000000;stroke-width:0.353" d="M203.81,38.74L203.81,45.16"/></g><g id="Line419864-Bearing"><path style="stroke:#000000;stroke-width:0.353;fill:#ffffff" d="M119.77,45.16L216.07,45.16L216.07,51.58L119.77,51.58z"/><text xml:space="preserve" fill="#000000" stroke-width="0" x="122.24" y="50.10" font-size="4.83" opacity="1.00" font-family="MS Shell Dlg">419864</text><text xml:space="preserve" fill="#000000" stroke-width="0" x="151.13" y="50.10" font-size="4.83" opacity="1.00" font-family="MS Shell Dlg">419864-Bearing</text><text xml:space="preserve" fill="#000000" stroke-width="0" x="206.28" y="50.10" font-size="4.72" opacity="1.00" font-family="MS Shell Dlg">4</text><path style="stroke:#000000;stroke-width:0.353" d="M148.66,45.16L148.66,51.58"/><path style="stroke:#000000;stroke-width:0.353" d="M203.81,45.16L203.81,51.58"/></g><g id="Line480474-Gearmotor"><path style="stroke:#000000;stroke-width:0.353;fill:#f0f0ff" d="M119.77,51.58L216.07,51.58L216.07,58.00L119.77,58.00z"/><text xml:space="preserve" fill="#000000" stroke-width="0" x="122.24" y="56.52" font-size="4.83" opacity="1.00" font-family="MS Shell Dlg">480474</text><text xml:space="preserve" fill="#000000" stroke-width="0" x="151.13" y="56.52" font-size="4.84" opacity="1.00" font-family="MS Shell Dlg">480474-Gearmotor</text><text xml:space="preserve" fill="#000000" stroke-width="0" x="206.28" y="56.52" font-size="3.88" opacity="1.00" font-family="MS Shell Dlg">1</text><path style="stroke:#000000;stroke-width:0.353" d="M148.66,51.58L148.66,58.00"/><path style="stroke:#000000;stroke-width:0.353" d="M203.81,51.58L203.81,58.00"/></g><g id="Line589119-Belt"><path style="stroke:#000000;stroke-width:0.353;fill:#ffffff" d="M119.77,58.00L216.07,58.00L216.07,64.42L119.77,64.42z"/><text xml:space="preserve" fill="#000000" stroke-width="0" x="122.24" y="62.94" font-size="4.79" opacity="1.00" font-family="MS Shell Dlg">589119</text><text xml:space="preserve" fill="#000000" stroke-width="0" x="151.13" y="62.94" font-size="4.81" opacity="1.00" font-family="MS Shell Dlg">589119-Belt</text><text xml:space="preserve" fill="#000000" stroke-width="0" x="206.28" y="62.94" font-size="3.88" opacity="1.00" font-family="MS Shell Dlg">1</text><path style="stroke:#000000;stroke-width:0.353" d="M148.66,58.00L148.66,64.42"/><path style="stroke:#000000;stroke-width:0.353" d="M203.81,58.00L203.81,64.42"/></g><g id="Line591986-Drive Roller"><path style="stroke:#000000;stroke-width:0.353;fill:#f0f0ff" d="M119.77,64.42L216.07,64.42L216.07,70.84L119.77,70.84z"/><text xml:space="preserve" fill="#000000" stroke-width="0" x="122.24" y="69.36" font-size="4.79" opacity="1.00" font-family="MS Shell Dlg">591986</text><text xml:space="preserve" fill="#000000" stroke-width="0" x="151.13" y="69.36" font-size="4.82" opacity="1.00" font-family="MS Shell Dlg">591986-Drive Roller</text><text xml:space="preserve" fill="#000000" stroke-width="0" x="206.28" y="69.36" font-size="3.88" opacity="1.00" font-family="MS Shell Dlg">1</text><path style="stroke:#000000;stroke-width:0.353" d="M148.66,64.42L148.66,70.84"/><path style="stroke:#000000;stroke-width:0.353" d="M203.81,64.42L203.81,70.84"/></g><g><path style="stroke:#000000;stroke-width:0.353;fill:#f0f0ff" d="M221.07,38.74L317.38,38.74L317.38,45.16L221.07,45.16z"/><text xml:space="preserve" fill="#000000" stroke-width="0" x="223.54" y="43.68" font-size="4.62" opacity="1.00" font-family="MS Shell Dlg" font-weight="bold">Description</text><text xml:space="preserve" fill="#000000" stroke-width="0" x="252.43" y="43.68" font-size="4.63" opacity="1.00" font-family="MS Shell Dlg" font-weight="bold">BOM ID</text><text xml:space="preserve" fill="#000000" stroke-width="0" x="307.58" y="43.68" font-size="4.58" opacity="1.00" font-family="MS Shell Dlg" font-weight="bold">Qty</text><path style="stroke:#000000;stroke-width:0.353" d="M249.96,38.74L249.96,45.16"/><path style="stroke:#000000;stroke-width:0.353" d="M305.11,38.74L305.11,45.16"/></g><g id="Line591987-Idler Roller"><path style="stroke:#000000;stroke-width:0.353;fill:#ffffff" d="M221.07,45.16L317.38,45.16L317.38,51.58L221.07,51.58z"/><text xml:space="preserve" fill="#000000" stroke-width="0" x="223.54" y="50.10" font-size="4.79" opacity="1.00" font-family="MS Shell Dlg">591987</text><text xml:space="preserve" fill="#000000" stroke-width="0" x="252.43" y="50.10" font-size="4.81" opacity="1.00" font-family="MS Shell Dlg">591987-Idler Roller</text><text xml:space="preserve" fill="#000000" stroke-width="0" x="307.58" y="50.10" font-size="3.88" opacity="1.00" font-family="MS Shell Dlg">1</text><path style="stroke:#000000;stroke-width:0.353" d="M249.96,45.16L249.96,51.58"/><path style="stroke:#000000;stroke-width:0.353" d="M305.11,45.16L305.11,51.58"/></g><g id="Line591988-Tracking Roller"><path style="stroke:#000000;stroke-width:0.353;fill:#f0f0ff" d="M221.07,51.58L317.38,51.58L317.38,58.00L221.07,58.00z"/><text xml:space="preserve" fill="#000000" stroke-width="0" x="223.54" y="56.52" font-size="4.79" opacity="1.00" font-family="MS Shell Dlg">591988</text><text xml:space="preserve" fill="#000000" stroke-width="0" x="252.43" y="56.52" font-size="4.82" opacity="1.00" font-family="MS Shell Dlg">591988-Tracking Roller</text><text xml:space="preserve" fill="#000000" stroke-width="0" x="307.58" y="56.52" font-size="4.58" opacity="1.00" font-family="MS Shell Dlg">2</text><path style="stroke:#000000;stroke-width:0.353" d="M249.96,51.58L249.96,58.00"/><path style="stroke:#000000;stroke-width:0.353" d="M305.11,51.58L305.11,58.00"/></g></g><g id="hotspot.0" onmouseover="ShowHotSpot(evt,'0')" onmouseout="HideHotSpot(evt,'0')" onmousemove="ShowToolTip(evt,'0',&quot;Order&quot;)" opacity="0"><a xlink:href="https://www.mitek-us.com/resources/machinery/Find-and-Order-Parts/" target="_blank"><path style="fill:#00ff00;fill-rule:evenodd" d="M431.24,25.05L407.30,25.05L407.30,0.44L431.24,0.44z"/></a></g><g id="hotspot.1" onmouseover="ShowHotSpot(evt,'1')" onmouseout="HideHotSpot(evt,'1')" onmousemove="ShowToolTip(evt,'1',&quot;Back&quot;)" opacity="0"><a xlink:href="javascript:history.go(-1)"><path style="fill:#00ff00;fill-rule:evenodd" d="M25.05,278.96L0.44,278.96L0.44,254.01L25.05,254.01z"/></a></g><g id="hotspot.2" onmouseover="ShowHotSpot(evt,'2')" onmouseout="HideHotSpot(evt,'2')" onmousemove="ShowToolTip(evt,'2',&quot;Home&quot;)" opacity="0"><a xlink:href="./Saw-Overview.svg"><path style="fill:#00ff00;fill-rule:evenodd" d="M25.73,25.39L0.78,25.39L0.78,0.78L25.73,0.78z"/></a></g><g id="hotspot.3" onmouseover="ShowHotSpot(evt,'3')" onmouseout="HideHotSpot(evt,'3')" onmousemove="ShowToolTip(evt,'3',&quot;Forward&quot;)" opacity="0"><a xlink:href="javascript:history.go(1)"><path style="fill:#00ff00;fill-rule:evenodd" d="M431.24,278.96L407.30,278.96L407.30,254.01L431.24,254.01z"/></a></g><g id="hotspot.4" onmouseover="ShowHotSpot(evt,'4')" onmouseout="HideHotSpot(evt,'4')" onmousemove="ShowToolTip(evt,'4',&quot;Cut-Extrude1&quot;)" opacity="0"><path style="fill:#00ff00;fill-rule:evenodd" d="M119.77,45.16L119.77,51.58L216.07,51.58L216.07,45.16zM392.14,234.64L394.83,234.63L396.57,234.97L398.60,236.00L400.68,238.34L401.31,240.09L401.33,241.92L400.60,243.25L400.60,244.51L401.01,245.19L401.01,245.98L400.16,246.88L398.91,246.92L397.93,246.19L394.50,245.87L392.48,245.18L390.80,244.14L389.41,242.47L388.66,240.06L389.05,238.14L389.44,237.49L389.37,234.37L389.64,233.97L391.48,233.95zM368.90,252.79L371.77,253.00L368.90,253.33L368.69,256.19L340.00,256.19L340.00,249.93L368.69,249.93zM391.11,235.49L390.30,235.42L390.28,234.99L390.80,234.93zM395.88,239.74L396.93,241.11L396.92,241.88L395.90,244.30L394.74,244.88L393.83,244.89L392.16,244.14L391.77,243.51L391.78,241.88L392.83,239.87L393.36,239.39L395.21,239.39zM399.62,245.50L399.18,245.61L399.30,245.18z"/></g><g id="hotspot.5" onmouseover="ShowHotSpot(evt,'5')" onmouseout="HideHotSpot(evt,'5')" onmousemove="ShowToolTip(evt,'5',&quot;Imported1&quot;)" opacity="0"><path style="fill:#00ff00;fill-rule:evenodd" d="M119.77,51.58L119.77,58.00L216.07,58.00L216.07,51.58zM22.68,167.67L24.02,168.40L27.07,168.37L38.97,170.40L42.71,170.41L46.79,171.08L49.52,172.10L51.20,174.15L51.89,177.54L51.55,182.07L50.19,186.15L48.39,188.81L47.85,189.15L46.36,189.80L43.05,189.78L39.29,189.12L37.66,188.37L37.29,188.07L33.88,187.41L32.39,187.39L32.20,190.25L29.34,193.51L27.76,193.52L16.52,191.46L14.86,191.50L12.83,191.11L12.47,190.79L7.35,189.77L5.34,189.80L3.59,189.48L2.89,188.78L2.93,187.88L5.35,185.49L5.34,176.17L5.01,175.82L4.97,172.54L6.20,170.71L7.59,169.38L10.99,168.71L18.46,168.36L19.82,167.32zM68.41,206.44L71.28,206.22L71.48,203.36L105.27,203.36L105.16,209.51L71.48,209.62L71.28,206.76zM11.14,182.98L11.14,183.78L9.95,185.04L9.06,185.06L8.06,184.67L7.68,184.03L7.70,182.07L8.95,181.24L9.74,181.24z"/></g><g id="hotspot.6" onmouseover="ShowHotSpot(evt,'6')" onmouseout="HideHotSpot(evt,'6')" onmousemove="ShowToolTip(evt,'6',&quot;Extrude1&quot;)" opacity="0"><path style="fill:#00ff00;fill-rule:evenodd" d="M119.77,58.00L119.77,64.42L216.07,64.42L216.07,58.00zM421.04,175.15L425.11,176.86L427.18,178.86L428.52,181.27L428.50,184.79L428.17,186.16L405.28,239.41L403.69,242.60L403.71,237.35L402.71,235.29L401.53,233.60L403.37,233.42L403.69,231.36L403.70,227.50L206.80,193.18L206.52,193.97L206.18,193.22L201.45,192.16L20.47,160.65L20.60,160.01L41.69,138.90L44.44,135.88L61.63,118.73L63.33,118.05L67.52,118.06zM15.56,166.48L13.80,167.47L13.81,166.82L14.73,165.94L15.22,165.94zM193.17,216.76L196.04,216.97L193.17,217.30L192.96,220.16L171.07,220.16L171.07,213.90L192.96,213.90zM379.95,239.10L379.94,239.51L378.86,239.44L377.79,239.08L377.42,238.69z"/></g><g id="hotspot.7" onmouseover="ShowHotSpot(evt,'7')" onmouseout="HideHotSpot(evt,'7')" onmousemove="ShowToolTip(evt,'7',&quot;Fillet2&quot;)" opacity="0"><path style="fill:#00ff00;fill-rule:evenodd" d="M119.77,64.42L119.77,70.84L216.07,70.84L216.07,64.42zM68.20,119.08L70.24,120.44L71.65,122.10L72.64,124.16L72.63,127.35L72.29,128.37L70.96,129.76L68.20,132.79L62.12,138.94L59.37,141.96L52.94,148.45L50.19,151.48L41.24,160.55L38.50,163.62L22.31,160.90L21.15,160.54L48.15,133.45L48.51,132.69L49.20,132.52L55.66,125.68L61.64,119.76L64.11,118.49L65.47,118.39zM40.21,119.88L43.09,120.15L43.14,120.49L40.21,120.43L39.90,123.18L4.52,123.28L4.52,117.03L40.01,117.03zM11.14,182.98L11.14,183.78L9.95,185.04L9.06,185.06L8.06,184.67L7.68,184.03L7.70,182.07L8.95,181.24L9.74,181.24z"/></g><g id="hotspot.8" onmouseover="ShowHotSpot(evt,'8')" onmouseout="HideHotSpot(evt,'8')" onmousemove="ShowToolTip(evt,'8',&quot;Extrude3&quot;)" opacity="0"><path style="fill:#00ff00;fill-rule:evenodd" d="M221.07,45.16L221.07,51.58L317.38,51.58L317.38,45.16zM399.49,144.70L402.34,144.90L402.46,145.12L399.49,145.24L399.28,148.10L365.50,148.10L365.50,141.84L399.28,141.84zM402.79,147.18L402.59,147.03L402.46,145.12L402.68,145.24zM403.12,149.22L402.79,147.18L402.98,147.32zM403.46,151.26L403.12,149.22L403.32,149.36zM403.80,153.30L403.46,151.26L403.66,151.40zM404.14,155.34L403.80,153.30L404.00,153.44zM404.48,157.37L404.14,155.34L404.34,155.48zM404.82,159.41L404.48,157.37L404.68,157.52zM405.16,161.45L404.82,159.41L405.02,159.56zM405.50,163.49L405.16,161.45L405.36,161.60zM405.84,165.53L405.50,163.49L405.70,163.64zM406.18,167.23L405.84,165.53L406.04,165.68zM406.52,169.27L406.18,167.23L406.38,167.38zM406.86,171.31L406.52,169.27L406.72,169.42zM407.20,173.35L406.86,171.31L407.06,171.46zM407.54,175.39L407.20,173.35L407.40,173.49zM422.37,176.20L425.11,177.54L426.85,179.54L427.84,181.60L427.83,184.12L403.67,240.55L403.01,237.71L401.34,235.29L397.67,232.84L403.37,233.41L403.69,231.36L403.70,227.50L393.02,225.57L393.38,224.45L409.49,188.89L409.58,187.64L410.38,186.73L414.08,178.87L415.81,176.86L418.19,175.84L421.37,175.84zM407.88,177.43L407.54,175.39L407.74,175.53zM408.22,179.47L407.88,177.43L408.08,177.57zM408.56,181.51L408.22,179.47L408.42,179.61zM408.90,183.55L408.56,181.51L408.76,181.65zM409.24,185.59L408.90,183.55L409.10,183.69zM409.58,187.64L409.38,187.52L409.24,185.59L409.44,185.73zM395.88,239.74L396.93,241.11L396.92,241.88L395.90,244.30L394.74,244.88L393.83,244.89L392.16,244.14L391.77,243.51L391.78,241.88L392.83,239.87L393.36,239.39L395.21,239.39z"/></g><g id="hotspot.9" onmouseover="ShowHotSpot(evt,'9')" onmouseout="HideHotSpot(evt,'9')" onmousemove="ShowToolTip(evt,'9',&quot;Mirror1&quot;)" opacity="0"><path style="fill:#00ff00;fill-rule:evenodd" d="M221.07,51.58L221.07,58.00L317.38,58.00L317.38,51.58zM112.78,131.95L114.11,133.68L114.11,135.53L112.62,137.44L84.89,168.51L82.71,171.09L80.78,171.08L74.62,170.06L74.65,169.53L106.51,134.38L109.54,131.30L111.38,131.31zM337.96,141.64L341.16,141.84L341.25,143.45L340.81,142.19L337.96,142.18L337.76,145.04L296.84,145.04L296.84,138.78L337.76,138.78zM341.61,144.79L341.25,143.45L341.46,143.58zM341.94,146.50L341.61,144.79L341.80,144.94zM342.29,147.85L341.94,146.50L342.14,146.64zM342.62,149.56L342.29,147.85L342.48,148.00zM342.97,150.91L342.62,149.56L342.82,149.70zM343.30,152.62L342.97,150.91L343.16,151.06zM343.64,154.32L343.30,152.62L343.50,152.76zM343.99,155.67L343.64,154.32L343.84,154.46zM344.32,157.38L343.99,155.67L344.18,155.82zM344.67,158.73L344.32,157.38L344.52,157.52zM345.00,160.44L344.67,158.73L344.86,158.88zM345.35,161.79L345.00,160.44L345.20,160.58zM345.68,163.49L345.35,161.79L345.54,161.94zM346.02,165.20L345.68,163.49L345.88,163.64zM346.37,166.55L346.02,165.20L346.22,165.34zM346.69,168.26L346.37,166.55L346.56,166.70zM347.05,169.61L346.69,168.26L346.90,168.40zM347.38,171.31L347.05,169.61L347.24,169.76zM368.70,173.44L369.71,174.81L369.72,177.33L349.19,217.65L347.26,217.65L341.68,216.74L341.80,215.71L352.39,195.70L352.48,194.78L353.28,193.86L363.77,173.76L365.15,172.77L366.99,172.78zM347.71,173.02L347.38,171.31L347.58,171.46zM348.07,174.36L347.71,173.02L347.92,173.16zM348.39,176.08L348.07,174.36L348.26,174.51zM348.75,177.42L348.39,176.08L348.60,176.21zM349.07,179.13L348.75,177.42L348.94,177.57zM349.43,180.48L349.07,179.13L349.28,179.27zM349.76,182.19L349.43,180.48L349.62,180.63zM350.09,183.89L349.76,182.19L349.96,182.33zM350.45,185.24L350.09,183.89L350.29,184.03zM350.77,186.95L350.45,185.24L350.64,185.39zM351.13,188.30L350.77,186.95L350.97,187.09zM351.45,190.01L351.13,188.30L351.32,188.45zM351.81,191.36L351.45,190.01L351.65,190.15zM352.14,193.06L351.81,191.36L352.00,191.51zM352.48,194.78L352.28,194.66L352.14,193.06L352.34,193.21z"/></g><g id="ToolTip" visibility="hidden" opacity="0" transform="translate(0,0)"><rect id="ToolTipShadow" opacity="0.20" fill="black" stroke="none" x="0" y="0" width="30" height="8"/><rect id="ToolTipBG" fill="#ffffe1" stroke="black" x="0" y="0" width="30" height="8"/><text xml:space="preserve" id="ToolTipText" fill="black" x="0" y="0" width="30" height="8">tooltip</text></g></g></svg>
