<?xml version="1.0" encoding="UTF-8" standalone="no"?>
<svg xmlns="http://www.w3.org/2000/svg" xmlns:xlink="http://www.w3.org/1999/xlink" width="431.800mm" height="279.400mm" viewBox="0.000000 0.000000 431.799988 279.399994" stroke-linejoin="round" stroke-linecap="round" fill="none" fill-rule="evenodd"><desc>Composer Export</desc><script type="text/ecmascript"><![CDATA[
if(typeof(top) != "undefined")
{
	top.ShowPaper = ShowPaper;
}
function ShowHotSpot(evt,hotspotid)
{
	var svgDocument = evt.target.ownerDocument;
	var strId = "hotspot."+hotspotid;
	var hotspot = svgDocument.getElementById(strId);
	if(hotspot)
		hotspot.setAttribute("opacity",".5");
}
function HideHotSpot(evt,hotspotid)
{
	var svgDocument = evt.target.ownerDocument;
	var strId = "hotspot."+hotspotid;
	var hotspot = svgDocument.getElementById(strId);
	if(hotspot)
		hotspot.setAttribute("opacity","0");

	var toolTip = svgDocument.getElementById('ToolTip');
	if(toolTip)
		toolTip.setAttribute("visibility","hidden");
}
function ShowToolTip(evt,hotspotid,strTooltip)
{
	if(strTooltip=="")
	return;

	// change text
	var svgDocument = evt.target.ownerDocument;
	var tiptext = svgDocument.getElementById('ToolTipText');
	if( !tiptext )
	return;
	tiptext.firstChild.nodeValue = " " + strTooltip + "  " ;

	// show tooltip before, else some refresh issue

	var toolTip = svgDocument.getElementById('ToolTip');
	if(!toolTip)
	return;

	toolTip.setAttribute("visibility","visible");
	toolTip.setAttribute("opacity",".95");

	// move tooltip
	// get viewbox

	var root = svgDocument.documentElement;
	var vbox = (root.getAttribute("viewBox")).split(' ');
	var x0 = parseFloat(vbox[0]);
	var y0 = parseFloat(vbox[1]);
	var vboxW = parseFloat(vbox[2]);
	var vboxH = parseFloat(vbox[3]);

	// get default width of svg

	var strW = root.getAttribute("width");
	var svgW = parseFloat(strW);
	if(strW.indexOf('mm') != -1)
	svgW *= 3.779;

	var strH = root.getAttribute("height");
	var svgH = parseFloat(strH);
	if(strH.indexOf('mm') != -1)
	svgH *= 3.779;  	// 96 dpi  -> 96/25.4 = 3.779

	// update the viewbox / width / height if svg is embedded in html with zoom fit all
	var realx0 = x0;
	var realy0 = y0;
	var realvboxW = vboxW;
	var realvboxH = vboxH;
	var realsvgW = svgW;
	var realsvgH = svgH;

	if ((typeof(top) == "undefined") || (typeof(top.svgctl1) != "undefined")) // embedded in html
	{
		// get window size in pxl

		svgW = window.innerWidth;
		svgH = window.innerHeight;

		// calculate real viewbox

		realsvgW = svgW;
		realsvgH = svgH;
		if((svgW / svgH) > (vboxW / vboxH))
		{
			realvboxW = (vboxH * svgW) / svgH;
			realvboxH = vboxH;
			realx0 = x0 - (realvboxW - vboxW)/2 ;
		}
		else
		{
			realvboxH = (vboxW * svgH) / svgW;
			realvboxW = vboxW;
			realy0 = y0 - (realvboxH - vboxH)/2 ;
		}
	}

	// get user zoom/pan

	var newScale = root.currentScale;
	var translation = root.currentTranslate;

	// transform pxl to user unit

	var xPos = (((evt.clientX+10- translation.x)/newScale) * realvboxW)/realsvgW  + realx0 ;
	var yPos = (((evt.clientY+5- translation.y)/newScale) * realvboxH)/ realsvgH  + realy0 ;
	var scaleForWidth = ( (1 / newScale) * realvboxH) / realsvgH;

	// move tooltip

	toolTip.setAttribute("transform", "translate(" + xPos + "," + yPos + ")" );

	// resize tooltip

	var fontsize = 12;
	tiptext.setAttribute("font-size",fontsize*scaleForWidth);
	tiptext.setAttribute("y", fontsize*scaleForWidth);
	var tipBG = svgDocument.getElementById('ToolTipBG');
	var outline = tiptext.getBBox();
	if(tipBG)
	{
		tipBG.setAttribute("stroke-width", 1*scaleForWidth);
		tipBG.setAttribute("width", Number(outline.width) );
		tipBG.setAttribute("height", Number(outline.height) + fontsize*.5*scaleForWidth );
	}
	var ToolTipShadow = svgDocument.getElementById('ToolTipShadow');
	if(ToolTipShadow)
	{
		ToolTipShadow.setAttribute("width", Number(outline.width) );
		ToolTipShadow.setAttribute("height", Number(outline.height) + fontsize*.5*scaleForWidth );
		ToolTipShadow.setAttribute("x", 3*scaleForWidth);
		ToolTipShadow.setAttribute("y", 3*scaleForWidth);
	}
}
function ShowPaper()
{
  var svgDocument = getDocument();
  var paper = svgDocument.getElementById("paperID");
  if(paper)
  {
    paper.setAttribute("transform","scale(1)");
    paper.setAttribute("opacity","1");
    paper.setAttribute("visibility","visible");
  }
  var svg = svgDocument.getRootElement();
  if(svg)
  {
    svg.setAttribute("width","441.800mm");
    svg.setAttribute("height","289.400mm");
    svg.setAttribute("viewBox","-5.000000 -5.000000 441.799988 289.399994");
  }
}
]]></script><defs><mask id="mask0" x="0" y="0" height="100%" width="100%"><image x="0.000000" y="0.000000" height="25.000000" width="25.000000" xlink:href="90626_Overview_files/95dc0d6add570b57_mask_0.jpg"/></mask><mask id="mask1" x="0" y="0" height="100%" width="100%"><image x="0.000000" y="254.000015" height="25.000000" width="25.000000" xlink:href="90626_Overview_files/95dc0d6add570b57_mask_1.jpg"/></mask><mask id="mask2" x="0" y="0" height="100%" width="100%"><image x="407.000000" y="0.000000" height="25.000000" width="25.000000" xlink:href="90626_Overview_files/95dc0d6add570b57_mask_2.jpg"/></mask><mask id="mask3" x="0" y="0" height="100%" width="100%"><image x="407.000000" y="254.000015" height="25.000000" width="25.000000" xlink:href="90626_Overview_files/95dc0d6add570b57_mask_3.jpg"/></mask><mask id="mask4" x="0" y="0" height="100%" width="100%"><image x="18.000004" y="44.527248" height="75.000008" width="75.000008" xlink:href="90626_Overview_files/95dc0d6add570b57_mask_4.jpg"/></mask><mask id="mask5" x="0" y="0" height="100%" width="100%"><image x="18.000004" y="130.228806" height="75.000008" width="75.000008" xlink:href="90626_Overview_files/95dc0d6add570b57_mask_5.jpg"/></mask></defs><g><path style="fill:#ffffff" d="M431.88,279.36L0.07,279.36L0.07,0.07L431.88,0.07z"/><path style="fill:#9a9a9a" d="M270.91,228.57L271.00,233.19L272.57,234.13L273.75,234.12L274.35,233.21L274.48,231.27L275.84,232.11L277.12,233.34L277.15,233.78L275.50,235.37L274.32,235.39L272.83,234.60L272.73,241.08L263.74,243.67L260.02,243.67L259.29,243.15L258.92,238.61L259.17,238.35L260.30,238.38L261.20,238.80L261.32,239.16L261.57,239.23L261.58,238.83L261.39,237.33L263.06,237.22L263.08,235.85L262.40,235.47L255.11,235.23L250.07,235.21L249.52,235.53L249.52,238.91L250.01,238.90L249.80,238.64L249.64,237.05L256.11,237.35L256.18,239.57L255.44,240.64L253.90,240.81L253.77,238.36L253.67,242.33L252.93,243.40L248.73,243.42L240.47,240.90L238.74,240.12L238.23,239.62L233.21,239.13L232.70,238.62L232.70,237.72L234.35,236.11L237.97,235.96L238.35,234.83L240.14,232.87L240.99,232.21L241.06,228.07z"/><path style="fill:#8a8a8a" d="M274.32,235.39L275.50,235.37L277.15,233.78L277.18,236.75L275.60,238.22L275.43,240.02L275.08,240.24L272.73,241.08L272.83,234.60z"/><path style="fill:#8a8a8a" d="M249.64,237.05L249.80,238.64L250.01,238.90L249.52,238.91L249.52,235.53z"/><path style="fill:#dadada" d="M262.40,235.47L263.08,235.85L263.06,237.22L261.39,237.33L256.36,237.35L256.11,237.35L249.64,237.05L249.52,235.53L250.07,235.21L255.11,235.23z"/><path style="fill:#9a9a9a" d="M281.24,238.35L280.97,239.03L280.27,239.88L275.43,240.02L275.60,238.22L277.18,236.75L282.46,236.84z"/><path style="fill:#8a8a8a" d="M252.20,228.81L252.73,228.85L253.53,230.09L253.76,231.40L253.47,231.47L253.28,230.34z"/><path style="fill:#8a8a8a" d="M271.00,233.19L270.91,228.57L274.42,228.57L274.48,231.27L274.35,233.21L273.75,234.12L272.57,234.13z"/><path style="fill:#8a8a8a" d="M240.99,233.42L240.65,233.67L240.13,233.63L240.90,232.85L241.01,232.88z"/><path style="fill:#8a8a8a" d="M282.65,237.45L280.97,239.03L281.24,238.35L282.46,236.84L282.64,236.90z"/><path style="fill:#8a8a8a" d="M261.20,238.80L261.58,238.83L261.57,239.23L261.32,239.16z"/><path style="fill:#8a8a8a" d="M256.18,239.57L256.11,237.35L256.36,237.35z"/><path style="fill:#8a8a8a" d="M253.90,240.81L253.67,242.33L253.77,238.36z"/><path style="fill:#e5e5e5" d="M287.17,68.03L287.41,68.63L286.36,67.77L286.31,67.53L286.60,67.53z"/><path style="fill:#e5e5e5" d="M303.47,61.61L295.39,70.42L295.40,70.84L295.89,70.91L304.10,62.01L304.20,215.41L296.14,224.15L295.92,226.19L295.30,227.08L293.83,228.11L289.58,228.37L289.37,228.66L274.42,228.57L270.91,228.57L241.06,228.07L122.95,226.40L122.95,226.12L126.61,225.84L117.05,225.61L116.27,225.31L116.21,225.08L128.85,225.09L284.62,227.35L293.34,227.37L294.41,226.43L294.67,225.94L294.93,71.32L294.62,70.81L294.58,70.35L303.35,61.02L303.47,61.05z"/><path style="fill:#e5e5e5" d="M306.70,81.69L306.36,81.69L306.36,81.36L306.70,81.36z"/><path style="fill:#e50000" d="M259.58,94.31L261.57,96.88L262.55,98.91L263.30,101.43L263.55,104.52L263.06,107.28L262.05,109.79L260.79,111.79L258.93,113.69L257.03,115.06L256.92,116.40L256.78,126.34L256.53,128.10L255.53,130.36L254.54,131.63L252.65,133.25L250.69,134.05L246.72,134.05L246.07,133.75L250.18,133.79L251.68,133.28L253.80,131.89L255.20,129.78L255.78,128.10L256.02,104.44L255.27,101.92L254.55,100.65L254.26,100.40L254.26,99.77L257.45,96.37L257.78,96.37L258.82,97.38L259.79,99.17L260.79,101.93L261.04,104.77L260.30,108.03L259.21,109.96L256.96,112.48L257.03,114.32L259.18,112.44L260.46,110.96L261.97,107.95L262.55,106.02L262.54,101.43L261.54,97.91L259.82,95.12L258.54,93.88L258.43,93.55L258.78,93.63z"/><path style="fill:#ffef24" d="M253.77,88.38L256.53,89.13L258.79,90.39L260.54,91.64L261.37,92.52L259.58,94.31L258.78,93.63L258.43,93.55L257.03,92.40L254.27,91.14L252.52,90.63L248.42,90.64L246.91,90.88L244.91,91.64L241.75,93.50L239.87,95.64L238.86,97.13L237.89,99.18L237.21,102.26L237.21,104.94L237.45,106.45L238.56,109.80L238.24,109.70L237.20,107.20L236.70,105.45L236.37,102.19L236.95,98.73L238.14,95.66L239.87,93.12L241.97,91.21L244.91,89.39L246.90,88.62L249.92,88.13z"/><path style="fill:#e5d720" d="M263.58,95.13L264.81,97.66L265.81,101.43L265.81,104.77L265.31,107.03L264.30,109.53L262.45,112.44L259.94,114.70L256.92,116.40L257.03,115.06L258.93,113.69L260.79,111.79L262.05,109.79L263.06,107.28L263.55,104.52L263.30,101.43L262.55,98.91L261.57,96.88L259.58,94.31L261.37,92.52L261.55,92.62z"/><path style="fill:#e5d720" d="M239.30,111.13L238.96,110.95L238.86,110.37L238.99,110.43z"/><path style="fill:#e5d720" d="M239.77,111.41L240.03,112.11L239.47,111.71L239.30,111.13z"/><path style="fill:#ff0000" d="M254.27,91.14L257.03,92.40L258.43,93.55L258.54,93.88L259.82,95.12L261.54,97.91L262.54,101.43L262.55,106.02L261.97,107.95L260.46,110.96L259.18,112.44L257.03,114.32L256.96,112.48L259.21,109.96L260.30,108.03L261.04,104.77L260.79,101.93L259.79,99.17L258.82,97.38L257.78,96.37L257.45,96.37L254.26,99.77L254.26,100.40L254.55,100.65L255.27,101.92L256.02,104.44L255.78,128.10L255.20,129.78L253.80,131.89L251.68,133.28L250.18,133.79L246.07,133.75L244.48,133.04L242.50,131.26L241.47,129.28L241.21,128.53L240.99,113.20L240.03,112.11L239.77,111.41L239.30,111.13L238.99,110.43L238.86,110.37L238.56,109.80L237.45,106.45L237.21,104.94L237.21,102.26L237.89,99.18L238.86,97.13L239.87,95.64L241.75,93.50L244.91,91.64L246.91,90.88L248.42,90.64L252.52,90.63z"/><path style="fill:#ffffff" d="M297.91,79.06L297.68,218.16L296.64,219.41L296.42,202.80L296.16,202.81L296.16,202.39L296.42,202.10L296.42,95.94L296.16,95.94L296.08,95.73L296.38,95.47L296.59,78.07L296.90,78.05z"/><path style="fill:#ffffff" d="M302.42,124.77L302.43,129.60L302.19,131.38L301.93,131.85L301.67,131.58L301.64,124.26z"/><path style="fill:#ffffff" d="M302.42,205.04L302.43,210.12L302.19,211.90L301.93,212.37L301.67,212.10L301.64,204.53z"/><g id="Actor_.0"><g style="stroke:#000000;stroke-width:0.176"><path d="M260.43,238.36L260.17,238.63L259.52,238.56L259.10,238.55L259.05,238.57L258.98,238.60L258.92,238.66"/><path d="M259.18,238.38L259.18,238.39"/><path d="M262.89,235.61L263.21,235.82L263.21,237.85L263.20,238.44L263.14,238.77L262.99,239.06L262.75,239.29L262.45,239.44L262.13,239.49L261.80,239.44L261.49,239.30L261.17,238.99L261.07,238.93L260.81,238.83L260.17,238.63"/><path d="M262.94,228.39L262.80,228.54L261.80,228.46L260.89,228.69L260.09,229.18"/><path d="M261.57,238.86L261.75,239.02L262.05,239.17L262.38,239.22L262.71,239.17L263.00,239.02L263.01,239.01"/><path d="M261.17,238.99L261.42,238.72"/><path d="M263.04,232.11L262.86,232.34L262.55,232.53L262.19,232.62"/><path d="M260.99,231.50L261.05,231.13L261.23,230.81L261.43,230.63"/><path d="M262.12,230.40L262.20,230.40L262.55,230.49L262.86,230.70L263.09,230.99L263.20,231.34L263.20,231.46"/><path d="M262.80,228.54L263.73,228.94L270.50,233.26L271.87,234.10L273.16,234.80L274.24,235.29L275.00,235.54L275.24,235.56L275.37,235.51L277.14,233.59L277.17,233.47"/><path d="M263.35,228.40L263.79,228.58"/><path d="M265.31,229.51L270.75,232.99L271.64,233.53L272.48,233.99L273.18,234.31L273.68,234.47L273.83,234.48L273.92,234.45L275.54,232.69L275.55,232.62L275.50,232.49L275.19,232.14L274.63,231.66L274.34,231.44"/><path d="M273.70,240.79L273.70,235.05"/><path d="M274.91,231.90L274.91,233.37"/><path d="M281.06,239.17L281.06,238.52L275.45,238.44L275.45,239.97"/><path d="M277.15,236.69L277.07,236.69L275.45,238.44"/><path d="M281.06,238.52L282.68,236.77"/></g><g style="stroke:#000000;stroke-width:0.176"><path d="M274.34,230.96L274.60,231.14L275.75,231.99L276.60,232.73L277.08,233.28L277.17,233.47L277.15,236.69L282.68,236.77L282.68,237.42L281.06,239.17L280.19,240.03L275.45,239.97L275.37,240.05L275.00,240.28L274.24,240.60L273.16,240.98L271.87,241.39L270.50,241.78L263.28,243.75L260.36,243.70L259.91,243.61L259.51,243.38L259.22,243.03L259.07,242.60L259.05,242.37L259.05,240.54L258.89,238.80L258.89,238.73L258.92,238.66L259.18,238.38L259.23,238.33L259.30,238.29L259.35,238.28L259.77,238.29L260.43,238.36L261.06,238.55L261.32,238.66L261.42,238.72L261.57,238.86"/><path d="M261.34,228.36L261.14,228.41L260.34,228.91L260.09,229.18L259.48,229.90L259.13,230.77L259.06,231.71L259.28,232.63L259.77,233.45L260.48,234.07L262.89,235.61"/><path d="M261.57,238.86L261.57,237.80L261.53,237.36"/><path d="M262.12,230.40L261.83,230.42L261.50,230.57L261.43,230.63L261.39,230.69"/><path d="M263.20,231.46L263.20,231.71L263.09,232.05L263.04,232.11L262.97,232.16"/><path d="M263.79,228.58L263.98,228.67L265.31,229.51"/></g></g><g id="Actor_.1"><g style="stroke:#000000;stroke-width:0.176"><path d="M241.75,228.09L241.75,232.93"/><path d="M249.59,230.72L249.42,231.03L249.36,231.38L249.42,231.73L249.59,232.04L249.84,232.28L250.17,232.43L250.52,232.46L250.86,232.38L251.16,232.19L251.37,231.92L251.49,231.58L251.49,231.23L251.37,230.90L251.16,230.62L250.86,230.42L250.52,230.33L250.17,230.35L249.84,230.49L249.59,230.72L249.90,230.39"/><path d="M262.49,235.35L250.10,235.17"/><path d="M251.47,231.85L251.16,232.19"/><path d="M261.21,230.89L261.04,231.20L260.98,231.55L261.04,231.89L261.21,232.21L261.47,232.45L261.79,232.59L262.14,232.63L262.48,232.55L262.78,232.36L263.00,232.08L263.11,231.75L263.11,231.40L263.00,231.07L262.78,230.79L262.48,230.59L262.14,230.50L261.79,230.52L261.47,230.66L261.21,230.89L261.52,230.56"/><path d="M262.78,232.36L263.10,232.01"/><path d="M271.67,228.51L271.67,233.55"/></g><g style="stroke:#000000;stroke-width:0.176"><path d="M241.02,228.07L241.02,233.36"/><path d="M249.95,235.26L262.63,235.45"/><path d="M274.34,228.56L274.34,233.27L274.32,233.40L274.26,233.52L273.45,234.40"/></g></g><g id="Actor_.2"><g style="stroke:#000000;stroke-width:0.176"/><g style="stroke:#000000;stroke-width:0.176"><path d="M253.73,235.32L253.73,237.24L263.21,237.38"/></g></g><g id="Actor_.3"><g style="stroke:#000000;stroke-width:0.176"><path d="M232.68,237.82L238.22,237.90L238.22,239.43"/><path d="M239.19,240.29L239.19,234.55"/><path d="M238.22,237.90L238.21,236.12"/><path d="M238.20,235.02L238.28,235.01L238.76,234.78L239.62,234.31L240.76,233.65L242.09,232.85L248.86,228.72L249.79,228.36L249.93,228.20"/><path d="M241.02,232.66L239.83,233.95L239.81,233.99L239.87,233.98L240.18,233.83L240.74,233.53L241.48,233.09L242.34,232.58L249.11,228.45L249.75,228.19"/><path d="M239.83,233.98L239.83,233.95"/><path d="M251.42,238.85L251.09,239.15L250.79,239.29L250.46,239.33L250.13,239.26L249.84,239.11L249.60,238.87L249.45,238.57L249.39,238.24L249.37,237.65L249.37,235.62L249.63,235.46L249.63,237.38L249.64,237.97L249.70,238.30L249.85,238.60L250.09,238.83L250.39,238.99L250.71,239.05L251.04,239.01L251.34,238.87L251.67,238.57L251.42,238.85L251.52,238.79L251.78,238.69L252.41,238.52L252.66,238.24L252.03,238.42L251.77,238.52L251.67,238.57"/><path d="M249.63,235.46L252.10,233.95L252.16,233.91"/><path d="M250.57,232.45L250.93,232.36L251.24,232.17L251.46,231.88L251.58,231.54L251.58,231.17L251.46,230.82L251.24,230.53L250.93,230.33L250.57,230.23L250.21,230.26L249.87,230.40L249.60,230.64L249.43,230.96L249.37,231.33"/><path d="M249.81,230.46L249.77,230.53"/><path d="M249.79,228.36L250.79,228.30L251.70,228.55L252.50,229.07L253.10,229.81L253.46,230.69L253.53,231.63L253.31,232.54L252.82,233.34"/><path d="M251.41,231.94L251.34,231.99"/><path d="M253.08,243.29L253.37,242.94L253.52,242.52L253.52,242.50L253.54,242.29L253.54,240.46L253.70,238.73L253.69,238.65L253.66,238.58L253.61,238.52L253.54,238.49L253.49,238.47L253.07,238.47L252.41,238.52"/><path d="M252.66,238.24L253.32,238.19L253.74,238.20L253.79,238.21L253.86,238.25L253.91,238.31L253.66,238.58"/><path d="M252.16,228.42L251.95,228.28L251.77,228.23"/><path d="M253.37,242.94L253.62,242.67"/><path d="M253.79,240.83L253.79,240.19L253.95,238.45L253.95,238.38L253.91,238.31"/><path d="M253.68,231.80L253.78,231.36L253.71,230.41L253.36,229.53L253.27,229.43"/><path d="M256.15,239.93L255.90,240.20L256.05,239.78L256.07,239.56L256.07,237.72L256.11,237.28"/><path d="M255.90,240.20L255.61,240.55"/></g><g style="stroke:#000000;stroke-width:0.176"><path d="M238.21,236.12L234.30,236.07L232.68,237.82L232.68,238.47L233.56,239.36L238.22,239.43L238.22,239.51L238.28,239.74L238.76,240.08L239.62,240.49L240.76,240.94L242.09,241.37L249.30,243.54L252.23,243.58L252.68,243.51L253.08,243.29L253.33,243.01L253.62,242.67L253.77,242.24L253.79,242.02L253.79,240.83"/><path d="M238.21,236.12L238.20,235.02L238.22,234.97L239.99,233.05L240.13,232.93L240.36,232.75L241.02,232.29"/><path d="M253.68,231.80L253.56,232.27L253.07,233.07L252.82,233.34L252.16,233.91"/><path d="M253.27,229.43L252.75,228.80L252.16,228.42"/><path d="M253.79,240.83L254.76,240.85L255.21,240.77L255.61,240.55L255.86,240.27L256.15,239.93L256.30,239.50L256.32,239.28L256.32,237.45L256.34,237.28"/></g></g><g id="Actor_.4"><g style="stroke:#000000;stroke-width:0.176"><path d="M253.69,235.32L253.69,237.16"/></g><g style="stroke:#000000;stroke-width:0.176"><path d="M253.73,237.11L253.69,237.16L249.63,237.10"/></g></g><g id="Actor_.5"><g style="stroke:#000000;stroke-width:0.176"><path d="M240.99,112.88L240.44,112.34L239.18,110.64L238.19,108.74L237.52,106.72L237.18,104.63L237.18,102.52L237.52,100.43L238.19,98.44L239.17,96.58L239.97,95.50L240.10,95.36L240.03,95.45"/><path d="M240.99,112.61L240.60,112.21L240.08,111.54L239.36,110.55L238.95,109.80L238.40,108.71L238.12,107.90L237.75,106.74L237.59,105.90L237.42,104.70L237.40,103.85L237.42,102.64L237.54,101.80L237.75,100.61L238.00,99.80L238.40,98.67L238.78,97.91L239.36,96.86L239.86,96.17L240.60,95.23L241.20,94.63L242.09,93.82L242.78,93.33L243.79,92.67L244.55,92.30L245.65,91.82L246.47,91.57L247.64,91.27L248.48,91.16L249.68,91.05L250.54,91.08L251.75,91.17L252.59,91.33L253.77,91.61L254.57,91.90L255.70,92.37L256.45,92.78L257.49,93.42L258.16,93.95L259.08,94.75L259.67,95.38L260.45,96.31L260.93,97.02L261.56,98.07L261.91,98.85L262.37,99.98L262.59,100.80L262.86,101.99L262.95,102.83L263.03,104.04L262.98,104.89L262.86,106.10L262.68,106.92L262.37,108.09L262.05,108.87L261.56,109.98L261.12,110.69L260.45,111.70L259.91,112.34L259.08,113.23L258.44,113.77L257.49,114.51L256.80,114.91"/><path d="M256.80,112.61L257.13,112.41L259.00,110.44L260.32,108.06L261.00,105.42L261.09,104.06L261.00,102.69L260.32,100.03L259.00,97.61L257.13,95.59L254.81,94.09L252.21,93.21L249.48,93.00L246.79,93.47L244.31,94.60L242.20,96.31L240.59,98.50L239.58,101.03L239.24,103.74L239.58,106.46L240.59,109.02L240.99,109.58"/><path d="M240.10,95.36L240.44,94.91L241.92,93.46L244.28,91.90L243.86,92.18"/><path d="M256.11,119.15L256.11,126.81L256.07,127.39L255.95,128.37L255.79,128.92L255.46,129.85L255.19,130.35L254.68,131.19L254.31,131.62L253.64,132.33L253.18,132.68L252.37,133.23L251.85,133.47L250.94,133.85L250.38,133.98L249.41,134.15L248.83,134.16L247.85,134.13L247.28,134.01L246.32,133.78L245.78,133.55L244.89,133.12L244.41,132.79L243.62,132.19L243.22,131.76L242.58,131.01L242.27,130.51L241.79,129.65L241.60,129.10L241.31,128.15L241.23,127.58L241.15,126.60L241.15,106.94"/><path d="M241.00,125.84L241.00,125.73L241.00,126.18L241.00,125.84"/><path d="M241.00,125.73L241.00,124.18L241.00,125.73"/><path d="M241.00,126.18L241.00,126.56"/><path d="M241.00,124.18L241.00,122.63L241.00,124.18"/><path d="M241.00,122.63L240.99,113.72"/><path d="M240.86,105.41L240.85,105.51L240.99,106.94L240.99,113.24"/><path d="M256.05,107.16L256.20,105.78L256.05,104.19L255.57,102.66L254.79,101.26L253.73,100.06L252.44,99.09L250.98,98.42L249.42,98.06L247.83,98.04L246.26,98.35L244.81,98.98L243.53,99.90L242.46,101.08L241.67,102.46L241.20,103.97L241.05,105.56L241.19,106.94"/><path d="M240.99,106.95L240.96,106.65"/><path d="M262.22,109.44L262.11,109.67L262.91,107.97L263.52,105.21L263.60,103.79L263.52,102.37L262.91,99.59L262.08,97.79L261.71,96.99L259.99,94.70L257.82,92.83L255.49,91.56L255.31,91.46L252.57,90.67L249.73,90.47L246.92,90.89L244.28,91.90"/><path d="M256.11,107.16L256.11,117.77"/><path d="M256.58,108.44L256.80,109.30L256.80,116.50"/><path d="M256.80,115.22L257.76,114.68L259.40,113.37L259.99,112.77L260.55,112.09L260.81,111.81L261.71,110.54L261.87,110.21L261.71,110.54"/><path d="M258.17,93.13L258.60,93.50"/><path d="M262.11,109.67L261.87,110.21"/></g><g style="stroke:#000000;stroke-width:0.176"><path d="M240.99,113.24L239.42,111.56L237.77,108.80L236.75,105.77L236.41,102.59L236.75,99.43L237.77,96.42L239.42,93.71L241.62,91.43L244.26,89.68L247.22,88.54L250.37,88.07L253.56,88.29L256.64,89.19L259.46,90.72L261.89,92.82L263.82,95.39L265.16,98.30L265.85,101.42L265.94,103.02L265.85,104.61L265.16,107.72L263.82,110.59L261.89,113.10L259.46,115.13L256.80,116.50"/><path d="M240.99,113.24L240.99,126.53L241.16,128.13L241.66,129.67L242.46,131.08L243.54,132.28L244.83,133.24L246.29,133.91L247.88,134.27L249.49,134.30L251.06,133.99L252.53,133.35L253.83,132.43L254.91,131.25L255.58,130.43L256.49,128.46L256.80,126.30L256.80,119.53"/><path d="M256.80,118.16L256.80,116.50"/></g></g><g id="Actor_.6"><g style="stroke:#000000;stroke-width:0.176"><path d="M128.40,226.09L128.40,226.11"/><path d="M128.42,226.30L128.42,226.32"/><path d="M133.95,226.17L133.94,225.96"/><path d="M133.95,226.19L133.97,226.38"/><path d="M133.97,226.40L134.00,226.50"/><path d="M134.04,226.52L134.02,226.51"/><path d="M139.50,226.25L139.50,226.27"/><path d="M139.52,226.46L139.52,226.48"/><path d="M145.04,226.12L145.07,226.54L145.10,226.66L145.14,226.68"/><path d="M150.60,226.41L150.60,226.43"/><path d="M156.15,226.51L156.17,226.70"/><path d="M156.24,226.85L156.20,226.82L156.18,226.72"/><path d="M156.15,226.49L156.14,226.28"/><path d="M167.24,226.44L167.25,226.65"/><path d="M167.25,226.67L167.27,226.86"/><path d="M167.34,227.01L167.30,226.98L167.28,226.88"/><path d="M178.38,227.04L178.40,227.14L178.44,227.17"/><path d="M178.37,227.02L178.35,226.83"/><path d="M178.34,226.60L178.35,226.81"/><path d="M183.90,226.89L183.90,226.92"/><path d="M183.92,227.11L183.93,227.12"/><path d="M189.44,226.76L189.47,227.19L189.50,227.30L189.54,227.33"/><path d="M195.00,227.05L195.00,227.08"/><path d="M195.02,227.27L195.03,227.28"/><path d="M200.58,227.36L200.60,227.47L200.64,227.49"/><path d="M200.57,227.35L200.55,227.16"/><path d="M200.54,226.92L200.55,227.13"/><path d="M206.10,227.21L206.10,227.24"/><path d="M206.12,227.43L206.13,227.44"/><path d="M211.74,227.65L211.70,227.63L211.68,227.52"/><path d="M211.67,227.51L211.65,227.32"/><path d="M211.64,227.08L211.65,227.30"/><path d="M217.20,227.38L217.20,227.40"/><path d="M217.22,227.59L217.23,227.61"/><path d="M222.84,227.81L222.80,227.79L222.78,227.67L222.74,227.24"/><path d="M228.30,227.54L228.30,227.56"/><path d="M233.85,227.62L233.84,227.41"/><path d="M233.85,227.64L233.88,227.83"/><path d="M233.94,227.97L233.90,227.95L233.88,227.85"/><path d="M244.95,227.78L244.94,227.57"/><path d="M244.96,227.80L244.98,227.99"/><path d="M244.98,228.01L245.01,228.11L245.04,228.13"/><path d="M256.14,228.29L256.11,228.27L256.08,228.18"/><path d="M256.08,228.15L256.06,227.96"/><path d="M256.05,227.94L256.04,227.73"/><path d="M261.63,228.23L261.63,228.25"/><path d="M261.60,228.02L261.60,228.04"/><path d="M267.24,228.45L267.21,228.43L267.18,228.31L267.14,227.89"/><path d="M272.70,228.18L272.71,228.20"/><path d="M272.73,228.39L272.73,228.41"/><path d="M278.28,228.49L278.31,228.59L278.34,228.62"/><path d="M278.28,228.47L278.26,228.28"/><path d="M278.24,228.05L278.25,228.26"/><path d="M283.80,228.34L283.81,228.36"/><path d="M283.83,228.55L283.83,228.57"/><path d="M289.48,228.21L289.45,228.35L289.40,228.21"/><path d="M289.44,228.78L289.41,228.75L289.38,228.62L289.34,228.21"/></g><g style="stroke:#000000;stroke-width:0.176"><path d="M134.04,226.52L128.48,226.44L128.45,226.42L128.42,226.32"/><path d="M128.40,226.09L128.38,225.88"/><path d="M128.40,226.11L128.42,226.30"/><path d="M145.14,226.68L139.58,226.60L139.55,226.58L139.52,226.48"/><path d="M139.50,226.25L139.49,226.04"/><path d="M139.52,226.46L139.50,226.27"/><path d="M156.24,226.85L150.68,226.76L150.65,226.74L150.60,226.43"/><path d="M150.60,226.41L150.59,226.20"/><path d="M167.34,227.01L161.79,226.93L161.75,226.90L161.72,226.78L161.69,226.36"/><path d="M172.79,226.52L172.82,226.94L172.85,227.06L172.89,227.09L178.44,227.17"/><path d="M189.54,227.33L183.99,227.25L183.96,227.23L183.93,227.12"/><path d="M183.90,226.89L183.89,226.68"/><path d="M183.90,226.92L183.92,227.11"/><path d="M200.64,227.49L195.09,227.41L195.06,227.39L195.03,227.28"/><path d="M195.00,227.05L194.99,226.84"/><path d="M195.00,227.08L195.02,227.27"/><path d="M211.74,227.65L206.19,227.57L206.16,227.55L206.13,227.44"/><path d="M206.12,227.43L206.10,227.24"/><path d="M206.10,227.21L206.09,227.00"/><path d="M217.20,227.38L217.19,227.16"/><path d="M217.20,227.40L217.22,227.59"/><path d="M217.23,227.61L217.26,227.71L217.29,227.73L222.84,227.81"/><path d="M228.30,227.54L228.29,227.33"/><path d="M228.30,227.56L228.33,227.77L228.36,227.87L228.39,227.89L233.94,227.97"/><path d="M245.04,228.13L239.49,228.05L239.46,228.03L239.43,227.91L239.39,227.49"/><path d="M256.14,228.29L250.59,228.21L250.56,228.19L250.53,228.07L250.49,227.65"/><path d="M261.63,228.23L261.60,228.04"/><path d="M261.63,228.25L261.66,228.35L261.69,228.37L267.24,228.45"/><path d="M261.60,228.02L261.59,227.81"/><path d="M278.34,228.62L272.79,228.54L272.76,228.52L272.73,228.41"/><path d="M272.73,228.39L272.71,228.20"/><path d="M272.70,228.18L272.69,227.97"/><path d="M283.83,228.55L283.81,228.36"/><path d="M283.83,228.57L283.86,228.68L283.89,228.70L289.44,228.78L289.51,228.51L289.54,228.21"/><path d="M283.80,228.34L283.79,228.13"/></g></g><g id="Actor_.7"><g style="stroke:#000000;stroke-width:0.176"><path d="M304.37,66.17L307.43,66.22L309.15,66.51L310.70,67.32L311.92,68.57L312.57,69.85L312.71,70.12L312.98,71.84L312.98,148.28"/><path d="M305.40,82.44L305.46,82.44"/><path d="M305.52,82.40L305.44,82.47L305.83,82.47L305.83,82.52L305.33,82.51L305.72,82.18L305.33,82.17L305.37,82.13"/><path d="M305.50,82.40L305.83,82.14L305.44,82.47"/><path d="M305.37,81.47L305.33,81.52L305.33,81.47L305.83,81.55L305.42,81.75L305.48,81.68L305.78,81.54"/><path d="M305.33,81.52L305.69,81.57L305.73,81.53"/><path d="M305.43,81.70L305.45,81.71"/><path d="M305.42,81.75L305.83,81.97L305.33,82.03L305.33,81.98L305.69,81.94L305.33,81.75L305.69,81.57"/><path d="M305.79,80.58L305.55,80.69L305.55,80.47L305.83,80.61L305.33,80.83L305.33,80.78L305.49,80.72L305.39,80.76L305.33,80.83"/><path d="M305.83,82.14L305.77,82.14L305.72,82.18"/><path d="M305.33,82.17L305.33,82.13L305.77,82.14"/><path d="M305.74,81.92L305.71,81.92"/><path d="M305.57,80.48L305.55,80.49L305.73,80.60L305.49,80.72L305.49,80.48L305.33,80.40L305.33,80.36L305.55,80.47"/><path d="M305.49,80.72L305.54,80.65"/><path d="M305.69,81.94L305.72,81.90"/><path d="M305.37,81.98L305.33,82.03"/><path d="M305.73,79.47L305.76,79.44"/><path d="M306.42,79.72L306.48,79.66L306.40,79.78L306.42,79.72L306.17,79.66L306.07,79.68L306.00,79.58L305.95,79.60L305.93,79.65L305.99,79.74L306.10,79.84L306.24,79.91L306.44,79.95L306.55,80.08L306.60,80.08L306.48,79.92L306.62,79.80L307.16,80.13L307.26,80.14L307.34,80.11L307.30,80.07L307.23,80.06L306.68,79.74L306.48,79.92"/><path d="M305.54,79.37L305.44,79.40L305.37,79.46L305.33,79.53L305.33,79.69L305.36,79.76L305.49,79.87L305.58,79.89L305.72,79.85L305.83,79.72L305.84,79.62L305.75,79.76L305.79,79.63L305.74,79.49L305.62,79.41L305.51,79.42L305.45,79.45L305.38,79.54L305.42,79.42"/><path d="M305.49,79.16L305.44,79.21L305.83,78.89L305.49,79.16"/><path d="M305.39,80.25L305.68,79.99L305.64,80.04L305.83,80.24L305.83,80.31L305.60,80.06L305.33,80.32L305.39,80.25L305.39,80.20"/><path d="M305.60,80.06L305.68,79.99L305.33,79.98L305.33,80.03L305.37,79.99"/><path d="M305.33,80.03L305.57,80.03L305.33,80.26L305.33,80.32"/><path d="M305.57,80.03L305.62,79.99"/><path d="M306.55,79.54L306.59,79.52L306.60,79.54L306.55,79.54L306.43,79.40L306.24,79.37L306.07,79.27L305.95,79.14L305.94,79.07L306.00,79.04L306.07,79.14L306.17,79.12L306.30,79.14L306.42,79.18L306.40,79.24L306.47,79.16L306.46,79.23L306.40,79.30L306.40,79.24"/><path d="M305.33,80.40L305.36,80.37"/><path d="M305.49,80.48L305.52,80.45"/><path d="M305.84,79.62L305.80,79.48L305.67,79.38L305.58,79.36L305.51,79.38L305.41,79.49"/><path d="M305.40,79.19L305.46,79.19"/><path d="M305.44,79.21L305.83,79.22L305.83,79.26L305.33,79.26L305.72,78.92L305.33,78.92L305.37,78.87"/><path d="M305.38,79.54L305.38,79.70L305.46,79.80L305.52,79.83L305.65,79.83L305.75,79.76"/><path d="M305.69,79.81L305.80,79.77"/><path d="M305.64,80.04L305.83,80.04L305.83,79.99L305.68,79.99"/><path d="M305.73,80.60L305.76,80.57"/><path d="M305.83,78.56L305.33,78.78L305.39,78.71L305.55,78.64L305.80,78.54L305.83,78.56"/><path d="M305.54,78.61L305.55,78.45L305.73,78.55L305.55,78.64L305.54,78.61L305.49,78.66L305.49,78.44L305.33,78.36L305.33,78.31L305.36,78.32L305.33,78.36"/><path d="M305.49,78.66L305.33,78.73L305.33,78.78"/><path d="M305.49,78.44L305.52,78.40L305.36,78.32"/><path d="M305.83,78.89L305.33,78.87L305.33,78.92"/><path d="M305.80,78.54L305.57,78.43L305.55,78.45L305.55,78.42L305.52,78.40"/><path d="M305.55,78.42L305.57,78.43"/><path d="M305.78,78.88L305.72,78.92"/><path d="M305.73,78.55L305.76,78.52"/><path d="M305.50,79.14L305.52,79.14"/><path d="M307.49,203.73L307.37,203.85L307.14,204.37L307.09,204.94L307.23,205.49L307.55,205.97L308.00,206.33L308.54,206.52L309.11,206.53L309.64,206.35L310.09,206.01L310.15,205.93"/><path d="M306.84,82.47L306.90,82.47L306.76,82.27L306.78,82.30L306.72,82.36L306.84,82.47L306.80,82.50L306.78,82.53L306.58,82.37L306.54,82.36L306.50,82.37L306.40,82.22L306.48,82.23L306.72,82.36L306.62,82.24L306.39,82.04L306.38,81.99L306.48,81.95L306.61,81.95L306.69,81.99L306.63,81.98L306.57,82.05L306.62,82.07L306.82,82.23L306.86,82.17L306.83,82.11L306.76,82.18"/><path d="M306.40,82.22L306.35,82.24L306.35,82.32L306.55,82.57L306.59,82.55L306.50,82.41L306.50,82.37"/><path d="M306.55,82.57L306.60,82.57L306.59,82.55"/><path d="M306.51,82.36L306.58,82.29L306.56,82.30"/><path d="M306.78,82.53L306.89,82.52L306.91,82.51L306.90,82.47"/><path d="M306.76,82.27L306.56,82.08L306.57,82.05L306.45,81.97"/><path d="M306.47,81.33L306.42,81.21L306.55,81.17L306.65,81.20L306.74,81.28L306.90,81.60L306.83,81.67L306.91,81.64L306.96,81.70L306.88,81.48L306.74,81.28L306.59,81.21L306.54,81.23L306.47,81.30L306.57,81.29L306.66,81.36L306.71,81.44L306.83,81.67L306.76,81.74L306.85,81.72L306.89,81.76L306.96,81.70"/><path d="M306.59,80.81L306.50,80.89L306.40,80.72L306.34,80.74L306.33,80.78L306.36,80.87L306.54,81.08L306.57,81.05"/><path d="M306.76,80.50L306.68,80.57L306.41,80.45L306.36,80.46L306.35,80.49L306.37,80.53L306.43,80.46L306.60,80.62L306.78,80.73L306.87,80.74L306.89,80.68L306.70,80.56L306.58,80.43L306.37,80.25L306.37,80.21L306.53,80.16L306.67,80.20L306.63,80.20L306.56,80.27L306.64,80.30L306.80,80.44L306.83,80.45L306.86,80.42L306.83,80.45"/><path d="M306.37,80.53L306.70,80.86L306.80,80.94L306.87,80.96L306.50,80.56L306.50,80.53L306.53,80.49"/><path d="M306.54,81.08L306.60,81.08L306.49,80.94L306.50,80.89"/><path d="M306.40,80.72L306.47,80.74L306.72,80.87L306.75,80.83"/><path d="M306.85,81.72L306.91,81.64"/><path d="M306.42,81.21L306.35,81.27L306.36,81.33L306.59,81.56L306.50,81.65L306.58,81.63L306.76,81.74"/><path d="M306.54,81.86L306.59,81.86L306.42,81.59L306.39,81.53L306.40,81.51L306.34,81.52L306.32,81.56L306.36,81.66L306.54,81.86L306.57,81.83"/><path d="M306.74,82.04L306.83,82.11L306.69,81.99L306.74,82.04"/><path d="M306.55,80.84L306.57,80.81L306.52,80.88L306.58,80.88L306.77,81.03L306.85,81.01L306.87,80.96"/><path d="M306.59,81.56L306.64,81.57L306.83,81.67L306.63,81.51L306.59,81.56L306.40,81.51"/><path d="M306.50,81.65L306.49,81.68"/><path d="M306.63,81.51L306.48,81.34L306.47,81.30"/><path d="M306.40,79.78L306.40,79.84L306.25,79.83L306.13,79.79L306.06,79.72L306.06,79.70L306.17,79.60L306.33,79.61"/><path d="M306.64,80.30L306.71,80.23L306.85,80.37L306.80,80.30L306.67,80.20L306.71,80.23"/><path d="M306.89,80.68L306.73,80.46L306.43,80.19"/><path d="M306.44,79.95L306.50,79.87L306.31,79.84"/><path d="M306.63,79.28L307.16,79.59L307.26,79.60L307.34,79.57L307.30,79.53L307.23,79.52L306.68,79.20L306.62,79.26L306.63,79.28"/><path d="M306.43,79.40L306.50,79.33L306.31,79.30"/><path d="M306.42,79.18L306.53,79.09L306.61,79.09L306.84,79.29L307.30,79.53"/><path d="M307.30,80.07L306.84,79.84L306.61,79.63L306.53,79.63L306.48,79.66L306.28,79.59L306.12,79.55L306.00,79.58"/><path d="M306.50,79.87L306.51,79.89"/><path d="M306.59,79.52L306.48,79.38L306.62,79.26L306.51,79.35L306.50,79.33"/><path d="M306.47,79.16L306.48,79.12L306.24,79.05L306.14,79.07L306.06,79.16L306.08,79.21L306.13,79.25L306.25,79.29L306.40,79.30"/><path d="M306.14,79.61L306.12,79.63"/><path d="M306.46,79.71L306.46,79.77L306.40,79.84"/><path d="M306.55,80.08L306.58,80.05"/><path d="M306.86,80.42L306.85,80.37"/><path d="M306.48,79.38L306.51,79.35"/><path d="M306.55,79.31L306.56,79.32"/><path d="M306.56,80.27L306.56,80.29"/><path d="M306.72,78.84L306.83,78.86L306.91,78.82L306.92,78.83L306.87,78.90L306.85,78.89L306.82,78.92L306.77,78.93L306.66,78.91L306.72,78.84L306.62,78.79L306.54,78.89L306.58,78.97L306.54,78.99L306.48,78.90L306.47,78.80L306.36,78.67L306.35,78.57L306.42,78.50L306.42,78.60L306.51,78.75L306.53,78.74L306.47,78.80"/><path d="M306.66,78.91L306.56,78.85L306.53,78.74L306.69,78.76L306.82,78.82L306.73,78.69L306.64,78.60L306.51,78.57L306.46,78.60L306.46,78.66"/><path d="M306.42,78.50L306.57,78.46L306.65,78.48L306.76,78.54L306.88,78.68L306.92,78.77L306.92,78.87L306.87,78.90"/><path d="M306.85,78.89L306.86,78.86"/><path d="M306.89,77.78L306.82,77.84L307.04,78.04L307.20,78.14L307.28,78.16L307.35,78.15L307.39,78.12L307.41,78.07L307.34,78.09L307.17,78.03L306.79,77.69L306.74,77.48L306.75,77.43L306.72,77.39L306.64,77.36L306.64,77.43L306.58,77.50L306.58,77.40L306.60,77.36L306.64,77.36"/><path d="M307.27,78.02L307.34,77.91L307.29,77.68L307.17,77.39L307.12,77.42L307.02,77.21L306.95,77.28L307.06,77.50L307.10,77.46L307.19,77.65L307.28,77.98L307.27,78.02L307.23,78.05"/><path d="M306.60,77.65L306.33,77.46L306.32,77.40L306.38,77.38L306.66,77.58L306.60,77.65L306.64,77.93L306.53,77.91L306.47,77.93L306.41,77.85L306.38,77.84L306.33,77.87L306.39,77.99L306.49,77.98L306.64,78.06L306.63,78.22L306.70,78.15L306.71,77.99L306.64,78.06"/><path d="M306.63,78.22L306.83,78.36L306.85,78.26L306.70,78.15"/><path d="M306.71,77.99L306.51,77.87L306.41,77.85"/><path d="M307.24,78.45L307.29,78.40L307.33,78.44L307.30,78.46L307.20,78.43L306.85,78.19L306.85,78.26"/><path d="M306.00,79.04L306.12,79.01L306.33,79.06"/><path d="M306.54,78.99L306.60,78.99L306.58,78.97"/><path d="M306.66,77.58L306.70,77.86L306.64,77.93"/><path d="M306.14,79.07L306.12,79.09"/><path d="M306.87,78.74L306.88,78.75L306.70,78.53L306.55,78.50L306.46,78.58"/><path d="M307.29,78.40L306.85,78.08L306.82,77.84"/><path d="M306.85,78.19L306.91,78.12"/><path d="M306.82,78.82L306.88,78.75"/><path d="M306.52,78.53L306.53,78.51"/><path d="M306.95,77.28L306.94,77.24L306.96,77.22L307.09,77.22L307.16,77.26L307.25,77.41L307.38,77.79L307.41,78.07"/><path d="M307.06,77.50L307.08,77.51L307.08,77.48"/><path d="M307.17,77.39L307.15,77.39"/><path d="M307.10,77.46L307.12,77.42"/><path d="M306.40,77.39L306.58,77.50"/><path d="M307.49,70.69L307.37,70.81L307.14,71.33L307.09,71.90L307.23,72.45L307.55,72.93L308.00,73.29L308.54,73.48L309.11,73.49L309.64,73.31L310.09,72.97L310.15,72.89"/><path d="M311.92,208.12L312.71,206.59L312.98,204.88L312.98,149.48"/></g><g style="stroke:#000000;stroke-width:0.176"><path d="M313.10,149.48L313.10,204.75L312.83,206.46L312.04,207.99L310.70,209.33L309.15,210.10L307.43,210.34L304.37,210.30"/><path d="M313.10,148.28L313.10,71.71L312.83,70.00L312.76,69.85L312.04,68.44L310.81,67.19L309.27,66.38L307.55,66.09L304.37,66.04"/><path d="M307.35,205.36L307.21,204.81L307.26,204.24L307.49,203.73L307.76,203.44L308.26,203.18L308.82,203.09L308.98,203.12L309.38,203.19L309.88,203.47L310.27,203.89L310.50,204.42L310.55,204.99L310.41,205.54L310.15,205.93L309.76,206.22L309.22,206.40L308.65,206.39L308.12,206.20L307.67,205.84L307.35,205.36"/><path d="M307.54,72.61L307.35,72.32L307.21,71.77L307.26,71.20L307.49,70.69L307.76,70.40L308.26,70.14L308.82,70.05L308.98,70.08L309.38,70.15L309.88,70.43L310.27,70.85L310.50,71.38L310.55,71.95L310.41,72.50L310.15,72.89L309.76,73.18L309.22,73.36L308.65,73.35L308.12,73.16L307.67,72.80L307.54,72.61"/></g></g><g id="Actor_.8"><g style="stroke:#000000;stroke-width:0.176"><path d="M119.56,65.78L120.79,64.57L122.34,63.80L122.41,63.79"/><path d="M119.68,65.65L119.67,65.67"/><path d="M120.29,65.04L120.17,65.17"/></g><g style="stroke:#000000;stroke-width:0.176"><path d="M118.90,67.06L119.56,65.78L119.68,65.65L120.91,64.44L122.45,63.67L122.53,63.66"/></g></g><g id="Actor_.9"><g style="stroke:#000000;stroke-width:0.176"><path d="M277.31,65.52L277.29,65.51L276.99,65.27L276.79,64.94L276.70,64.56L276.74,64.17L276.91,63.81L277.18,63.53L277.52,63.35L277.91,63.29L278.29,63.36L278.63,63.55L278.67,63.60"/><path d="M284.23,62.75L284.35,62.84"/><path d="M284.01,62.51L284.46,62.98L284.74,63.57L284.83,64.22L284.75,67.32"/></g><g style="stroke:#000000;stroke-width:0.176"><path d="M284.88,67.32L284.95,64.31L284.86,63.66L284.58,63.07L284.13,62.61L284.01,62.51L283.43,62.21L282.79,62.10L276.48,62.00L273.09,61.96L272.44,62.05L271.85,62.34L271.38,62.79L271.07,63.37L270.95,64.02L270.88,67.12"/><path d="M277.11,65.36L277.31,65.52L277.66,65.64L278.05,65.65L278.42,65.53L278.73,65.29L278.95,64.97L279.06,64.59L279.03,64.20L278.88,63.84L278.67,63.60L278.41,63.45L278.03,63.38L277.64,63.44L277.30,63.62L277.03,63.90L276.86,64.26L276.82,64.65L276.91,65.03L277.11,65.36"/></g></g><g id="Actor_.10"><g style="stroke:#000000;stroke-width:0.176"><path d="M113.55,215.33L113.74,215.42L114.58,216.20L114.77,216.44"/><path d="M114.46,216.14L114.52,216.19"/><path d="M113.74,215.42L113.74,76.72L113.55,76.62"/><path d="M113.74,76.72L114.58,75.89L114.88,75.51L114.82,75.58"/><path d="M293.91,72.96L295.13,72.91L295.02,72.20L294.69,71.56L294.19,71.04L293.56,70.72L292.84,70.59L292.01,70.58L117.71,68.05L117.00,68.15L116.36,68.46L116.05,68.75L115.85,68.96L115.52,69.60L115.41,70.32L115.41,223.04L115.53,223.75L115.71,224.13L115.85,224.40L116.36,224.91L117.00,225.25L117.71,225.37L292.84,227.91L293.55,227.81L294.19,227.49L294.69,226.99L294.90,226.62L295.02,226.35L295.13,225.65L293.91,225.70"/><path d="M116.51,223.12L115.45,223.05L115.07,222.95L115.04,222.89"/><path d="M115.04,92.88L115.01,92.64L115.04,92.29L115.04,216.82"/><path d="M115.04,199.11L115.01,199.46L115.04,199.70"/><path d="M115.04,92.29L115.04,75.29"/><path d="M116.51,70.39L115.25,70.28L115.07,70.22L115.04,70.15"/><path d="M116.21,67.87L115.87,68.24L115.90,68.17"/><path d="M117.84,225.72L117.78,225.71L117.68,225.21L117.65,224.27"/><path d="M117.65,69.27L117.68,68.25L117.78,67.55L117.84,67.40L118.16,67.05"/><path d="M123.67,66.74L287.97,69.12"/><path d="M125.34,65.01L125.26,65.38L124.49,66.14L124.19,66.37"/><path d="M125.26,65.38L286.34,67.72L287.18,68.49L287.74,68.94"/><path d="M124.31,66.22L124.27,66.29"/><path d="M286.34,67.72L286.43,67.35"/><path d="M292.78,226.81L292.86,228.07L292.91,228.24L292.97,228.26"/><path d="M292.78,71.81L292.81,70.81L292.91,70.09L292.97,69.94L293.29,69.59"/><path d="M295.25,70.46L294.92,70.81"/><path d="M296.09,225.16L295.77,225.51L295.61,225.57L295.13,225.65L295.13,140.80"/><path d="M296.30,201.33L296.16,201.32L296.21,201.30L296.40,201.38L296.61,201.68L296.66,201.98L296.62,202.34L296.52,202.57L296.39,202.74L296.10,202.91L296.05,202.82L296.02,202.59"/><path d="M296.16,201.32L296.10,201.37"/><path d="M295.13,139.42L295.13,72.91L295.63,72.84L295.77,72.77L296.09,72.43"/><path d="M296.10,94.55L296.21,94.49L296.34,94.53L296.47,94.64L296.61,94.86L296.66,95.16L296.62,95.52L296.52,95.75L296.39,95.92L296.07,96.09L296.02,95.77"/><path d="M296.16,94.50L296.31,94.51"/><path d="M296.64,77.96L297.09,78.54L297.86,79.39L297.86,140.94"/><path d="M297.86,142.32L297.86,218.09L297.08,218.86L296.79,219.23"/><path d="M297.03,218.99L297.27,218.80"/><path d="M297.86,218.09L298.22,218.00"/><path d="M297.86,79.39L298.22,79.30"/></g><g style="stroke:#000000;stroke-width:0.176"><path d="M298.22,141.14L298.22,79.30L297.45,78.45L296.67,77.97L296.23,77.35L296.09,76.77L296.09,72.43L295.95,71.56L295.56,70.78L294.94,70.15L294.16,69.74L293.29,69.59L288.94,69.53L288.50,69.44L288.07,69.20L287.74,68.94L287.26,68.13L286.43,67.35L181.73,65.83L125.34,65.01L124.58,65.77L124.30,66.24L124.19,66.37L123.72,66.71L123.23,66.98L122.51,67.11L118.16,67.05L117.30,67.18L116.52,67.56L115.90,68.17L115.58,68.52L115.18,69.29L115.04,70.16L115.04,75.29L114.88,75.51L114.39,75.79L113.55,76.62L113.55,215.33L114.52,216.19L114.77,216.44L115.04,216.82L115.04,222.89L115.18,223.76L115.59,224.56L116.19,225.17L116.98,225.57L117.84,225.72L292.97,228.26L293.84,228.14L294.61,227.75L295.23,227.14L295.56,226.79L295.95,226.02L296.09,225.16L296.09,220.81L296.17,220.26L296.40,219.77L296.79,219.23L297.03,218.99L297.45,218.76L298.22,218.01L298.22,142.52"/><path d="M296.51,201.99L296.50,201.81L296.43,201.62L296.31,201.50L296.10,201.37L296.03,201.76L296.02,202.59L296.34,202.35L296.45,202.19L296.51,201.99"/><path d="M296.51,95.21L296.50,94.99L296.43,94.80L296.32,94.69L296.10,94.55L296.03,94.94L296.02,95.77L296.34,95.54L296.45,95.37L296.51,95.21"/></g></g><g id="Actor_.11"><g style="stroke:#000000;stroke-width:0.176"><path d="M128.47,226.44L128.49,226.44L128.46,226.43L128.42,226.32L128.39,225.88"/><path d="M139.57,226.60L139.59,226.60L139.56,226.59L139.52,226.48L139.49,226.04"/><path d="M150.69,226.76L150.66,226.75L150.62,226.64L150.59,226.20"/><path d="M161.69,226.36L161.72,226.80L161.76,226.91L161.79,226.92"/><path d="M172.89,227.08L172.86,227.07L172.82,226.96L172.80,226.73"/><path d="M172.80,226.71L172.79,226.52"/><path d="M183.98,227.24L184.00,227.24L183.96,227.24L183.93,227.12L183.89,226.68"/><path d="M195.08,227.40L195.10,227.40L195.06,227.40L195.03,227.28L194.99,226.84"/><path d="M206.18,227.56L206.20,227.56L206.16,227.56L206.13,227.44L206.09,227.00"/><path d="M217.28,227.72L217.30,227.72L217.26,227.72L217.23,227.61L217.19,227.16"/><path d="M228.38,227.88L228.40,227.88L228.36,227.88L228.33,227.77L228.29,227.33"/><path d="M239.50,228.05L239.46,228.04L239.43,227.93L239.39,227.49"/><path d="M250.49,227.65L250.53,228.09L250.56,228.20L250.60,228.21"/><path d="M261.68,228.37L261.70,228.37L261.66,228.36L261.63,228.25L261.59,227.81"/><path d="M272.78,228.53L272.80,228.53L272.76,228.52L272.73,228.41L272.69,227.97"/><path d="M283.88,228.69L283.90,228.69L283.86,228.68L283.83,228.57L283.81,228.34"/><path d="M283.81,228.32L283.80,228.13"/></g><g style="stroke:#000000;stroke-width:0.176"><path d="M128.47,226.44L122.94,226.36L122.90,226.35L122.87,226.24L122.84,225.80"/><path d="M139.57,226.60L134.04,226.52L134.00,226.51L133.97,226.40L133.94,225.96"/><path d="M145.04,226.12L145.07,226.56L145.11,226.67L145.14,226.68L150.67,226.76"/><path d="M161.79,226.92L156.24,226.84L156.21,226.83L156.17,226.72L156.14,226.28"/><path d="M172.89,227.08L167.34,227.00L167.31,226.99L167.27,226.88L167.24,226.44"/><path d="M183.98,227.24L178.44,227.16L178.41,227.15L178.37,227.04L178.34,226.60"/><path d="M195.08,227.40L189.54,227.32L189.51,227.32L189.48,227.20L189.44,226.76"/><path d="M206.18,227.56L200.64,227.48L200.61,227.48L200.58,227.36L200.54,226.92"/><path d="M217.28,227.72L211.75,227.64L211.71,227.64L211.68,227.52L211.64,227.08"/><path d="M228.38,227.88L222.85,227.80L222.81,227.80L222.78,227.69L222.74,227.24"/><path d="M239.50,228.05L233.95,227.97L233.91,227.96L233.88,227.85L233.84,227.41"/><path d="M250.60,228.21L245.05,228.13L245.01,228.12L244.98,228.01L244.94,227.57"/><path d="M261.68,228.37L256.15,228.29L256.11,228.28L256.08,228.18L256.04,227.73"/><path d="M272.78,228.53L267.25,228.45L267.21,228.44L267.18,228.33L267.14,227.89"/><path d="M283.88,228.69L278.35,228.61L278.31,228.60L278.28,228.49L278.24,228.05"/></g></g><g id="Actor_.12"><g style="stroke:#000000;stroke-width:0.176"><path d="M119.46,67.07L126.81,59.11L126.76,59.11"/><path d="M127.61,58.26L127.63,58.26"/><path d="M292.01,60.66L303.50,60.84L294.89,70.13"/><path d="M304.37,61.69L295.71,71.08"/><path d="M302.79,62.37L295.29,70.50"/><path d="M303.33,61.89L303.33,61.95L295.36,70.58"/><path d="M301.86,212.41L302.05,212.35L302.23,211.76L302.38,210.72L302.49,209.34L302.55,207.76L302.55,206.16L302.49,204.72L302.38,203.58L302.23,202.88L302.05,202.68L301.86,203.01L301.69,203.83L301.56,205.06L301.47,206.56L301.44,208.17L301.47,209.71L301.56,211.02L301.69,211.96L301.86,212.41"/><path d="M301.65,204.24L301.75,206.15L301.75,207.75L301.69,209.32L301.55,210.92"/><path d="M302.06,131.94L301.86,132.04L301.69,131.58L301.55,130.54L301.47,129.34L301.44,127.79L301.47,126.18L301.56,124.69L301.69,123.46L301.86,122.63L302.05,122.30L302.23,122.50L302.38,123.20L302.49,124.34L302.55,125.79L302.55,127.38L302.49,128.96L302.38,130.34L302.23,131.38L302.06,131.94"/><path d="M301.55,130.54L301.69,128.95L301.75,127.37L301.75,125.77L301.65,123.86"/><path d="M304.36,190.51L304.36,215.22"/><path d="M304.36,190.92L304.35,178.51"/><path d="M303.50,60.81L303.50,60.84"/><path d="M303.54,61.72L303.33,61.95"/></g><g style="stroke:#000000;stroke-width:0.176"><path d="M119.38,67.07L126.71,59.14L126.81,59.11L127.61,58.26L274.92,60.41L274.04,60.39"/><path d="M302.79,62.37L303.47,61.64L303.50,60.81L274.92,60.41"/><path d="M304.36,190.14L304.36,215.22L296.09,224.17"/><path d="M302.88,62.30L303.54,61.71L304.37,61.70L304.37,144.55"/><path d="M304.36,190.51L304.37,145.93"/></g></g><g id="Actor_.13"><g style="stroke:#000000;stroke-width:0.176"><path d="M295.62,70.14L295.68,70.24"/><path d="M296.15,69.57L296.20,69.67"/><path d="M297.06,68.58L297.12,68.67"/><path d="M297.28,68.34L297.34,68.43"/></g><g style="stroke:#000000;stroke-width:0.176"><path d="M297.42,68.18L297.49,68.28"/></g></g><g id="Actor_.14"><g style="stroke:#000000;stroke-width:0.176"><path d="M137.14,61.54L137.10,61.50L136.76,61.31L136.37,61.24L135.99,61.30L135.64,61.48L135.37,61.76L135.21,62.11L135.17,62.50L135.25,62.88L135.46,63.21L135.76,63.46L135.77,63.46"/><path d="M142.70,60.70L142.82,60.79"/><path d="M143.22,65.27L143.29,62.17L143.21,61.52L142.92,60.93L142.47,60.46"/></g><g style="stroke:#000000;stroke-width:0.176"><path d="M143.34,65.27L143.41,62.26L143.33,61.61L143.05,61.02L142.60,60.55L142.47,60.46L141.90,60.16L141.26,60.04L133.58,59.93L131.55,59.90L130.91,60.00L130.32,60.28L129.85,60.74L129.53,61.32L129.42,61.97L129.34,65.07"/><path d="M135.29,62.60L135.37,62.97L135.58,63.30L135.77,63.46L136.12,63.59L136.51,63.60L136.88,63.47L137.20,63.24L137.42,62.91L137.52,62.54L137.50,62.15L137.35,61.79L137.14,61.54L136.88,61.40L136.50,61.33L136.11,61.39L135.76,61.57L135.49,61.85L135.33,62.21L135.29,62.60"/></g></g><g id="PMI512297-Disconnect Handle.0"><g><path style="stroke:#000000;stroke-width:0.250" d="M314.81,148.88L310.93,148.88L249.48,114.78"/></g><g><path style="fill:#000000" d="M250.48,114.78L250.47,114.68L250.46,114.59L250.43,114.49L250.40,114.40L250.36,114.31L250.31,114.22L250.25,114.15L250.18,114.07L250.11,114.01L250.03,113.95L249.95,113.90L249.86,113.86L249.77,113.82L249.67,113.80L249.57,113.79L249.48,113.78L249.38,113.79L249.28,113.80L249.19,113.82L249.09,113.86L249.01,113.90L248.92,113.95L248.84,114.01L248.77,114.07L248.70,114.15L248.64,114.22L248.59,114.31L248.55,114.40L248.52,114.49L248.50,114.59L248.48,114.68L248.48,114.78L248.48,114.88L248.50,114.98L248.52,115.07L248.55,115.16L248.59,115.25L248.64,115.34L248.70,115.41L248.77,115.49L248.84,115.55L248.92,115.61L249.01,115.66L249.09,115.70L249.19,115.74L249.28,115.76L249.38,115.78L249.48,115.78L249.57,115.78L249.67,115.76L249.77,115.74L249.86,115.70L249.95,115.66L250.03,115.61L250.11,115.55L250.18,115.49L250.25,115.41L250.31,115.34L250.36,115.25L250.40,115.16L250.43,115.07L250.46,114.98L250.47,114.88z"/></g><g><path style="fill:#ffffa0" d="M314.04,151.98L361.36,151.98L361.36,145.78L314.04,145.78z"/><path style="stroke:#000000;stroke-width:0.250;stroke-opacity:0.98" d="M314.04,151.98L361.36,151.98L361.36,145.78L314.04,145.78z"/><text xml:space="preserve" fill="#000000" stroke-width="0" x="314.81" y="150.24" font-size="3.79" opacity="1.00" font-family="MS Shell Dlg">512297-Disconnect Handle</text></g></g><g/><g><g/><g><image x="0.000000" y="0.000000" height="25.000000" width="25.000000" xlink:href="90626_Overview_files/95dc0d6add570b57_image_0.jpg" mask="url(#mask0)"/></g></g><g><g/><g><image x="0.000000" y="254.000015" height="25.000000" width="25.000000" xlink:href="90626_Overview_files/95dc0d6add570b57_image_1.jpg" mask="url(#mask1)"/></g></g><g><g/><g><image x="407.000000" y="0.000000" height="25.000000" width="25.000000" xlink:href="90626_Overview_files/95dc0d6add570b57_image_2.jpg" mask="url(#mask2)"/></g></g><g><g/><g><image x="407.000000" y="254.000015" height="25.000000" width="25.000000" xlink:href="90626_Overview_files/95dc0d6add570b57_image_3.jpg" mask="url(#mask3)"/></g></g><g><g><path style="stroke:#000000;stroke-width:0.250;fill:#000000" d="M56.98,83.34L61.41,89.30L66.14,95.03L71.15,100.51L76.42,105.74L81.95,110.70L87.72,115.37L93.72,119.75L99.92,123.83L106.33,127.59L112.91,131.03L119.66,134.13L126.55,136.89L133.58,139.30L140.71,141.36L147.94,143.06L155.25,144.40L162.61,145.37L170.01,145.97L177.43,146.20L184.86,146.06L192.27,145.54L199.64,144.66L206.96,143.41L211.88,142.36L211.88,142.36L204.60,143.61L197.26,144.49L189.89,145.01L182.50,145.15L175.12,144.93L167.76,144.34L160.43,143.38L153.16,142.05L145.97,140.37L138.87,138.33L131.88,135.93L125.02,133.19L118.31,130.11L111.75,126.69L105.38,122.96L99.20,118.91L93.23,114.55L87.49,109.91L81.99,104.98L76.73,99.78L71.75,94.33L67.04,88.63L62.63,82.71L61.09,80.49z"/></g><g><image x="18.000004" y="44.527248" height="75.000008" width="75.000008" xlink:href="90626_Overview_files/95dc0d6add570b57_image_4.jpg" mask="url(#mask4)"/><path style="stroke:#000000;stroke-width:0.125" d="M93.00,82.03L92.81,85.76L92.26,89.46L91.33,93.08L90.06,96.59L88.43,99.96L86.48,103.15L84.23,106.13L81.68,108.87L78.88,111.35L75.85,113.53L72.61,115.40L69.20,116.94L65.66,118.13L62.01,118.96L58.30,119.42L54.57,119.52L50.84,119.24L47.16,118.59L43.56,117.57L40.08,116.21L36.75,114.50L33.61,112.47L30.69,110.14L28.01,107.53L25.61,104.67L23.50,101.58L21.71,98.30L20.26,94.85L19.16,91.28L18.42,87.62L18.05,83.90L18.05,80.16L18.42,76.44L19.16,72.77L20.26,69.20L21.71,65.76L23.50,62.47L25.61,59.38L28.01,56.52L30.69,53.91L33.61,51.58L36.75,49.55L40.08,47.85L43.56,46.48L47.16,45.47L50.84,44.82L54.57,44.54L58.30,44.63L62.01,45.10L65.66,45.93L69.20,47.12L72.61,48.66L75.85,50.53L78.88,52.71L81.68,55.18L84.23,57.92L86.48,60.90L88.43,64.09L90.06,67.46L91.33,70.97L92.26,74.60L92.81,78.29L93.00,82.03z"/></g></g><g><g><path style="stroke:#000000;stroke-width:0.250;fill:#000000" d="M55.22,171.07L61.79,173.75L68.49,176.10L75.30,178.12L82.20,179.79L89.17,181.11L96.21,182.08L103.28,182.70L110.37,182.97L117.47,182.88L124.56,182.43L131.61,181.64L138.61,180.49L145.55,178.99L152.41,177.15L159.16,174.96L165.80,172.44L172.30,169.60L178.66,166.43L184.84,162.95L190.85,159.16L196.66,155.08L202.25,150.71L207.63,146.07L211.16,142.74L211.16,142.74L205.82,147.36L200.25,151.70L194.47,155.76L188.50,159.52L182.34,162.98L176.03,166.13L169.56,168.96L162.95,171.46L156.23,173.63L149.41,175.46L142.51,176.94L135.54,178.08L128.53,178.87L121.48,179.31L114.42,179.40L107.37,179.13L100.33,178.51L93.34,177.54L86.40,176.22L79.54,174.56L72.77,172.56L66.11,170.21L59.57,167.54L57.27,166.51z"/></g><g><image x="18.000004" y="130.228806" height="75.000008" width="75.000008" xlink:href="90626_Overview_files/95dc0d6add570b57_image_5.jpg" mask="url(#mask5)"/><path style="stroke:#000000;stroke-width:0.125" d="M93.00,167.73L92.81,171.46L92.26,175.16L91.33,178.78L90.06,182.30L88.43,185.66L86.48,188.85L84.23,191.83L81.68,194.57L78.88,197.05L75.85,199.23L72.61,201.10L69.20,202.64L65.66,203.83L62.01,204.66L58.30,205.12L54.57,205.22L50.84,204.94L47.16,204.29L43.56,203.28L40.08,201.91L36.75,200.20L33.61,198.18L30.69,195.85L28.01,193.24L25.61,190.37L23.50,187.28L21.71,184.00L20.26,180.55L19.16,176.98L18.42,173.32L18.05,169.60L18.05,165.86L18.42,162.14L19.16,158.48L20.26,154.90L21.71,151.46L23.50,148.17L25.61,145.09L28.01,142.22L30.69,139.61L33.61,137.28L36.75,135.25L40.08,133.55L43.56,132.18L47.16,131.17L50.84,130.52L54.57,130.24L58.30,130.33L62.01,130.80L65.66,131.63L69.20,132.82L72.61,134.36L75.85,136.23L78.88,138.41L81.68,140.88L84.23,143.62L86.48,146.60L88.43,149.79L90.06,153.16L91.33,156.68L92.26,160.30L92.81,164.00L93.00,167.73z"/></g></g><g id="paperID" visibility="hidden" opacity="0.00" transform="scale(0.000100)"><path style="stroke:#000000;stroke-width:0.500;fill:#e6e6e6;fill-rule:evenodd" d="M-2000.00,-2000.00L2431.80,-2000.00L2431.80,2279.40L-2000.00,2279.40zM0.00,0.00L431.80,0.00L431.80,279.40L0.00,279.40z"/><path style="fill:#000000;fill-opacity:0.118" d="M3.00,279.40L431.80,279.40L431.80,3.00L434.80,3.00L434.80,282.40L3.00,282.40z"/></g><g id="hotspot.0" onmouseover="ShowHotSpot(evt,'0')" onmouseout="HideHotSpot(evt,'0')" onmousemove="ShowToolTip(evt,'0',&quot;90626 Wires&quot;)" opacity="0"><a xlink:href="./90626-502.svg"><path style="fill:#00ff00;fill-rule:evenodd" d="M208.64,145.42L207.68,145.82L209.54,143.85L209.93,143.85zM92.81,130.51L92.89,177.33L97.10,177.88L107.29,178.90L124.52,178.90L135.16,177.99L148.08,175.61L158.95,172.54L169.74,168.72L179.70,164.06L188.72,159.15L196.54,154.06L201.47,150.49L206.57,146.40L207.10,145.92L207.68,145.82L207.27,146.43L202.15,150.82L198.75,153.54L192.47,158.13L185.85,162.40L175.84,168.03L165.31,172.79L152.75,177.23L138.81,180.61L126.90,182.30L117.72,182.98L107.63,182.98L97.10,182.30L92.89,181.95L92.69,205.20L18.12,205.20L17.90,166.10L18.12,130.28L92.69,130.28z"/></a></g><g id="hotspot.1" onmouseover="ShowHotSpot(evt,'1')" onmouseout="HideHotSpot(evt,'1')" onmousemove="ShowToolTip(evt,'1',&quot;90626 Components&quot;)" opacity="0"><a xlink:href="./90626-502_Assem.svg"><path style="fill:#00ff00;fill-rule:evenodd" d="M93.02,114.32L96.79,117.01L102.24,120.74L111.71,126.57L120.55,130.98L130.06,135.06L143.30,139.50L148.75,140.85L158.62,142.88L165.76,143.89L173.23,144.57L183.32,144.91L197.37,144.34L209.27,142.65L211.34,142.54L204.50,144.00L192.61,145.70L179.58,146.27L175.95,146.27L168.14,145.93L160.66,145.25L153.52,144.24L143.65,142.20L138.20,140.86L129.72,138.13L122.24,135.40L110.35,129.96L99.13,123.51L93.06,119.43L18.12,119.55L17.90,80.44L18.12,44.63L92.69,44.63z"/></a></g><g id="hotspot.2" onmouseover="ShowHotSpot(evt,'2')" onmouseout="HideHotSpot(evt,'2')" onmousemove="ShowToolTip(evt,'2',&quot;Home&quot;)" opacity="0"><a xlink:href="./Saw-Overview.svg"><path style="fill:#00ff00;fill-rule:evenodd" d="M24.71,25.05L0.44,25.05L0.44,0.44L24.71,0.44z"/></a></g><g id="hotspot.3" onmouseover="ShowHotSpot(evt,'3')" onmouseout="HideHotSpot(evt,'3')" onmousemove="ShowToolTip(evt,'3',&quot;Forward&quot;)" opacity="0"><a xlink:href="file://Forward.svg"><path style="fill:#00ff00;fill-rule:evenodd" d="M431.24,278.96L406.96,278.96L406.96,254.01L431.24,254.01z"/></a></g><g id="hotspot.4" onmouseover="ShowHotSpot(evt,'4')" onmouseout="HideHotSpot(evt,'4')" onmousemove="ShowToolTip(evt,'4',&quot;Order&quot;)" opacity="0"><a xlink:href="https://www.mitek-us.com/resources/machinery/Find-and-Order-Parts/" target="_blank"><path style="fill:#00ff00;fill-rule:evenodd" d="M431.24,25.05L406.96,25.05L406.96,0.44L431.24,0.44z"/></a></g><g id="hotspot.5" onmouseover="ShowHotSpot(evt,'5')" onmouseout="HideHotSpot(evt,'5')" onmousemove="ShowToolTip(evt,'5',&quot;Back&quot;)" opacity="0"><a xlink:href="javascript:history.go(-1)"><path style="fill:#00ff00;fill-rule:evenodd" d="M24.71,278.96L0.44,278.96L0.44,254.01L24.71,254.01z"/></a></g><g id="hotspot.6" onmouseover="ShowHotSpot(evt,'6')" onmouseout="HideHotSpot(evt,'6')" onmousemove="ShowToolTip(evt,'6',&quot;Fillet1&quot;)" opacity="0"><path style="fill:#00ff00;fill-rule:evenodd" d="M255.49,88.83L258.55,90.19L261.62,92.56L262.66,93.89L264.67,97.32L265.69,100.73L265.69,105.25L265.02,107.98L263.21,111.27L260.29,114.48L256.85,116.47L256.52,128.04L256.07,129.28L254.00,132.32L250.64,134.06L246.98,134.05L244.95,133.36L242.60,131.29L241.54,129.63L241.20,128.62L240.90,113.28L239.17,111.27L237.13,107.19L236.78,106.19L236.33,102.11L237.04,98.36L238.00,95.92L240.05,92.88L242.62,90.68L244.51,89.51L247.20,88.47L252.09,88.15zM311.10,148.99L313.63,148.78L313.83,145.92L361.22,145.92L361.22,152.18L313.94,152.07L313.63,149.32z"/></g><g id="ToolTip" visibility="hidden" opacity="0" transform="translate(0,0)"><rect id="ToolTipShadow" opacity="0.20" fill="black" stroke="none" x="0" y="0" width="30" height="8"/><rect id="ToolTipBG" fill="#ffffe1" stroke="black" x="0" y="0" width="30" height="8"/><text xml:space="preserve" id="ToolTipText" fill="black" x="0" y="0" width="30" height="8">tooltip</text></g></g></svg>
