<?xml version="1.0" encoding="UTF-8" standalone="no"?>
<svg xmlns="http://www.w3.org/2000/svg" xmlns:xlink="http://www.w3.org/1999/xlink" width="431.800mm" height="279.400mm" viewBox="0.000000 0.000000 431.799988 279.399994" stroke-linejoin="round" stroke-linecap="round" fill="none" fill-rule="evenodd"><desc>Composer Export</desc><script type="text/ecmascript"><![CDATA[
if(typeof(top) != "undefined")
{
	top.ShowPaper = ShowPaper;
}
function ShowHotSpot(evt,hotspotid)
{
	var svgDocument = evt.target.ownerDocument;
	var strId = "hotspot."+hotspotid;
	var hotspot = svgDocument.getElementById(strId);
	if(hotspot)
		hotspot.setAttribute("opacity",".5");
}
function HideHotSpot(evt,hotspotid)
{
	var svgDocument = evt.target.ownerDocument;
	var strId = "hotspot."+hotspotid;
	var hotspot = svgDocument.getElementById(strId);
	if(hotspot)
		hotspot.setAttribute("opacity","0");

	var toolTip = svgDocument.getElementById('ToolTip');
	if(toolTip)
		toolTip.setAttribute("visibility","hidden");
}
function ShowToolTip(evt,hotspotid,strTooltip)
{
	if(strTooltip=="")
	return;

	// change text
	var svgDocument = evt.target.ownerDocument;
	var tiptext = svgDocument.getElementById('ToolTipText');
	if( !tiptext )
	return;
	tiptext.firstChild.nodeValue = " " + strTooltip + "  " ;

	// show tooltip before, else some refresh issue

	var toolTip = svgDocument.getElementById('ToolTip');
	if(!toolTip)
	return;

	toolTip.setAttribute("visibility","visible");
	toolTip.setAttribute("opacity",".95");

	// move tooltip
	// get viewbox

	var root = svgDocument.documentElement;
	var vbox = (root.getAttribute("viewBox")).split(' ');
	var x0 = parseFloat(vbox[0]);
	var y0 = parseFloat(vbox[1]);
	var vboxW = parseFloat(vbox[2]);
	var vboxH = parseFloat(vbox[3]);

	// get default width of svg

	var strW = root.getAttribute("width");
	var svgW = parseFloat(strW);
	if(strW.indexOf('mm') != -1)
	svgW *= 3.779;

	var strH = root.getAttribute("height");
	var svgH = parseFloat(strH);
	if(strH.indexOf('mm') != -1)
	svgH *= 3.779;  	// 96 dpi  -> 96/25.4 = 3.779

	// update the viewbox / width / height if svg is embedded in html with zoom fit all
	var realx0 = x0;
	var realy0 = y0;
	var realvboxW = vboxW;
	var realvboxH = vboxH;
	var realsvgW = svgW;
	var realsvgH = svgH;

	if ((typeof(top) == "undefined") || (typeof(top.svgctl1) != "undefined")) // embedded in html
	{
		// get window size in pxl

		svgW = window.innerWidth;
		svgH = window.innerHeight;

		// calculate real viewbox

		realsvgW = svgW;
		realsvgH = svgH;
		if((svgW / svgH) > (vboxW / vboxH))
		{
			realvboxW = (vboxH * svgW) / svgH;
			realvboxH = vboxH;
			realx0 = x0 - (realvboxW - vboxW)/2 ;
		}
		else
		{
			realvboxH = (vboxW * svgH) / svgW;
			realvboxW = vboxW;
			realy0 = y0 - (realvboxH - vboxH)/2 ;
		}
	}

	// get user zoom/pan

	var newScale = root.currentScale;
	var translation = root.currentTranslate;

	// transform pxl to user unit

	var xPos = (((evt.clientX+10- translation.x)/newScale) * realvboxW)/realsvgW  + realx0 ;
	var yPos = (((evt.clientY+5- translation.y)/newScale) * realvboxH)/ realsvgH  + realy0 ;
	var scaleForWidth = ( (1 / newScale) * realvboxH) / realsvgH;

	// move tooltip

	toolTip.setAttribute("transform", "translate(" + xPos + "," + yPos + ")" );

	// resize tooltip

	var fontsize = 12;
	tiptext.setAttribute("font-size",fontsize*scaleForWidth);
	tiptext.setAttribute("y", fontsize*scaleForWidth);
	var tipBG = svgDocument.getElementById('ToolTipBG');
	var outline = tiptext.getBBox();
	if(tipBG)
	{
		tipBG.setAttribute("stroke-width", 1*scaleForWidth);
		tipBG.setAttribute("width", Number(outline.width) );
		tipBG.setAttribute("height", Number(outline.height) + fontsize*.5*scaleForWidth );
	}
	var ToolTipShadow = svgDocument.getElementById('ToolTipShadow');
	if(ToolTipShadow)
	{
		ToolTipShadow.setAttribute("width", Number(outline.width) );
		ToolTipShadow.setAttribute("height", Number(outline.height) + fontsize*.5*scaleForWidth );
		ToolTipShadow.setAttribute("x", 3*scaleForWidth);
		ToolTipShadow.setAttribute("y", 3*scaleForWidth);
	}
}
function ShowPaper()
{
  var svgDocument = getDocument();
  var paper = svgDocument.getElementById("paperID");
  if(paper)
  {
    paper.setAttribute("transform","scale(1)");
    paper.setAttribute("opacity","1");
    paper.setAttribute("visibility","visible");
  }
  var svg = svgDocument.getRootElement();
  if(svg)
  {
    svg.setAttribute("width","441.800mm");
    svg.setAttribute("height","289.400mm");
    svg.setAttribute("viewBox","-5.000000 -5.000000 441.799988 289.399994");
  }
}
]]></script><defs><mask id="mask0" x="0" y="0" height="100%" width="100%"><image x="0.000000" y="0.000000" height="25.000000" width="25.000000" xlink:href="AutoDeck_Operator_Stand_files/ab45327fcec4ff58_mask_0.jpg"/></mask><mask id="mask1" x="0" y="0" height="100%" width="100%"><image x="0.000000" y="254.000015" height="25.000000" width="25.000000" xlink:href="AutoDeck_Operator_Stand_files/ab45327fcec4ff58_mask_1.jpg"/></mask><mask id="mask2" x="0" y="0" height="100%" width="100%"><image x="407.000000" y="0.000000" height="25.000000" width="25.000000" xlink:href="AutoDeck_Operator_Stand_files/ab45327fcec4ff58_mask_2.jpg"/></mask><mask id="mask3" x="0" y="0" height="100%" width="100%"><image x="407.000000" y="254.000015" height="25.000000" width="25.000000" xlink:href="AutoDeck_Operator_Stand_files/ab45327fcec4ff58_mask_3.jpg"/></mask><mask id="mask4" x="0" y="0" height="100%" width="100%"><image x="58.000000" y="11.709770" height="75.000008" width="75.000008" xlink:href="AutoDeck_Operator_Stand_files/ab45327fcec4ff58_mask_4.jpg"/></mask><mask id="mask5" x="0" y="0" height="100%" width="100%"><image x="58.000000" y="92.682312" height="75.000008" width="75.000008" xlink:href="AutoDeck_Operator_Stand_files/ab45327fcec4ff58_mask_5.jpg"/></mask></defs><g><path style="fill:#ffffff" d="M431.88,279.36L0.07,279.36L0.07,0.07L431.88,0.07z"/><path style="fill:#fffe02" d="M168.16,86.64L167.71,87.70L167.56,235.99L167.37,236.06L167.46,86.94L168.21,86.19L169.06,86.03z"/><path style="fill:#e5e401" d="M191.40,7.49L189.97,8.11L187.79,9.44L185.68,11.35L184.79,12.71L184.28,14.21L184.27,15.40L184.52,16.15L185.31,17.12L187.10,18.25L186.72,18.39L186.99,18.66L188.55,18.90L191.30,18.87L191.43,26.83L191.32,27.03L188.70,29.19L187.20,29.16L186.05,30.27L186.04,77.09L175.51,82.19L174.01,83.20L173.98,84.37L174.33,84.59L178.36,84.59L191.39,84.33L191.40,232.72L186.04,232.11L184.20,232.11L177.69,234.63L175.00,234.62L170.66,234.09L167.56,235.99L167.71,87.70L168.16,86.64L169.06,86.03L170.17,85.89L171.01,85.21L170.99,84.38L170.36,84.03L170.22,83.84L167.95,83.89L167.58,83.58L167.75,83.14L167.72,31.01L168.65,28.43L178.43,5.60L179.59,4.50L183.62,3.51L190.65,1.74L191.32,1.83z"/><path style="fill:#ffffff" d="M208.87,24.17L210.35,24.68L210.76,25.34L210.63,27.77L210.20,28.34L209.77,28.42L208.95,29.35L208.52,29.42L207.70,30.35L207.27,30.43L206.44,31.36L206.02,31.43L205.19,32.36L204.57,32.54L204.60,33.04L205.19,32.36L205.90,32.06L206.44,31.36L207.15,31.06L207.70,30.35L208.40,30.06L208.95,29.35L209.66,29.05L210.20,28.34L210.96,28.34L204.86,33.28L204.87,79.16L202.85,79.10L188.30,77.34L186.44,77.35L187.80,77.59L204.36,79.61L205.25,79.59L206.61,78.45L206.75,77.76L208.11,77.95L208.35,76.91L210.12,76.84L213.38,77.35L216.39,87.38L216.66,89.47L213.90,87.11L208.62,86.37L207.89,84.84L198.08,83.62L196.81,83.68L196.58,84.71L194.57,84.62L191.39,84.33L178.36,84.59L174.33,84.59L173.98,84.37L174.01,83.20L175.51,82.19L186.04,77.09L186.05,30.27L187.20,29.16L188.70,29.19L191.32,27.03L191.43,26.83L192.58,26.02L192.97,25.66L193.82,25.51L194.07,22.99L194.47,22.64L196.83,22.66z"/><path style="fill:#969696" d="M196.33,52.01L197.44,52.92L197.25,53.23L197.83,54.76L197.83,56.11L197.37,57.15L196.74,57.96L196.16,58.27L195.47,58.20L195.46,57.95L196.73,57.27L197.34,56.10L197.34,55.27L196.58,53.76L195.41,52.93L195.09,52.47L194.22,52.49L193.23,53.26L192.54,54.08L192.55,56.04L193.12,57.42L192.58,57.01L192.05,56.03L192.04,53.83L193.48,52.25L194.75,51.74z"/><path style="fill:#969696" d="M196.83,65.30L197.43,65.97L197.25,66.27L197.83,67.81L197.84,69.16L196.98,70.75L196.72,71.07L195.40,71.44L195.45,70.99L196.84,70.17L197.35,68.89L197.07,67.56L196.36,66.53L195.46,65.96L195.36,65.71L195.31,65.54L193.97,65.54L192.54,67.12L192.55,69.08L192.82,69.56L193.11,70.47L192.31,69.57L192.05,69.08L192.04,66.87L192.57,65.90L194.30,64.87L195.84,64.79z"/><path style="fill:#fffe02" d="M213.91,4.32L216.41,9.60L218.40,35.20L218.42,89.29L217.81,89.38L217.82,90.22L218.00,90.38L218.14,92.15L218.40,93.15L218.56,249.02L229.36,247.16L231.44,247.17L236.97,247.91L238.73,248.66L239.24,249.60L238.97,249.99L225.34,260.96L191.74,273.27L188.96,273.74L188.88,275.12L184.79,275.01L174.61,273.72L172.33,273.47L159.20,271.75L156.92,271.26L155.87,270.57L155.94,266.56L157.59,252.41L158.74,251.60L158.86,267.57L159.70,267.74L161.54,267.85L163.05,266.85L189.06,270.24L189.22,271.33L189.52,271.53L191.58,271.78L191.94,271.67L194.82,268.82L196.85,266.58L198.83,264.55L199.60,263.57L199.76,260.22L206.27,254.94L206.48,248.10L206.60,248.17L208.13,248.26L208.11,239.89L207.61,237.63L206.49,235.79L206.37,234.87L206.02,234.76L204.94,234.49L203.10,233.61L200.24,233.61L199.90,233.83L192.06,232.88L191.40,232.72L191.39,84.33L194.57,84.62L196.58,84.71L196.81,83.68L198.08,83.62L207.89,84.84L208.62,86.37L213.90,87.11L216.66,89.47L216.39,87.38L213.38,77.35L210.12,76.84L208.35,76.91L208.11,77.95L206.75,77.76L206.86,76.93L207.77,76.08L208.13,76.01L208.27,76.15L210.06,76.11L210.64,75.71L210.78,75.27L211.12,73.41L211.13,28.45L210.96,28.34L210.87,25.41L210.76,25.34L210.35,24.68L208.87,24.17L196.83,22.66L194.47,22.64L194.07,22.99L193.82,25.51L192.97,25.66L192.58,26.02L191.43,26.83L191.30,18.87L188.55,18.90L186.99,18.66L186.72,18.39L187.10,18.25L188.05,18.40L191.56,18.65L208.87,20.91L213.65,21.39L214.40,21.72L214.65,21.26L214.64,15.89L213.88,11.87L213.36,10.39L211.12,9.87L191.40,7.49L191.32,1.83L190.65,1.74L192.81,1.59z"/><path style="fill:#404040" d="M195.41,52.93L194.41,53.70L194.08,53.48L193.24,53.76L193.53,54.02L193.60,54.92L193.50,55.88L193.65,55.91L193.80,55.88L194.08,54.09L194.35,53.94L194.46,58.72L193.81,58.82L193.24,58.60L193.12,57.42L192.55,56.04L192.54,54.08L193.23,53.26L194.22,52.49L195.09,52.47z"/><path style="fill:#404040" d="M195.36,65.71L194.41,66.75L193.74,66.53L193.46,68.76L193.53,68.95L193.79,68.94L194.00,67.05L194.33,66.96L194.41,71.70L193.22,71.66L193.11,70.47L192.82,69.56L192.55,69.08L192.54,67.12L193.97,65.54L195.31,65.54z"/><path style="fill:#393939" d="M195.46,57.95L195.47,58.20L195.42,58.42L194.46,58.72L194.35,53.94L194.41,53.70L195.41,52.93z"/><path style="fill:#393939" d="M195.46,65.96L195.45,70.99L195.40,71.44L194.41,71.70L194.33,66.96L194.41,66.75L195.36,65.71z"/><path style="fill:#e87008" d="M191.40,232.72L192.06,232.88L199.90,233.83L204.94,234.49L206.02,234.76L199.02,237.63L199.29,237.88L198.99,238.36L192.07,245.75L191.94,271.67L191.58,271.78L189.52,271.53L189.22,271.33L189.06,270.24L163.05,266.85L162.98,245.15L161.61,245.15L161.54,267.85L159.70,267.74L158.86,267.57L158.74,251.60L158.95,241.48L167.25,236.25L167.37,236.06L167.56,235.99L170.66,234.09L175.00,234.62L177.69,234.63L184.20,232.11L186.04,232.11z"/><path style="fill:#ffffff" d="M209.46,74.94L210.31,74.03L210.62,74.05L210.78,75.27L210.64,75.71L210.06,76.11L208.27,76.15L208.13,76.01L208.90,75.27L209.56,75.35z"/><path style="fill:#404040" d="M196.58,53.76L197.34,55.27L197.34,56.10L196.73,57.27L195.46,57.95L195.41,52.93z"/><path style="fill:#404040" d="M196.36,66.53L197.07,67.56L197.35,68.89L196.84,70.17L195.45,70.99L195.46,65.96z"/><path style="fill:#e5e5e5" d="M195.22,24.08L195.12,24.56L194.98,24.50L195.10,23.55z"/><path style="fill:#e5e5e5" d="M210.96,28.34L210.20,28.34L210.63,27.77L210.76,25.34L210.87,25.41z"/><path style="fill:#e5e5e5" d="M209.66,29.05L208.95,29.35L209.77,28.42L210.20,28.34z"/><path style="fill:#e5e5e5" d="M208.40,30.06L207.70,30.35L208.52,29.42L208.95,29.35z"/><path style="fill:#e5e5e5" d="M207.15,31.06L206.44,31.36L207.27,30.43L207.70,30.35z"/><path style="fill:#e5e5e5" d="M205.90,32.06L205.19,32.36L206.02,31.43L206.44,31.36z"/><path style="fill:#e5e5e5" d="M204.60,33.04L204.57,32.54L205.19,32.36z"/><path style="fill:#e5e5e5" d="M202.85,34.68L202.53,34.77L202.61,34.44z"/><path style="fill:#e5e5e5" d="M204.86,33.28L210.96,28.34L211.13,28.45L211.12,73.41L210.78,75.27L210.62,74.05L210.31,74.03L209.46,74.94L208.90,75.27L208.13,76.01L207.77,76.08L206.86,76.93L206.75,77.76L206.61,78.45L205.25,79.59L204.36,79.61L187.80,77.59L186.44,77.35L188.30,77.34L202.85,79.10L204.87,79.16z"/><path style="fill:#e5e5e5" d="M193.65,55.91L193.50,55.88L193.60,54.92z"/><path style="fill:#878787" d="M198.34,54.25L198.35,56.37L197.60,57.38L196.74,57.96L197.37,57.15L197.83,56.11L197.83,54.76L197.25,53.23L197.44,52.92L197.61,52.99z"/><path style="fill:#878787" d="M195.42,58.42L195.47,58.20L196.16,58.27z"/><path style="fill:#878787" d="M198.34,67.30L198.34,69.41L197.74,70.31L196.98,70.75L197.84,69.16L197.83,67.81L197.25,66.27L197.43,65.97L197.61,66.04z"/><path style="fill:#ff0000" d="M196.08,38.96L197.60,40.45L198.59,42.47L198.52,44.75L197.49,46.48L195.51,47.51L193.81,47.50L192.31,46.99L190.57,45.47L189.79,43.75L189.79,41.29L190.69,39.69L191.98,38.72L192.73,38.46L194.83,38.46z"/><path style="fill:#b8c0dc" d="M174.61,273.72L174.43,274.25L172.48,274.27L172.33,273.47z"/><path style="fill:#d06407" d="M199.02,237.63L206.02,234.76L206.37,234.87L206.49,235.79L206.48,248.10L206.27,254.94L199.76,260.22L199.60,263.57L198.83,264.55L196.85,266.58L194.82,268.82L191.94,271.67L192.07,245.75L198.99,238.36L199.29,237.88z"/><path style="fill:#d06407" d="M163.05,266.85L161.54,267.85L161.61,245.15L162.98,245.15z"/><path style="fill:#fffe02" d="M196.14,24.42L196.09,24.75L195.29,24.71L195.12,24.56L195.22,24.08L195.42,24.00z"/><path style="fill:#fffe02" d="M208.87,25.65L209.60,25.91L209.36,26.51L208.89,26.44L208.61,26.18L208.60,25.16z"/><path style="fill:#fffe02" d="M209.56,75.35L208.90,75.27L209.46,74.94z"/><path style="fill:#fffe02" d="M178.43,5.60L168.65,28.43L167.72,31.01L167.75,83.14L167.58,83.58L167.41,83.47L167.46,29.50L177.78,5.45L178.92,4.59L179.59,4.50z"/><path style="fill:#fffe02" d="M170.99,84.38L171.01,85.21L170.17,85.89L169.06,86.03L170.16,85.37L170.36,84.03z"/><path style="fill:#e5e401" d="M195.42,24.00L195.22,24.08L195.10,23.55L195.33,23.40z"/><path style="fill:#e5e401" d="M218.40,90.22L218.00,90.38L217.82,90.22L217.81,89.38L218.42,89.29z"/><path style="fill:#e5e401" d="M201.95,109.91L201.84,110.04L201.86,109.10z"/><path style="fill:#e5e401" d="M201.91,161.77L201.76,161.70L201.77,160.88L201.92,160.81z"/><path style="fill:#e5e401" d="M205.67,171.60L205.53,171.49L205.64,170.07z"/><path style="fill:#e5e401" d="M206.16,172.06L205.78,172.01L205.67,171.60z"/><path style="fill:#e5e401" d="M205.99,197.18L205.88,197.29L205.59,197.05L205.64,195.15z"/><path style="fill:#e5e401" d="M202.13,231.03L201.77,230.95L201.86,230.01z"/><path style="fill:#e5e401" d="M234.19,248.98L234.72,248.91L234.72,249.51L234.19,249.44z"/><path style="fill:#e5e401" d="M172.38,271.21L172.63,270.96L173.27,270.99L173.27,271.58L172.72,271.54z"/><path style="fill:#e5e401" d="M239.23,251.02L238.98,251.52L226.44,261.56L225.09,262.46L191.56,274.84L188.88,275.12L188.96,273.74L191.74,273.27L225.34,260.96L238.97,249.99L239.24,249.60z"/><path style="fill:#ffffff" d="M211.12,9.87L213.36,10.39L213.88,11.87L214.64,15.89L214.65,21.26L214.40,21.72L213.65,21.39L208.87,20.91L191.56,18.65L188.05,18.40L187.10,18.25L185.31,17.12L184.52,16.15L184.27,15.40L184.28,14.21L184.79,12.71L185.68,11.35L187.79,9.44L189.97,8.11L191.40,7.49z"/><path style="fill:#ffffff" d="M194.41,53.70L194.35,53.94L194.08,54.09L193.80,55.88L193.65,55.91L193.60,54.92L193.53,54.02L193.24,53.76L194.08,53.48z"/><path style="fill:#ffffff" d="M194.41,66.75L194.33,66.96L194.00,67.05L193.79,68.94L193.53,68.95L193.46,68.76L193.74,66.53z"/><path style="fill:#ffffff" d="M203.13,109.18L203.11,110.05L201.95,109.91L201.86,109.10L202.00,108.92L202.87,108.91z"/><path style="fill:#ffffff" d="M203.13,161.11L203.11,161.97L202.07,161.91L201.91,161.77L201.92,160.81L202.37,160.61z"/><path style="fill:#ffffff" d="M207.63,169.89L207.62,172.25L206.35,172.17L206.16,172.06L205.67,171.60L205.64,170.07L206.03,169.41L207.13,169.39z"/><path style="fill:#ffffff" d="M207.64,194.96L207.54,197.51L206.37,197.48L205.99,197.18L205.64,195.15L206.27,194.46L206.86,194.46z"/><path style="fill:#ffffff" d="M203.12,230.35L203.10,231.21L202.13,231.03L201.86,230.01L202.01,229.82L202.60,229.82z"/><path style="fill:#ffffff" d="M204.94,234.49L199.90,233.83L200.24,233.61L203.10,233.61z"/><path style="fill:#ffffff" d="M207.61,237.63L208.11,239.89L208.13,248.26L206.60,248.17L206.48,248.10L206.49,235.79z"/><g id="Actor_.0"><g style="stroke:#000000;stroke-width:0.176"><path d="M195.34,71.43L195.55,71.43L195.85,71.38L196.11,71.34L196.39,71.23L196.63,71.13L196.87,70.97L197.09,70.82L197.29,70.62L197.47,70.42L197.62,70.18L197.77,69.94L197.86,69.68L197.96,69.40L198.00,69.13L198.04,68.82L198.04,68.55L198.02,68.22L197.96,67.96L197.88,67.63L197.78,67.38L197.64,67.05L197.50,66.83L197.30,66.52L197.13,66.33L196.87,66.06L196.68,65.90L196.38,65.67L196.17,65.55L195.84,65.38L195.61,65.31L195.27,65.20L195.04,65.16L194.68,65.13L194.45,65.14L194.11,65.17L193.89,65.22L193.56,65.32L193.36,65.42L193.07,65.58L192.89,65.73L192.65,65.94L192.50,66.13L192.31,66.38L192.20,66.61L192.07,66.89L192.00,67.15L191.93,67.45L191.92,67.73L191.90,68.05L191.99,68.65L192.18,69.23L192.47,69.79"/><path d="M192.85,70.28L193.14,70.55"/><path d="M193.21,66.86L193.23,66.65L193.67,66.62L193.67,66.62L193.65,66.83L193.21,66.86L193.15,67.55L193.12,68.23L193.10,68.56L193.10,68.87L193.10,69.18L193.10,69.51L193.11,69.83L193.13,70.46L193.14,70.55"/><path d="M193.67,66.01L193.32,66.17L192.81,66.66L192.49,67.30L192.38,68.04L192.49,68.81L192.81,69.53L193.11,69.89"/><path d="M194.63,71.77L194.61,71.77L194.58,71.74L194.57,71.69L194.56,71.66L194.54,71.48L194.49,70.88L194.45,70.26L194.44,69.94L194.43,69.64L194.43,69.34L194.43,69.00L194.44,68.67L194.47,67.99L194.52,67.30L194.54,67.03L194.10,66.88L194.12,66.68L194.56,66.82L194.57,66.74L194.59,66.66L194.62,66.61L194.63,66.59L195.55,65.56L195.55,65.98L196.15,66.29L196.73,66.84L197.15,67.52L197.37,68.28L197.37,69.04L197.15,69.73L196.73,70.31L196.71,70.32L196.13,70.72L195.55,70.90L195.55,65.98"/><path d="M193.29,71.60L193.29,71.60"/><path d="M194.11,66.46L194.18,66.47L194.18,66.47L193.99,66.46L193.82,66.43L193.74,66.42L193.74,68.68L193.54,68.84L193.76,68.87L193.98,68.90L193.99,68.71L193.74,68.68"/><path d="M193.54,68.84L193.56,68.16L193.60,67.48L193.65,66.83"/><path d="M193.99,68.71L194.00,68.26L194.04,67.57L194.10,66.88"/><path d="M193.23,66.65L193.23,66.61L193.25,66.53L193.27,66.47L193.30,66.42L194.21,65.39L194.88,65.39L193.97,66.43"/><path d="M193.68,66.00L193.34,66.15L193.32,66.17"/><path d="M193.67,66.62L193.68,66.54L193.71,66.47L193.73,66.41L193.74,66.42"/><path d="M194.18,66.47L194.17,66.48L194.15,66.53L194.13,66.60L194.12,66.68"/><path d="M193.82,66.43L193.99,66.46"/><path d="M194.54,67.03L194.56,66.82"/><path d="M195.55,70.90L195.55,71.33L195.33,71.43"/><path d="M195.60,66.01L195.55,65.98L196.13,66.31L196.71,66.85L197.13,67.54L197.35,68.29L197.35,69.05L197.13,69.75L196.71,70.32"/><path d="M194.88,65.39L195.55,65.56"/><path d="M196.84,71.02L197.14,70.81L197.70,70.34"/></g><g style="stroke:#000000;stroke-width:0.176"><path d="M193.44,65.24L193.09,65.53L192.66,65.89L192.32,66.34L192.31,66.36L192.06,66.88L191.93,67.44L191.90,68.04L191.98,68.64L192.17,69.23L192.47,69.79L192.85,70.28L193.14,70.55"/><path d="M196.84,71.02L196.68,71.13L196.16,71.33L196.13,71.34L195.57,71.44L195.33,71.43L194.63,71.77L194.18,71.79L193.70,71.73L193.29,71.60L193.26,71.59L193.24,71.55L193.23,71.49L193.21,71.31L193.18,71.07L193.14,70.55"/></g></g><g id="Actor_.1"><g style="stroke:#000000;stroke-width:0.176"><path d="M172.39,274.04L172.56,274.15L172.82,274.24L173.15,274.29L173.52,274.31L173.89,274.28L174.22,274.22L174.46,274.13L174.60,274.02"/></g><g style="stroke:#000000;stroke-width:0.176"><path d="M172.35,273.42L172.35,273.92L172.39,274.04L172.54,274.17L172.68,274.27L172.91,274.34L173.20,274.39L173.52,274.40L173.84,274.38L174.12,274.33L174.33,274.25L174.45,274.16L174.60,274.02L174.62,273.90L174.62,273.70"/></g></g><g id="Actor_.2"><g style="stroke:#000000;stroke-width:0.176"><path d="M186.45,77.35L204.76,79.59L204.68,79.51L204.63,79.44L204.53,79.26L204.45,79.03L204.77,79.14L204.98,79.20L205.15,79.23L204.98,33.19L204.74,33.29L204.53,33.35L204.28,33.41L204.39,33.10L204.49,32.90L204.58,32.74L186.28,30.50L186.28,30.46L186.27,30.49L186.24,30.66L186.28,30.79L186.31,30.84L186.35,31.07L186.39,31.22L186.20,31.12L186.11,31.07L185.97,30.96L185.91,30.90L185.89,30.85L186.06,76.89"/><path d="M186.45,76.93L186.41,76.89L186.41,76.88L186.43,76.86L186.21,76.88L186.41,76.88"/><path d="M186.49,76.97L186.49,77.11L186.53,76.94"/><path d="M186.46,77.42L196.27,78.63L194.70,78.44"/><path d="M196.27,78.60L197.84,78.80L186.45,77.40"/><path d="M186.51,77.02L186.51,77.00L186.49,76.98L186.49,77.04"/><path d="M186.56,76.84L186.43,76.86"/><path d="M186.41,76.89L186.36,76.89"/><path d="M186.21,76.88L186.08,76.89"/><path d="M186.39,76.88L186.37,76.88"/><path d="M186.39,76.89L186.18,76.89"/><path d="M186.42,76.90L186.16,76.89"/><path d="M185.91,59.48L185.89,53.37L185.90,54.94"/><path d="M185.89,53.37L185.89,51.80L185.89,53.37"/><path d="M185.89,51.80L185.87,47.09L185.88,48.66"/><path d="M185.87,47.09L185.82,32.96L185.83,34.53"/><path d="M185.82,32.88L185.82,31.39L185.82,32.96L185.81,30.59L185.81,30.70L185.83,30.77L185.89,30.85"/><path d="M186.28,30.50L186.29,30.63L186.31,30.84"/><path d="M185.81,30.97L185.81,30.57"/><path d="M185.81,30.71L185.82,31.39"/><path d="M185.87,30.42L186.28,30.46L186.29,30.18L186.30,30.07"/><path d="M186.25,30.67L186.25,30.60"/><path d="M188.97,75.67L188.86,75.77L188.66,75.86L188.43,75.87L188.20,75.81L187.99,75.67L187.84,75.47L187.74,75.25L187.72,75.01L187.78,74.78L187.90,74.60L188.04,74.51"/><path d="M188.82,33.88L188.71,33.98L188.50,34.07L188.27,34.08L188.05,34.01L187.84,33.88L187.68,33.68L187.59,33.45L187.57,33.22L187.62,32.99L187.75,32.81L187.88,32.72"/><path d="M196.27,78.63L200.98,79.21"/><path d="M204.76,79.59L204.80,79.63L204.84,79.65L197.84,78.80"/><path d="M203.11,77.40L203.00,77.51L202.80,77.59L202.57,77.60L202.34,77.54L202.13,77.40L201.97,77.21L201.88,76.98L201.86,76.74L201.92,76.52L202.04,76.33L202.18,76.24"/><path d="M202.02,34.45L201.89,34.54L201.76,34.72L201.71,34.95L201.73,35.19L201.82,35.41L201.98,35.61L202.18,35.75L202.41,35.81L202.64,35.80L202.85,35.71L202.95,35.61"/><path d="M205.15,79.23L205.23,79.24L205.20,79.26L205.20,79.68"/><path d="M205.20,79.26L205.06,79.28L205.02,79.27L204.86,79.21L204.81,79.15"/><path d="M204.84,79.65L204.99,79.71"/><path d="M205.23,79.24L205.37,79.26L205.65,79.28L206.32,78.74"/><path d="M204.98,33.19L205.14,33.11L205.31,33.00L205.37,32.94L205.48,32.82L205.07,32.77"/><path d="M204.28,33.41L204.44,33.28"/><path d="M206.15,31.41L205.03,32.31L204.93,32.36L204.86,32.41L204.72,32.55L204.58,32.74"/><path d="M205.48,32.82L206.60,31.92"/><path d="M205.03,32.31L205.03,32.72"/></g><g style="stroke:#000000;stroke-width:0.176"><path d="M194.70,78.45L196.27,78.64L186.85,77.48L186.47,77.44L186.46,77.43L186.46,77.32L186.49,77.11L186.49,76.97L186.53,76.94L186.56,76.84L186.45,76.93L185.97,76.88L185.95,70.36"/><path d="M185.96,70.63L185.91,59.48"/><path d="M185.91,59.49L185.81,30.97"/><path d="M196.27,78.64L205.06,79.71L205.20,79.68L206.32,78.78L206.32,78.74L206.77,78.38L206.60,31.92L206.19,31.87L205.07,32.77L204.96,32.93L204.83,33.05L204.65,33.17L204.44,33.28L204.56,33.10L204.68,32.96L204.80,32.84L204.86,32.80L205.03,32.72L206.15,31.82L206.15,31.41L187.43,29.12L186.31,30.02L186.30,30.07L185.87,30.42L185.83,30.51L185.81,30.57L185.81,31.01"/><path d="M188.42,75.69L188.36,75.68L188.16,75.54L188.00,75.34L187.90,75.12L187.88,74.88L187.94,74.65L188.04,74.51L188.09,74.48L188.31,74.43L188.54,74.46L188.76,74.56L188.94,74.73L189.07,74.94L189.13,75.18L189.11,75.41L189.02,75.62L188.97,75.67L188.82,75.73L188.59,75.74L188.42,75.69"/><path d="M188.42,33.95L188.21,33.88L188.00,33.75L187.84,33.55L187.75,33.32L187.73,33.09L187.79,32.86L187.88,32.72L187.93,32.69L188.15,32.64L188.39,32.66L188.61,32.77L188.79,32.94L188.92,33.15L188.98,33.39L188.96,33.62L188.86,33.83L188.82,33.88L188.67,33.94L188.42,33.95"/><path d="M199.68,79.05L199.41,79.02L200.13,79.11"/><path d="M202.55,79.41L202.72,79.43"/><path d="M202.50,77.41L202.29,77.27L202.14,77.08L202.04,76.85L202.02,76.61L202.08,76.39L202.18,76.24L202.23,76.21L202.45,76.16L202.68,76.19L202.90,76.29L203.08,76.46L203.21,76.67L203.27,76.91L203.25,77.14L203.16,77.35L203.11,77.40L202.96,77.46L202.73,77.47L202.50,77.41"/><path d="M201.92,34.59L201.87,34.82L201.89,35.06L201.98,35.28L202.14,35.48L202.34,35.62L202.57,35.68L202.80,35.67L202.95,35.61L203.00,35.56L203.10,35.35L203.11,35.12L203.06,34.88L202.93,34.67L202.74,34.50L202.52,34.40L202.29,34.37L202.07,34.42L202.02,34.45L201.92,34.59"/><path d="M203.78,79.56L204.12,79.60"/></g></g><g id="Actor_.3"><g style="stroke:#000000;stroke-width:0.176"><path d="M208.71,75.44L208.84,75.52L209.03,75.58L209.22,75.57L209.39,75.50L209.53,75.38"/><path d="M210.37,75.94L210.53,75.81"/><path d="M210.21,76.08L210.52,75.80L210.73,75.43L210.79,74.99L210.79,73.73"/></g><g style="stroke:#000000;stroke-width:0.176"><path d="M210.96,73.60L210.96,74.86L210.89,75.30L210.69,75.67L210.37,75.95L210.21,76.08L209.82,76.24L209.38,76.25L207.94,76.07"/><path d="M208.88,75.31L209.00,75.39L209.19,75.45L209.38,75.44L209.53,75.38L209.53,75.38L209.62,75.21L209.65,75.02L209.65,74.69"/></g></g><g id="Actor_.4"><g style="stroke:#000000;stroke-width:0.176"><path d="M189.11,75.11L188.66,75.05L188.33,74.43"/><path d="M188.96,33.34L188.66,33.30L188.32,32.66"/><path d="M188.66,75.05L188.82,74.92L188.77,74.81"/><path d="M188.74,74.76L188.59,74.48"/><path d="M188.82,74.92L189.07,74.95"/><path d="M188.66,33.30L188.82,33.17L188.93,33.19"/><path d="M188.82,33.17L188.61,32.77"/><path d="M202.43,76.16L202.79,76.83L203.26,76.89"/><path d="M203.11,35.13L202.79,35.09L202.42,34.38"/><path d="M202.79,76.83L202.95,76.70L203.23,76.74"/><path d="M202.95,76.70L202.68,76.19"/><path d="M202.79,35.09L202.95,34.96L203.08,34.97"/><path d="M202.95,34.96L202.70,34.48"/><path d="M204.77,32.88L205.01,32.87"/><path d="M204.87,32.79L204.87,32.87L204.79,32.86"/><path d="M204.87,32.87L205.07,32.71L205.18,32.68"/><path d="M205.07,32.71L210.54,28.30L210.46,28.45L210.62,28.32L210.46,28.44"/><path d="M205.67,27.09L207.26,27.29L206.16,27.15"/><path d="M206.76,76.97L210.69,73.81L210.69,73.85"/><path d="M211.19,28.27L211.13,28.28L206.60,31.94"/><path d="M206.15,31.43L210.69,27.77L210.71,27.72L210.71,27.74L210.70,27.72L207.26,27.29L208.83,27.49L208.22,27.41"/><path d="M206.21,31.87L210.46,28.45"/><path d="M207.26,27.29L210.40,27.69L208.83,27.49"/><path d="M210.69,73.81L210.70,73.81"/><path d="M211.13,73.45L211.14,67.50L211.14,69.07"/><path d="M211.19,67.47L211.19,65.93L211.19,73.28"/><path d="M211.14,67.50L211.14,65.93L211.14,67.50"/><path d="M211.19,65.93L211.19,57.76"/><path d="M211.14,65.93L211.15,61.22L211.15,62.79"/><path d="M211.15,61.22L211.15,58.08L211.15,59.65"/><path d="M211.15,58.08L211.17,47.09L211.17,48.66"/><path d="M211.17,47.09L211.17,45.52L211.17,47.09"/><path d="M211.17,45.52L211.17,43.95L211.17,45.52"/><path d="M211.17,43.95L211.17,42.38L211.17,43.95"/><path d="M211.17,42.38L211.18,39.24L211.18,40.81"/><path d="M211.18,39.24L211.19,31.39L211.19,32.96"/><path d="M211.19,30.53L211.19,31.39L211.19,28.53"/><path d="M211.13,28.28L210.73,28.23"/><path d="M211.18,28.28L211.19,28.28L211.17,28.28L211.19,28.28"/><path d="M211.16,28.28L211.17,28.28L211.12,28.28"/><path d="M211.15,28.28L211.11,28.27L211.18,28.27"/><path d="M211.11,28.27L211.06,28.27"/><path d="M211.17,28.28L211.12,28.27"/><path d="M211.17,28.27L211.13,28.28L211.15,28.27"/><path d="M211.09,28.27L211.08,28.27"/><path d="M210.54,28.30L210.64,28.22"/><path d="M210.70,27.72L210.70,27.87L210.72,27.78"/><path d="M210.69,27.77L210.69,28.08"/><path d="M210.70,27.79L210.71,27.72L210.40,27.69"/><path d="M210.70,27.80L210.70,27.78"/><path d="M210.72,27.74L210.71,27.81"/><path d="M210.70,27.86L210.71,27.78"/><path d="M210.72,27.81L210.70,27.88L210.72,27.79"/><path d="M210.71,27.88L210.69,27.94L210.70,27.87"/><path d="M210.69,27.94L210.69,28.03"/><path d="M210.70,27.84L210.71,27.81"/><path d="M210.69,27.89L210.70,27.89"/><path d="M210.71,27.94L210.69,27.98"/></g><g style="stroke:#000000;stroke-width:0.176"><path d="M188.87,74.66L188.74,74.76L188.77,74.81L188.91,74.70"/><path d="M199.20,26.27L199.41,26.30L193.38,25.53L193.31,25.54L193.21,25.57L188.62,29.26"/><path d="M199.41,26.30L202.55,26.69L200.98,26.50"/><path d="M202.55,26.69L205.67,27.09"/><path d="M204.12,26.89L207.26,27.29L205.69,27.09"/><path d="M211.19,67.47L211.20,73.26L211.19,73.32L211.13,73.45L210.70,73.81L210.69,73.85L206.76,77.01"/><path d="M211.19,30.53L211.19,28.28L211.17,28.27L211.06,28.27L210.73,28.23L210.62,28.32L210.64,28.22L210.69,28.19L210.69,28.03L210.72,27.78L210.71,27.72L207.26,27.29L208.22,27.41"/><path d="M211.20,67.50L211.19,29.82"/><path d="M211.19,28.53L211.19,28.28"/></g></g><g id="Actor_.5"><g style="stroke:#000000;stroke-width:0.176"><path d="M170.10,83.77L170.44,83.73L170.73,83.81L170.96,83.99L171.10,84.26L171.15,84.58L171.10,84.92L170.96,85.27L170.73,85.56L170.44,85.79L170.12,85.92L168.91,86.23L168.54,86.39L168.21,86.68L167.94,87.06L167.77,87.51L167.72,87.97L167.72,235.95"/><path d="M168.08,86.87L167.68,86.71"/><path d="M167.68,83.68L168.08,83.84"/><path d="M168.21,83.97L167.94,83.72L167.77,83.36L167.72,82.93L167.73,31.10L167.79,30.75L167.98,30.10L178.34,5.80L178.55,5.42L178.84,5.09L178.16,5.00"/><path d="M167.79,30.75L167.39,29.99"/><path d="M191.55,232.80L191.56,84.35L174.71,84.74L174.34,84.64"/><path d="M178.84,5.09L179.19,4.84L179.57,4.69L191.24,1.74L191.56,1.70L191.55,7.55"/><path d="M191.55,26.91L191.56,18.89L189.67,18.98L188.83,18.95L188.03,18.86L187.27,18.72L186.58,18.51L185.95,18.25L185.40,17.94L184.92,17.57L184.52,17.17L184.20,16.71L183.97,16.22L183.84,15.70L183.79,15.15L183.84,14.57L183.97,13.97L184.20,13.37L184.52,12.76L184.92,12.14L185.40,11.54L185.95,10.94L187.03,10.01"/><path d="M187.08,9.96L188.03,9.28"/><path d="M196.48,84.85L196.34,84.91L196.12,84.92L191.56,84.35"/><path d="M213.35,77.32L213.35,21.64L212.37,21.58L192.59,19.08L191.56,18.89"/><path d="M191.56,1.70L191.87,1.71L213.08,4.39L213.35,4.45L213.35,10.31"/><path d="M195.29,23.36L195.20,23.48L195.15,23.67L195.17,23.88L195.25,24.08L195.39,24.25L195.57,24.37L195.77,24.43L195.97,24.42L196.15,24.35L196.23,24.27"/><path d="M213.35,230.65L213.35,87.10L208.84,86.52L208.62,86.46L208.42,86.33L208.26,86.14L208.16,85.93L208.13,85.13L196.83,83.70"/><path d="M202.10,229.81L201.90,229.95L201.75,230.16L201.69,230.41L201.71,230.68L201.81,230.93L201.99,231.15L202.22,231.31L202.48,231.38L202.74,231.37L202.97,231.27L203.13,231.12"/><path d="M202.09,160.70L201.90,160.83L201.75,161.04L201.69,161.29L201.71,161.55L201.81,161.81L201.99,162.03L202.22,162.18L202.48,162.26L202.74,162.25L202.97,162.15L203.13,162.00"/><path d="M202.09,108.86L201.90,108.99L201.75,109.20L201.69,109.45L201.71,109.71L201.81,109.97L201.99,110.19L202.22,110.34L202.48,110.42L202.74,110.41L202.97,110.31L203.13,110.16"/><path d="M207.56,197.51L207.39,197.67L207.07,197.79L206.72,197.81L206.36,197.70L206.04,197.49L205.79,197.20L205.63,196.86L205.57,196.49L205.57,195.45L205.63,195.10L205.79,194.79L206.08,194.55"/><path d="M207.57,172.31L207.39,172.46L207.07,172.59L206.72,172.60L206.36,172.50L206.04,172.29L205.79,172.01L205.63,171.66L205.57,171.29L205.57,170.25L205.63,169.90L205.79,169.59L206.08,169.35"/><path d="M208.34,86.24L208.58,86.18"/><path d="M208.36,84.94L208.13,85.13"/><path d="M208.13,77.92L208.16,77.13L208.26,76.94L208.39,76.82"/><path d="M209.65,25.97L209.57,26.04L209.39,26.12L209.19,26.13L208.99,26.07L208.83,25.96L208.67,25.78L208.59,25.58L208.57,25.37L208.62,25.17L208.71,25.05"/><path d="M209.65,74.93L209.57,75.01L209.39,75.08L209.16,75.08"/><path d="M213.35,249.26L213.35,231.96"/><path d="M212.20,249.10L212.43,249.11"/><path d="M216.70,89.63L216.67,89.88L216.62,90.01L216.56,90.02L213.48,87.15L213.35,87.10"/><path d="M213.35,21.64L213.48,21.69L213.77,22.02L213.93,22.12L214.08,22.15L214.22,22.12L214.41,21.93L214.08,22.15"/><path d="M213.35,4.45L213.48,4.55L215.66,9.25L215.79,9.75L216.48,9.84"/><path d="M214.41,21.93L214.51,21.77"/><path d="M217.87,228.71L217.87,94.30L217.78,92.94L217.65,92.38L217.36,91.71L217.26,91.11L217.23,90.40L217.26,89.84L217.31,89.70L217.36,89.66L217.65,90.23L217.71,90.30L217.78,90.23L217.86,89.68L217.87,89.26L217.86,37.43L217.82,36.39L215.89,10.54L215.79,9.75"/><path d="M217.87,230.02L217.87,258.82"/><path d="M217.80,93.15L218.43,93.12"/><path d="M217.80,90.12L218.43,90.09"/><path d="M217.92,90.29L217.71,90.30"/><path d="M217.85,37.07L218.49,36.44"/></g><g style="stroke:#000000;stroke-width:0.176"><path d="M218.50,228.44L218.50,94.27L218.41,92.91L218.28,92.35L218.04,91.80L217.95,91.20L217.91,90.49L217.92,90.29L218.34,90.27L218.41,90.20L218.49,89.66L218.50,89.23L218.50,36.80L218.45,35.76L216.53,10.21L216.34,9.34L214.11,4.52L214.02,4.42L213.85,4.33L213.32,4.20L192.11,1.52L191.79,1.50L191.13,1.53L178.88,4.61L178.50,4.76L178.16,5.00L177.87,5.33L177.65,5.71L167.59,29.33L167.39,29.99L167.34,30.34L167.32,82.77L167.38,83.20L167.55,83.56L167.81,83.81L168.54,84.09L168.91,84.07L170.10,83.77L170.27,83.91L170.42,84.17L170.47,84.50L170.42,84.84L170.27,85.18L170.04,85.47L169.76,85.70L169.44,85.83L168.51,86.07L168.14,86.23L167.81,86.52L167.55,86.90L167.38,87.35L167.32,87.81L167.32,236.21"/><path d="M186.53,76.93L174.71,82.62L174.39,82.84L174.13,83.15L174.03,83.32L173.92,83.70L173.90,83.89L173.96,84.23L174.03,84.38L174.13,84.50L174.34,84.64L191.13,84.25L192.11,84.32L196.48,84.85L196.69,84.68L196.79,84.49L196.83,83.70L197.06,83.51L208.36,84.94L208.36,85.64L208.40,85.87L208.50,86.09L208.66,86.27L208.85,86.40L209.07,86.46L213.32,87.00L214.02,87.14L214.11,87.19L216.70,89.60L216.69,88.71L216.56,87.91L213.44,77.39L213.23,77.27L213.08,77.24L208.84,76.71L208.62,76.71L208.40,76.81L208.36,77.73L208.13,77.92L206.76,77.75"/><path d="M184.44,15.84L184.67,16.33L184.99,16.79L185.39,17.20L185.87,17.56L186.42,17.87L187.05,18.13L187.74,18.34L188.50,18.49L189.30,18.57L191.13,18.58L191.45,18.62L192.83,18.89L208.83,20.91L212.60,21.39L213.85,21.45L214.11,21.52L214.24,21.65L214.51,21.77L214.66,21.33L214.74,20.98L214.86,19.61L214.86,18.49L214.79,17.23L214.57,15.22L214.22,13.21L213.93,11.96L213.48,10.45L213.41,10.35L213.23,10.24L212.37,10.06L192.59,7.56L191.87,7.52L191.43,7.58L190.45,7.97L189.67,8.34L188.83,8.79L188.03,9.28L187.03,10.01L186.42,10.56L185.87,11.16L185.39,11.77L184.99,12.38L184.67,12.99L184.44,13.59L184.31,14.19L184.26,14.77L184.31,15.32L184.44,15.84"/><path d="M196.23,24.22L196.00,24.24L195.80,24.18L195.62,24.06L195.49,23.89L195.40,23.69L195.39,23.49L195.43,23.31"/><path d="M204.84,234.30L204.64,234.17L203.58,233.70L202.48,233.45L201.38,233.43L200.32,233.62L199.78,233.84"/><path d="M202.05,230.74L202.23,230.96L202.46,231.12L202.71,231.19L202.97,231.18L203.13,231.12L203.25,230.87L203.27,230.61L203.21,230.34L203.06,230.10L202.86,229.91L202.61,229.79L202.35,229.76L202.10,229.81L201.99,229.97L201.92,230.22L201.94,230.49L202.05,230.74"/><path d="M202.23,161.84L202.46,161.99L202.71,162.07L202.97,162.06L203.13,162.00L203.25,161.75L203.27,161.49L203.21,161.22L203.06,160.98L202.86,160.79L202.61,160.67L202.35,160.64L202.09,160.70L201.99,160.85L201.92,161.10L201.94,161.36L202.05,161.62L202.23,161.84"/><path d="M202.13,109.88L202.23,110.00L202.46,110.15L202.71,110.23L202.97,110.22L203.13,110.16L203.25,109.91L203.27,109.65L203.21,109.38L203.06,109.14L202.86,108.95L202.61,108.83L202.35,108.80L202.09,108.86L201.99,109.01L201.92,109.26L201.94,109.52L202.13,109.88"/><path d="M208.13,248.57L208.13,239.93L208.02,238.79L207.70,237.67L207.18,236.61L206.47,235.65"/><path d="M205.86,196.67L206.02,197.01L206.28,197.31L206.60,197.51L206.95,197.62L207.31,197.60L207.65,197.44L207.81,197.13L207.86,196.78L207.86,195.74L207.81,195.38L207.65,195.03L207.39,194.74L207.07,194.53L206.72,194.43L206.36,194.44L206.02,194.61L205.86,194.91L205.81,195.26L205.81,196.30L205.86,196.67"/><path d="M205.86,171.47L206.02,171.82L206.28,172.10L206.60,172.31L206.95,172.41L207.31,172.40L207.65,172.24L207.81,171.93L207.86,171.58L207.86,170.54L207.81,170.17L207.65,169.83L207.39,169.54L207.07,169.33L206.72,169.23L206.36,169.24L206.02,169.40L205.86,169.71L205.81,170.06L205.81,171.10L205.86,171.47"/><path d="M209.65,25.92L209.42,25.94L209.22,25.88L209.04,25.76L208.91,25.59L208.83,25.41L208.81,25.18L208.85,25.00"/><path d="M209.40,74.89L209.65,74.88"/><path d="M212.43,249.11L213.23,249.22L213.48,249.35L217.87,258.82L218.50,258.79L218.50,229.75"/></g></g><g id="Actor_.6"><g style="stroke:#000000;stroke-width:0.176"><path d="M194.42,22.80L194.82,22.64L195.25,22.63L209.38,24.41L209.82,24.54L210.21,24.79L210.52,25.15L210.73,25.57L210.79,26.03L210.79,28.24"/><path d="M196.10,24.73L195.97,24.85L195.80,24.91L195.61,24.92L195.42,24.87L195.24,24.75L195.11,24.60L195.02,24.41L194.99,24.21L194.99,23.85L195.02,23.66L195.11,23.50L195.24,23.38L195.27,23.37"/><path d="M209.53,26.42L209.39,26.54L209.22,26.61L209.03,26.61L208.83,26.56L208.66,26.45L208.53,26.29L208.44,26.10L208.41,25.91L208.41,25.55L208.44,25.36L208.53,25.19L208.66,25.07L208.69,25.06"/><path d="M210.37,24.97L210.53,24.84"/></g><g style="stroke:#000000;stroke-width:0.176"><path d="M210.96,28.26L210.96,25.90L210.89,25.45L210.69,25.02L210.37,24.66L209.98,24.41L209.54,24.28L195.42,22.50L194.98,22.51L194.59,22.67L194.42,22.80L194.11,23.08L193.91,23.45L193.84,23.89L193.84,25.59"/><path d="M196.23,24.01L196.20,23.81L196.11,23.62L195.97,23.47L195.80,23.36L195.61,23.30L195.42,23.31L195.27,23.37L195.18,23.53L195.15,23.72L195.15,24.08L195.18,24.28L195.27,24.47L195.41,24.62L195.58,24.74L195.77,24.79L195.96,24.78L196.10,24.73L196.20,24.56L196.23,24.37L196.23,24.01"/><path d="M208.66,25.11L208.60,25.23L208.57,25.42L208.57,25.78L208.60,25.98L208.69,26.16L208.83,26.32L209.00,26.43L209.19,26.49L209.38,26.48L209.53,26.42L209.62,26.25L209.65,26.06L209.65,25.71L209.62,25.51L209.53,25.32L209.39,25.16L209.22,25.05L209.03,25.00L208.84,25.00L208.69,25.06L208.66,25.11"/></g></g><g id="Actor_.7"><g style="stroke:#000000;stroke-width:0.176"><path d="M158.78,241.67L191.98,245.86L191.98,271.78"/><path d="M161.60,267.95L161.60,244.91L163.00,245.08L163.00,266.82"/><path d="M163.00,245.08L189.15,248.39L189.15,270.12"/><path d="M177.02,234.85L197.52,237.44"/><path d="M191.98,245.86L199.43,237.93"/><path d="M199.65,237.84L199.65,260.34"/></g><g style="stroke:#000000;stroke-width:0.176"><path d="M199.65,260.34L199.65,263.63L191.98,271.78L189.15,271.43L189.15,270.12L172.72,268.05L163.00,266.82L161.60,267.95L158.78,267.59L158.78,241.67L170.68,234.05L177.02,234.85L184.56,231.92L204.51,234.44"/><path d="M199.65,260.34L206.46,254.85L206.46,234.92"/></g></g><g id="Actor_.8"><g style="stroke:#000000;stroke-width:0.176"><path d="M195.34,58.47L195.55,58.47L195.85,58.42L196.11,58.38L196.39,58.27L196.63,58.17L196.87,58.01L197.09,57.86L197.29,57.66L197.47,57.46L197.62,57.22L197.77,56.98L197.86,56.72L197.96,56.44L198.00,56.17L198.04,55.86L198.04,55.59L198.02,55.26L197.96,55.00L197.88,54.67L197.78,54.42L197.64,54.09L197.50,53.87L197.30,53.56L197.13,53.37L196.87,53.10L196.68,52.94L196.38,52.71L196.17,52.59L195.84,52.42L195.61,52.35L195.27,52.24L195.04,52.20L194.68,52.17L194.45,52.18L194.11,52.21L193.89,52.26L193.56,52.36L193.36,52.46L193.07,52.62L192.89,52.77L192.65,52.98L192.50,53.17L192.31,53.42L192.20,53.65L192.07,53.93L192.00,54.19L191.93,54.49L191.92,54.77L191.90,55.09L191.99,55.69L192.18,56.27L192.47,56.83"/><path d="M192.85,57.32L193.14,57.59"/><path d="M193.14,57.59L193.13,57.50L193.11,56.87L193.10,56.55L193.10,56.22L193.10,55.91L193.10,55.60L193.12,55.27L193.15,54.59L193.21,53.90L193.65,53.87L193.67,53.65L193.68,53.58L193.71,53.51L193.73,53.45L193.74,53.46L193.74,55.72L193.54,55.88L193.76,55.91L193.98,55.94L193.99,55.75L193.74,55.72"/><path d="M193.11,56.93L192.81,56.57L192.49,55.85L192.38,55.08L192.49,54.34L192.81,53.70L193.32,53.21L193.67,53.05"/><path d="M194.63,58.81L194.61,58.81L194.58,58.78L194.57,58.73L194.56,58.70L194.54,58.52L194.49,57.92L194.45,57.30L194.44,56.98L194.43,56.68L194.43,56.37L194.43,56.05L194.44,55.71L194.47,55.03L194.52,54.34L194.54,54.07L194.10,53.92L194.12,53.72L194.56,53.86L194.57,53.78L194.59,53.70L194.62,53.65L194.63,53.63L195.55,52.60L194.88,52.43L193.97,53.47"/><path d="M193.29,58.64L193.29,58.64"/><path d="M193.54,55.88L193.56,55.20L193.60,54.52L193.65,53.87"/><path d="M193.99,55.75L194.00,55.30L194.04,54.61L194.10,53.92"/><path d="M193.67,53.66L193.67,53.66L193.23,53.69L193.23,53.65L193.25,53.57L193.27,53.51L193.30,53.46L194.21,52.43L194.88,52.43"/><path d="M194.11,53.50L194.18,53.51L194.18,53.51L194.17,53.52L194.15,53.57L194.13,53.64L194.12,53.72"/><path d="M194.18,53.51L194.01,53.50L193.82,53.47L193.99,53.50"/><path d="M193.82,53.47L193.74,53.46"/><path d="M193.21,53.90L193.23,53.69"/><path d="M194.56,53.86L194.54,54.07"/><path d="M193.32,53.21L193.34,53.19L193.68,53.04"/><path d="M195.33,58.47L195.55,58.37L195.55,57.94L196.13,57.76L196.71,57.36L196.73,57.35L197.15,56.77L197.37,56.08L197.37,55.32L197.15,54.56L196.73,53.88L196.15,53.33L195.55,53.02L195.55,52.60"/><path d="M195.55,57.94L195.55,53.02"/><path d="M196.71,57.36L197.13,56.79L197.24,56.44L197.35,56.09L197.35,55.33L197.13,54.58L196.71,53.89L196.13,53.35L195.55,53.02L195.60,53.05"/><path d="M197.70,57.38L197.14,57.85L196.84,58.06"/></g><g style="stroke:#000000;stroke-width:0.176"><path d="M193.44,52.28L193.09,52.57L192.66,52.93L192.32,53.38L192.31,53.40L192.06,53.92L191.93,54.48L191.90,55.07L191.98,55.68L192.17,56.27L192.47,56.83L192.85,57.32L193.14,57.59"/><path d="M196.84,58.06L196.68,58.17L196.16,58.37L196.13,58.38L195.57,58.48L195.33,58.47L194.63,58.81L194.18,58.83L193.70,58.77L193.29,58.64L193.26,58.63L193.24,58.59L193.23,58.53L193.21,58.35L193.18,58.11L193.14,57.59"/></g></g><g id="Actor_.9"><g style="stroke:#000000;stroke-width:0.176"><path d="M156.72,269.61L156.72,271.05"/><path d="M239.28,249.40L239.18,249.78L238.86,250.14L225.82,260.65L225.36,260.94L224.75,261.21L194.70,272.22L192.29,273.10L191.52,273.34L190.63,273.53L189.65,273.67L188.62,273.75L187.55,273.77L186.49,273.73L185.46,273.63L159.56,270.36L158.60,270.21L157.75,270.00L157.02,269.76L156.43,269.47L156.01,269.16L155.77,268.83L155.72,268.48"/><path d="M172.57,271.00L172.40,271.10L172.35,271.22L172.43,271.34L172.62,271.44L172.92,271.52L173.25,271.56L173.63,271.57L173.99,271.54L174.29,271.47L174.51,271.37L174.62,271.25L174.61,271.14L174.47,271.02L174.23,270.93L173.91,270.87L173.54,270.84L173.17,270.86L172.83,270.91L172.57,271.00"/><path d="M189.13,275.15L189.13,273.71"/><path d="M208.13,248.49L208.05,248.56L208.28,248.59"/><path d="M234.09,249.05L234.25,248.95L234.52,248.86L234.86,248.81L235.23,248.79L235.60,248.82L235.92,248.88L236.16,248.97L236.29,249.08L236.31,249.20L236.20,249.32L235.98,249.42L235.67,249.49L235.31,249.52L234.94,249.51L234.59,249.47L234.30,249.39L234.11,249.29L234.04,249.17L234.09,249.05"/></g><g style="stroke:#000000;stroke-width:0.176"><path d="M218.50,249.09L219.43,248.94L227.20,247.42L228.21,247.26L229.30,247.17L230.42,247.14L231.54,247.17L232.62,247.27L235.44,247.63L236.50,247.80L237.44,248.04L238.20,248.33L238.78,248.66L239.15,249.02L239.28,249.40L239.28,250.84L239.18,251.22L238.86,251.58L225.82,262.09L225.36,262.38L224.75,262.65L192.29,274.54L191.52,274.78L190.63,274.97L189.65,275.11L188.62,275.19L187.55,275.21L186.49,275.17L185.46,275.07L159.56,271.80L158.60,271.65L157.75,271.44L157.02,271.20L156.43,270.91L156.01,270.60L155.77,270.27L155.72,269.92L155.72,268.48L157.58,252.73L157.71,252.40L158.01,252.09L158.78,251.46"/><path d="M206.46,248.14L208.13,248.35"/><path d="M212.28,249.09L208.28,248.59"/></g></g><g id="Actor_.10"><g style="stroke:#000000;stroke-width:0.176"><path d="M191.35,39.15L192.20,38.72L193.14,38.50L194.13,38.51L195.12,38.75L196.06,39.20L196.90,39.85L197.60,40.66L198.13,41.58L198.38,42.32L198.46,42.58L198.58,43.61L198.46,44.60L198.14,45.52L197.60,46.31L196.90,46.94"/><path d="M198.39,45.15L198.64,44.46L198.75,43.46L198.64,42.44L198.31,41.44L197.78,40.51L197.08,39.71L196.23,39.06L195.29,38.61L194.30,38.37L193.94,38.36"/></g><g style="stroke:#000000;stroke-width:0.176"><path d="M198.39,45.15L198.31,45.38L197.78,46.17L197.08,46.80L196.90,46.94L196.06,47.38L195.12,47.59L194.13,47.58L193.14,47.34L192.92,47.24L192.20,46.89L191.35,46.24L190.65,45.43L190.12,44.51L189.79,43.51L189.71,42.80L189.68,42.48L189.79,41.49L190.12,40.57L190.65,39.78L191.35,39.15L191.53,39.01L192.37,38.57L193.31,38.36L193.94,38.36"/></g></g><g id="PMI528095-Foot Pedal.0"><g><path style="stroke:#000000;stroke-width:0.250" d="M227.12,227.06L223.24,227.06L196.11,238.70"/></g><g><path style="fill:#000000" d="M197.11,238.70L197.11,238.61L197.09,238.51L197.07,238.41L197.04,238.32L197.00,238.23L196.94,238.15L196.89,238.07L196.82,238.00L196.75,237.93L196.67,237.87L196.58,237.82L196.50,237.78L196.40,237.75L196.31,237.72L196.21,237.71L196.11,237.70L196.02,237.71L195.92,237.72L195.82,237.75L195.73,237.78L195.64,237.82L195.56,237.87L195.48,237.93L195.41,238.00L195.34,238.07L195.28,238.15L195.23,238.23L195.19,238.32L195.16,238.41L195.13,238.51L195.12,238.61L195.11,238.70L195.12,238.80L195.13,238.90L195.16,238.99L195.19,239.09L195.23,239.18L195.28,239.26L195.34,239.34L195.41,239.41L195.48,239.48L195.56,239.54L195.64,239.59L195.73,239.63L195.82,239.66L195.92,239.69L196.02,239.70L196.11,239.70L196.21,239.70L196.31,239.69L196.40,239.66L196.50,239.63L196.58,239.59L196.67,239.54L196.75,239.48L196.82,239.41L196.89,239.34L196.94,239.26L197.00,239.18L197.04,239.09L197.07,238.99L197.09,238.90L197.11,238.80z"/></g><g><path style="fill:#ffffa0" d="M226.34,230.16L260.10,230.16L260.10,223.95L226.34,223.95z"/><path style="stroke:#000000;stroke-width:0.250;stroke-opacity:0.98" d="M226.34,230.16L260.10,230.16L260.10,223.95L226.34,223.95z"/><text xml:space="preserve" fill="#000000" stroke-width="0" x="227.12" y="228.41" font-size="3.79" opacity="1.00" font-family="MS Shell Dlg">528095-Foot Pedal</text></g></g><g/><g><g/><g><image x="0.000000" y="0.000000" height="25.000000" width="25.000000" xlink:href="AutoDeck_Operator_Stand_files/ab45327fcec4ff58_image_0.jpg" mask="url(#mask0)"/></g></g><g><g/><g><image x="0.000000" y="254.000015" height="25.000000" width="25.000000" xlink:href="AutoDeck_Operator_Stand_files/ab45327fcec4ff58_image_1.jpg" mask="url(#mask1)"/></g></g><g><g/><g><image x="407.000000" y="0.000000" height="25.000000" width="25.000000" xlink:href="AutoDeck_Operator_Stand_files/ab45327fcec4ff58_image_2.jpg" mask="url(#mask2)"/></g></g><g><g/><g><image x="407.000000" y="254.000015" height="25.000000" width="25.000000" xlink:href="AutoDeck_Operator_Stand_files/ab45327fcec4ff58_image_3.jpg" mask="url(#mask3)"/></g></g><g><g><path style="stroke:#000000;stroke-width:0.250;fill:#000000" d="M94.63,51.14L98.19,53.45L101.86,55.58L105.63,57.52L109.49,59.27L113.44,60.82L117.46,62.18L121.54,63.33L125.67,64.28L129.85,65.02L134.06,65.55L138.29,65.87L142.53,65.98L146.77,65.88L151.00,65.56L155.21,65.03L159.39,64.30L163.52,63.35L167.60,62.20L171.62,60.85L175.57,59.30L179.44,57.55L183.21,55.61L186.88,53.49L189.73,51.67L189.73,51.67L186.05,53.70L182.28,55.56L178.42,57.22L174.48,58.68L170.47,59.95L166.40,61.02L162.29,61.88L158.14,62.53L153.96,62.98L149.76,63.22L145.56,63.24L141.36,63.06L137.17,62.67L133.01,62.06L128.89,61.25L124.81,60.24L120.79,59.02L116.83,57.61L112.95,56.00L109.15,54.19L105.45,52.20L101.85,50.02L98.37,47.67L97.51,47.06z"/></g><g><image x="58.000000" y="11.709770" height="75.000008" width="75.000008" xlink:href="AutoDeck_Operator_Stand_files/ab45327fcec4ff58_image_4.jpg" mask="url(#mask4)"/><path style="stroke:#000000;stroke-width:0.125" d="M133.00,49.21L132.81,52.94L132.26,56.64L131.33,60.26L130.06,63.78L128.43,67.14L126.48,70.33L124.23,73.31L121.68,76.05L118.88,78.53L115.85,80.71L112.61,82.58L109.20,84.12L105.66,85.31L102.01,86.14L98.30,86.60L94.57,86.70L90.84,86.42L87.16,85.77L83.56,84.76L80.08,83.39L76.75,81.69L73.61,79.66L70.69,77.33L68.01,74.72L65.61,71.85L63.50,68.76L61.71,65.48L60.26,62.04L59.16,58.46L58.42,54.80L58.05,51.08L58.05,47.34L58.42,43.62L59.16,39.96L60.26,36.38L61.71,32.94L63.50,29.66L65.61,26.57L68.01,23.70L70.69,21.09L73.61,18.76L76.75,16.73L80.08,15.03L83.56,13.66L87.16,12.65L90.84,12.00L94.57,11.72L98.30,11.81L102.01,12.28L105.66,13.11L109.20,14.30L112.61,15.84L115.85,17.71L118.88,19.89L121.68,22.36L124.23,25.11L126.48,28.09L128.43,31.28L130.06,34.64L131.33,38.16L132.26,41.78L132.81,45.48L133.00,49.21z"/></g></g><g><g><path style="stroke:#000000;stroke-width:0.250;fill:#000000" d="M94.07,134.40L99.66,133.57L105.19,132.45L110.67,131.06L116.06,129.40L121.37,127.47L126.58,125.28L131.66,122.83L136.62,120.13L141.44,117.18L146.11,114.00L150.61,110.59L154.93,106.95L159.07,103.11L163.01,99.06L166.74,94.82L170.26,90.40L173.55,85.81L176.61,81.07L179.42,76.17L181.99,71.14L184.31,65.99L186.36,60.73L188.15,55.37L189.28,51.42L189.28,51.42L187.46,56.73L185.39,61.94L183.05,67.04L180.46,72.02L177.63,76.86L174.56,81.55L171.26,86.09L167.74,90.45L164.00,94.64L160.06,98.63L155.92,102.41L151.60,105.99L147.11,109.35L142.45,112.48L137.64,115.37L132.70,118.01L127.63,120.41L122.44,122.55L117.16,124.43L111.78,126.04L106.34,127.38L100.83,128.45L95.28,129.24L93.51,129.44z"/></g><g><image x="58.000000" y="92.682312" height="75.000008" width="75.000008" xlink:href="AutoDeck_Operator_Stand_files/ab45327fcec4ff58_image_5.jpg" mask="url(#mask5)"/><path style="stroke:#000000;stroke-width:0.125" d="M133.00,130.18L132.81,133.92L132.26,137.61L131.33,141.24L130.06,144.75L128.43,148.12L126.48,151.31L124.23,154.29L121.68,157.03L118.88,159.50L115.85,161.68L112.61,163.55L109.20,165.09L105.66,166.28L102.01,167.11L98.30,167.58L94.57,167.67L90.84,167.39L87.16,166.74L83.56,165.73L80.08,164.36L76.75,162.66L73.61,160.63L70.69,158.30L68.01,155.69L65.61,152.82L63.50,149.74L61.71,146.45L60.26,143.01L59.16,139.44L58.42,135.77L58.05,132.05L58.05,128.31L58.42,124.59L59.16,120.93L60.26,117.36L61.71,113.91L63.50,110.63L65.61,107.54L68.01,104.68L70.69,102.07L73.61,99.73L76.75,97.71L80.08,96.00L83.56,94.64L87.16,93.62L90.84,92.97L94.57,92.69L98.30,92.79L102.01,93.25L105.66,94.08L109.20,95.27L112.61,96.81L115.85,98.68L118.88,100.86L121.68,103.34L124.23,106.08L126.48,109.06L128.43,112.25L130.06,115.62L131.33,119.13L132.26,122.75L132.81,126.45L133.00,130.18z"/></g></g><g id="paperID" visibility="hidden" opacity="0.00" transform="scale(0.000100)"><path style="stroke:#000000;stroke-width:0.500;fill:#e6e6e6;fill-rule:evenodd" d="M-2000.00,-2000.00L2431.80,-2000.00L2431.80,2279.40L-2000.00,2279.40zM0.00,0.00L431.80,0.00L431.80,279.40L0.00,279.40z"/><path style="fill:#000000;fill-opacity:0.118" d="M3.00,279.40L431.80,279.40L431.80,3.00L434.80,3.00L434.80,282.40L3.00,282.40z"/></g><g id="hotspot.0" onmouseover="ShowHotSpot(evt,'0')" onmouseout="HideHotSpot(evt,'0')" onmousemove="ShowToolTip(evt,'0',&quot;90626-503 Wires&quot;)" opacity="0"><a xlink:href="./90626-503.svg"><path style="fill:#00ff00;fill-rule:evenodd" d="M132.80,92.89L133.13,117.52L139.28,114.13L147.78,108.69L152.52,104.94L157.12,101.04L161.88,96.62L164.63,93.59L167.35,90.53L171.20,85.88L177.65,76.36L182.75,67.19L186.49,58.69L189.13,51.43L189.24,52.20L185.80,62.42L182.64,69.80L179.02,77.05L174.25,84.85L171.19,89.27L168.03,93.25L163.72,98.46L158.48,103.75L152.02,109.53L142.68,116.51L133.13,122.25L132.80,167.47L97.67,167.69L57.88,167.47L57.88,92.89L97.44,92.57z"/></a></g><g id="hotspot.1" onmouseover="ShowHotSpot(evt,'1')" onmouseout="HideHotSpot(evt,'1')" onmousemove="ShowToolTip(evt,'1',&quot;90626-503 Assem&quot;)" opacity="0"><a xlink:href="./90626-503_Assem.svg"><path style="fill:#00ff00;fill-rule:evenodd" d="M133.02,61.74L133.78,62.01L139.24,62.66L145.02,63.00L148.65,63.00L157.94,62.42L165.66,60.97L173.14,58.93L180.26,56.20L187.97,52.69L186.87,53.63L179.36,57.67L171.53,61.07L162.60,63.69L153.18,65.49L144.23,66.06L140.94,66.06L133.00,65.70L132.80,86.57L96.31,86.79L57.88,86.57L57.88,11.66L132.80,11.66zM188.91,52.24L187.97,52.69L188.45,52.06z"/></a></g><g id="hotspot.2" onmouseover="ShowHotSpot(evt,'2')" onmouseout="HideHotSpot(evt,'2')" onmousemove="ShowToolTip(evt,'2',&quot;Home&quot;)" opacity="0"><a xlink:href="./Saw-Overview.svg"><path style="fill:#00ff00;fill-rule:evenodd" d="M24.71,25.05L0.44,25.05L0.44,0.44L24.71,0.44z"/></a></g><g id="hotspot.3" onmouseover="ShowHotSpot(evt,'3')" onmouseout="HideHotSpot(evt,'3')" onmousemove="ShowToolTip(evt,'3',&quot;Forward&quot;)" opacity="0"><a xlink:href="file://Forward.svg"><path style="fill:#00ff00;fill-rule:evenodd" d="M431.24,278.96L406.96,278.96L406.96,254.01L431.24,254.01z"/></a></g><g id="hotspot.4" onmouseover="ShowHotSpot(evt,'4')" onmouseout="HideHotSpot(evt,'4')" onmousemove="ShowToolTip(evt,'4',&quot;Order&quot;)" opacity="0"><a xlink:href="https://www.mitek-us.com/resources/machinery/Find-and-Order-Parts/" target="_blank"><path style="fill:#00ff00;fill-rule:evenodd" d="M431.24,25.05L406.96,25.05L406.96,0.44L431.24,0.44z"/></a></g><g id="hotspot.5" onmouseover="ShowHotSpot(evt,'5')" onmouseout="HideHotSpot(evt,'5')" onmousemove="ShowToolTip(evt,'5',&quot;Back&quot;)" opacity="0"><a xlink:href="javascript:history.go(-1)"><path style="fill:#00ff00;fill-rule:evenodd" d="M24.71,278.96L0.44,278.96L0.44,254.01L24.71,254.01z"/></a></g><g id="hotspot.6" onmouseover="ShowHotSpot(evt,'6')" onmouseout="HideHotSpot(evt,'6')" onmousemove="ShowToolTip(evt,'6',&quot;Imported1&quot;)" opacity="0"><path style="fill:#00ff00;fill-rule:evenodd" d="M222.38,227.17L225.93,226.95L226.14,224.10L260.26,224.10L260.16,230.25L226.24,230.25L225.93,227.50zM203.82,234.31L206.51,234.24L206.23,254.83L199.75,260.26L199.43,263.67L198.39,265.01L195.36,268.10L192.14,271.71L189.09,271.48L188.91,270.30L188.58,269.95L162.92,266.91L161.94,267.65L159.25,267.66L158.85,267.39L158.96,241.55L170.39,234.29L175.61,234.65L177.56,234.66L184.34,231.89z"/></g><g id="ToolTip" visibility="hidden" opacity="0" transform="translate(0,0)"><rect id="ToolTipShadow" opacity="0.20" fill="black" stroke="none" x="0" y="0" width="30" height="8"/><rect id="ToolTipBG" fill="#ffffe1" stroke="black" x="0" y="0" width="30" height="8"/><text xml:space="preserve" id="ToolTipText" fill="black" x="0" y="0" width="30" height="8">tooltip</text></g></g></svg>
