<?xml version="1.0" encoding="UTF-8" standalone="no"?>
<svg xmlns="http://www.w3.org/2000/svg" xmlns:xlink="http://www.w3.org/1999/xlink" width="431.800mm" height="279.400mm" viewBox="0.000000 0.000000 431.799988 279.399994" stroke-linejoin="round" stroke-linecap="round" fill="none" fill-rule="evenodd"><desc>Composer Export</desc><script type="text/ecmascript"><![CDATA[
if(typeof(top) != "undefined")
{
	top.ShowPaper = ShowPaper;
}
function ShowHotSpot(evt,hotspotid)
{
	var svgDocument = evt.target.ownerDocument;
	var strId = "hotspot."+hotspotid;
	var hotspot = svgDocument.getElementById(strId);
	if(hotspot)
		hotspot.setAttribute("opacity",".5");
}
function HideHotSpot(evt,hotspotid)
{
	var svgDocument = evt.target.ownerDocument;
	var strId = "hotspot."+hotspotid;
	var hotspot = svgDocument.getElementById(strId);
	if(hotspot)
		hotspot.setAttribute("opacity","0");

	var toolTip = svgDocument.getElementById('ToolTip');
	if(toolTip)
		toolTip.setAttribute("visibility","hidden");
}
function ShowToolTip(evt,hotspotid,strTooltip)
{
	if(strTooltip=="")
	return;

	// change text
	var svgDocument = evt.target.ownerDocument;
	var tiptext = svgDocument.getElementById('ToolTipText');
	if( !tiptext )
	return;
	tiptext.firstChild.nodeValue = " " + strTooltip + "  " ;

	// show tooltip before, else some refresh issue

	var toolTip = svgDocument.getElementById('ToolTip');
	if(!toolTip)
	return;

	toolTip.setAttribute("visibility","visible");
	toolTip.setAttribute("opacity",".95");

	// move tooltip
	// get viewbox

	var root = svgDocument.documentElement;
	var vbox = (root.getAttribute("viewBox")).split(' ');
	var x0 = parseFloat(vbox[0]);
	var y0 = parseFloat(vbox[1]);
	var vboxW = parseFloat(vbox[2]);
	var vboxH = parseFloat(vbox[3]);

	// get default width of svg

	var strW = root.getAttribute("width");
	var svgW = parseFloat(strW);
	if(strW.indexOf('mm') != -1)
	svgW *= 3.779;

	var strH = root.getAttribute("height");
	var svgH = parseFloat(strH);
	if(strH.indexOf('mm') != -1)
	svgH *= 3.779;  	// 96 dpi  -> 96/25.4 = 3.779

	// update the viewbox / width / height if svg is embedded in html with zoom fit all
	var realx0 = x0;
	var realy0 = y0;
	var realvboxW = vboxW;
	var realvboxH = vboxH;
	var realsvgW = svgW;
	var realsvgH = svgH;

	if ((typeof(top) == "undefined") || (typeof(top.svgctl1) != "undefined")) // embedded in html
	{
		// get window size in pxl

		svgW = window.innerWidth;
		svgH = window.innerHeight;

		// calculate real viewbox

		realsvgW = svgW;
		realsvgH = svgH;
		if((svgW / svgH) > (vboxW / vboxH))
		{
			realvboxW = (vboxH * svgW) / svgH;
			realvboxH = vboxH;
			realx0 = x0 - (realvboxW - vboxW)/2 ;
		}
		else
		{
			realvboxH = (vboxW * svgH) / svgW;
			realvboxW = vboxW;
			realy0 = y0 - (realvboxH - vboxH)/2 ;
		}
	}

	// get user zoom/pan

	var newScale = root.currentScale;
	var translation = root.currentTranslate;

	// transform pxl to user unit

	var xPos = (((evt.clientX+10- translation.x)/newScale) * realvboxW)/realsvgW  + realx0 ;
	var yPos = (((evt.clientY+5- translation.y)/newScale) * realvboxH)/ realsvgH  + realy0 ;
	var scaleForWidth = ( (1 / newScale) * realvboxH) / realsvgH;

	// move tooltip

	toolTip.setAttribute("transform", "translate(" + xPos + "," + yPos + ")" );

	// resize tooltip

	var fontsize = 12;
	tiptext.setAttribute("font-size",fontsize*scaleForWidth);
	tiptext.setAttribute("y", fontsize*scaleForWidth);
	var tipBG = svgDocument.getElementById('ToolTipBG');
	var outline = tiptext.getBBox();
	if(tipBG)
	{
		tipBG.setAttribute("stroke-width", 1*scaleForWidth);
		tipBG.setAttribute("width", Number(outline.width) );
		tipBG.setAttribute("height", Number(outline.height) + fontsize*.5*scaleForWidth );
	}
	var ToolTipShadow = svgDocument.getElementById('ToolTipShadow');
	if(ToolTipShadow)
	{
		ToolTipShadow.setAttribute("width", Number(outline.width) );
		ToolTipShadow.setAttribute("height", Number(outline.height) + fontsize*.5*scaleForWidth );
		ToolTipShadow.setAttribute("x", 3*scaleForWidth);
		ToolTipShadow.setAttribute("y", 3*scaleForWidth);
	}
}
function ShowPaper()
{
  var svgDocument = getDocument();
  var paper = svgDocument.getElementById("paperID");
  if(paper)
  {
    paper.setAttribute("transform","scale(1)");
    paper.setAttribute("opacity","1");
    paper.setAttribute("visibility","visible");
  }
  var svg = svgDocument.getRootElement();
  if(svg)
  {
    svg.setAttribute("width","441.800mm");
    svg.setAttribute("height","289.400mm");
    svg.setAttribute("viewBox","-5.000000 -5.000000 441.799988 289.399994");
  }
}
]]></script><defs><mask id="mask0" x="0" y="0" height="100%" width="100%"><image x="0.000000" y="0.000000" height="25.000000" width="25.000000" xlink:href="Electrical_Enclosure_files/82436b0b47c70083_mask_0.jpg"/></mask><mask id="mask1" x="0" y="0" height="100%" width="100%"><image x="0.000000" y="254.000015" height="25.000000" width="25.000000" xlink:href="Electrical_Enclosure_files/82436b0b47c70083_mask_1.jpg"/></mask><mask id="mask2" x="0" y="0" height="100%" width="100%"><image x="407.373932" y="254.373917" height="25.000000" width="25.000000" xlink:href="Electrical_Enclosure_files/82436b0b47c70083_mask_2.jpg"/></mask><mask id="mask3" x="0" y="0" height="100%" width="100%"><image x="407.000031" y="0.000000" height="25.000000" width="25.000000" xlink:href="Electrical_Enclosure_files/82436b0b47c70083_mask_3.jpg"/></mask></defs><g><path style="fill:#ffffff" d="M431.71,279.30L0.07,279.30L0.07,0.07L431.71,0.07z"/><path style="fill:#404040" d="M218.58,55.50L219.19,56.45L219.31,57.29L219.68,57.93L219.43,60.21L219.28,60.32L218.95,61.20L217.97,62.29L216.48,62.83L214.53,62.57L213.06,61.53L212.26,59.80L212.26,57.84L213.18,55.98L214.46,55.00L214.96,54.74L217.07,54.75z"/><path style="fill:#e50000" d="M277.03,43.41L277.03,45.26L276.26,46.77L275.17,47.73L275.25,48.30L276.80,47.05L277.53,45.77L277.92,43.34L278.04,45.27L277.53,46.77L276.75,47.75L275.26,48.79L275.14,49.63L274.76,52.57L274.16,53.48L272.65,54.28L272.05,54.22L273.40,53.47L274.27,52.33L274.50,50.80L274.44,42.63L276.55,42.38z"/><path style="fill:#ff0000" d="M275.26,40.13L276.27,40.64L277.61,42.09L277.65,42.34L277.82,43.05L277.92,43.34L277.53,45.77L276.80,47.05L275.25,48.30L275.17,47.73L276.26,46.77L277.03,45.26L277.03,43.41L276.55,42.38L274.44,42.63L274.50,50.80L274.27,52.33L273.40,53.47L272.05,54.22L270.96,54.01L269.99,53.22L269.70,52.75L269.45,43.48L270.36,41.62L271.73,40.47L272.39,40.13L273.66,39.87L273.85,39.75z"/><path style="fill:#ff0000" d="M203.97,56.26L205.10,57.43L205.12,57.92L205.13,59.47L204.80,60.65L203.39,61.56L201.93,61.57L200.95,61.04L200.17,59.55L200.17,58.09L200.82,56.73L201.86,56.00L203.48,56.00z"/><path style="fill:#ffffff" d="M216.61,58.47L216.85,59.22L216.45,59.18L216.30,59.03L215.80,59.09L215.80,58.64L216.34,58.18z"/><path style="fill:#e5d720" d="M278.81,42.15L279.29,43.67L279.30,45.52L278.79,47.03L278.03,48.03L276.80,49.07L275.14,49.63L275.26,48.79L276.75,47.75L277.53,46.77L278.04,45.27L277.92,43.34L277.82,43.05L277.77,42.42L277.65,42.34L277.61,42.09L278.57,41.80z"/><path style="fill:#e50000" d="M277.82,43.05L277.65,42.34L277.77,42.42z"/><path style="fill:#e50000" d="M205.13,59.47L205.12,57.92L205.21,58.02z"/><path style="fill:#ff0000" d="M217.05,56.83L217.59,56.76L217.59,57.36L217.05,57.29z"/><path style="fill:#ff0000" d="M214.55,57.38L214.21,57.38L214.21,56.74L214.55,56.74z"/><path style="fill:#ff0000" d="M215.34,57.76L215.30,58.14L214.98,58.12L214.93,57.53z"/><path style="fill:#ff0000" d="M216.91,57.67L216.61,58.47L216.34,58.18L216.51,57.48z"/><path style="fill:#ff0000" d="M214.79,59.35L215.32,59.28L215.32,59.88L214.79,59.81z"/><path style="fill:#ff0000" d="M216.81,59.91L216.49,59.91L216.45,59.18L216.85,59.22z"/><path style="fill:#ff0000" d="M217.06,60.11L217.58,60.03L217.51,60.55L217.05,60.56z"/><path style="fill:#ff0000" d="M214.55,60.65L214.21,60.65L214.21,60.01L214.55,60.01z"/><path style="fill:#393939" d="M219.43,56.65L219.68,57.93L219.31,57.29L219.19,56.45z"/><path style="fill:#393939" d="M219.84,59.38L219.43,60.21L219.68,57.93L219.81,58.04z"/><path style="fill:#393939" d="M219.35,60.91L218.95,61.20L219.28,60.32L219.43,60.21z"/><path style="fill:#e5e5e5" d="M358.13,10.42L358.14,16.29L351.10,259.15L342.53,271.52L342.52,266.44L349.75,4.09L350.06,4.07z"/><path style="fill:#e5e5e5" d="M346.33,6.63L342.52,148.04L341.95,163.34L339.75,163.33L234.84,157.10L234.93,156.61L235.69,156.51L333.95,162.32L340.79,162.89L345.04,6.47L345.83,6.13z"/><path style="fill:#e5e5e5" d="M234.48,13.15L234.60,14.54L235.97,14.68L235.99,16.12L234.36,16.20L234.33,27.46L234.33,30.99L234.07,43.32L234.08,56.68L234.08,60.21L233.83,72.80L233.83,84.14L233.83,87.41L233.57,98.75L233.32,145.36L233.07,153.17L232.87,156.79L229.66,156.78L145.27,151.74L143.88,151.55L143.89,151.26L146.28,151.24L231.20,156.34L231.42,154.09L232.68,14.78L232.86,12.93L233.46,12.69z"/><path style="fill:#e5e5e5" d="M229.42,253.00L230.25,253.43L219.33,252.00L179.66,246.52L179.67,246.21z"/><path style="fill:#e5e5e5" d="M191.87,250.73L191.83,250.96L184.32,255.38L184.23,254.53L188.88,251.86L189.09,250.23z"/><path style="fill:#e5e5e5" d="M232.82,191.46L232.82,204.03L232.68,204.21L232.57,207.58L232.57,218.16L232.30,236.81L232.32,246.37L232.17,253.08L231.58,253.49L230.37,253.59L230.25,253.43L230.41,253.34L231.42,157.87L232.36,157.25L232.93,157.26z"/><path style="fill:#e5e5e5" d="M327.66,266.61L338.02,268.19L340.76,166.93L341.01,164.17L341.70,163.79L342.02,163.81L339.26,267.97L338.91,268.37L337.23,268.37L234.07,254.08L234.08,253.78L234.95,253.76z"/><path style="fill:#e5e5e5" d="M262.44,260.57L262.46,260.88L256.37,265.97L256.37,264.93L259.92,262.18L260.07,260.29z"/><path style="fill:#e5e5e5" d="M251.56,263.66L251.24,263.57L251.61,263.37z"/><path style="fill:#e5e5e5" d="M341.77,271.92L341.81,272.22L338.00,277.82L338.00,276.78L340.27,273.51L340.43,271.62z"/><path style="fill:#ffef24" d="M276.52,39.88L277.27,40.39L278.57,41.80L277.61,42.09L276.27,40.64L275.26,40.13L273.85,39.75L275.51,39.64z"/><path style="fill:#808080" d="M236.00,27.46L234.33,27.46L234.36,16.20L235.99,16.12z"/><path style="fill:#808080" d="M235.96,40.47L235.72,43.25L234.07,43.32L234.33,30.99L236.00,30.99z"/><path style="fill:#808080" d="M235.49,84.14L233.83,84.14L233.83,72.80L235.47,72.88z"/><path style="fill:#808080" d="M235.21,98.68L233.57,98.75L233.83,87.41L235.49,87.41z"/><path style="fill:#808080" d="M233.07,153.17L233.32,145.36L234.71,145.43L234.73,153.32z"/><path style="fill:#808080" d="M234.45,191.79L234.22,204.31L232.82,204.03L232.82,191.46L233.97,191.52z"/><path style="fill:#808080" d="M234.25,207.82L234.23,218.32L232.57,218.16L232.57,207.58z"/><path style="fill:#808080" d="M233.96,237.13L233.94,246.56L232.32,246.37L232.30,236.81z"/><path style="fill:#b3bad6" d="M205.74,58.26L205.74,59.63L205.48,60.13L204.80,60.65L205.13,59.47L205.21,58.02L205.12,57.92L205.10,57.43z"/><path style="fill:#c0c0c0" d="M236.00,30.99L234.33,30.99L234.33,27.46L236.00,27.46z"/><path style="fill:#c0c0c0" d="M235.72,60.13L234.08,60.21L234.08,56.68L235.72,56.76z"/><path style="fill:#c0c0c0" d="M235.49,87.41L233.83,87.41L233.83,84.14L235.49,84.14z"/><path style="fill:#c0c0c0" d="M234.22,204.31L234.25,207.82L232.57,207.58L232.68,204.21L232.82,204.03z"/><g id="Actor_.0"><g style="stroke:#000000;stroke-width:0.176"><path d="M275.01,49.76L275.04,47.84L275.95,47.19L276.70,46.17L277.11,44.97L277.17,44.33L277.13,43.70L276.76,42.52L276.04,41.55L275.05,40.89L273.90,40.62L272.72,40.76L271.62,41.31L270.93,41.68L270.25,42.25L269.77,43.01L269.53,43.88L269.55,44.69L269.54,45.95"/><path d="M277.50,41.95L276.82,41.03L275.63,40.24L275.33,40.13L274.06,39.87L272.86,40.01"/><path d="M275.04,47.84L275.08,45.57L274.89,45.19L274.72,44.72"/><path d="M275.02,48.82L275.49,48.68L276.71,47.82L277.61,46.59L278.10,45.14L278.17,44.38L278.12,43.62L277.98,43.17"/><path d="M276.80,41.01L276.28,40.67"/></g><g style="stroke:#000000;stroke-width:0.529"><path d="M278.57,41.74L277.87,40.79L276.54,39.91L274.99,39.54L273.39,39.74L272.86,40.01L272.77,40.02L272.74,40.02L271.53,40.56L270.51,41.45L269.77,42.60L269.37,43.92L269.35,45.29L269.54,45.95L269.45,51.61L269.56,52.44L269.91,53.18L270.46,53.77L270.48,53.78L271.19,54.15L271.60,54.23L272.38,54.35L272.95,54.24L273.17,54.19L273.89,53.79L274.47,53.18L274.84,52.42L274.98,51.58L275.01,49.76"/><path d="M275.01,49.76L276.39,49.35L277.74,48.39L278.75,47.02L279.30,45.39L279.39,44.54L279.33,43.69L279.10,42.96"/></g></g><g id="Actor_.1"><g style="stroke:#000000;stroke-width:0.176"><path d="M234.51,253.39L233.88,254.04"/><path d="M235.43,158.99L235.06,158.42L234.85,157.96L234.80,157.78"/><path d="M338.57,268.61L338.40,268.56L338.19,268.46L337.68,268.11L337.09,267.58"/><path d="M342.08,163.59L341.60,163.87L341.37,164.03L339.80,165.36"/></g><g style="stroke:#000000;stroke-width:0.529"><path d="M233.88,254.07L234.80,157.78L234.80,157.64L234.85,157.54L234.94,157.48L235.77,157.25L342.08,163.59L339.28,267.87L338.79,268.54L338.71,268.60L338.57,268.61L233.88,254.07"/></g></g><g id="Actor_.2"><g style="stroke:#000000;stroke-width:0.176"><path d="M143.19,18.17L143.31,18.49L143.59,18.92"/><path d="M143.85,151.50L143.97,151.18L144.24,150.76"/><path d="M230.44,155.83L231.01,156.33L231.53,156.71L231.76,156.84L232.13,156.97"/><path d="M233.45,12.69L233.28,12.73L233.07,12.81L232.84,12.94L232.29,13.32L231.71,13.84"/></g><g style="stroke:#000000;stroke-width:0.529"><path d="M143.62,105.43L143.19,18.17L143.19,18.06L143.23,17.99L143.32,17.96L233.45,12.69L233.59,12.71L234.44,13.00L233.10,156.73L232.26,156.96L232.13,156.97L156.71,152.47"/><path d="M143.71,122.23L143.86,151.61L143.90,151.68L143.98,151.71L155.23,152.38"/><path d="M143.67,114.44L143.70,120.39"/><path d="M143.63,107.05L143.66,112.70"/></g></g><g id="Actor_.3"><g style="stroke:#000000;stroke-width:0.176"><path d="M174.87,253.34L184.07,254.68L184.07,255.53"/><path d="M179.81,253.24L179.76,253.33L179.96,253.49L180.46,253.58L181.31,253.51L181.59,253.35L181.59,253.26L181.49,253.18L181.05,253.07L180.17,253.10L179.81,253.24"/><path d="M179.79,250.63L188.87,251.93L184.07,254.68"/><path d="M188.87,251.93L188.88,250.25L191.98,250.69"/><path d="M232.20,252.53L233.89,252.76"/><path d="M233.89,252.69L232.20,252.46"/><path d="M233.95,246.58L232.26,246.35"/><path d="M232.32,239.80L234.01,240.01"/><path d="M232.38,236.92L234.04,237.13"/><path d="M232.52,218.13L234.22,218.32"/><path d="M234.32,207.76L232.62,207.59"/><path d="M232.65,204.33L234.35,204.50"/><path d="M234.36,204.28L232.66,204.11"/><path d="M232.76,193.28L234.46,193.44"/><path d="M234.48,191.65L232.77,191.50"/><path d="M234.63,175.31L232.93,175.18"/><path d="M233.06,161.06L234.77,161.17"/><path d="M233.21,153.50L233.13,153.50L234.03,153.55L233.21,153.50"/><path d="M234.85,153.33L233.13,153.23"/><path d="M234.91,146.56L233.19,146.47"/><path d="M234.92,145.48L233.20,145.40"/><path d="M233.36,128.77L235.08,128.83"/><path d="M233.53,110.37L235.26,110.41"/><path d="M233.64,98.73L235.37,98.75"/><path d="M235.48,87.52L233.74,87.52"/><path d="M235.51,84.14L233.77,84.14"/><path d="M233.88,72.90L235.62,72.89"/><path d="M234.03,60.06L235.74,60.02"/><path d="M234.29,153.59L234.03,153.55L234.84,153.59L234.29,153.59"/><path d="M235.74,60.09L234.03,60.12"/><path d="M234.03,56.71L235.77,56.67"/><path d="M234.15,43.41L235.90,43.35"/><path d="M235.91,42.45L234.16,42.51"/><path d="M234.27,30.99L236.02,30.91"/><path d="M234.27,31.11L236.02,31.04"/><path d="M234.30,27.55L236.06,27.46"/><path d="M236.16,16.13L234.41,16.23"/><path d="M235.68,14.65L234.42,14.72L236.18,14.62"/><path d="M245.89,263.67L256.25,265.17L260.04,262.06L249.83,260.61"/><path d="M251.98,263.33L251.39,263.39L251.19,263.46L251.07,263.55L251.06,263.65L251.16,263.75L251.51,263.87L252.24,263.94L252.81,263.83L253.01,263.67L252.96,263.57L252.82,263.48L252.37,263.36L251.98,263.33"/><path d="M256.25,265.17L256.24,266.07"/><path d="M260.04,262.06L260.06,260.28L262.47,260.62"/><path d="M326.15,275.33L337.91,277.04L340.36,273.50L340.41,271.61L341.92,271.82"/><path d="M328.80,271.85L340.36,273.50"/><path d="M332.88,274.98L332.11,274.96L331.85,275.01L331.66,275.09L331.59,275.19L331.63,275.31L331.76,275.41L332.34,275.59L333.02,275.64L333.56,275.53L333.69,275.44L333.70,275.33L333.60,275.22L333.40,275.11L332.88,274.98"/><path d="M337.88,278.00L337.91,277.04"/><path d="M348.99,29.43L342.35,271.88"/><path d="M349.53,3.70L349.67,3.90L349.69,4.02L349.03,28.11"/><path d="M358.13,10.43L358.09,10.41"/></g><g style="stroke:#000000;stroke-width:0.529"><path d="M154.96,152.79L143.22,152.08L143.05,152.01L142.94,151.84L142.78,123.19"/><path d="M142.74,115.28L142.77,121.34"/><path d="M142.73,113.54L142.70,107.76"/><path d="M357.83,26.55L358.27,10.61L358.13,10.43L349.53,3.70L349.29,3.64L142.43,16.11L142.29,16.24L142.23,16.45L142.70,106.14"/><path d="M357.79,27.84L351.14,259.09L342.35,271.88L341.92,271.82L341.91,272.14L337.88,278.00L326.12,276.28L326.15,275.33L328.80,271.85L328.85,269.98L262.47,260.62L262.47,260.92L256.24,266.07L245.88,264.56L245.89,263.67L249.83,260.61L249.85,258.84L191.98,250.69L191.98,250.97L184.07,255.53L174.87,254.19L174.87,253.34L179.79,250.63L179.79,248.97L178.29,248.76L178.34,154.19L156.45,152.88"/></g></g><g id="Actor_513656-E Stop Button.0"><g style="stroke:#000000;stroke-width:0.176"><path d="M202.64,55.90L203.48,56.03L204.22,56.47L204.74,57.09"/><path d="M204.56,60.61L204.51,60.70L203.84,61.29L203.48,61.44"/><path d="M203.88,61.34L203.97,61.31L204.64,60.71L204.80,60.43"/><path d="M205.66,59.78L205.36,60.30L204.89,60.71L204.43,60.90"/><path d="M205.64,58.08L205.78,58.44L205.83,59.10L205.76,59.40"/><path d="M205.17,58.64L205.17,58.57"/><path d="M205.31,58.81L205.28,58.45"/><path d="M204.71,56.93L204.80,57.04"/></g><g style="stroke:#000000;stroke-width:0.529"><path d="M204.71,56.93L204.34,56.49L203.60,56.05L202.76,55.91L202.64,55.90L201.80,56.07L201.06,56.54L200.48,57.25L200.14,58.13L200.07,59.07L200.27,59.99L200.72,60.75"/><path d="M203.29,61.58L203.88,61.34"/></g></g><g id="Actor_513024-Voltage Indicator.0"><g style="stroke:#000000;stroke-width:0.176"><path d="M213.18,60.03L212.98,59.40L213.27,60.32L213.85,61.15L214.25,61.43L214.16,61.37"/><path d="M214.25,61.43L214.66,61.72L214.25,61.43"/><path d="M214.01,58.32L214.17,58.32L214.01,58.32L214.01,59.20L214.15,59.20L214.01,59.20"/><path d="M214.15,59.20L214.15,58.82L214.23,58.81L214.31,58.80L214.35,58.78L214.41,58.74L214.44,58.70L214.47,58.64L214.48,58.56L214.47,58.51L214.46,58.45L214.42,58.39L214.37,58.35L214.30,58.33L214.17,58.32"/><path d="M214.70,60.37L214.70,60.43L214.66,60.54L214.60,60.64L214.51,60.70L214.40,60.73L214.30,60.73L214.20,60.68L214.12,60.60L214.07,60.50L214.05,60.38L214.07,60.26L214.12,60.16L214.20,60.07L214.30,60.02L214.41,60.01L214.51,60.04L214.52,60.04L214.60,60.10L214.51,60.04L214.60,60.10L214.67,60.20L214.70,60.31L214.70,60.37L214.70,60.31"/><path d="M212.96,59.31L212.96,59.17L212.96,59.31L212.98,59.40"/><path d="M214.15,58.50L214.15,58.48L214.20,58.48L214.25,58.48L214.30,58.49L214.31,58.50L214.32,58.52L214.33,58.54L214.33,58.57L214.33,58.58L214.33,58.60L214.32,58.62L214.30,58.64L214.27,58.65L214.20,58.66L214.15,58.66L214.15,58.50"/><path d="M213.19,57.53L213.19,57.52L213.01,58.10L213.19,57.53"/><path d="M213.19,57.52L213.28,57.22L213.88,56.36L214.25,56.08L213.88,56.36"/><path d="M212.96,58.24L212.96,58.63L212.96,58.24L213.01,58.10"/><path d="M212.96,58.63L212.96,59.17"/><path d="M214.25,56.08L214.69,55.75L215.63,55.47L216.60,55.53L215.90,55.48"/><path d="M214.62,56.84L214.69,56.94L214.72,57.05L214.72,57.11L214.72,57.17L214.68,57.28L214.62,57.38L214.53,57.44L214.42,57.48L214.32,57.47L214.22,57.42L214.14,57.34L214.09,57.24L214.07,57.12L214.09,57.00L214.14,56.90L214.22,56.82L214.32,56.77L214.43,56.75L214.53,56.78L214.62,56.84L214.53,56.78"/><path d="M214.66,61.72L215.59,61.97L214.71,61.74"/><path d="M215.59,61.97L215.90,61.93L215.86,61.94"/><path d="M214.82,59.37L214.90,59.29L215.00,59.24L215.10,59.23L215.21,59.26L215.30,59.32L215.36,59.41L215.40,59.53L215.40,59.58L215.40,59.64L215.36,59.76L215.29,59.85L215.20,59.92L215.10,59.95L214.99,59.94L214.89,59.90L214.82,59.82L214.76,59.72L214.75,59.60L214.77,59.48L214.82,59.37"/><path d="M214.99,59.20L214.85,59.18L214.99,59.20L215.10,59.19L214.99,59.20"/><path d="M215.10,59.19L215.21,59.13L215.31,59.02L215.38,58.90L215.40,58.74L215.39,58.62L215.34,58.49L215.24,58.37L215.13,58.31L214.99,58.28L214.90,58.29L214.77,58.36L214.67,58.45L214.60,58.59L214.58,58.75L214.59,58.88L214.64,59.00L214.74,59.12L214.64,59.00"/><path d="M214.85,59.18L214.74,59.12"/><path d="M215.90,58.28L216.01,58.28L216.14,58.84L216.26,58.28L216.40,58.27L216.21,59.16L216.07,59.16L215.93,58.59L215.79,59.17L215.65,59.17L215.47,58.29L215.62,58.29L215.73,58.85L215.87,58.29L215.90,58.28L215.87,58.29"/><path d="M215.65,59.17L215.79,59.17L215.89,58.77"/><path d="M214.51,60.70L214.60,60.64"/><path d="M214.86,58.48L214.82,58.50L214.76,58.58L214.73,58.66L214.72,58.75L214.73,58.86L214.77,58.93L214.82,58.98L214.90,59.03L214.99,59.05L215.08,59.03L215.15,58.98L215.21,58.90L215.25,58.82L215.26,58.74L215.24,58.63L215.20,58.55L215.13,58.48L215.06,58.45L214.99,58.44L214.90,58.46L214.86,58.48"/><path d="M214.90,58.18L214.83,58.10L214.78,57.99L214.76,57.88L214.78,57.76L214.83,57.65L214.91,57.57L215.01,57.52L215.11,57.51L215.22,57.53L215.31,57.60L215.37,57.69L215.41,57.80L215.41,57.86L215.41,57.92L215.37,58.03L215.30,58.13L215.21,58.20L215.11,58.23L215.00,58.22L214.90,58.18"/><path d="M214.69,58.43L214.77,58.36"/><path d="M214.52,55.88L214.69,55.75"/><path d="M214.53,57.44L214.62,57.38L214.53,57.44"/><path d="M214.72,57.11L214.72,57.05"/><path d="M215.46,55.52L214.70,55.75L215.63,55.47"/><path d="M215.95,62.82L216.14,62.83L217.33,62.48L218.37,61.71L219.14,60.62L219.55,59.32L219.61,58.63L219.56,57.95L219.17,56.67L218.41,55.60L217.39,54.88L216.19,54.57"/><path d="M217.45,61.41L216.99,61.64L217.45,61.41L217.92,60.93L217.55,61.31"/><path d="M216.99,61.64L216.56,61.86L216.99,61.64"/><path d="M215.90,61.93L216.56,61.86L215.90,61.93"/><path d="M217.54,60.04L217.45,59.98L217.35,59.95L217.24,59.97L217.14,60.01L217.06,60.10L217.01,60.20L216.99,60.32L217.01,60.44L217.06,60.54L217.14,60.62L217.24,60.67L217.34,60.68L217.45,60.64L217.54,60.58L217.61,60.48L217.64,60.37L217.65,60.31L217.64,60.25L217.61,60.14L217.54,60.04"/><path d="M216.55,59.91L216.45,59.87L216.55,59.91L216.65,59.92L216.76,59.89L216.85,59.82L216.92,59.73L216.95,59.61L216.96,59.55L216.95,59.49L216.92,59.38L216.85,59.29L216.76,59.22L216.66,59.20L216.55,59.21L216.45,59.26L216.55,59.21"/><path d="M216.45,59.87L216.37,59.79L216.34,59.73L216.32,59.68L216.30,59.57L216.32,59.45L216.37,59.34L216.45,59.26"/><path d="M217.01,60.20L217.06,60.10"/><path d="M217.06,60.54L217.01,60.44"/><path d="M217.51,58.31L217.48,58.28L217.41,58.26L217.27,58.25L217.10,58.26L217.10,59.14L217.24,59.14L217.24,58.75L217.29,58.75L217.46,59.13L217.62,59.13L217.44,58.73L217.51,58.69L217.55,58.64L217.58,58.58L217.59,58.50L217.58,58.43L217.56,58.36L217.51,58.31"/><path d="M217.44,58.47L217.43,58.45L217.41,58.43L217.39,58.42L217.32,58.41L217.24,58.41L217.24,58.59L217.30,58.59L217.39,58.58L217.42,58.57L217.43,58.55L217.44,58.54L217.45,58.51L217.45,58.50L217.44,58.47"/><path d="M216.56,58.19L216.67,58.19L216.77,58.16L216.86,58.10L216.93,58.00L216.96,57.89L216.97,57.83L216.96,57.77L216.93,57.66L216.86,57.56L216.77,57.50L216.67,57.47L216.56,57.48L216.46,57.53L216.38,57.62L216.33,57.72L216.31,57.84L216.33,57.96L216.38,58.06L216.46,58.14L216.56,58.19L216.46,58.14"/><path d="M216.53,58.44L216.53,59.15L216.95,59.14L216.95,58.98L216.67,58.99L216.67,58.75L216.96,58.75L216.96,58.59L216.67,58.59L216.67,58.44L216.67,58.43L216.96,58.42L216.96,58.26L216.53,58.27L216.53,58.44"/><path d="M216.46,57.53L216.49,57.52"/><path d="M218.69,57.85L218.75,58.29L218.65,57.59L218.20,56.66L217.49,55.94L217.03,55.73L217.35,55.88"/><path d="M217.05,56.90L217.03,56.94L217.01,57.06L217.03,57.17L217.08,57.28L217.16,57.36L217.26,57.40L217.37,57.41L217.47,57.38L217.56,57.31L217.63,57.21L217.66,57.10L217.67,57.04L217.67,56.98L217.63,56.87L217.57,56.78L217.48,56.71L217.37,56.69L217.26,56.70L217.16,56.75L217.08,56.83L217.05,56.90L217.08,56.83"/><path d="M217.08,57.28L217.03,57.17"/><path d="M216.60,55.53L217.03,55.73L216.60,55.53"/><path d="M218.47,60.06L218.64,59.72L218.17,60.67L217.92,60.93"/><path d="M218.64,59.72L218.81,58.65L218.75,58.29"/><path d="M218.73,59.17L218.77,58.90"/><path d="M218.48,57.24L218.62,57.52"/></g><g style="stroke:#000000;stroke-width:0.529"><path d="M215.94,62.84L216.44,62.87L217.63,62.52L218.67,61.75L219.44,60.66L219.85,59.36L219.90,58.68L219.86,57.99L219.47,56.71L218.71,55.65L217.69,54.93L216.49,54.62L216.19,54.57L214.97,54.72L213.84,55.29L212.93,56.24L212.34,57.45L212.13,58.79L212.32,60.13L212.90,61.31L213.79,62.22L214.57,62.58"/></g></g><g id="Actor_.4"><g style="stroke:#000000;stroke-width:0.176"><path d="M179.48,246.49L179.49,246.43L179.65,246.20L179.96,245.85"/><path d="M179.55,154.45L179.56,154.63L179.72,155.07L180.03,155.60"/><path d="M231.08,253.68L230.88,253.63L230.65,253.53L230.14,253.20L229.58,252.71"/><path d="M230.42,158.68L230.99,158.18L231.52,157.76L231.96,157.46L232.26,157.32L233.09,157.09"/></g><g style="stroke:#000000;stroke-width:0.529"><path d="M179.62,246.53L231.08,253.68L231.24,253.68L231.37,253.63L232.20,253.06L233.09,157.09L180.74,153.97L179.75,154.18L179.64,154.23L179.57,154.32L179.55,154.45L179.48,246.49L179.51,246.51L179.62,246.53"/></g></g><g id="Actor_.5"><g style="stroke:#000000;stroke-width:0.176"><path d="M235.46,156.12L235.08,156.57L234.86,156.91L234.81,157.02"/><path d="M236.20,12.63L236.46,13.08L236.84,13.54"/><path d="M341.52,163.49L341.21,163.35L341.00,163.21L340.48,162.80L339.88,162.25"/><path d="M343.99,7.37L344.63,6.80L345.19,6.38L345.41,6.24L345.73,6.12"/></g><g style="stroke:#000000;stroke-width:0.529"><path d="M345.70,28.75L346.30,6.49L345.82,6.14L345.73,6.12L236.24,12.53L236.20,12.56L234.81,157.09L234.85,157.13L341.52,163.49L341.61,163.47L342.09,163.20L345.67,30.07"/></g></g><g id="PMI513650-NC Contact.0"><g><path style="stroke:#000000;stroke-width:0.250" d="M136.77,116.23L140.66,116.23L205.71,57.01"/></g><g><path style="fill:#000000" d="M206.72,57.08L206.71,56.98L206.70,56.88L206.67,56.79L206.64,56.69L206.60,56.60L206.55,56.52L206.49,56.44L206.42,56.37L206.35,56.30L206.27,56.24L206.19,56.19L206.10,56.15L206.01,56.12L205.91,56.09L205.81,56.08L205.72,56.08L205.62,56.08L205.52,56.09L205.43,56.12L205.33,56.15L205.24,56.19L205.16,56.24L205.08,56.30L205.01,56.37L204.94,56.44L204.88,56.52L204.83,56.60L204.79,56.69L204.76,56.79L204.74,56.88L204.72,56.98L204.72,57.08L204.72,57.17L204.74,57.27L204.76,57.37L204.79,57.46L204.83,57.55L204.88,57.63L204.94,57.71L205.01,57.78L205.08,57.85L205.16,57.91L205.24,57.96L205.33,58.00L205.43,58.03L205.52,58.06L205.62,58.07L205.72,58.08L205.81,58.07L205.91,58.06L206.01,58.03L206.10,58.00L206.19,57.96L206.27,57.91L206.35,57.85L206.42,57.78L206.49,57.71L206.55,57.63L206.60,57.55L206.64,57.46L206.67,57.37L206.70,57.27L206.71,57.17z"/></g><g><path style="fill:#ffffa0" d="M102.62,119.35L137.61,119.35L137.61,113.14L102.62,113.14z"/><path style="stroke:#000000;stroke-width:0.250;stroke-opacity:0.98" d="M102.62,119.35L137.61,119.35L137.61,113.14L102.62,113.14z"/><text xml:space="preserve" fill="#000000" stroke-width="0" x="103.39" y="117.61" font-size="3.79" opacity="1.00" font-family="MS Shell Dlg">513650-NC Contact</text></g></g><g id="PMI513651-NO/NC Contact.0"><g><path style="stroke:#000000;stroke-width:0.250" d="M137.42,123.71L141.30,123.71L205.71,57.00"/></g><g><path style="fill:#000000" d="M206.72,57.08L206.71,56.98L206.70,56.88L206.67,56.79L206.64,56.69L206.60,56.60L206.55,56.52L206.49,56.44L206.42,56.37L206.35,56.30L206.27,56.24L206.19,56.19L206.10,56.15L206.01,56.12L205.91,56.09L205.81,56.08L205.72,56.08L205.62,56.08L205.52,56.09L205.43,56.12L205.33,56.15L205.24,56.19L205.16,56.24L205.08,56.30L205.01,56.37L204.94,56.44L204.88,56.52L204.83,56.60L204.79,56.69L204.76,56.79L204.74,56.88L204.72,56.98L204.72,57.08L204.72,57.17L204.74,57.27L204.76,57.37L204.79,57.46L204.83,57.55L204.88,57.63L204.94,57.71L205.01,57.78L205.08,57.85L205.16,57.91L205.24,57.96L205.33,58.00L205.43,58.03L205.52,58.06L205.62,58.07L205.72,58.08L205.81,58.07L205.91,58.06L206.01,58.03L206.10,58.00L206.19,57.96L206.27,57.91L206.35,57.85L206.42,57.78L206.49,57.71L206.55,57.63L206.60,57.55L206.64,57.46L206.67,57.37L206.70,57.27L206.71,57.17z"/></g><g><path style="fill:#ffffa0" d="M96.50,126.83L138.26,126.83L138.26,120.62L96.50,120.62z"/><path style="stroke:#000000;stroke-width:0.250;stroke-opacity:0.98" d="M96.50,126.83L138.26,126.83L138.26,120.62L96.50,120.62z"/><text xml:space="preserve" fill="#000000" stroke-width="0" x="97.27" y="125.08" font-size="3.79" opacity="1.00" font-family="MS Shell Dlg">513651-NO/NC Contact</text></g></g><g id="PMI513656-E Stop Button.0"><g><path style="stroke:#000000;stroke-width:0.250" d="M136.81,108.40L140.69,108.40L205.50,59.01"/></g><g><path style="fill:#000000" d="M206.51,59.08L206.50,58.98L206.49,58.88L206.47,58.79L206.43,58.70L206.39,58.61L206.34,58.52L206.28,58.44L206.22,58.37L206.14,58.31L206.07,58.25L205.98,58.20L205.89,58.16L205.80,58.12L205.70,58.10L205.61,58.08L205.51,58.08L205.41,58.08L205.31,58.10L205.22,58.12L205.13,58.16L205.04,58.20L204.95,58.25L204.88,58.31L204.80,58.37L204.74,58.44L204.68,58.52L204.63,58.61L204.59,58.70L204.55,58.79L204.53,58.88L204.51,58.98L204.51,59.08L204.51,59.18L204.53,59.27L204.55,59.37L204.59,59.46L204.63,59.55L204.68,59.63L204.74,59.71L204.80,59.79L204.88,59.85L204.95,59.91L205.04,59.96L205.13,60.00L205.22,60.04L205.31,60.06L205.41,60.07L205.51,60.08L205.61,60.07L205.70,60.06L205.80,60.04L205.89,60.00L205.98,59.96L206.07,59.91L206.14,59.85L206.22,59.79L206.28,59.71L206.34,59.63L206.39,59.55L206.43,59.46L206.47,59.37L206.49,59.27L206.50,59.18z"/></g><g><path style="fill:#ffffa0" d="M98.88,111.53L137.65,111.53L137.65,105.33L98.88,105.33z"/><path style="stroke:#000000;stroke-width:0.250;stroke-opacity:0.98" d="M98.88,111.53L137.65,111.53L137.65,105.33L98.88,105.33z"/><text xml:space="preserve" fill="#000000" stroke-width="0" x="99.65" y="109.79" font-size="3.80" opacity="1.00" font-family="MS Shell Dlg">513656-E Stop Button</text></g></g><g id="PMI513024-Voltage Indicator.0"><g><path style="stroke:#000000;stroke-width:0.250" d="M144.71,163.52L148.59,163.52L215.53,62.22"/></g><g><path style="fill:#000000" d="M216.53,62.30L216.52,62.20L216.51,62.10L216.48,62.01L216.45,61.91L216.41,61.82L216.36,61.74L216.30,61.66L216.23,61.59L216.16,61.52L216.08,61.46L216.00,61.41L215.91,61.37L215.82,61.34L215.72,61.32L215.62,61.30L215.53,61.30L215.43,61.30L215.33,61.32L215.24,61.34L215.14,61.37L215.05,61.41L214.97,61.46L214.89,61.52L214.82,61.59L214.75,61.66L214.69,61.74L214.64,61.82L214.60,61.91L214.57,62.01L214.55,62.10L214.53,62.20L214.53,62.30L214.53,62.39L214.55,62.49L214.57,62.59L214.60,62.68L214.64,62.77L214.69,62.85L214.75,62.93L214.82,63.00L214.89,63.07L214.97,63.13L215.05,63.18L215.14,63.22L215.24,63.25L215.33,63.28L215.43,63.29L215.53,63.30L215.62,63.29L215.72,63.28L215.82,63.25L215.91,63.22L216.00,63.18L216.08,63.13L216.16,63.07L216.23,63.00L216.30,62.93L216.36,62.85L216.41,62.77L216.45,62.68L216.48,62.59L216.51,62.49L216.52,62.39z"/></g><g><path style="fill:#ffffa0" d="M101.60,166.60L145.55,166.60L145.55,160.39L101.60,160.39z"/><path style="stroke:#000000;stroke-width:0.250;stroke-opacity:0.98" d="M101.60,166.60L145.55,166.60L145.55,160.39L101.60,160.39z"/><text xml:space="preserve" fill="#000000" stroke-width="0" x="102.37" y="164.85" font-size="3.79" opacity="1.00" font-family="MS Shell Dlg">513024-Voltage Indicator</text></g></g><g id="PMI512297-Disc Handle.0"><g><path style="stroke:#000000;stroke-width:0.250" d="M361.14,27.12L357.26,27.12L277.10,42.63"/></g><g><path style="fill:#000000" d="M278.06,42.69L278.05,42.60L278.04,42.50L278.02,42.40L277.98,42.31L277.94,42.22L277.89,42.14L277.83,42.06L277.77,41.99L277.69,41.92L277.61,41.86L277.53,41.81L277.44,41.77L277.35,41.74L277.25,41.71L277.16,41.70L277.06,41.69L276.96,41.70L276.86,41.71L276.77,41.74L276.68,41.77L276.59,41.81L276.50,41.86L276.42,41.92L276.35,41.99L276.29,42.06L276.23,42.14L276.18,42.22L276.13,42.31L276.10,42.40L276.08,42.50L276.06,42.60L276.06,42.69L276.06,42.79L276.08,42.89L276.10,42.98L276.13,43.08L276.18,43.17L276.23,43.25L276.29,43.33L276.35,43.40L276.42,43.47L276.50,43.53L276.59,43.58L276.68,43.62L276.77,43.65L276.86,43.67L276.96,43.69L277.06,43.69L277.16,43.69L277.25,43.67L277.35,43.65L277.44,43.62L277.53,43.58L277.61,43.53L277.69,43.47L277.77,43.40L277.83,43.33L277.89,43.25L277.94,43.17L277.98,43.08L278.02,42.98L278.04,42.89L278.05,42.79z"/></g><g><path style="fill:#ffffa0" d="M360.26,30.30L396.16,30.30L396.16,24.09L360.26,24.09z"/><path style="stroke:#000000;stroke-width:0.250;stroke-opacity:0.98" d="M360.26,30.30L396.16,30.30L396.16,24.09L360.26,24.09z"/><text xml:space="preserve" fill="#000000" stroke-width="0" x="361.04" y="28.55" font-size="3.79" opacity="1.00" font-family="MS Shell Dlg">512297-Disc Handle</text></g></g><g/><g><g/><g><image x="0.000000" y="0.000000" height="25.000000" width="25.000000" xlink:href="Electrical_Enclosure_files/82436b0b47c70083_image_0.jpg" mask="url(#mask0)"/></g></g><g><g/><g><image x="0.000000" y="254.000015" height="25.000000" width="25.000000" xlink:href="Electrical_Enclosure_files/82436b0b47c70083_image_1.jpg" mask="url(#mask1)"/></g></g><g><g/><g><image x="407.373932" y="254.373917" height="25.000000" width="25.000000" xlink:href="Electrical_Enclosure_files/82436b0b47c70083_image_2.jpg" mask="url(#mask2)"/></g></g><g><g/><g><image x="407.000031" y="0.000000" height="25.000000" width="25.000000" xlink:href="Electrical_Enclosure_files/82436b0b47c70083_image_3.jpg" mask="url(#mask3)"/></g></g><g><g/><g><path style="stroke:#000000;stroke-width:0.125;fill:#5757ff" d="M30.00,20.37L104.16,20.37L104.16,36.17L30.00,36.17z"/><text xml:space="preserve" fill="#000000" stroke-width="0" x="31.98" y="31.24" font-size="9.59" opacity="1.00" font-family="MS Shell Dlg">Frames 001-098</text></g></g><g><g/><g><path style="stroke:#000000;stroke-width:0.125;fill:#5757ff" d="M30.00,40.00L104.16,40.00L104.16,55.80L30.00,55.80z"/><text xml:space="preserve" fill="#000000" stroke-width="0" x="31.98" y="50.86" font-size="9.59" opacity="1.00" font-family="MS Shell Dlg">Frames 099-194</text></g></g><g><g/><g><path style="stroke:#000000;stroke-width:0.125;fill:#5757ff" d="M30.00,60.00L104.16,60.00L104.16,75.80L30.00,75.80z"/><text xml:space="preserve" fill="#000000" stroke-width="0" x="31.98" y="70.86" font-size="9.59" opacity="1.00" font-family="MS Shell Dlg">Frames 195-218</text></g></g><g/><g id="paperID" visibility="hidden" opacity="0.00" transform="scale(0.000100)"><path style="stroke:#000000;stroke-width:0.500;fill:#e6e6e6;fill-rule:evenodd" d="M-2000.00,-2000.00L2431.80,-2000.00L2431.80,2279.40L-2000.00,2279.40zM0.00,0.00L431.80,0.00L431.80,279.40L0.00,279.40z"/><path style="fill:#000000;fill-opacity:0.118" d="M3.00,279.40L431.80,279.40L431.80,3.00L434.80,3.00L434.80,282.40L3.00,282.40z"/></g><g><g><path style="stroke:#000000;stroke-width:0.353;fill:#f0f0ff" d="M32.46,175.80L132.52,175.80L132.52,182.22L32.46,182.22z"/><text xml:space="preserve" fill="#000000" stroke-width="0" x="34.93" y="180.74" font-size="4.62" opacity="1.00" font-family="MS Shell Dlg" font-weight="bold">Description</text><text xml:space="preserve" fill="#000000" stroke-width="0" x="63.81" y="180.74" font-size="4.63" opacity="1.00" font-family="MS Shell Dlg" font-weight="bold">BOM ID</text><text xml:space="preserve" fill="#000000" stroke-width="0" x="122.72" y="180.74" font-size="4.58" opacity="1.00" font-family="MS Shell Dlg" font-weight="bold">Qty</text><path style="stroke:#000000;stroke-width:0.353" d="M61.34,175.80L61.34,182.22"/><path style="stroke:#000000;stroke-width:0.353" d="M120.25,175.80L120.25,182.22"/></g><g id="Line512297-Disc Handle"><path style="stroke:#000000;stroke-width:0.353;fill:#ffffff" d="M32.46,182.22L132.52,182.22L132.52,188.64L32.46,188.64z"/><text xml:space="preserve" fill="#000000" stroke-width="0" x="34.93" y="187.16" font-size="4.79" opacity="1.00" font-family="MS Shell Dlg">512297</text><text xml:space="preserve" fill="#000000" stroke-width="0" x="63.81" y="187.16" font-size="4.82" opacity="1.00" font-family="MS Shell Dlg">512297-Disc Handle</text><text xml:space="preserve" fill="#000000" stroke-width="0" x="122.72" y="187.16" font-size="3.88" opacity="1.00" font-family="MS Shell Dlg">1</text><path style="stroke:#000000;stroke-width:0.353" d="M61.34,182.22L61.34,188.64"/><path style="stroke:#000000;stroke-width:0.353" d="M120.25,182.22L120.25,188.64"/></g><g id="Line513024-Voltage Indicator"><path style="stroke:#000000;stroke-width:0.353;fill:#f0f0ff" d="M32.46,188.64L132.52,188.64L132.52,195.06L32.46,195.06z"/><text xml:space="preserve" fill="#000000" stroke-width="0" x="34.93" y="193.57" font-size="4.79" opacity="1.00" font-family="MS Shell Dlg">513024</text><text xml:space="preserve" fill="#000000" stroke-width="0" x="63.81" y="193.57" font-size="4.83" opacity="1.00" font-family="MS Shell Dlg">513024-Voltage Indicator</text><text xml:space="preserve" fill="#000000" stroke-width="0" x="122.72" y="193.57" font-size="3.88" opacity="1.00" font-family="MS Shell Dlg">1</text><path style="stroke:#000000;stroke-width:0.353" d="M61.34,188.64L61.34,195.06"/><path style="stroke:#000000;stroke-width:0.353" d="M120.25,188.64L120.25,195.06"/></g><g id="Line513650-NC Contact"><path style="stroke:#000000;stroke-width:0.353;fill:#ffffff" d="M32.46,195.06L132.52,195.06L132.52,201.48L32.46,201.48z"/><text xml:space="preserve" fill="#000000" stroke-width="0" x="34.93" y="199.99" font-size="4.79" opacity="1.00" font-family="MS Shell Dlg">513650</text><text xml:space="preserve" fill="#000000" stroke-width="0" x="63.81" y="199.99" font-size="4.83" opacity="1.00" font-family="MS Shell Dlg">513650-NC Contact</text><text xml:space="preserve" fill="#000000" stroke-width="0" x="122.72" y="199.99" font-size="4.58" opacity="1.00" font-family="MS Shell Dlg">2</text><path style="stroke:#000000;stroke-width:0.353" d="M61.34,195.06L61.34,201.48"/><path style="stroke:#000000;stroke-width:0.353" d="M120.25,195.06L120.25,201.48"/></g><g id="Line513651-NO/NC Contact"><path style="stroke:#000000;stroke-width:0.353;fill:#f0f0ff" d="M32.46,201.48L132.52,201.48L132.52,207.89L32.46,207.89z"/><text xml:space="preserve" fill="#000000" stroke-width="0" x="34.93" y="206.41" font-size="4.79" opacity="1.00" font-family="MS Shell Dlg">513651</text><text xml:space="preserve" fill="#000000" stroke-width="0" x="63.81" y="206.41" font-size="4.83" opacity="1.00" font-family="MS Shell Dlg">513651-NO/NC Contact</text><text xml:space="preserve" fill="#000000" stroke-width="0" x="122.72" y="206.41" font-size="3.88" opacity="1.00" font-family="MS Shell Dlg">1</text><path style="stroke:#000000;stroke-width:0.353" d="M61.34,201.48L61.34,207.89"/><path style="stroke:#000000;stroke-width:0.353" d="M120.25,201.48L120.25,207.89"/></g><g id="Line513656-E Stop Button"><path style="stroke:#000000;stroke-width:0.353;fill:#ffffff" d="M32.46,207.89L132.52,207.89L132.52,214.31L32.46,214.31z"/><text xml:space="preserve" fill="#000000" stroke-width="0" x="34.93" y="212.83" font-size="4.79" opacity="1.00" font-family="MS Shell Dlg">513656</text><text xml:space="preserve" fill="#000000" stroke-width="0" x="63.81" y="212.83" font-size="4.83" opacity="1.00" font-family="MS Shell Dlg">513656-E Stop Button</text><text xml:space="preserve" fill="#000000" stroke-width="0" x="122.72" y="212.83" font-size="3.88" opacity="1.00" font-family="MS Shell Dlg">1</text><path style="stroke:#000000;stroke-width:0.353" d="M61.34,207.89L61.34,214.31"/><path style="stroke:#000000;stroke-width:0.353" d="M120.25,207.89L120.25,214.31"/></g></g><g id="hotspot.0" onmouseover="ShowHotSpot(evt,'0')" onmouseout="HideHotSpot(evt,'0')" onmousemove="ShowToolTip(evt,'0',&quot;195-218&quot;)" opacity="0"><a xlink:href="./ElecNOverview.svg"><path style="fill:#00ff00;fill-rule:evenodd" d="M104.61,76.02L30.01,76.04L30.01,59.92L104.56,59.90z"/></a></g><g id="hotspot.1" onmouseover="ShowHotSpot(evt,'1')" onmouseout="HideHotSpot(evt,'1')" onmousemove="ShowToolTip(evt,'1',&quot;099-194&quot;)" opacity="0"><a xlink:href="./ElecJOverview.svg"><path style="fill:#00ff00;fill-rule:evenodd" d="M104.61,55.97L30.01,55.98L30.01,39.87L104.56,39.84z"/></a></g><g id="hotspot.2" onmouseover="ShowHotSpot(evt,'2')" onmouseout="HideHotSpot(evt,'2')" onmousemove="ShowToolTip(evt,'2',&quot;001-098&quot;)" opacity="0"><a xlink:href="./ElecGOverview.svg"><path style="fill:#00ff00;fill-rule:evenodd" d="M104.59,36.16L30.01,36.27L30.01,20.15L104.61,20.17z"/></a></g><g id="hotspot.3" onmouseover="ShowHotSpot(evt,'3')" onmouseout="HideHotSpot(evt,'3')" onmousemove="ShowToolTip(evt,'3',&quot;Back&quot;)" opacity="0"><a xlink:href="javascript:history.go(-1)"><path style="fill:#00ff00;fill-rule:evenodd" d="M25.05,278.96L0.44,278.96L0.44,254.01L25.05,254.01z"/></a></g><g id="hotspot.4" onmouseover="ShowHotSpot(evt,'4')" onmouseout="HideHotSpot(evt,'4')" onmousemove="ShowToolTip(evt,'4',&quot;Home&quot;)" opacity="0"><a xlink:href="./Saw-Overview.svg"><path style="fill:#00ff00;fill-rule:evenodd" d="M25.05,25.05L0.44,25.05L0.44,0.44L25.05,0.44z"/></a></g><g id="hotspot.5" onmouseover="ShowHotSpot(evt,'5')" onmouseout="HideHotSpot(evt,'5')" onmousemove="ShowToolTip(evt,'5',&quot;Order&quot;)" opacity="0"><a xlink:href="https://www.mitek-us.com/resources/machinery/Find-and-Order-Parts/" target="_blank"><path style="fill:#00ff00;fill-rule:evenodd" d="M431.24,25.05L407.30,25.05L407.30,0.44L431.24,0.44z"/></a></g><g id="hotspot.6" onmouseover="ShowHotSpot(evt,'6')" onmouseout="HideHotSpot(evt,'6')" onmousemove="ShowToolTip(evt,'6',&quot;Forward&quot;)" opacity="0"><a xlink:href="javascript:history.go(1)"><path style="fill:#00ff00;fill-rule:evenodd" d="M431.24,278.96L407.64,278.96L407.64,254.35L431.24,254.35z"/></a></g><g id="hotspot.7" onmouseover="ShowHotSpot(evt,'7')" onmouseout="HideHotSpot(evt,'7')" onmousemove="ShowToolTip(evt,'7',&quot;Fillet1&quot;)" opacity="0"><path style="fill:#00ff00;fill-rule:evenodd" d="M32.46,182.22L32.46,188.64L132.52,188.64L132.52,182.22zM355.54,27.53L355.68,27.34L360.20,27.09L360.40,24.23L396.23,24.23L396.23,30.49L360.40,30.49L360.20,27.63zM277.25,40.22L278.84,42.02L280.07,42.15L279.17,42.64L279.29,45.78L278.94,46.79L277.63,48.53L275.10,49.75L274.88,52.59L274.53,53.26L273.42,54.18L271.45,54.17L270.13,53.46L269.74,52.83L269.75,43.04L271.15,41.04L273.04,39.87L275.19,39.53z"/></g><g id="hotspot.8" onmouseover="ShowHotSpot(evt,'8')" onmouseout="HideHotSpot(evt,'8')" onmousemove="ShowToolTip(evt,'8',&quot;513024&quot;)" opacity="0"><path style="fill:#00ff00;fill-rule:evenodd" d="M32.46,188.64L32.46,195.06L132.52,195.06L132.52,188.64zM219.17,56.15L219.81,57.55L219.82,60.07L218.65,61.95L215.04,63.46L214.68,62.70L213.03,61.27L212.29,59.25L212.29,58.36L213.03,56.34L214.91,54.82L217.44,54.82zM145.92,163.39L148.79,163.61L145.92,163.93L145.72,166.79L101.73,166.79L101.73,160.53L145.72,160.53z"/></g><g id="hotspot.9" onmouseover="ShowHotSpot(evt,'9')" onmouseout="HideHotSpot(evt,'9')" onmousemove="ShowToolTip(evt,'9',&quot;513650&quot;)" opacity="0"><path style="fill:#00ff00;fill-rule:evenodd" d="M32.46,195.06L32.46,201.48L132.52,201.48L132.52,195.06zM206.60,56.50L206.45,57.92L205.18,57.92L205.18,56.29L206.23,56.14zM138.10,116.15L140.63,116.36L138.10,116.69L137.79,119.44L102.75,119.55L102.75,113.29L137.90,113.29z"/></g><g id="hotspot.10" onmouseover="ShowHotSpot(evt,'10')" onmouseout="HideHotSpot(evt,'10')" onmousemove="ShowToolTip(evt,'10',&quot;513651&quot;)" opacity="0"><path style="fill:#00ff00;fill-rule:evenodd" d="M32.46,201.48L32.46,207.89L132.52,207.89L132.52,201.48zM206.60,56.50L206.45,57.91L205.07,58.03L205.18,56.28L206.23,56.14zM138.78,123.62L141.31,123.84L138.78,124.17L138.47,126.92L96.63,127.02L96.63,120.77L138.58,120.77z"/></g><g id="hotspot.11" onmouseover="ShowHotSpot(evt,'11')" onmouseout="HideHotSpot(evt,'11')" onmousemove="ShowToolTip(evt,'11',&quot;513656&quot;)" opacity="0"><path style="fill:#00ff00;fill-rule:evenodd" d="M32.46,207.89L32.46,214.31L132.52,214.31L132.52,207.89zM204.53,56.52L205.20,57.54L206.60,58.56L206.59,59.37L204.04,61.28L201.81,61.65L200.40,59.96L200.40,57.64L201.68,56.20L202.84,55.88zM138.10,108.33L140.63,108.55L138.10,108.87L137.79,111.62L99.01,111.73L99.01,105.47L137.90,105.47z"/></g><g id="ToolTip" visibility="hidden" opacity="0" transform="translate(0,0)"><rect id="ToolTipShadow" opacity="0.20" fill="black" stroke="none" x="0" y="0" width="30" height="8"/><rect id="ToolTipBG" fill="#ffffe1" stroke="black" x="0" y="0" width="30" height="8"/><text xml:space="preserve" id="ToolTipText" fill="black" x="0" y="0" width="30" height="8">tooltip</text></g></g></svg>
