<?xml version="1.0" encoding="UTF-8" standalone="no"?>
<svg xmlns="http://www.w3.org/2000/svg" xmlns:xlink="http://www.w3.org/1999/xlink" width="431.800mm" height="279.400mm" viewBox="0.000000 0.000000 431.799988 279.399994" stroke-linejoin="round" stroke-linecap="round" fill="none" fill-rule="evenodd"><desc>Composer Export</desc><script type="text/ecmascript"><![CDATA[
if(typeof(top) != "undefined")
{
	top.ShowPaper = ShowPaper;
}
function ShowHotSpot(evt,hotspotid)
{
	var svgDocument = evt.target.ownerDocument;
	var strId = "hotspot."+hotspotid;
	var hotspot = svgDocument.getElementById(strId);
	if(hotspot)
		hotspot.setAttribute("opacity",".5");
}
function HideHotSpot(evt,hotspotid)
{
	var svgDocument = evt.target.ownerDocument;
	var strId = "hotspot."+hotspotid;
	var hotspot = svgDocument.getElementById(strId);
	if(hotspot)
		hotspot.setAttribute("opacity","0");

	var toolTip = svgDocument.getElementById('ToolTip');
	if(toolTip)
		toolTip.setAttribute("visibility","hidden");
}
function ShowToolTip(evt,hotspotid,strTooltip)
{
	if(strTooltip=="")
	return;

	// change text
	var svgDocument = evt.target.ownerDocument;
	var tiptext = svgDocument.getElementById('ToolTipText');
	if( !tiptext )
	return;
	tiptext.firstChild.nodeValue = " " + strTooltip + "  " ;

	// show tooltip before, else some refresh issue

	var toolTip = svgDocument.getElementById('ToolTip');
	if(!toolTip)
	return;

	toolTip.setAttribute("visibility","visible");
	toolTip.setAttribute("opacity",".95");

	// move tooltip
	// get viewbox

	var root = svgDocument.documentElement;
	var vbox = (root.getAttribute("viewBox")).split(' ');
	var x0 = parseFloat(vbox[0]);
	var y0 = parseFloat(vbox[1]);
	var vboxW = parseFloat(vbox[2]);
	var vboxH = parseFloat(vbox[3]);

	// get default width of svg

	var strW = root.getAttribute("width");
	var svgW = parseFloat(strW);
	if(strW.indexOf('mm') != -1)
	svgW *= 3.779;

	var strH = root.getAttribute("height");
	var svgH = parseFloat(strH);
	if(strH.indexOf('mm') != -1)
	svgH *= 3.779;  	// 96 dpi  -> 96/25.4 = 3.779

	// update the viewbox / width / height if svg is embedded in html with zoom fit all
	var realx0 = x0;
	var realy0 = y0;
	var realvboxW = vboxW;
	var realvboxH = vboxH;
	var realsvgW = svgW;
	var realsvgH = svgH;

	if ((typeof(top) == "undefined") || (typeof(top.svgctl1) != "undefined")) // embedded in html
	{
		// get window size in pxl

		svgW = window.innerWidth;
		svgH = window.innerHeight;

		// calculate real viewbox

		realsvgW = svgW;
		realsvgH = svgH;
		if((svgW / svgH) > (vboxW / vboxH))
		{
			realvboxW = (vboxH * svgW) / svgH;
			realvboxH = vboxH;
			realx0 = x0 - (realvboxW - vboxW)/2 ;
		}
		else
		{
			realvboxH = (vboxW * svgH) / svgW;
			realvboxW = vboxW;
			realy0 = y0 - (realvboxH - vboxH)/2 ;
		}
	}

	// get user zoom/pan

	var newScale = root.currentScale;
	var translation = root.currentTranslate;

	// transform pxl to user unit

	var xPos = (((evt.clientX+10- translation.x)/newScale) * realvboxW)/realsvgW  + realx0 ;
	var yPos = (((evt.clientY+5- translation.y)/newScale) * realvboxH)/ realsvgH  + realy0 ;
	var scaleForWidth = ( (1 / newScale) * realvboxH) / realsvgH;

	// move tooltip

	toolTip.setAttribute("transform", "translate(" + xPos + "," + yPos + ")" );

	// resize tooltip

	var fontsize = 12;
	tiptext.setAttribute("font-size",fontsize*scaleForWidth);
	tiptext.setAttribute("y", fontsize*scaleForWidth);
	var tipBG = svgDocument.getElementById('ToolTipBG');
	var outline = tiptext.getBBox();
	if(tipBG)
	{
		tipBG.setAttribute("stroke-width", 1*scaleForWidth);
		tipBG.setAttribute("width", Number(outline.width) );
		tipBG.setAttribute("height", Number(outline.height) + fontsize*.5*scaleForWidth );
	}
	var ToolTipShadow = svgDocument.getElementById('ToolTipShadow');
	if(ToolTipShadow)
	{
		ToolTipShadow.setAttribute("width", Number(outline.width) );
		ToolTipShadow.setAttribute("height", Number(outline.height) + fontsize*.5*scaleForWidth );
		ToolTipShadow.setAttribute("x", 3*scaleForWidth);
		ToolTipShadow.setAttribute("y", 3*scaleForWidth);
	}
}
function ShowPaper()
{
  var svgDocument = getDocument();
  var paper = svgDocument.getElementById("paperID");
  if(paper)
  {
    paper.setAttribute("transform","scale(1)");
    paper.setAttribute("opacity","1");
    paper.setAttribute("visibility","visible");
  }
  var svg = svgDocument.getRootElement();
  if(svg)
  {
    svg.setAttribute("width","441.800mm");
    svg.setAttribute("height","289.400mm");
    svg.setAttribute("viewBox","-5.000000 -5.000000 441.799988 289.399994");
  }
}
]]></script><defs><mask id="mask0" x="0" y="0" height="100%" width="100%"><image x="0.000000" y="0.000000" height="25.000000" width="25.000000" xlink:href="ElecGCOM_DIN_files/90f39753739511e2_mask_0.jpg"/></mask><mask id="mask1" x="0" y="0" height="100%" width="100%"><image x="0.339903" y="253.660110" height="25.000000" width="25.000000" xlink:href="ElecGCOM_DIN_files/90f39753739511e2_mask_1.jpg"/></mask><mask id="mask2" x="0" y="0" height="100%" width="100%"><image x="407.000031" y="254.000015" height="25.000000" width="25.000000" xlink:href="ElecGCOM_DIN_files/90f39753739511e2_mask_2.jpg"/></mask><mask id="mask3" x="0" y="0" height="100%" width="100%"><image x="407.000031" y="0.000000" height="25.000000" width="25.000000" xlink:href="ElecGCOM_DIN_files/90f39753739511e2_mask_3.jpg"/></mask></defs><g><path style="fill:#ffffff" d="M431.71,279.30L0.07,279.30L0.07,0.07L431.71,0.07z"/><path style="fill:#00369f" d="M364.20,55.24L364.77,55.73L369.21,69.37L369.73,70.36L369.74,71.73L369.46,72.20L369.22,74.98L368.21,220.84L367.90,243.71L367.15,244.46L300.36,244.44L298.79,244.92L298.19,244.43L297.91,243.70L294.91,225.04L294.91,201.45L295.16,160.64L295.41,146.28L295.41,111.26L295.66,66.42L295.90,56.33L296.84,55.25L297.33,54.99L342.27,55.00z"/><path style="fill:#1d1d1d" d="M258.15,71.81L220.50,71.87L220.50,87.59L257.97,87.86L258.13,88.01L258.26,112.35L258.25,117.40L258.25,117.90L258.25,120.16L258.25,120.92L258.26,122.18L258.26,123.19L258.25,126.97L258.25,127.47L258.26,134.77L258.26,135.03L258.01,140.06L258.01,140.32L258.00,156.94L258.00,157.45L258.00,164.50L258.00,165.00L258.01,175.59L257.99,177.10L258.00,177.60L258.00,177.85L258.01,180.88L257.99,183.90L258.00,184.40L258.00,184.65L257.88,189.86L257.62,231.92L257.47,232.07L252.84,231.85L220.00,231.69L219.84,229.81L219.61,242.35L218.50,223.53L218.62,184.40L218.61,184.17L218.67,183.97L218.84,183.82L218.86,180.88L219.13,177.61L219.12,177.36L219.13,177.10L219.12,175.33L219.12,157.20L219.12,156.94L219.37,140.06L219.37,139.81L219.18,135.08L219.39,134.53L219.38,127.47L219.38,126.97L219.37,123.44L219.38,121.93L219.38,121.42L219.37,120.16L219.13,117.66L219.42,117.12L219.38,116.90L219.08,112.45L218.92,112.30L219.24,56.00L255.87,56.00z"/><path style="fill:#ff7e17" d="M362.18,195.56L363.69,196.32L364.94,197.58L365.70,199.60L365.70,225.13L365.45,236.97L364.86,238.40L363.46,240.02L361.60,240.93L349.31,240.92L347.81,240.42L346.07,238.88L345.53,237.91L345.28,236.89L345.13,226.01L348.82,227.81L350.52,228.37L350.83,228.15L350.86,227.30L349.83,226.56L347.72,225.56L350.75,223.79L350.87,222.75L350.60,222.48L349.99,222.50L346.22,224.57L345.54,224.59L345.07,224.21L345.18,220.42L345.56,221.25L346.05,221.76L347.47,221.76L348.57,220.34L349.47,218.99L349.84,219.48L349.84,220.60L349.59,220.87L349.48,221.58L349.80,221.81L350.75,221.78L351.10,221.36L351.09,219.25L350.34,217.73L349.82,217.46L349.24,217.46L348.20,218.21L347.20,220.28L346.74,220.36L346.52,220.05L346.57,217.44L346.35,217.22L345.70,217.46L345.18,218.42L345.18,214.63L345.80,215.72L347.29,216.50L349.26,216.50L350.23,215.96L350.83,215.30L351.11,213.97L350.36,212.42L348.83,211.43L347.22,211.44L346.47,211.69L345.43,212.62L345.43,208.07L345.77,209.20L346.55,210.43L347.75,210.44L347.84,209.68L347.04,208.44L347.06,206.74L347.71,206.14L348.82,206.15L349.57,206.40L351.12,207.38L352.12,208.67L352.12,209.26L351.59,209.76L351.50,210.76L351.81,210.97L353.04,210.96L353.61,210.76L353.62,208.67L352.88,207.13L351.34,205.64L349.83,204.89L347.72,204.64L346.21,205.39L345.42,206.57L345.54,199.42L346.04,197.92L347.47,196.32L348.98,195.57L350.00,195.32L360.91,195.32z"/><path style="fill:#c0c0c0" d="M220.50,87.59L220.50,71.87L258.15,71.81L257.97,87.86z"/><path style="fill:#c0c0c0" d="M220.00,231.69L252.84,231.85L257.47,232.07L257.13,245.29L219.74,245.29L219.61,242.35L219.84,229.81z"/><path style="fill:#acacac" d="M204.63,175.26L219.12,175.33L219.13,177.10L204.62,177.18L219.12,177.36L219.13,177.61L204.61,177.68L204.34,177.84L204.36,172.81L204.46,172.90z"/><path style="fill:#000000" d="M359.15,201.87L360.16,202.62L360.64,204.12L360.42,205.49L359.82,206.40L358.39,206.40L356.66,203.10L356.38,203.18L356.38,206.75L355.55,206.73L355.13,206.14L354.86,205.15L354.86,203.71L355.38,202.22L356.29,201.62L357.62,201.35z"/><path style="fill:#000000" d="M350.36,212.42L351.11,213.97L350.83,215.30L350.23,215.96L349.26,216.50L347.29,216.50L345.80,215.72L345.18,214.63L345.28,213.04L345.43,212.62L346.47,211.69L347.22,211.44L348.83,211.43z"/><path style="fill:#000000" d="M360.90,220.01L362.20,220.99L362.93,222.52L362.94,224.89L362.67,225.38L361.70,226.68L360.58,227.07L358.64,227.06L357.36,226.83L355.38,225.28L354.84,224.56L354.52,222.80L355.03,221.01L356.01,219.73L356.78,219.24L359.40,219.25z"/><path style="fill:#ffffff" d="M237.98,181.72L239.02,182.69L239.50,183.73L239.24,185.59L238.38,186.49L237.41,187.02L235.94,187.02L235.18,186.78L233.93,185.26L233.93,183.55L234.61,182.21L235.86,181.45L237.23,181.46z"/><path style="fill:#e87008" d="M347.07,130.67L345.95,130.67L345.95,127.55L347.07,127.55z"/><path style="fill:#e87008" d="M338.25,130.67L337.13,130.67L337.13,127.55L338.25,127.55z"/><path style="fill:#e87008" d="M346.82,158.38L345.70,158.38L345.69,155.51L345.86,155.37L346.85,155.43z"/><path style="fill:#e87008" d="M338.00,158.38L336.88,158.38L336.88,155.26L338.00,155.26z"/><path style="fill:#01ff02" d="M347.07,118.83L345.95,118.83L345.95,115.71L347.07,115.71z"/><path style="fill:#01ff02" d="M338.25,118.83L337.13,118.83L337.13,115.71L338.25,115.71z"/><path style="fill:#01ff02" d="M347.09,143.65L347.07,146.54L345.70,146.54L345.70,143.42L346.84,143.40z"/><path style="fill:#01ff02" d="M338.25,146.54L336.88,146.54L336.88,143.42L338.25,143.42z"/><path style="fill:#002f8f" d="M365.69,57.02L370.73,72.13L369.48,243.77L369.22,244.53L367.90,245.72L324.38,245.70L299.43,245.47L298.79,244.92L300.36,244.44L367.15,244.46L367.90,243.71L368.21,220.84L369.22,74.98L369.46,72.20L369.74,71.73L369.73,70.36L369.21,69.37L364.77,55.73L364.94,55.75z"/><path style="fill:#1d1d1d" d="M237.73,182.72L238.49,183.72L238.49,184.83L238.23,185.33L237.41,186.01L235.94,186.01L235.22,185.48L234.94,185.01L234.94,183.54L235.86,182.46L237.23,182.46z"/><path style="fill:#beffff" d="M254.63,146.61L254.39,150.65L230.75,150.70L224.03,150.57L224.03,114.44L254.61,114.44z"/><path style="fill:#808080" d="M253.13,80.66L253.61,81.72L253.34,83.05L252.02,84.24L250.05,84.24L248.81,83.21L248.79,81.01L249.73,79.94L250.22,79.68L251.84,79.68z"/><path style="fill:#808080" d="M245.32,80.66L245.76,81.94L245.29,83.30L244.21,84.24L242.25,84.24L241.23,83.49L240.72,82.47L240.72,81.53L241.27,80.54L242.41,79.68L244.04,79.68z"/><path style="fill:#808080" d="M236.72,79.94L237.74,81.19L237.74,82.81L237.13,83.71L236.15,84.24L234.43,84.24L233.20,83.20L232.92,82.48L232.92,81.26L234.07,79.90L234.36,79.68L236.23,79.68z"/><path style="fill:#808080" d="M228.91,79.94L229.93,81.19L229.92,82.81L229.42,83.56L228.33,84.24L226.87,84.24L225.90,83.70L225.11,82.73L225.11,81.27L225.64,80.29L226.54,79.68L228.42,79.68z"/><path style="fill:#808080" d="M252.12,234.08L252.87,235.38L252.86,235.95L252.35,237.23L251.26,237.91L249.06,237.89L248.06,236.88L248.07,234.72L248.71,233.85L249.99,233.34L250.56,233.34z"/><path style="fill:#808080" d="M244.06,233.82L245.05,235.37L244.79,236.73L243.45,237.91L241.48,237.91L240.25,236.88L240.22,234.68L240.91,233.86L242.18,233.35L243.01,233.35z"/><path style="fill:#808080" d="M235.96,233.61L236.49,234.08L237.20,235.60L236.72,236.97L235.64,237.91L233.67,237.91L232.44,236.88L232.42,234.68L233.10,233.86L234.10,233.35L235.21,233.35z"/><path style="fill:#808080" d="M228.15,233.61L229.17,234.86L229.17,236.48L228.91,236.97L227.84,237.91L225.86,237.91L224.64,236.87L224.35,236.14L224.35,235.20L224.89,234.21L225.55,233.61L226.30,233.36L227.66,233.35z"/><path style="fill:#ff7e17" d="M359.16,203.62L359.16,204.99L358.93,204.92L358.37,203.89L358.30,203.12L358.63,203.08z"/><path style="fill:#ff7e17" d="M349.60,213.70L349.59,214.56L349.24,214.97L347.05,214.97L346.80,214.72L346.80,213.29L347.21,212.94L348.58,212.94z"/><path style="fill:#ff7e17" d="M360.66,221.51L361.43,222.51L361.43,224.89L360.59,225.57L358.63,225.56L356.64,224.53L356.11,223.81L356.11,222.09L356.78,221.00L357.29,220.75L359.16,220.75z"/><path style="fill:#c0c0c0" d="M106.73,27.54L120.09,27.79L120.11,37.78L119.92,40.52L14.02,40.14L2.34,39.98L2.42,28.62L2.86,27.30z"/><path style="fill:#c0c0c0" d="M270.25,112.66L270.76,117.12L259.31,117.23L258.25,117.40L258.26,112.35L260.89,112.45L261.08,113.02L264.92,113.02L265.11,112.45L270.00,112.41z"/><path style="fill:#c0c0c0" d="M209.95,112.75L213.77,112.75L213.98,112.46L218.92,112.30L219.08,112.45L219.38,116.90L207.94,117.00L207.72,117.29L204.87,117.48L219.13,117.66L219.37,120.16L204.85,120.27L204.85,120.56L216.30,120.76L216.49,121.33L219.38,121.42L219.38,121.93L204.88,122.00L204.81,122.94L204.61,122.94L204.63,112.43L209.74,112.46z"/><path style="fill:#c0c0c0" d="M270.76,120.42L258.25,120.16L258.25,117.90L259.31,117.73L270.53,117.66z"/><path style="fill:#c0c0c0" d="M267.88,121.58L270.77,121.68L270.77,122.18L258.26,122.18L258.25,120.92L267.69,121.01z"/><path style="fill:#c0c0c0" d="M207.94,123.33L219.37,123.44L219.38,126.97L204.88,127.04L205.45,127.32L219.38,127.47L219.39,134.53L204.85,134.63L204.85,134.92L219.18,135.08L219.37,139.81L204.87,139.90L219.37,140.06L219.12,156.94L204.87,157.03L219.12,157.20L219.12,175.33L204.63,175.26L204.46,172.90L204.36,172.81L204.59,164.75L208.29,164.65L208.29,164.36L204.59,164.25L204.60,123.70L204.81,122.94L207.72,123.04z"/><path style="fill:#c0c0c0" d="M259.58,123.58L270.76,123.69L270.78,127.20L270.51,127.05L258.25,126.97L258.26,123.19L259.37,123.29z"/><path style="fill:#c0c0c0" d="M270.77,134.77L258.26,134.77L258.25,127.47L270.75,127.47z"/><path style="fill:#c0c0c0" d="M270.77,135.28L270.76,140.06L258.01,140.06L258.26,135.03z"/><path style="fill:#c0c0c0" d="M254.36,150.81L230.75,150.70L254.39,150.65z"/><path style="fill:#c0c0c0" d="M270.78,156.95L258.00,156.94L258.01,140.32L270.76,140.32z"/><path style="fill:#c0c0c0" d="M270.72,160.05L270.51,175.59L258.01,175.59L258.00,165.00L259.68,164.90L259.68,164.61L258.00,164.50L258.00,157.45L270.57,157.50z"/><path style="fill:#c0c0c0" d="M219.12,177.36L204.62,177.18L219.13,177.10z"/><path style="fill:#c0c0c0" d="M270.52,177.59L258.00,177.60L257.99,177.10L270.53,177.10z"/><path style="fill:#c0c0c0" d="M270.26,180.88L258.01,180.88L258.00,177.85L270.32,177.91z"/><path style="fill:#c0c0c0" d="M218.86,180.88L204.63,180.95L204.63,183.57L218.08,183.72L218.67,183.97L218.61,184.17L204.35,184.16L204.34,177.84L204.61,177.68L219.13,177.61z"/><path style="fill:#c0c0c0" d="M269.76,184.40L258.00,184.40L257.99,183.90L269.85,183.98z"/><path style="fill:#acacac" d="M32.32,28.03L33.97,28.07L33.97,28.36L32.61,28.31z"/><path style="fill:#acacac" d="M18.96,28.05L20.87,28.07L20.85,28.38z"/><path style="fill:#acacac" d="M6.11,28.05L7.99,27.80L8.03,28.35z"/><path style="fill:#acacac" d="M110.67,28.29L112.31,28.32L112.31,28.61L110.71,28.53z"/><path style="fill:#acacac" d="M97.56,28.29L99.46,28.32L99.46,28.61L98.13,28.57z"/><path style="fill:#acacac" d="M84.45,28.30L86.36,28.32L86.35,28.63z"/><path style="fill:#acacac" d="M73.26,28.36L71.36,28.30L73.25,28.05z"/><path style="fill:#acacac" d="M60.17,28.36L58.27,28.32L59.03,28.04L60.17,28.07z"/><path style="fill:#acacac" d="M47.07,28.36L45.39,28.28L45.63,28.04L47.07,28.07z"/><path style="fill:#acacac" d="M32.66,34.35L33.80,35.77L33.95,36.90L33.39,37.18L32.94,37.14L32.14,36.13L31.81,34.10L32.19,33.27z"/><path style="fill:#acacac" d="M58.88,34.84L59.92,35.83L59.79,36.08L60.15,36.62L60.14,36.93L59.81,37.16L59.13,37.12L58.10,35.62L58.09,33.90L58.39,33.27z"/><path style="fill:#acacac" d="M45.50,34.11L46.29,35.33L46.90,35.77L47.05,36.90L46.49,37.18L46.04,37.14L45.25,36.12L44.99,35.37L44.99,33.90L45.29,33.27z"/><path style="fill:#acacac" d="M19.83,34.84L20.64,35.59L20.85,36.90L20.29,37.18L19.84,37.14L18.79,35.12L18.79,33.91L19.13,33.19z"/><path style="fill:#acacac" d="M6.45,34.11L7.79,35.57L7.70,35.69L7.72,36.67L7.21,37.18L5.94,35.88L5.62,34.36L6.14,32.83L6.26,32.76z"/><path style="fill:#acacac" d="M111.27,35.34L112.15,36.03L112.29,37.15L111.55,37.39L110.77,36.60L110.49,35.87L110.54,33.98z"/><path style="fill:#acacac" d="M71.69,34.37L72.84,35.78L72.90,36.42L73.23,36.67L73.25,36.91L72.64,37.15L71.98,37.13L71.19,35.62L71.19,33.90L71.50,33.26z"/><path style="fill:#acacac" d="M84.81,34.60L85.89,35.84L86.07,36.92L85.55,37.43L84.83,36.84L84.29,35.87L84.24,34.08L84.37,33.94z"/><path style="fill:#acacac" d="M97.92,34.84L99.05,36.03L99.17,36.92L98.65,37.43L97.93,36.84L97.39,35.87L97.34,34.08L97.48,33.94z"/><path style="fill:#acacac" d="M120.08,40.48L119.92,40.52L120.11,37.78z"/><path style="fill:#acacac" d="M219.42,117.12L219.13,117.66L204.87,117.48L207.72,117.29L207.94,117.00L219.38,116.90z"/><path style="fill:#acacac" d="M270.53,117.66L259.31,117.73L258.25,117.90L258.25,117.40L259.31,117.23L270.76,117.12z"/><path style="fill:#acacac" d="M270.76,120.42L270.77,121.68L267.88,121.58L267.69,121.01L258.25,120.92L258.25,120.16z"/><path style="fill:#acacac" d="M204.85,120.56L204.85,120.27L219.37,120.16L219.38,121.42L216.49,121.33L216.30,120.76z"/><path style="fill:#acacac" d="M204.81,122.94L204.88,122.00L219.38,121.93L219.37,123.44L207.94,123.33L207.72,123.04z"/><path style="fill:#acacac" d="M258.26,123.19L258.26,122.18L270.77,122.18L270.76,123.69L259.58,123.58L259.37,123.29z"/><path style="fill:#acacac" d="M204.60,123.70L204.61,122.94L204.81,122.94z"/><path style="fill:#acacac" d="M270.78,127.20L270.75,127.47L258.25,127.47L258.25,126.97L270.51,127.05z"/><path style="fill:#acacac" d="M204.88,127.04L219.38,126.97L219.38,127.47L205.45,127.32z"/><path style="fill:#acacac" d="M258.26,135.03L258.26,134.77L270.77,134.77L270.77,135.28z"/><path style="fill:#acacac" d="M219.18,135.08L204.85,134.92L204.85,134.63L219.39,134.53z"/><path style="fill:#acacac" d="M219.37,140.06L204.87,139.90L219.37,139.81z"/><path style="fill:#acacac" d="M270.76,140.32L258.01,140.32L258.01,140.06L270.76,140.06z"/><path style="fill:#acacac" d="M210.51,147.71L210.53,149.06L209.76,148.45L209.43,146.92L209.71,146.93z"/><path style="fill:#acacac" d="M261.93,147.93L261.92,149.31L261.69,149.25L261.17,148.45L261.12,147.21z"/><path style="fill:#acacac" d="M219.12,157.20L204.87,157.03L219.12,156.94z"/><path style="fill:#acacac" d="M270.57,157.50L258.00,157.45L258.00,156.94L270.78,156.95z"/><path style="fill:#acacac" d="M266.99,163.89L259.77,163.89L259.77,163.60L266.99,163.60z"/><path style="fill:#acacac" d="M215.60,163.89L208.38,163.89L208.38,163.60L215.60,163.60z"/><path style="fill:#acacac" d="M208.29,164.65L204.59,164.75L204.59,164.25L208.29,164.36z"/><path style="fill:#acacac" d="M259.68,164.90L258.00,165.00L258.00,164.50L259.68,164.61z"/><path style="fill:#acacac" d="M270.53,177.10L257.99,177.10L258.01,175.59L270.51,175.59z"/><path style="fill:#acacac" d="M270.32,177.91L258.00,177.85L258.00,177.60L270.52,177.59z"/><path style="fill:#acacac" d="M204.63,183.57L204.63,180.95L218.86,180.88L218.84,183.82L218.67,183.97L218.08,183.72z"/><path style="fill:#acacac" d="M270.23,183.80L269.85,183.98L257.99,183.90L258.01,180.88L270.26,180.88z"/><path style="fill:#acacac" d="M218.62,184.40L204.38,184.32L204.35,184.16L218.61,184.17z"/><path style="fill:#acacac" d="M269.72,184.56L258.00,184.65L258.00,184.40L269.76,184.40z"/><path style="fill:#1a1a1a" d="M249.07,164.32L249.06,171.22L248.81,171.97L248.21,172.88L246.72,173.41L230.63,173.18L230.32,172.96L230.40,172.50L231.08,171.88L246.73,171.91L247.32,171.49L247.24,164.57L248.59,163.56z"/><path style="fill:#1a1a1a" d="M249.06,181.46L249.06,186.33L248.82,188.36L248.56,188.86L247.48,189.80L230.65,189.80L230.15,189.50L230.15,189.13L231.18,188.27L246.96,188.26L247.31,187.60L247.29,181.06L248.56,179.96z"/><path style="fill:#1a1a1a" d="M248.82,197.06L248.82,204.74L248.21,205.64L246.73,206.42L231.16,206.42L230.07,205.96L230.15,205.51L230.84,204.86L246.74,204.93L247.04,204.72L247.30,197.42L248.46,196.57z"/><path style="fill:#000000" d="M316.98,131.43L316.98,114.70L335.22,114.70L335.22,131.68L324.13,131.59z"/><path style="fill:#000000" d="M348.98,131.68L349.07,119.57L349.23,114.70L367.22,114.70L367.21,131.94L366.20,131.84z"/><path style="fill:#000000" d="M316.73,159.14L316.98,142.41L334.97,142.41L334.97,159.39L332.95,159.30z"/><path style="fill:#000000" d="M366.97,159.64L348.73,159.64L348.98,142.66L366.97,142.66z"/><path style="fill:#000000" d="M349.83,204.89L351.34,205.64L352.88,207.13L353.62,208.67L353.61,210.76L353.04,210.96L351.81,210.97L351.50,210.76L351.59,209.76L352.12,209.26L352.12,208.67L351.12,207.38L349.57,206.40L348.82,206.15L347.71,206.14L347.06,206.74L347.04,208.44L347.84,209.68L347.75,210.44L346.55,210.43L345.77,209.20L345.43,208.07L345.42,206.57L346.21,205.39L347.72,204.64z"/><path style="fill:#000000" d="M363.20,208.76L362.67,209.26L358.05,210.43L358.10,210.66L360.40,211.45L362.96,212.68L362.93,213.53L362.10,213.97L357.50,214.71L357.26,214.94L358.89,215.73L361.92,216.73L362.92,217.24L362.91,218.33L362.61,218.54L359.39,217.49L354.88,215.46L354.61,215.22L354.62,214.05L356.29,213.46L359.11,212.93L359.14,212.71L354.85,211.20L354.78,209.93L361.83,207.91L362.92,207.92z"/><path style="fill:#000000" d="M346.57,217.44L346.52,220.05L346.74,220.36L347.20,220.28L348.20,218.21L349.24,217.46L349.82,217.46L350.34,217.73L351.09,219.25L351.10,221.36L350.75,221.78L349.80,221.81L349.48,221.58L349.59,220.87L349.84,220.60L349.84,219.48L349.47,218.99L348.57,220.34L347.47,221.76L346.05,221.76L345.56,221.25L345.18,220.42L345.18,218.42L345.70,217.46L346.35,217.22z"/><path style="fill:#000000" d="M350.87,222.75L350.75,223.79L347.72,225.56L349.83,226.56L350.86,227.30L350.83,228.15L350.52,228.37L348.82,227.81L345.13,226.01L342.27,224.79L342.25,223.86L343.80,223.77L344.27,224.05L345.07,224.21L345.54,224.59L346.22,224.57L349.99,222.50L350.60,222.48z"/><path style="fill:#000000" d="M363.21,228.57L363.10,229.32L360.69,231.20L358.64,232.94L357.02,234.36L362.70,234.58L362.96,234.84L362.92,235.70L362.36,235.90L354.86,235.88L354.60,235.61L354.58,234.95L357.55,231.85L359.93,229.92L355.35,229.59L354.61,229.34L354.53,228.33L355.01,228.05L362.69,228.05z"/><path style="fill:#ffffff" d="M63.18,32.30L64.17,33.57L64.17,34.95L63.18,35.72L62.06,36.12L61.13,36.12L59.92,35.83L58.88,34.84L58.39,33.27L59.03,32.33L60.54,31.57L61.64,31.57z"/><path style="fill:#ffffff" d="M50.30,32.32L50.84,33.05L51.30,34.46L50.56,35.44L48.70,36.13L46.90,35.77L46.29,35.33L45.50,34.11L45.29,33.27L45.93,32.33L47.44,31.57L48.79,31.57z"/><path style="fill:#ffffff" d="M36.95,32.07L37.74,33.05L38.22,34.36L38.13,34.83L36.62,35.87L34.16,35.86L33.80,35.77L32.66,34.35L32.19,33.27L33.08,32.07L34.08,31.56L35.95,31.56z"/><path style="fill:#ffffff" d="M23.60,31.83L24.38,32.55L25.13,34.10L25.03,34.84L23.53,35.87L21.32,35.87L20.64,35.59L19.83,34.84L19.13,33.19L19.58,32.43L20.24,31.83L20.99,31.57L22.84,31.57z"/><path style="fill:#ffffff" d="M10.78,32.05L11.75,33.34L12.04,34.68L11.66,35.09L10.18,35.87L8.47,35.87L7.79,35.57L6.45,34.11L6.26,32.76L7.45,31.64L10.01,31.56z"/><path style="fill:#ffffff" d="M115.33,32.29L116.57,33.83L116.57,34.69L114.98,36.13L112.51,36.10L112.15,36.03L111.27,35.34L110.54,33.98L111.28,32.68L111.93,32.08L112.69,31.82L114.29,31.82z"/><path style="fill:#ffffff" d="M102.67,32.61L103.47,33.83L103.48,34.69L102.68,35.67L101.87,36.12L99.40,36.11L99.05,36.03L97.92,34.84L97.48,33.94L97.79,33.05L98.83,32.08L99.59,31.82L101.45,31.81z"/><path style="fill:#ffffff" d="M89.35,32.32L90.36,33.58L90.36,34.69L89.85,35.44L88.77,36.12L86.56,36.12L85.89,35.84L84.81,34.60L84.37,33.94L84.69,33.05L85.74,32.08L86.23,31.81L88.35,31.81z"/><path style="fill:#ffffff" d="M76.27,32.30L77.27,33.58L77.27,34.69L76.79,35.47L75.42,36.12L73.71,36.12L72.84,35.78L71.69,34.37L71.50,33.26L72.20,32.40L73.13,31.81L75.50,31.81z"/><path style="fill:#ffffff" d="M346.85,155.43L345.86,155.37L346.81,155.26z"/><path style="fill:#ffffff" d="M240.25,165.82L242.04,170.64L242.01,171.23L241.52,171.16L239.72,166.36L239.65,165.58L239.99,165.53z"/><path style="fill:#ffffff" d="M238.54,165.71L236.44,171.23L235.88,171.24L235.93,170.72L238.00,165.66L238.48,165.58z"/><path style="fill:#ffffff" d="M241.76,183.09L242.90,181.69L244.03,181.70L242.42,183.96L244.30,186.75L243.01,186.75L241.73,184.74L241.51,186.85L240.66,186.85L240.66,181.70L241.51,181.70z"/><path style="fill:#ffffff" d="M236.98,198.82L238.76,203.65L238.74,204.23L238.24,204.16L236.45,199.36L236.37,198.58L236.71,198.53z"/><path style="fill:#ffffff" d="M242.57,198.97L240.47,204.23L239.89,204.14L242.03,198.91L242.51,198.83z"/><g id="Actor_.0"><g style="stroke:#000000;stroke-width:0.176"><path d="M239.86,204.41L242.10,198.66"/><path d="M242.10,198.66L242.75,198.66L242.75,198.66"/></g><g style="stroke:#000000;stroke-width:0.529"><path d="M240.51,204.41L242.75,198.66L242.10,198.66L239.86,204.41L240.51,204.41"/></g></g><g id="Actor_.1"><g style="stroke:#000000;stroke-width:0.176"><path d="M242.18,171.34L242.23,171.34L240.13,165.58L239.48,165.57"/><path d="M240.13,165.57L240.13,165.58"/><path d="M241.58,171.34L241.05,169.89"/></g><g style="stroke:#000000;stroke-width:0.529"><path d="M242.18,171.34L241.58,171.34L239.48,165.57L240.13,165.57L242.23,171.34"/></g></g><g id="Actor_.2"><g style="stroke:#000000;stroke-width:0.176"><path d="M230.73,187.34L230.73,187.59L230.77,187.85L230.89,188.09L231.08,188.28L231.32,188.40L231.59,188.45L246.43,188.50L246.69,188.46L246.93,188.34L247.12,188.15L247.25,187.91L247.29,187.64L247.32,181.68L247.28,181.42L247.16,181.18L246.97,180.99L246.73,180.86L246.46,180.82L231.62,180.77L231.36,180.81L231.11,180.93L230.92,181.12L230.80,181.36L230.76,181.62L230.73,187.34"/><path d="M236.67,187.15L237.40,187.06L236.67,187.15L235.68,186.99L234.94,186.58L234.25,185.84L233.90,185.05L233.80,184.26L233.97,183.28L234.42,182.50L233.97,183.28L234.35,182.61"/><path d="M233.90,185.05L233.80,184.26L233.90,185.05"/><path d="M233.83,184.11L233.97,183.28"/><path d="M234.42,182.50L234.46,182.43L235.17,181.82L234.91,182.04"/><path d="M235.14,185.41L235.46,185.74L236.03,186.06L235.46,185.74L235.14,185.41L234.89,184.93L234.79,184.28L234.81,184.11L234.79,184.28L234.79,184.27L234.86,183.73L235.09,183.22L235.52,182.75L235.98,182.50L235.52,182.75"/><path d="M236.03,186.06L236.67,186.17L237.31,186.06L237.80,185.79L238.24,185.31L238.46,184.80L238.53,184.28L238.43,183.62L238.15,183.12L237.66,182.66L237.17,182.44L236.67,182.38L237.17,182.44L237.66,182.66"/><path d="M234.99,185.14L234.89,184.93"/><path d="M235.45,185.73L235.18,185.45"/><path d="M235.09,183.22L234.86,183.73L235.09,183.22L235.30,182.99"/><path d="M236.12,182.46L236.67,182.38L236.02,182.48L235.98,182.50"/><path d="M236.69,181.39L237.67,181.57L237.73,181.60L237.67,181.57L236.69,181.39L236.05,181.46L235.17,181.82L235.46,181.70"/><path d="M237.40,187.06L238.18,186.73L238.93,186.05L238.18,186.73L237.42,187.06L237.40,187.06L237.40,187.06"/><path d="M237.61,182.64L237.29,182.50"/><path d="M237.67,181.57L236.98,181.45"/><path d="M237.17,182.44L236.84,182.40"/><path d="M236.12,181.45L236.57,181.41"/><path d="M238.93,186.05L239.35,185.29L239.52,184.30L239.35,185.29"/><path d="M238.46,184.80L238.24,185.31L238.46,184.80"/><path d="M238.24,185.31L237.85,185.73L238.24,185.31"/><path d="M239.43,183.55L239.52,184.30L239.43,183.55L239.10,182.75L238.42,182.00L237.73,181.60"/><path d="M238.15,183.12L237.73,182.73"/><path d="M238.50,184.11L238.49,184.02"/><path d="M240.50,185.73L240.50,187.02L241.49,187.02L241.49,187.02L240.50,187.02L240.51,184.11L240.50,185.73"/><path d="M240.51,184.11L240.52,181.55L241.51,181.55L241.50,183.48L242.30,182.50L241.50,183.48"/><path d="M241.49,187.02L241.49,185.73L241.49,187.02"/><path d="M241.50,184.46L242.58,186.01L241.50,184.46L241.49,185.73"/><path d="M242.39,185.73L243.30,187.02L244.49,187.03L243.58,185.73L244.49,187.03L243.30,187.03L242.58,186.01"/><path d="M242.40,184.06L242.44,184.11L242.35,183.97L242.40,184.06"/><path d="M242.44,184.11L243.58,185.73"/><path d="M242.30,182.50L243.07,181.56L244.32,181.56L242.35,183.97"/><path d="M242.58,184.31L242.63,184.38"/><path d="M244.49,187.03L244.48,187.03"/></g><g style="stroke:#000000;stroke-width:0.529"><path d="M229.65,189.08L229.45,188.87L229.08,188.15L228.95,187.34L228.98,181.38L229.11,180.58L229.49,179.85L230.07,179.28L230.80,178.91L231.61,178.78L246.45,178.83L247.26,178.96L247.98,179.34L248.56,179.92L248.93,180.64L249.05,181.45L249.03,187.41L248.89,188.21L248.52,188.94L247.94,189.51L247.20,189.88L246.39,190.01L231.56,189.95L230.75,189.82L230.02,189.45L229.65,189.08"/></g></g><g id="Actor_.3"><g style="stroke:#000000;stroke-width:0.176"><path d="M231.25,204.94L231.01,204.81L230.82,204.62L230.70,204.38L230.66,204.12L230.68,198.16L230.73,197.89L230.85,197.66L231.04,197.47L231.28,197.35L231.55,197.31L246.38,197.36L246.65,197.40L246.89,197.52L247.08,197.71L247.20,197.95L247.24,198.22L247.21,204.18L247.17,204.44L247.05,204.68L246.85,204.87L246.61,204.99L246.35,205.03L245.82,205.03L231.51,204.98L231.25,204.94"/></g><g style="stroke:#000000;stroke-width:0.529"><path d="M229.37,205.40L229.00,204.67L228.88,203.87L228.90,197.91L229.04,197.10L229.41,196.38L229.99,195.81L230.73,195.44L231.54,195.31L246.37,195.36L247.18,195.50L247.91,195.87L248.48,196.45L248.85,197.17L248.98,197.98L248.95,203.94L248.82,204.74L248.44,205.46L247.86,206.04L247.13,206.40L246.32,206.53L231.49,206.48L230.68,206.35L229.95,205.98L229.37,205.40"/></g></g><g id="Actor_.4"><g style="stroke:#000000;stroke-width:0.176"><path d="M235.76,171.32L235.76,171.32L237.99,165.57L238.65,165.57L236.41,171.32"/></g><g style="stroke:#000000;stroke-width:0.529"><path d="M236.41,171.32L235.76,171.32L238.00,165.57L238.65,165.57"/></g></g><g id="Actor_.5"><g style="stroke:#000000;stroke-width:0.176"><path d="M219.72,245.28L219.79,229.40L219.94,231.80L220.53,90.19"/><path d="M219.25,55.84L220.46,71.75L220.39,87.73L220.45,88.52"/><path d="M257.36,231.92L219.94,231.80"/><path d="M220.39,87.73L258.07,87.86"/><path d="M220.46,71.75L258.15,71.89"/><path d="M221.79,89.69L258.34,89.81"/><path d="M224.79,237.26L224.60,237.02L224.33,236.23L224.33,236.02L224.59,236.76L225.10,237.42L225.80,237.88L226.62,238.09L227.46,238.02L228.23,237.69L228.85,237.13L229.25,236.39L229.39,235.66L229.42,235.83L229.27,236.65L228.87,237.38L228.25,237.95L227.47,238.28L226.64,238.35L225.82,238.14L225.12,237.68L224.79,237.26"/><path d="M224.33,236.02L224.34,235.39L224.61,234.60L225.13,233.94L225.84,233.49L226.66,233.29L227.50,233.36L228.27,233.70L228.88,234.26L229.28,235.00L229.39,235.66"/><path d="M223.90,150.76L224.06,114.37L254.74,114.47L254.57,150.87L223.90,150.76"/><path d="M223.90,150.65L254.55,150.75L254.57,150.87"/><path d="M226.41,84.33L225.79,83.92L225.27,83.25L225.00,82.46L225.00,81.62L225.28,80.82L225.80,80.16L225.91,80.09L226.51,79.70L227.33,79.50L228.17,79.57L228.94,79.91L229.56,80.48L229.96,81.22L230.09,82.05L229.95,82.88L229.55,83.62L228.92,84.19L228.15,84.52L227.31,84.59L226.49,84.38L226.41,84.33"/><path d="M225.00,82.30L225.25,83.05L225.77,83.71L226.47,84.17L227.29,84.38L228.13,84.32L228.91,83.98L229.53,83.42L229.93,82.68L230.07,81.90"/><path d="M232.88,237.62L232.43,237.04L232.16,236.25L232.16,236.06L232.41,236.79L232.93,237.45L233.63,237.91L234.44,238.12L235.28,238.05L236.05,237.72L236.68,237.15L237.08,236.42L237.22,235.67L237.24,235.85L237.10,236.68L236.70,237.41L236.08,237.97L235.30,238.31L234.46,238.37L233.65,238.16L232.95,237.71L232.88,237.62"/><path d="M232.16,236.06L232.17,235.42L232.44,234.63L232.96,233.97L233.67,233.51L234.50,233.31L235.33,233.39L236.09,233.72L236.71,234.29L237.11,235.03L237.22,235.67"/><path d="M237.92,81.92L237.95,82.08L237.80,82.91L237.40,83.65L236.77,84.21L236.00,84.55L235.16,84.61L234.34,84.40L233.64,83.94L233.12,83.28L232.85,82.48L232.85,81.64L233.13,80.85L233.65,80.19L234.36,79.73L235.18,79.53L236.02,79.60L236.79,79.94L237.41,80.51L237.81,81.25L237.92,81.92L237.78,82.71L237.38,83.44L236.75,84.01L235.98,84.35L235.14,84.41L234.32,84.20L233.62,83.74L233.10,83.08L232.86,82.37"/><path d="M240.97,237.86L240.78,237.73L240.26,237.07L239.99,236.28L239.99,236.09L240.24,236.81L240.75,237.48L241.46,237.93L242.27,238.14L243.11,238.08L243.88,237.74L244.50,237.18L244.91,236.45L245.04,235.69L245.07,235.88L244.93,236.70L244.53,237.43L243.91,238.00L243.13,238.33L242.29,238.40L241.48,238.19L240.97,237.86"/><path d="M239.99,236.09L240.00,235.45L240.27,234.66L240.79,234.00L241.50,233.54L242.32,233.34L243.16,233.41L243.93,233.75L244.54,234.32L244.94,235.05L245.04,235.69"/><path d="M245.77,81.94L245.80,82.11L245.65,82.94L245.25,83.68L244.63,84.24L243.85,84.58L243.01,84.64L242.19,84.43L241.50,83.98L240.97,83.31L240.70,82.51L240.70,82.38L240.95,83.10L241.46,83.77L242.17,84.23L242.99,84.44L243.83,84.37L244.60,84.04L245.23,83.47L245.63,82.73L245.77,81.94L245.66,81.28L245.26,80.54L244.65,79.97L243.87,79.63L243.03,79.56L242.21,79.76L241.50,80.22L240.98,80.88L240.70,81.67L240.70,82.38"/><path d="M248.60,237.76L248.09,237.10L247.82,236.31L247.82,235.47L248.10,234.68L248.62,234.02L249.33,233.57L250.15,233.37L250.99,233.44L251.76,233.78L252.37,234.34L252.77,235.08L252.90,235.91L252.76,236.73L252.36,237.46L251.73,238.03L250.96,238.36L250.12,238.42L249.31,238.22L248.60,237.76"/><path d="M252.87,235.71L252.73,236.47L252.33,237.20L251.71,237.77L250.94,238.10L250.10,238.17L249.28,237.96L248.58,237.50L248.07,236.84L247.82,236.12"/><path d="M248.82,83.34L248.55,82.54L248.55,82.37L248.56,81.70L248.83,80.90L249.36,80.24L250.07,79.79L250.88,79.58L251.73,79.65L252.50,79.99L253.11,80.57L253.51,81.31L253.65,82.14L253.51,82.96L253.10,83.70L252.48,84.27L251.70,84.60L250.86,84.67L250.04,84.46L249.34,84.00L248.82,83.34"/><path d="M253.62,81.96L253.48,82.76L253.07,83.50L252.45,84.07L251.68,84.40L250.83,84.47L250.02,84.26L249.31,83.79L248.80,83.13L248.55,82.41"/><path d="M254.57,150.20L254.55,150.75"/><path d="M254.70,122.74L254.73,117.90"/></g><g style="stroke:#000000;stroke-width:0.529"><path d="M219.12,87.37L219.25,55.84L255.91,55.96L258.15,71.89L258.07,87.86L258.34,89.81L257.64,231.92L257.36,231.92L257.30,245.41L219.72,245.28L218.54,224.62L218.71,184.44"/><path d="M219.11,88.96L219.02,112.31"/></g></g><g id="Actor_.6"><g style="stroke:#000000;stroke-width:0.176"><path d="M239.00,204.40L236.89,198.64"/><path d="M236.26,198.68L236.24,198.64L236.89,198.64"/><path d="M236.24,198.64L236.24,198.64"/></g><g style="stroke:#000000;stroke-width:0.529"><path d="M236.24,198.64L236.89,198.64L239.00,204.40L238.34,204.40L236.26,198.68"/></g></g><g id="Actor_.7"><g style="stroke:#000000;stroke-width:0.176"><path d="M230.84,171.31L230.80,171.05L230.83,165.08L230.87,164.81L231.00,164.58L231.19,164.39L231.43,164.27L231.70,164.22L246.54,164.28L246.81,164.32L247.05,164.44L247.24,164.63L247.36,164.87L247.40,165.14L247.37,171.10L247.33,171.37L247.20,171.61L247.01,171.79L246.77,171.92L246.50,171.96L231.66,171.91L231.39,171.86L231.16,171.74L230.96,171.55L230.84,171.31"/></g><g style="stroke:#000000;stroke-width:0.529"><path d="M229.65,172.47L229.52,172.34L229.15,171.61L229.02,170.81L229.05,164.84L229.18,164.04L229.56,163.31L230.14,162.74L230.87,162.37L231.68,162.24L246.52,162.29L247.33,162.42L248.06,162.80L248.64,163.38L249.01,164.10L249.13,164.91L249.11,170.87L248.97,171.68L248.60,172.40L248.01,172.98L247.28,173.35L246.47,173.47L231.63,173.42L230.82,173.29L230.09,172.92L229.65,172.47"/></g></g><g id="Actor_.8"><g style="stroke:#000000;stroke-width:0.176"><path d="M120.03,40.56L120.06,29.34L2.29,28.92"/><path d="M5.93,33.45L5.92,34.26L6.36,35.59L7.05,36.44L7.73,36.88L7.97,36.99L8.75,37.17L9.01,37.18L9.80,37.08L10.06,37.00L10.78,36.62L11.58,35.85L11.97,35.10L11.95,35.35L11.53,36.32L10.81,37.09L9.88,37.59L8.83,37.76L7.79,37.58L6.85,37.08L6.14,36.30L5.71,35.33L5.62,34.28L5.88,33.26L6.01,33.07L5.98,33.21"/><path d="M12.01,34.64L11.99,34.91L11.69,35.49L10.93,36.14L10.23,36.45L9.98,36.52L9.19,36.61L8.92,36.60L8.14,36.45L7.89,36.36L7.20,35.99L6.46,35.28L6.01,34.40"/><path d="M6.01,33.12L6.03,33.04L6.01,33.07"/><path d="M6.19,32.79L6.03,33.04"/><path d="M5.92,28.13L5.95,28.03L6.32,27.94L6.47,27.93L6.99,27.87L7.90,27.83L8.93,27.81L9.98,27.82L10.94,27.86L11.70,27.92L12.17,28.01L12.32,28.10L12.12,28.19L11.59,28.27L10.79,28.33L9.42,28.37L8.75,28.37L7.73,28.34L6.86,28.29L6.23,28.21L5.92,28.13"/><path d="M11.99,34.91L11.97,35.10"/><path d="M19.07,34.44L19.52,35.32L20.26,36.03L20.95,36.40L21.20,36.49L21.98,36.64L22.25,36.65L23.03,36.57L23.29,36.50L23.99,36.19L24.75,35.54L25.08,34.90L25.04,35.40L24.61,36.36L23.89,37.14L22.96,37.64L21.92,37.81L20.87,37.63L19.94,37.12L19.22,36.35L18.80,35.38L18.71,34.32L18.97,33.30L19.08,33.13L19.07,33.17"/><path d="M25.06,35.11L24.65,35.89L23.85,36.67L23.13,37.04L22.87,37.13L22.08,37.23L21.82,37.22L21.04,37.04L20.80,36.93L20.12,36.49L19.43,35.64L18.98,34.30L19.00,33.50"/><path d="M19.07,33.15L19.05,33.26"/><path d="M19.24,32.90L19.08,33.13"/><path d="M19.01,28.08L19.38,27.99L20.05,27.92L20.95,27.87L21.77,27.86L23.04,27.86L24.00,27.91L24.76,27.97L25.24,28.05L25.39,28.15L25.19,28.24L24.66,28.32L23.99,28.37L22.88,28.41L21.82,28.42L20.80,28.39L19.93,28.34L19.30,28.26L18.98,28.17L19.01,28.08"/><path d="M25.08,34.90L25.10,34.63"/><path d="M32.13,34.49L32.58,35.37L33.31,36.08L34.01,36.45L34.26,36.54L35.04,36.69L35.30,36.70L36.09,36.61L36.34,36.55L37.05,36.23L37.81,35.59L38.17,34.89L38.12,35.45L37.70,36.41L36.98,37.19L36.05,37.68L35.00,37.85L33.96,37.68L33.02,37.17L32.31,36.39L31.88,35.42L31.79,34.37L32.06,33.35L32.29,33.00"/><path d="M32.06,33.54L32.05,34.35L32.50,35.69L33.19,36.53L33.87,36.98L34.11,37.08L34.89,37.26L35.15,37.28L35.94,37.17L36.20,37.09L36.92,36.71L37.72,35.94L38.15,35.12"/><path d="M32.12,33.24L32.11,33.31L32.11,33.27"/><path d="M32.34,28.06L32.08,28.12L32.05,28.22L32.37,28.31L33.00,28.38L33.87,28.44L34.90,28.46L35.95,28.46L37.20,28.41L37.73,28.37L38.25,28.29L38.45,28.19L38.30,28.10L37.82,28.02L37.06,27.95L36.10,27.91L35.05,27.90L34.01,27.92L33.11,27.97L32.34,28.06"/><path d="M38.17,34.89L38.20,34.56"/><path d="M45.13,33.60L45.11,34.40L45.56,35.73L46.26,36.58L46.94,37.02L47.18,37.13L47.96,37.31L48.22,37.32L49.01,37.22L49.27,37.14L49.99,36.76L50.79,35.98L51.24,35.11L51.21,35.49L50.78,36.46L50.06,37.23L49.13,37.73L48.09,37.90L47.04,37.72L46.11,37.22L45.39,36.44L44.97,35.47L44.88,34.42L45.14,33.40L45.34,33.10"/><path d="M51.29,34.49L51.26,34.88L50.87,35.63L50.11,36.28L49.40,36.59L49.15,36.66L48.36,36.75L48.09,36.74L47.31,36.58L47.06,36.50L46.37,36.13L45.64,35.42L45.20,34.54"/><path d="M45.18,33.35L45.18,33.34"/><path d="M45.19,33.33L45.14,33.54L45.16,33.42"/><path d="M45.14,28.17L45.12,28.26L45.44,28.35L46.07,28.43L46.95,28.48L47.97,28.51L49.02,28.51L50.00,28.47L50.86,28.40L51.32,28.33L51.52,28.24L51.36,28.15L50.88,28.06L50.12,28.00L49.16,27.96L48.10,27.95L47.07,27.97L46.17,28.01L45.51,28.08L45.14,28.17"/><path d="M51.26,34.88L51.24,35.11"/><path d="M58.26,34.58L58.70,35.46L59.43,36.17L60.12,36.54L60.37,36.63L61.15,36.78L61.41,36.79L62.20,36.71L62.45,36.64L63.16,36.32L63.93,35.68L64.35,34.87L64.29,35.54L63.86,36.50L63.14,37.28L62.21,37.78L61.17,37.95L60.12,37.77L59.19,37.26L58.47,36.48L58.05,35.52L57.96,34.46L58.23,33.44L58.38,33.20"/><path d="M58.14,33.92L58.15,34.20L58.14,33.82L58.15,33.72"/><path d="M64.33,35.12L63.85,36.03L63.06,36.81L62.34,37.18L62.08,37.26L61.29,37.37L61.03,37.36L60.25,37.18L60.01,37.07L59.33,36.63L58.63,35.78L58.18,34.45L58.15,34.20"/><path d="M58.14,33.82L58.15,33.77"/><path d="M58.21,28.22L58.18,28.31L58.57,28.41L59.14,28.48L60.02,28.53L61.04,28.56L62.10,28.55L63.17,28.51L63.86,28.46L64.39,28.38L64.58,28.29L64.43,28.19L63.94,28.11L63.17,28.04L62.21,28.00L61.45,28.00L60.13,28.01L59.23,28.06L58.57,28.13L58.21,28.22"/><path d="M64.35,34.87L64.37,34.45"/><path d="M71.13,35.56L71.05,34.51L71.26,33.70L71.24,34.49L71.70,35.82L72.40,36.67L73.08,37.12L73.32,37.22L74.10,37.40L74.36,37.42L75.15,37.31L75.41,37.23L76.13,36.85L76.92,36.08L77.42,35.12L77.38,35.59L76.95,36.55L76.23,37.32L75.30,37.82L74.25,37.99L73.21,37.82L72.28,37.31L71.56,36.53L71.13,35.56"/><path d="M77.44,34.43L77.47,34.53L77.44,34.87L76.99,35.72L76.22,36.37L75.51,36.68L75.26,36.75L74.47,36.84L74.20,36.83L73.42,36.68L73.18,36.59L72.49,36.22L71.76,35.51L71.32,34.63"/><path d="M71.26,33.70L71.31,33.49L71.43,33.31"/><path d="M71.27,28.26L71.63,28.18L72.29,28.11L73.19,28.06L74.86,28.05L76.23,28.09L77.00,28.16L77.49,28.24L77.64,28.33L77.45,28.43L76.93,28.51L76.19,28.56L75.17,28.60L74.11,28.60L73.09,28.58L72.21,28.52L71.63,28.45L71.25,28.36L71.27,28.26"/><path d="M77.44,34.87L77.42,35.12"/><path d="M85.36,37.36L84.64,36.58L84.22,35.61L84.13,34.56L84.32,33.83L84.30,34.53L84.76,35.87L85.47,36.72L86.14,37.16L86.39,37.27L87.16,37.45L87.43,37.46L88.22,37.36L88.48,37.28L89.20,36.90L89.99,36.12L90.50,35.13L90.46,35.63L90.03,36.60L89.31,37.37L88.38,37.87L87.33,38.04L86.29,37.86L85.36,37.36"/><path d="M84.38,34.68L84.82,35.56L85.54,36.26L86.23,36.64L86.48,36.72L87.26,36.87L87.53,36.89L88.31,36.80L88.57,36.73L89.28,36.42L90.04,35.77L90.53,34.86L90.50,35.13"/><path d="M84.32,33.83L84.39,33.54L84.48,33.41"/><path d="M84.33,28.31L84.69,28.22L85.35,28.15L86.25,28.10L87.92,28.09L89.29,28.14L90.06,28.20L90.55,28.29L90.71,28.38L90.52,28.47L89.96,28.56L89.21,28.61L88.33,28.64L87.18,28.65L86.16,28.62L85.28,28.57L84.64,28.49L84.32,28.40L84.33,28.31"/><path d="M90.53,34.86L90.55,34.58L90.51,34.42"/><path d="M103.58,34.41L103.63,34.63L103.54,35.68L103.11,36.64L102.40,37.42L101.46,37.92L100.42,38.09L99.37,37.91L98.44,37.40L97.72,36.62L97.30,35.66L97.22,34.60L97.48,33.58L97.52,33.52"/><path d="M97.51,34.99L97.85,35.59L98.60,36.33L99.33,36.71L99.53,36.78L100.32,36.93L100.58,36.94L101.33,36.86L101.62,36.79L102.26,36.52L103.00,35.95L103.47,35.28L103.59,35.03"/><path d="M97.49,35.10L97.49,35.08L97.81,35.86L98.53,36.75L99.26,37.22L99.46,37.30L100.25,37.48L100.50,37.50L101.26,37.40L101.55,37.31L102.20,36.98L102.49,36.76L103.21,35.91L103.55,35.20L103.60,35.05"/><path d="M97.46,34.91L97.49,35.08"/><path d="M98.50,28.21L97.86,28.28L97.52,28.36L97.51,28.45L97.82,28.54L98.44,28.61L99.28,28.66L100.26,28.69L101.22,28.68L102.21,28.65L102.97,28.59L103.46,28.51L103.64,28.43L103.49,28.34L103.02,28.26L101.89,28.18L100.34,28.14L99.35,28.16L98.50,28.21"/><path d="M116.68,34.88L116.71,34.64L116.62,35.73L116.20,36.69L115.48,37.46L114.54,37.96L113.50,38.13L112.45,37.96L111.59,37.49L111.52,37.45L110.81,36.67L110.38,35.70L110.30,34.65L110.44,34.10L110.43,34.63L110.89,35.96L111.62,36.83L112.28,37.26L112.52,37.36L113.30,37.54L113.57,37.55L114.36,37.45L114.60,37.37L115.33,36.99L116.12,36.22L116.63,35.21L116.68,34.88L116.16,35.86L115.39,36.51L114.67,36.82L114.42,36.89L113.63,36.98L113.37,36.97L112.59,36.82L112.34,36.73L111.65,36.36L110.93,35.65L110.50,34.77"/><path d="M110.44,34.10L110.56,33.63"/><path d="M110.46,28.40L110.81,28.32L111.47,28.25L112.36,28.20L113.39,28.18L114.44,28.19L115.40,28.23L116.18,28.30L116.67,28.38L116.83,28.47L116.64,28.57L116.14,28.65L115.37,28.70L114.38,28.74L113.32,28.74L112.30,28.72L111.42,28.66L110.78,28.59L110.44,28.50L110.46,28.40"/><path d="M116.71,34.64L116.64,34.39"/><path d="M120.06,29.34L120.24,27.64"/></g><g style="stroke:#000000;stroke-width:0.529"><path d="M56.27,40.33L2.29,40.14L2.29,28.92L2.85,27.22L120.24,27.64L120.21,38.82L120.03,40.56L57.95,40.34"/><path d="M6.39,33.92L6.26,33.61L6.19,32.79L6.47,32.37L7.30,31.73L8.30,31.39L9.36,31.39L10.37,31.74L11.20,32.39L11.78,33.28L12.04,34.30L12.01,34.64L11.34,35.36L10.41,35.86L9.37,36.03L8.33,35.85L7.40,35.35L6.68,34.57L6.39,33.92"/><path d="M19.30,33.65L19.24,32.90L19.55,32.42L20.39,31.78L21.39,31.44L22.45,31.44L23.45,31.79L24.29,32.44L24.87,33.32L25.13,34.35L25.10,34.64L24.38,35.41L23.45,35.91L22.41,36.08L21.37,35.90L20.44,35.40L19.73,34.62L19.30,33.65"/><path d="M32.29,33.00L32.64,32.47L33.47,31.82L34.48,31.48L35.54,31.49L36.54,31.83L37.37,32.48L37.95,33.37L38.21,34.39L38.20,34.56L38.14,34.69L37.43,35.46L36.50,35.95L35.45,36.12L34.41,35.95L33.48,35.44L32.77,34.67L32.35,33.70L32.29,33.00"/><path d="M46.90,35.69L46.53,35.49L45.81,34.71L45.39,33.75L45.34,33.10L45.72,32.51L46.56,31.87L47.56,31.53L48.62,31.53L49.62,31.88L50.46,32.53L51.04,33.42L51.30,34.44L51.29,34.49L51.19,34.73L50.47,35.50L49.54,36.00L48.50,36.17L47.45,35.99L46.90,35.69"/><path d="M59.57,35.54L58.85,34.76L58.43,33.79L58.38,33.20L58.80,32.56L59.64,31.91L60.65,31.58L61.70,31.58L62.71,31.93L63.54,32.58L64.12,33.46L64.37,34.45L64.23,34.78L63.51,35.55L62.58,36.05L61.54,36.22L60.50,36.04L59.57,35.54"/><path d="M72.78,35.67L72.61,35.58L71.90,34.81L71.47,33.84L71.43,33.31L71.89,32.61L72.73,31.96L73.73,31.62L74.79,31.63L75.79,31.97L76.63,32.62L77.21,33.51L77.44,34.43L77.27,34.82L76.55,35.60L75.62,36.09L74.58,36.26L73.54,36.09L72.78,35.67"/><path d="M85.56,35.53L85.65,35.63L86.58,36.13L87.62,36.31L88.66,36.14L89.59,35.64L90.31,34.87L90.51,34.42L90.29,33.56L89.71,32.67L88.88,32.02L87.88,31.67L86.82,31.67L85.81,32.01L84.98,32.65L84.48,33.41L84.51,33.89L84.94,34.85L85.56,35.53"/><path d="M98.65,35.63L97.98,34.90L97.56,33.93L97.52,33.52L98.06,32.70L98.90,32.05L99.90,31.72L100.96,31.72L101.96,32.07L102.80,32.72L103.37,33.60L103.58,34.41L103.35,34.92L102.63,35.69L101.70,36.19L100.66,36.36L99.62,36.18L98.69,35.68L98.65,35.63"/><path d="M111.59,35.57L111.02,34.94L110.60,33.98L110.57,33.62L111.14,32.75L111.98,32.10L112.98,31.76L113.21,31.76L114.04,31.77L115.04,32.11L115.88,32.76L116.46,33.65L116.64,34.39L116.39,34.96L115.67,35.74L114.74,36.23L113.70,36.40L112.66,36.23L111.73,35.72L111.59,35.57"/></g></g><g id="Actor_.9"><g style="stroke:#000000;stroke-width:0.176"><path d="M204.35,184.39L204.37,179.36L204.39,178.60L204.48,183.74L204.48,183.63L204.54,180.97L204.57,174.88L204.60,173.20L204.61,174.12L204.61,177.57L204.63,175.45"/><path d="M204.48,183.74L218.77,183.79"/><path d="M204.46,168.83L204.45,170.98L204.48,179.31L204.49,179.64L204.51,177.65L204.48,181.71L204.48,182.33"/><path d="M204.47,181.33L204.47,181.34L204.46,177.81L204.40,177.81L204.47,181.33"/><path d="M204.60,168.99L204.53,179.79L204.48,182.28"/><path d="M204.47,181.34L204.47,181.34"/><path d="M204.40,177.81L204.44,172.36L204.46,177.81"/><path d="M219.15,177.05L204.62,177.00L204.67,169.06"/><path d="M204.51,176.04L204.51,177.65L204.50,176.11L204.51,174.42L204.51,176.04"/><path d="M204.62,177.00L204.63,175.91"/><path d="M219.05,177.62L204.61,177.57"/><path d="M204.40,177.25L204.41,173.69L204.40,173.69L204.39,174.10L204.37,175.62L204.40,177.27"/><path d="M204.61,169.00L204.60,171.37L204.62,174.22"/><path d="M204.42,171.70L204.41,173.89L204.42,174.38L204.43,171.70"/><path d="M204.51,174.33L204.51,174.42L204.52,172.81L204.51,174.33"/><path d="M204.63,174.11L204.64,173.25L204.66,169.05"/><path d="M204.52,172.81L204.52,171.19L204.52,172.81"/><path d="M204.52,171.19L204.53,169.58L204.52,171.19"/><path d="M204.44,172.36L204.45,172.36"/><path d="M204.44,171.15L204.44,171.15"/><path d="M204.45,169.63L204.45,169.39L204.44,169.58"/><path d="M204.52,168.91L204.53,169.58L204.53,168.92"/><path d="M204.45,169.39L204.45,169.39"/><path d="M204.61,167.21L204.65,160.45"/><path d="M204.58,158.77L204.63,159.96L204.57,159.96L204.56,159.89L204.60,149.32L204.56,146.52L204.54,147.94L204.46,167.05"/><path d="M204.54,166.60L204.61,166.60L204.61,166.44L204.53,166.44L204.54,167.13"/><path d="M209.03,168.07L208.79,168.03L208.56,167.92L208.38,167.72L209.02,167.72L208.77,167.68L208.55,167.57L208.37,167.39L208.28,167.22L208.30,164.79L206.69,164.78L206.68,167.42L206.65,167.42L206.66,166.35L206.65,167.42L204.80,167.42"/><path d="M204.61,167.20L204.61,166.60"/><path d="M204.61,166.44L204.63,160.17L204.63,159.96"/><path d="M204.53,166.44L204.53,167.12"/><path d="M204.68,164.76L204.68,164.78L204.68,164.73L204.68,164.76"/><path d="M204.68,164.78L206.66,164.78L206.66,166.35L206.66,164.78L206.69,164.78"/><path d="M219.20,157.32L204.71,157.27L204.72,155.04L204.71,155.55L204.71,154.61L204.73,150.20L204.72,150.61L204.70,150.61L204.70,150.59L204.67,158.42L204.67,159.31L204.70,160.12L204.68,164.73L204.69,161.44L204.65,160.55"/><path d="M204.56,159.89L204.58,158.87"/><path d="M204.63,158.27L204.66,158.94L204.69,152.77L204.65,152.77L204.63,158.27"/><path d="M204.66,158.94L204.66,158.95"/><path d="M204.69,132.34L204.68,133.05L204.58,156.55L204.58,157.18L204.62,157.97L204.64,152.60L204.65,152.77"/><path d="M204.72,150.61L204.70,155.02L204.71,157.27"/><path d="M204.63,157.98L204.62,157.97"/><path d="M204.72,155.04L204.72,154.49L204.72,155.04"/><path d="M204.72,155.55L204.71,155.55"/><path d="M204.72,154.49L219.25,154.54"/><path d="M204.69,152.77L204.71,145.52L204.72,145.52"/><path d="M204.64,152.60L204.69,152.60"/><path d="M204.70,150.61L204.72,147.58L204.73,147.91L204.73,150.20L204.75,148.65L204.75,148.80L204.76,145.91L204.75,145.35L204.74,146.15L204.73,145.83L204.72,145.21L204.73,142.57L204.75,142.57L204.76,142.12L204.75,145.35L204.75,142.59L204.74,142.59"/><path d="M204.75,148.80L207.81,148.81L207.80,151.19L216.20,151.22L216.20,151.18L207.80,151.15"/><path d="M204.72,147.58L204.72,147.49"/><path d="M204.75,145.75L207.82,145.76L207.83,145.92L204.76,145.91"/><path d="M204.71,145.52L204.74,138.47L204.71,138.47L204.72,133.92L204.73,133.55L204.76,134.25L204.74,138.47"/><path d="M204.61,146.58L204.62,144.28"/><path d="M204.61,146.55L204.56,144.28"/><path d="M204.78,138.76L204.77,139.25L204.76,142.12L204.76,139.04L204.78,137.20L204.78,140.11L219.31,140.16"/><path d="M204.73,142.57L204.77,134.38"/><path d="M204.75,142.57L204.75,142.59"/><path d="M204.64,141.28L204.63,141.28L204.67,132.04L204.61,130.41L204.59,131.02L204.57,139.28L204.57,139.89L204.63,141.28"/><path d="M204.78,140.11L204.78,138.85"/><path d="M204.71,138.30L204.70,138.30L204.72,133.31L204.69,132.44"/><path d="M204.70,138.30L204.71,138.47"/><path d="M204.78,137.20L219.29,137.25"/><path d="M219.30,135.02L204.80,134.97L204.82,130.39L204.81,130.07L204.81,129.20L204.80,130.70L204.80,131.82L204.80,133.19L204.80,133.19"/><path d="M204.80,134.96L204.78,134.49"/><path d="M204.80,133.19L204.74,131.75L204.78,126.01"/><path d="M204.73,133.55L204.73,133.44"/><path d="M204.71,131.26L204.73,131.52L204.78,124.86L204.77,123.39L204.75,122.91L204.74,122.30L204.76,116.97L204.75,116.34L204.69,130.10L204.69,130.74L204.71,131.26"/><path d="M204.82,130.39L219.37,130.44"/><path d="M204.63,129.20L204.67,130.24L204.70,123.68L204.70,123.28L204.68,122.74L204.66,123.68L204.63,123.06L204.63,123.22L204.61,128.31L204.61,128.71L204.63,129.20"/><path d="M204.67,130.24L204.68,130.24"/><path d="M204.60,130.35L204.61,130.41L204.60,130.30"/><path d="M204.78,126.08L204.81,129.20L204.82,126.70L204.82,126.73"/><path d="M204.81,127.76L219.36,127.81"/><path d="M204.80,121.82L204.79,123.86L204.78,121.82L204.80,121.82L204.81,121.13L204.80,123.92L204.83,123.92L204.84,122.90L204.84,123.08L204.83,127.35L204.82,126.93"/><path d="M204.80,126.04L204.81,126.61L204.82,125.12L204.82,124.64L204.82,124.58L204.79,124.58L204.80,126.04"/><path d="M204.83,127.35L219.36,127.40"/><path d="M204.81,126.61L204.82,126.61"/><path d="M204.83,125.87L204.83,125.78L204.83,125.87L204.84,125.87"/><path d="M204.82,124.58L204.82,124.36L204.83,125.78L204.84,124.38L204.84,124.38"/><path d="M204.82,123.95L204.82,124.28L204.82,124.36L204.82,123.95L204.83,123.94L204.84,124.43"/><path d="M204.79,124.58L204.80,123.86L204.80,123.89"/><path d="M204.84,123.52L207.90,123.53L207.90,123.44L219.34,123.48"/><path d="M204.66,123.68L204.66,123.69L204.70,123.69"/><path d="M204.84,122.90L207.89,122.91L207.90,123.44"/><path d="M204.80,123.86L204.79,123.86"/><path d="M204.83,123.92L204.83,123.94"/><path d="M204.68,122.74L204.67,122.66"/><path d="M204.63,123.02L204.63,122.97L204.63,123.06L204.63,123.02"/><path d="M204.63,122.97L204.63,122.96"/><path d="M204.78,121.82L204.79,119.72L204.78,118.51L204.79,117.07L204.80,117.10L204.79,117.13"/><path d="M204.62,121.36L204.63,120.88L204.65,121.48L204.65,121.45L204.66,122.15L204.66,121.99L204.66,121.98"/><path d="M204.65,121.51L204.67,121.51L204.66,121.99"/><path d="M204.61,120.07L204.67,120.08L204.69,115.27L204.63,114.01L204.61,121.36"/><path d="M204.64,112.26L204.77,115.20L204.75,120.91L204.77,121.60L204.79,115.54L204.80,116.47L204.79,117.69L204.79,117.27"/><path d="M204.77,121.60L204.78,121.60"/><path d="M204.67,121.51L204.67,120.88L204.63,120.88"/><path d="M204.65,121.45L204.67,121.45"/><path d="M204.81,120.70L204.81,121.13L204.81,120.67L216.29,120.71L216.30,121.48L219.35,121.49"/><path d="M204.79,120.46L216.29,120.50L216.30,119.55L216.30,121.13"/><path d="M204.67,120.08L204.67,120.88"/><path d="M204.79,117.07L204.80,117.07"/><path d="M204.75,116.32L204.75,116.34"/><path d="M204.79,117.69L207.84,117.70L207.85,117.06L207.85,116.18L204.80,116.17"/><path d="M204.79,115.54L219.28,115.59"/><path d="M206.68,167.42L206.70,167.42L206.70,167.40L208.28,167.41L208.28,167.22"/><path d="M206.68,164.78L206.67,167.42"/><path d="M208.29,167.82L208.29,168.30L208.30,168.38L208.41,168.38L208.41,168.37L209.05,168.37L208.80,168.33L208.58,168.22L208.40,168.04L208.29,167.82L208.28,167.41"/><path d="M208.29,168.30L208.28,169.41"/><path d="M208.29,168.38L208.30,168.38"/><path d="M208.41,168.38L215.36,168.41L215.48,168.17L215.52,167.93L215.54,163.91L215.57,163.91L215.57,163.90L215.58,162.93L217.18,162.94L217.17,164.62L215.57,164.62L215.58,163.63"/><path d="M208.41,168.37L208.30,168.16L208.29,168.09"/><path d="M208.38,167.72L208.29,167.55"/><path d="M208.28,166.64L208.34,166.74L208.51,166.92L208.74,167.03L208.99,167.07L208.35,167.07L208.35,167.09L208.53,167.27L208.75,167.38L209.00,167.42"/><path d="M208.35,167.07L208.28,166.95"/><path d="M208.97,166.80L208.73,166.76L208.50,166.64L208.32,166.45L214.59,166.47L214.84,166.43L215.06,166.32L215.24,166.15L215.35,165.92L215.39,165.68L215.40,163.91L215.42,163.91L215.41,165.99L215.37,166.23L215.26,166.45L215.08,166.63L214.85,166.74L214.60,166.78L215.28,166.78L215.10,166.98L214.87,167.09L214.62,167.13"/><path d="M208.32,166.45L208.28,166.39"/><path d="M208.30,164.79L208.31,163.07"/><path d="M208.31,163.89L215.40,163.91"/><path d="M207.83,145.92L207.82,148.81L207.81,148.81"/><path d="M207.82,145.76L207.83,143.16L216.23,143.19L216.20,151.22"/><path d="M207.85,117.18L219.31,117.22"/><path d="M210.24,148.99L210.01,148.79L209.57,148.02L209.42,147.14L209.52,146.57L209.93,147.29L210.61,147.86L211.44,148.18L211.92,148.23L212.41,148.18L213.24,147.87L213.92,147.30L214.36,146.53L214.42,146.22L214.46,146.29L214.61,147.16L214.45,148.03L214.01,148.80L213.32,149.38L212.49,149.69L212.00,149.73L211.52,149.68L210.68,149.37L210.24,148.99"/><path d="M209.52,146.57L209.58,146.27L210.02,145.50L210.70,144.93L211.54,144.62L212.02,144.57L212.51,144.62L213.34,144.94L214.02,145.51L214.42,146.22"/><path d="M214.82,168.40L214.95,168.39L215.17,168.27L215.36,168.08L214.68,168.08L214.93,168.04L215.15,167.93L215.33,167.75L215.45,167.53L215.49,167.28L215.50,163.91L215.54,163.91"/><path d="M214.66,167.77L214.91,167.74L215.13,167.62L215.32,167.43L214.64,167.43L214.89,167.39L215.11,167.28L215.29,167.10L215.41,166.88L215.45,166.63L215.46,163.91L215.50,163.91"/><path d="M213.89,112.97L213.95,112.97L213.90,112.29"/><path d="M219.21,169.69L215.55,169.68L215.55,169.44L219.19,169.45"/><path d="M219.19,169.38L215.55,169.36L215.56,167.24L217.15,167.24L217.16,167.35L215.56,167.35"/><path d="M215.55,169.36L215.55,169.44"/><path d="M215.55,168.54L215.55,168.41L215.52,168.41L215.54,168.27L215.56,163.91"/><path d="M215.56,169.32L219.14,169.33"/><path d="M215.36,168.08L215.47,167.87L215.51,167.63L215.53,163.91"/><path d="M215.52,168.41L215.36,168.41"/><path d="M215.32,167.43L215.43,167.22L215.47,166.98L215.49,163.91"/><path d="M215.28,166.78L215.39,166.58L215.43,166.33L215.44,163.91L215.46,163.91"/><path d="M215.56,167.24L215.57,164.51L215.57,164.62"/><path d="M215.44,163.91L215.42,163.91"/><path d="M216.20,151.18L216.21,148.68L216.22,148.84L219.28,148.85"/><path d="M216.22,148.84L216.23,145.95L216.23,145.35"/><path d="M216.23,145.79L219.30,145.80"/><path d="M216.23,145.95L219.31,145.96"/><path d="M216.30,120.27L219.36,120.28"/><path d="M216.29,120.71L216.29,120.50"/><path d="M216.30,119.55L219.32,119.56"/><path d="M219.14,113.23L215.53,113.22L215.59,114.30L219.14,114.31"/><path d="M217.15,169.33L217.16,167.35"/><path d="M217.15,167.24L217.17,164.62"/><path d="M217.18,162.94L219.17,162.95"/></g><g style="stroke:#000000;stroke-width:0.529"><path d="M204.45,168.82L204.43,171.70L204.42,171.70L204.39,172.21L204.36,174.62L204.33,182.42L204.33,183.37L204.35,184.39L218.76,184.44L218.77,183.79L218.95,183.79L218.96,183.68L219.04,181.02L219.05,177.62L219.14,177.62L219.15,177.05L219.16,177.05L219.17,176.66L219.19,174.31L219.21,169.69L219.19,169.33L219.14,169.33L219.17,162.95L219.23,162.95L219.24,160.17L219.24,159.97L219.20,159.36L219.20,158.47L219.20,157.32L219.25,157.32L219.25,157.30L219.26,156.85L219.27,154.65L219.27,154.54L219.25,154.54L219.28,148.85L219.29,148.85L219.31,140.16L219.33,140.16L219.33,140.01L219.34,137.95L219.33,137.25L219.29,137.25L219.30,135.02L219.35,135.02L219.35,134.76L219.37,130.44L219.35,130.01L219.36,127.40L219.38,127.40L219.38,127.15L219.40,124.23L219.39,123.48L219.34,123.48L219.36,120.28L219.35,119.56L219.32,119.56L219.30,118.72L219.30,117.53L219.32,116.64L219.31,115.67L219.30,115.59L219.28,115.59L219.27,115.19L219.21,114.31L219.14,114.31L219.14,113.23L219.08,112.31L213.90,112.29L213.89,112.97L209.85,112.96L209.81,112.27L204.64,112.26L204.60,120.09L204.60,121.35L204.61,121.36L204.62,121.36L204.56,139.50L204.56,141.49L204.62,142.88L204.62,143.76L204.62,144.28L204.56,144.28L204.55,145.30L204.46,167.04"/></g></g><g id="Actor_.10"><g style="stroke:#000000;stroke-width:0.176"><path d="M269.80,183.96L257.88,183.92"/><path d="M257.91,177.75L270.38,177.79"/><path d="M257.91,177.19L270.59,177.23"/><path d="M258.04,166.35L258.03,167.60L258.04,167.60L258.05,164.96L258.04,164.96L258.04,166.35"/><path d="M259.72,167.58L259.72,167.25L260.27,167.25L260.03,167.21L259.80,167.09L259.72,167.01L259.73,164.96L258.13,164.96L258.12,167.60L258.17,167.60L258.16,167.57L259.75,167.58L259.75,167.61L259.88,167.74L260.11,167.86L260.35,167.90L259.77,167.90L259.77,168.18L259.78,168.21L259.96,168.39L260.19,168.51L260.43,168.55L259.82,168.54L259.83,168.56L259.77,168.56L259.76,169.59"/><path d="M258.12,167.60L258.08,167.60L258.09,164.96L258.05,164.96"/><path d="M258.08,167.60L258.04,167.60"/><path d="M257.96,167.60L258.03,167.60"/><path d="M258.04,164.96L257.97,164.96"/><path d="M258.13,164.96L258.09,164.96"/><path d="M258.01,157.45L270.63,157.49"/><path d="M270.72,154.71L258.02,154.67"/><path d="M258.05,148.98L259.29,148.99L259.28,151.37L267.68,151.40L267.72,143.74L267.71,145.97L267.73,146.12L267.72,149.01L267.70,148.86L267.68,151.40"/><path d="M258.06,145.94L259.31,145.94L259.32,143.34L267.72,143.36L267.72,143.74"/><path d="M258.06,146.09L259.33,146.09L259.31,145.94"/><path d="M270.79,140.33L258.09,140.29"/><path d="M258.11,137.38L270.74,137.42"/><path d="M270.75,135.20L258.12,135.15"/><path d="M270.89,130.62L258.14,130.58"/><path d="M258.15,127.94L270.85,127.98"/><path d="M270.84,127.58L258.16,127.54"/><path d="M258.17,123.70L259.41,123.71L259.40,123.09L258.18,123.08"/><path d="M270.80,121.67L267.75,121.66L267.76,120.44L267.74,119.73L267.73,120.67L258.19,120.64"/><path d="M258.19,120.85L267.73,120.88L267.75,121.66"/><path d="M258.20,117.88L259.24,117.88L259.25,117.13L259.24,116.35L258.21,116.35"/><path d="M258.21,115.73L270.62,115.77"/><path d="M259.77,168.18L259.77,168.56"/><path d="M259.82,168.54L259.77,168.44"/><path d="M267.04,164.09L267.05,164.08L267.06,163.98L267.07,163.11L268.64,163.12L268.63,164.80L267.03,164.79L267.04,164.09L266.96,164.09L266.93,168.10L266.89,168.35L266.77,168.58L259.83,168.56"/><path d="M259.77,167.93L259.92,168.09L260.15,168.21L260.40,168.24"/><path d="M259.75,167.61L259.77,167.90"/><path d="M259.72,167.01L259.72,167.25"/><path d="M260.32,167.59L260.07,167.55L259.84,167.44L259.72,167.31"/><path d="M259.72,166.77L259.77,166.82L259.99,166.93L260.24,166.97"/><path d="M265.91,167.30L266.16,167.26L266.39,167.15L266.57,166.96L265.87,166.96L266.12,166.92L266.34,166.80L266.52,166.63L266.63,166.41L266.67,166.16L266.69,164.09L266.64,164.09L266.63,165.85L266.59,166.10L266.48,166.32L266.30,166.50L266.07,166.61L265.83,166.65L259.72,166.63"/><path d="M259.73,164.96L259.77,164.96L259.78,164.86L259.79,163.25"/><path d="M259.79,164.07L266.64,164.09"/><path d="M259.28,151.33L267.67,151.36"/><path d="M259.29,148.99L259.32,148.99L259.33,146.09"/><path d="M259.41,123.61L270.78,123.65"/><path d="M259.25,117.36L270.69,117.40"/><path d="M261.99,149.39L261.49,148.96L261.05,148.19L260.90,147.32L260.98,146.90L261.29,147.46L261.97,148.04L262.80,148.36L263.28,148.40L263.77,148.36L264.60,148.05L265.28,147.48L265.73,146.71L265.81,146.24L265.94,146.46L266.09,147.34L265.93,148.21L265.48,148.98L264.80,149.55L263.97,149.86L263.48,149.91L263.00,149.86L262.16,149.54L261.99,149.39"/><path d="M265.81,146.24L265.50,145.69L264.83,145.11L263.99,144.80L263.51,144.75L263.02,144.79L262.19,145.10L261.50,145.68L261.06,146.45L260.98,146.90"/><path d="M264.99,113.15L265.10,113.15L265.01,112.47"/><path d="M266.82,164.09L266.77,164.09L266.76,166.81L266.72,167.05L266.61,167.28L266.43,167.45L266.20,167.57L265.95,167.60L266.66,167.61L266.77,167.40L266.81,167.15L266.82,164.09L266.87,164.09L266.85,167.45L266.81,167.70L266.69,167.92L266.51,168.10L266.29,168.21L266.04,168.25L266.75,168.25L266.56,168.45L266.33,168.56L266.21,168.58"/><path d="M267.02,167.52L268.62,167.53L268.60,167.42L267.01,167.41L267.02,167.52L267.02,168.58L266.77,168.58"/><path d="M266.75,168.25L266.85,168.05L266.89,167.80L266.91,164.09L266.96,164.09"/><path d="M266.66,167.61L266.47,167.80L266.25,167.91L266.00,167.95"/><path d="M266.77,164.09L266.73,164.09L266.72,166.51L266.68,166.75L266.57,166.96"/><path d="M266.69,164.09L266.73,164.09"/><path d="M270.32,113.41L266.71,113.39L266.86,114.48L270.31,114.49"/><path d="M270.68,169.87L267.03,169.85L267.03,169.50L268.61,169.50L268.62,167.53"/><path d="M267.03,169.61L270.65,169.62"/><path d="M267.03,169.54L270.65,169.55"/><path d="M267.02,168.58L267.03,169.50"/><path d="M266.96,168.58L266.98,168.45L267.00,164.09"/><path d="M267.01,167.41L267.03,164.73L267.03,164.79"/><path d="M266.87,164.09L266.91,164.09"/><path d="M267.02,164.68L267.03,164.73"/><path d="M267.72,149.01L270.77,149.03"/><path d="M267.71,145.97L270.78,145.98"/><path d="M267.73,146.12L270.81,146.13"/><path d="M267.74,119.73L270.72,119.74"/><path d="M267.76,120.44L270.81,120.45"/><path d="M267.73,120.88L267.73,120.67"/><path d="M268.61,169.50L270.55,169.51"/><path d="M268.60,167.42L268.62,164.80"/><path d="M270.58,163.12L268.64,163.12"/></g><g style="stroke:#000000;stroke-width:0.529"><path d="M258.23,112.44L260.92,112.45L261.01,113.13L264.98,113.15L264.99,112.67L265.01,112.47L270.18,112.48L270.32,113.41L270.31,114.49L270.48,114.49L270.62,115.36L270.62,115.77L270.68,115.77L270.69,115.85L270.71,116.82L270.70,117.36L270.70,117.40L270.69,117.40L270.68,117.71L270.68,118.90L270.72,119.40L270.72,119.74L270.80,119.74L270.81,120.45L270.78,123.65L270.90,123.65L270.90,123.67L270.92,124.88L270.89,127.50L270.89,127.58L270.84,127.59L270.84,130.19L270.85,130.35L270.89,130.62L270.86,134.94L270.85,135.18L270.85,135.20L270.75,135.20L270.75,135.33L270.74,137.42L270.83,137.42L270.84,137.55L270.85,138.13L270.83,140.19L270.83,140.33L270.79,140.33L270.78,145.98L270.81,146.13L270.79,149.03L270.77,149.03L270.72,154.71L270.75,154.71L270.76,154.82L270.75,157.02L270.74,157.48L270.73,157.49L270.63,157.49L270.63,159.47L270.72,160.14L270.73,160.35L270.72,163.12L270.58,163.12L270.55,169.51L270.64,169.51L270.68,169.87L270.65,175.40L270.63,176.84L270.61,177.23L270.59,177.23L270.58,177.79L270.38,177.79L270.37,181.19L270.19,183.97L269.80,183.96L269.79,184.61L257.87,184.57"/></g></g><g id="Actor_.11"><g style="stroke:#000000;stroke-width:0.176"><path d="M295.11,160.70L295.30,161.76L295.31,160.60"/><path d="M316.76,158.88L316.75,159.30L335.02,159.36L334.51,157.19L316.77,157.13L316.76,158.88"/><path d="M316.77,157.13L316.85,142.40L332.32,142.45L334.60,142.46L334.51,157.19"/><path d="M316.92,131.13L316.92,131.61L335.20,131.68L334.68,129.60L316.93,129.54L316.92,131.13"/><path d="M316.93,129.54L316.98,121.13L316.97,122.74"/><path d="M316.98,121.13L317.02,114.58L334.77,114.64L334.68,129.60"/><path d="M334.60,142.46L335.13,142.46L335.02,159.36"/><path d="M335.20,131.68L335.30,114.64L334.77,114.64"/><path d="M338.00,158.55L336.83,158.55L336.85,155.29L338.20,155.29L338.18,158.55L338.00,158.55"/><path d="M336.91,146.70L336.93,143.45L338.27,143.43L338.25,146.71L336.91,146.70"/><path d="M337.01,130.74L337.03,127.48L338.37,127.49L338.35,130.75L337.01,130.74"/><path d="M337.08,118.89L337.10,115.63L338.45,115.63L338.43,118.89L337.08,118.89"/><path d="M338.27,143.45L338.00,143.45"/><path d="M342.30,224.74L342.22,224.54L342.30,224.74L342.45,224.89L342.71,225.03L343.71,225.39L345.19,226.04L345.12,235.92L345.37,237.52L346.09,238.93L347.25,240.11L347.70,240.34L347.25,240.11"/><path d="M342.22,224.54L342.21,224.44"/><path d="M342.21,224.50L342.20,224.35L342.25,224.08L342.37,223.86L342.49,223.74L342.66,223.64L342.92,223.60L343.97,223.90L345.20,224.42L345.23,220.44L345.48,221.11L345.65,221.37L345.97,221.69L346.37,221.90L346.88,221.98L347.22,221.93L347.62,221.74L348.16,221.18L348.56,220.47L349.19,219.21L349.37,218.98L349.50,218.92L349.60,218.95L349.66,219.01L349.76,219.24L349.81,219.54L349.84,220.30L349.81,220.76L349.84,220.34"/><path d="M343.97,223.90L342.92,223.60"/><path d="M347.60,227.20L345.19,226.04"/><path d="M350.92,223.70L350.80,223.81L350.92,223.70L351.02,223.53L351.06,223.27L351.04,223.11L350.96,222.91L350.78,222.68L350.58,222.55L350.33,222.50L350.08,222.54L349.86,222.64L347.70,223.83L345.92,224.74L345.20,224.42"/><path d="M345.22,221.26L345.23,220.44L345.37,220.81"/><path d="M345.47,221.08L345.48,221.11L345.19,220.28L345.13,219.64L345.19,220.28L345.33,220.70"/><path d="M345.13,219.64L345.11,219.40L345.13,219.64"/><path d="M345.24,218.46L345.17,218.73L345.37,218.03L345.24,218.39L345.24,218.03L345.24,218.39L345.17,218.73L345.11,219.40L345.17,218.73"/><path d="M345.24,218.03L345.24,214.68L345.54,215.35L346.13,215.98L347.15,216.50L348.29,216.66L349.32,216.53L350.23,216.09L350.71,215.63L351.00,215.07L351.12,214.34L351.01,213.45L350.66,212.69L350.03,212.02L349.01,211.49L347.89,211.34L347.46,211.38L346.56,211.65L345.86,212.17L345.71,212.33L345.29,213.08L345.15,213.92L345.24,214.68"/><path d="M345.37,218.03L345.60,217.60L345.81,217.40L346.01,217.30L346.24,217.27L346.43,217.30L346.55,217.35L346.68,217.49L346.75,217.67L346.77,217.91L346.45,219.35L346.50,219.99L346.64,220.31"/><path d="M345.26,214.75L345.30,214.84"/><path d="M345.53,215.33L345.52,215.30"/><path d="M345.24,214.66L345.15,213.94"/><path d="M345.29,213.08L345.27,213.18"/><path d="M345.27,213.12L345.35,200.46L345.62,198.86L346.37,197.42L347.53,196.27L347.70,196.19L347.53,196.27"/><path d="M345.55,208.30L345.74,209.05L345.68,208.80"/><path d="M345.56,208.34L345.41,207.75L345.40,207.43L345.40,207.52"/><path d="M345.74,209.05L346.64,210.45L346.76,210.57L346.96,210.68L347.20,210.73L347.48,210.67L347.80,210.43L347.91,210.23L347.96,209.98L347.85,209.64L347.67,209.34L347.85,209.64L347.82,209.59"/><path d="M345.40,207.43L345.55,206.49L345.97,205.75L346.30,205.39L347.13,204.83L347.99,204.61L348.34,204.59L347.99,204.61"/><path d="M345.65,158.58L347.00,158.58L347.02,155.33L345.67,155.32L345.65,158.58"/><path d="M345.73,146.73L345.75,143.48L347.09,143.48L347.07,146.74L345.73,146.73"/><path d="M345.83,130.77L347.18,130.78L347.20,127.52L345.85,127.51L345.83,130.77"/><path d="M345.91,118.92L347.25,118.92L347.28,115.66L345.93,115.66L345.91,118.92L345.91,117.90"/><path d="M347.08,226.95L350.13,228.40L350.31,228.43L350.48,228.41L350.66,228.33L350.83,228.18L350.97,227.94L351.00,227.81"/><path d="M346.32,226.58L346.78,226.80"/><path d="M347.70,225.53L349.26,224.75L347.66,225.55L349.22,226.25L349.94,226.61L350.65,227.00L350.87,227.18L350.98,227.36L351.03,227.65L350.97,227.94"/><path d="M347.51,219.64L347.70,219.22L347.30,220.07L347.07,220.36L346.97,220.43L346.83,220.44L346.68,220.36L346.59,220.24"/><path d="M346.68,220.36L346.75,220.41"/><path d="M346.49,219.81L346.47,219.64"/><path d="M346.59,218.70L346.65,218.44"/><path d="M346.74,217.64L346.77,217.91"/><path d="M349.30,213.41L349.08,213.22L348.51,212.96L347.87,212.88L347.33,212.96L347.00,213.13L346.87,213.25L346.66,213.58L346.59,213.96L346.67,214.40L346.91,214.80L347.25,215.06L347.70,215.21L347.92,215.23L348.88,215.16L349.27,215.02L349.47,214.85L349.57,214.72L349.65,214.49L349.68,214.30L349.62,213.89L349.68,214.30"/><path d="M346.91,214.80L346.67,214.40L346.91,214.80L346.82,214.66"/><path d="M346.67,214.40L346.59,213.96L346.66,214.36"/><path d="M346.66,213.58L346.59,213.96L346.62,214.11"/><path d="M346.59,213.96L346.64,213.69"/><path d="M347.37,208.92L347.67,209.34L347.12,208.53L347.37,208.92"/><path d="M347.49,209.09L347.28,208.78"/><path d="M347.12,208.53L346.91,208.01L346.84,207.45L346.90,207.05L347.08,206.72L347.38,206.43L347.79,206.21L348.30,206.13L348.70,206.16L349.82,206.51L351.12,207.38L351.80,208.05L352.10,208.55L352.14,208.73"/><path d="M346.91,208.01L346.96,208.12"/><path d="M347.70,196.19L349.00,195.54L350.62,195.29L355.79,195.31L354.17,195.31"/><path d="M354.17,241.12L355.79,241.12L350.30,241.11L348.70,240.85L347.70,240.34"/><path d="M349.26,224.75L350.80,223.81"/><path d="M348.16,221.18L348.56,220.47L348.93,219.71"/><path d="M350.89,218.46L350.67,218.03L350.94,218.56L350.67,218.03L350.37,217.74L350.01,217.56L349.52,217.49L349.06,217.56L348.66,217.77L348.21,218.25L347.70,219.22"/><path d="M349.17,213.29L349.45,213.55L349.62,213.89"/><path d="M347.96,209.98L347.91,210.23L347.80,210.43"/><path d="M348.34,204.59L349.90,204.89L351.68,205.90L352.04,206.19L353.14,207.40L353.55,208.30L353.62,208.95L353.55,209.71L353.74,209.93L353.55,209.71L353.61,209.33"/><path d="M367.05,159.68L367.17,142.57L366.71,142.57L348.90,142.51L348.79,159.62L367.05,159.68L366.43,157.52L366.53,142.57"/><path d="M348.80,157.46L366.43,157.52"/><path d="M348.97,131.24L348.97,131.83L367.24,131.89L366.62,129.82L348.98,129.76L348.97,131.24"/><path d="M348.98,129.76L349.08,114.69L367.36,114.75L367.24,131.89"/><path d="M349.44,221.26L349.46,221.10L349.42,221.38L349.45,221.54L349.61,221.73L349.77,221.81L350.36,221.89L350.52,221.88L350.76,221.81L350.91,221.70L351.04,221.53L351.15,221.13L351.18,220.72L351.15,219.68L350.94,218.56"/><path d="M349.86,222.64L350.08,222.54"/><path d="M349.45,221.54L349.43,221.43"/><path d="M349.46,221.10L349.54,220.93L349.65,220.83L349.81,220.76"/><path d="M349.81,219.64L349.83,219.98"/><path d="M349.81,219.52L349.81,219.54L349.76,219.24L349.66,219.01"/><path d="M350.98,227.36L351.01,227.53"/><path d="M350.96,222.91L351.03,223.09"/><path d="M351.04,214.80L351.12,214.34L351.01,213.45"/><path d="M352.18,208.95L352.10,208.55L352.18,208.95L352.14,209.37L352.02,209.50L351.65,209.70L351.49,209.87L351.39,210.05L351.35,210.30L351.38,210.54L351.35,210.30"/><path d="M352.56,211.04L352.66,211.03L352.13,211.05L351.87,211.01L351.64,210.89L351.47,210.72L351.38,210.54"/><path d="M351.47,210.72L351.43,210.65"/><path d="M352.18,208.97L352.18,209.16"/><path d="M353.76,210.00L353.82,210.29L353.79,210.51L353.70,210.68L353.57,210.81L353.39,210.91L353.19,210.96L352.66,211.03"/><path d="M353.82,210.21L353.78,210.06"/><path d="M353.81,210.14L353.74,209.93"/><path d="M353.57,209.58L353.55,209.71L353.70,209.88"/><path d="M353.14,207.40L353.36,207.89"/><path d="M361.49,234.58L362.38,234.52L362.65,234.56L362.82,234.63L362.96,234.76L363.05,234.92L363.11,235.20L363.08,235.49L363.00,235.63L362.90,235.72L362.60,235.89L361.63,236.11L360.39,236.17L356.12,236.11L355.26,236.01L354.98,235.93L354.79,235.81L354.66,235.65L354.59,235.45L354.57,235.22L354.63,234.94L354.86,234.54L355.00,234.38L357.57,231.93L358.87,230.85L360.32,229.72L358.61,229.67L356.00,229.70L355.02,229.59L354.72,229.45L354.53,229.29L354.44,229.14L354.41,228.91L354.46,228.57L354.66,228.27L354.90,228.11L355.19,228.06L356.50,228.13L358.42,228.17L360.48,228.16L362.44,228.09L362.69,228.14L362.90,228.26L363.12,228.50L363.23,228.74L363.26,228.99L363.21,229.19L363.06,229.43L362.61,229.82L359.55,232.09L356.79,234.61L359.40,234.62L361.49,234.58L360.64,234.61"/><path d="M354.57,235.26L354.61,235.05"/><path d="M355.79,225.72L355.17,225.11L354.69,224.07L354.55,222.99L354.77,221.55L355.49,220.27L356.33,219.53L357.22,219.16L358.06,219.07L359.83,219.37L361.41,220.24L362.53,221.44L362.99,222.55L363.07,223.01L363.09,223.50L362.93,224.90L362.55,225.85L361.99,226.53L361.24,226.98L360.06,227.24L359.59,227.26L357.84,226.99L356.26,226.18L355.79,225.72"/><path d="M354.55,222.99L354.42,218.80"/><path d="M356.10,213.54L357.41,213.30L356.13,213.54L355.59,213.67L355.09,213.85L354.91,213.88L354.75,213.96L354.57,214.16L354.44,214.42L354.40,214.82L354.47,215.08L354.60,215.30L354.84,215.48L355.29,215.71L360.35,217.87L361.28,218.17L362.10,218.50L362.39,218.57L362.62,218.55L362.81,218.46L362.98,218.30L363.09,218.10L363.13,217.83L363.09,217.57L362.98,217.36L362.76,217.15L362.31,216.91L360.81,216.46L356.96,214.90L359.02,214.47L357.43,214.80"/><path d="M354.60,215.30L354.52,215.17"/><path d="M354.45,215.00L354.40,214.82L354.47,215.08"/><path d="M354.57,214.16L354.44,214.42L354.40,214.71"/><path d="M362.16,207.81L362.26,207.78L360.43,208.38L358.59,208.93L355.26,209.68L355.04,209.76L354.83,209.95L354.68,210.25L354.63,210.58L354.67,210.88L354.81,211.15L354.67,210.88"/><path d="M354.81,211.15L354.95,211.31L355.13,211.41L355.35,211.44L355.60,211.40L356.63,211.74L358.59,212.57L359.58,212.91L357.41,213.30L357.84,213.22"/><path d="M355.65,206.75L355.57,206.71L355.29,206.39L355.08,205.99L354.85,205.20L354.77,204.38L354.92,203.28L355.40,202.28L355.95,201.75L356.58,201.47L357.33,201.37L358.54,201.54L359.19,201.88L359.62,202.10L360.24,202.75L360.56,203.49L360.65,204.24L360.58,205.03L360.33,205.79L360.04,206.21L359.70,206.47L359.30,206.58L359.09,206.60L358.73,206.53L358.41,206.34L358.04,205.93L357.71,205.34L358.04,205.93L358.41,206.34"/><path d="M355.57,206.71L355.49,206.62"/><path d="M355.59,206.72L355.80,206.84L356.07,206.90L356.34,206.85L356.45,206.78L356.53,206.68L356.59,206.54L356.62,206.34L356.54,205.96L356.62,206.34"/><path d="M355.79,241.12L360.35,241.14L359.02,241.13"/><path d="M356.10,223.72L355.99,222.99L356.10,223.72L356.43,224.31L357.08,224.93L358.32,225.54L359.61,225.73L360.47,225.63L360.94,225.44L361.21,225.22L361.47,224.76L361.64,223.87L361.65,223.52"/><path d="M355.99,222.99L356.16,221.99L356.55,221.30L356.91,220.96L357.41,220.70L358.04,220.61L359.32,220.81L360.49,221.42L361.12,222.02L361.53,222.74L361.59,223.13"/><path d="M356.23,223.95L356.26,224.00"/><path d="M356.12,204.49L356.17,205.01L356.11,204.38L356.17,205.01L356.55,206.02"/><path d="M356.59,206.54L356.60,206.49"/><path d="M356.54,205.96L356.56,206.07"/><path d="M356.14,204.02L356.14,203.97L356.11,204.38L356.14,203.97L356.14,204.00"/><path d="M356.14,203.97L356.28,203.49L356.25,203.58"/><path d="M357.71,205.34L356.64,202.91L356.31,203.39L356.28,203.49"/><path d="M355.79,195.31L360.67,195.33L362.28,195.59L363.73,196.33L364.87,197.48L365.46,198.65L365.60,198.93L365.85,200.53L365.60,235.99L365.34,237.58L364.59,239.02L363.43,240.16L361.97,240.89L360.35,241.14"/><path d="M357.41,229.69L358.61,229.67"/><path d="M359.02,214.47L360.37,214.24L361.97,214.01L362.52,213.85L362.82,213.67L362.92,213.56L363.02,213.37L363.06,213.12L363.01,212.89L362.87,212.67L362.62,212.45L361.89,212.04L361.06,211.71L358.95,211.03L357.72,210.56L359.95,210.06L362.15,209.45L362.84,209.17L363.04,208.98L363.14,208.79L363.19,208.52L363.15,208.24L363.03,207.99L362.91,207.87L362.76,207.78L362.51,207.74L362.26,207.78"/><path d="M359.07,203.49L358.66,203.12L357.98,202.81L358.50,204.01L358.78,204.60L359.10,205.17L359.26,204.71L359.31,204.23L359.23,203.78L359.07,203.49L359.23,203.78L359.29,204.14"/><path d="M358.24,203.43L358.19,203.29"/><path d="M359.45,229.69L360.32,229.72"/><path d="M360.33,205.79L360.38,205.64"/><path d="M359.29,204.39L359.31,204.23L359.26,204.71"/><path d="M359.31,204.23L359.26,204.68"/><path d="M360.58,205.03L360.62,204.58"/><path d="M360.56,203.49L360.30,202.90"/><path d="M361.65,223.62L361.65,223.50L361.55,222.87"/><path d="M361.12,222.02L361.40,222.52"/><path d="M362.10,216.84L360.81,216.46"/><path d="M362.13,212.17L362.28,212.25"/><path d="M363.09,223.50L363.07,223.18"/><path d="M362.53,221.44L362.58,221.57"/><path d="M363.10,217.65L363.12,217.86"/><path d="M363.04,213.02L363.01,212.89L363.03,212.97"/><path d="M363.17,208.34L363.16,208.26"/><path d="M362.84,209.17L362.94,209.08"/><path d="M366.62,129.82L366.72,114.75"/><path d="M367.11,151.09L367.12,150.20"/></g><g style="stroke:#000000;stroke-width:0.529"><path d="M312.68,54.94L298.25,54.89L297.46,55.01L296.75,55.37L296.18,55.93L295.82,56.64L295.69,57.42L295.33,121.06L295.52,122.06L295.31,160.59L295.22,160.61L295.11,160.70L294.75,224.10L297.95,243.89L298.32,244.61L298.89,245.19L299.62,245.56L300.42,245.69L366.94,245.91L367.75,245.78L368.48,245.42L369.06,244.85L369.43,244.13L369.56,243.33L370.75,72.36L370.63,71.55L365.69,56.88L365.33,56.18L364.77,55.61L364.07,55.25L363.28,55.12L314.12,54.95"/></g></g><g id="PMI518192-Term Stop.0"><g><path style="stroke:#000000;stroke-width:0.250" d="M190.68,157.04L194.56,157.04L211.06,175.21"/></g><g><path style="fill:#000000" d="M212.06,175.21L212.06,175.11L212.04,175.01L212.02,174.92L211.99,174.83L211.94,174.74L211.89,174.65L211.83,174.57L211.77,174.50L211.70,174.44L211.62,174.38L211.53,174.33L211.44,174.29L211.35,174.25L211.26,174.23L211.16,174.21L211.06,174.21L210.96,174.21L210.87,174.23L210.77,174.25L210.68,174.29L210.59,174.33L210.51,174.38L210.43,174.44L210.35,174.50L210.29,174.57L210.23,174.65L210.18,174.74L210.14,174.83L210.10,174.92L210.08,175.01L210.07,175.11L210.06,175.21L210.07,175.31L210.08,175.40L210.10,175.50L210.14,175.59L210.18,175.68L210.23,175.76L210.29,175.84L210.35,175.92L210.43,175.98L210.51,176.04L210.59,176.09L210.68,176.13L210.77,176.17L210.87,176.19L210.96,176.20L211.06,176.21L211.16,176.20L211.26,176.19L211.35,176.17L211.44,176.13L211.53,176.09L211.62,176.04L211.70,175.98L211.77,175.92L211.83,175.84L211.89,175.76L211.94,175.68L211.99,175.59L212.02,175.50L212.04,175.40L212.06,175.31z"/></g><g><path style="fill:#ffffa0" d="M158.36,160.14L191.45,160.14L191.45,153.93L158.36,153.93z"/><path style="stroke:#000000;stroke-width:0.250;stroke-opacity:0.98" d="M158.36,160.14L191.45,160.14L191.45,153.93L158.36,153.93z"/><text xml:space="preserve" fill="#000000" stroke-width="0" x="159.14" y="158.39" font-size="3.79" opacity="1.00" font-family="MS Shell Dlg">518192-Term Stop</text></g></g><g id="PMI504229-Ground Bar.0"><g><path style="stroke:#000000;stroke-width:0.250" d="M76.20,56.08L72.32,56.08L54.67,37.82"/></g><g><path style="fill:#000000" d="M55.68,37.82L55.67,37.72L55.66,37.62L55.63,37.53L55.60,37.44L55.56,37.35L55.51,37.26L55.45,37.19L55.38,37.11L55.31,37.05L55.23,36.99L55.15,36.94L55.06,36.90L54.97,36.86L54.87,36.84L54.77,36.82L54.68,36.82L54.58,36.82L54.48,36.84L54.39,36.86L54.29,36.90L54.21,36.94L54.12,36.99L54.04,37.05L53.97,37.11L53.90,37.19L53.85,37.26L53.79,37.35L53.75,37.44L53.72,37.53L53.70,37.62L53.68,37.72L53.68,37.82L53.68,37.92L53.70,38.01L53.72,38.11L53.75,38.20L53.79,38.29L53.85,38.38L53.90,38.45L53.97,38.53L54.04,38.59L54.12,38.65L54.21,38.70L54.29,38.74L54.39,38.78L54.48,38.80L54.58,38.81L54.68,38.82L54.77,38.81L54.87,38.80L54.97,38.78L55.06,38.74L55.15,38.70L55.23,38.65L55.31,38.59L55.38,38.53L55.45,38.45L55.51,38.38L55.56,38.29L55.60,38.20L55.63,38.11L55.66,38.01L55.67,37.92z"/></g><g><path style="fill:#ffffa0" d="M75.42,59.19L110.44,59.19L110.44,52.98L75.42,52.98z"/><path style="stroke:#000000;stroke-width:0.250;stroke-opacity:0.98" d="M75.42,59.19L110.44,59.19L110.44,52.98L75.42,52.98z"/><text xml:space="preserve" fill="#000000" stroke-width="0" x="76.20" y="57.44" font-size="3.79" opacity="1.00" font-family="MS Shell Dlg">504229-Ground Bar</text></g></g><g id="PMI513018-EWON.0"><g><path style="stroke:#000000;stroke-width:0.250" d="M297.30,36.37L301.18,36.37L331.46,82.39"/></g><g><path style="fill:#000000" d="M332.45,82.40L332.45,82.30L332.44,82.20L332.41,82.11L332.38,82.01L332.34,81.92L332.29,81.84L332.23,81.76L332.16,81.69L332.09,81.62L332.01,81.56L331.93,81.51L331.84,81.47L331.75,81.44L331.65,81.42L331.55,81.40L331.45,81.40L331.36,81.40L331.26,81.42L331.16,81.44L331.07,81.47L330.98,81.51L330.90,81.56L330.82,81.62L330.75,81.69L330.68,81.76L330.62,81.84L330.57,81.92L330.53,82.01L330.50,82.11L330.47,82.20L330.46,82.30L330.45,82.40L330.46,82.49L330.47,82.59L330.50,82.69L330.53,82.78L330.57,82.87L330.62,82.95L330.68,83.03L330.75,83.10L330.82,83.17L330.90,83.23L330.98,83.28L331.07,83.32L331.16,83.35L331.26,83.38L331.36,83.39L331.45,83.40L331.55,83.39L331.65,83.38L331.75,83.35L331.84,83.32L331.93,83.28L332.01,83.23L332.09,83.17L332.16,83.10L332.23,83.03L332.29,82.95L332.34,82.87L332.38,82.78L332.41,82.69L332.44,82.59L332.45,82.49z"/></g><g><path style="fill:#ffffa0" d="M270.87,39.48L298.08,39.48L298.08,33.27L270.87,33.27z"/><path style="stroke:#000000;stroke-width:0.250;stroke-opacity:0.98" d="M270.87,39.48L298.08,39.48L298.08,33.27L270.87,33.27z"/><text xml:space="preserve" fill="#000000" stroke-width="0" x="271.64" y="37.73" font-size="3.79" opacity="1.00" font-family="MS Shell Dlg">513018-EWON</text></g></g><g id="PMI509660-Signal Conditioner.0"><g><path style="stroke:#000000;stroke-width:0.250" d="M206.84,80.89L210.72,80.89L233.67,100.77"/></g><g><path style="fill:#000000" d="M234.67,100.77L234.66,100.67L234.65,100.57L234.62,100.48L234.59,100.39L234.55,100.30L234.50,100.21L234.44,100.13L234.37,100.06L234.30,100.00L234.22,99.94L234.14,99.89L234.05,99.85L233.96,99.81L233.86,99.79L233.76,99.77L233.67,99.77L233.57,99.77L233.47,99.79L233.38,99.81L233.28,99.85L233.19,99.89L233.11,99.94L233.03,100.00L232.96,100.06L232.89,100.13L232.83,100.21L232.78,100.30L232.74,100.39L232.71,100.48L232.68,100.57L232.67,100.67L232.67,100.77L232.67,100.87L232.68,100.96L232.71,101.06L232.74,101.15L232.78,101.24L232.83,101.32L232.89,101.40L232.96,101.48L233.03,101.54L233.11,101.60L233.19,101.65L233.28,101.69L233.38,101.73L233.47,101.75L233.57,101.76L233.67,101.77L233.76,101.76L233.86,101.75L233.96,101.73L234.05,101.69L234.14,101.65L234.22,101.60L234.30,101.54L234.37,101.48L234.44,101.40L234.50,101.32L234.55,101.24L234.59,101.15L234.62,101.06L234.65,100.96L234.66,100.87z"/></g><g><path style="fill:#ffffa0" d="M161.08,84.00L207.62,84.00L207.62,77.79L161.08,77.79z"/><path style="stroke:#000000;stroke-width:0.250;stroke-opacity:0.98" d="M161.08,84.00L207.62,84.00L207.62,77.79L161.08,77.79z"/><text xml:space="preserve" fill="#000000" stroke-width="0" x="161.86" y="82.26" font-size="3.79" opacity="1.00" font-family="MS Shell Dlg">509660-Signal Conditioner</text></g></g><g/><g><g/><g><image x="0.000000" y="0.000000" height="25.000000" width="25.000000" xlink:href="ElecGCOM_DIN_files/90f39753739511e2_image_0.jpg" mask="url(#mask0)"/></g></g><g><g/><g><image x="0.339903" y="253.660110" height="25.000000" width="25.000000" xlink:href="ElecGCOM_DIN_files/90f39753739511e2_image_1.jpg" mask="url(#mask1)"/></g></g><g><g/><g><image x="407.000031" y="254.000015" height="25.000000" width="25.000000" xlink:href="ElecGCOM_DIN_files/90f39753739511e2_image_2.jpg" mask="url(#mask2)"/></g></g><g><g/><g><image x="407.000031" y="0.000000" height="25.000000" width="25.000000" xlink:href="ElecGCOM_DIN_files/90f39753739511e2_image_3.jpg" mask="url(#mask3)"/></g></g><g/><g id="paperID" visibility="hidden" opacity="0.00" transform="scale(0.000100)"><path style="stroke:#000000;stroke-width:0.500;fill:#e6e6e6;fill-rule:evenodd" d="M-2000.00,-2000.00L2431.80,-2000.00L2431.80,2279.40L-2000.00,2279.40zM0.00,0.00L431.80,0.00L431.80,279.40L0.00,279.40z"/><path style="fill:#000000;fill-opacity:0.118" d="M3.00,279.40L431.80,279.40L431.80,3.00L434.80,3.00L434.80,282.40L3.00,282.40z"/></g><g><g><path style="stroke:#000000;stroke-width:0.353;fill:#f0f0ff" d="M31.23,160.52L134.58,160.52L134.58,166.94L31.23,166.94z"/><text xml:space="preserve" fill="#000000" stroke-width="0" x="33.70" y="165.46" font-size="4.62" opacity="1.00" font-family="MS Shell Dlg" font-weight="bold">Description</text><text xml:space="preserve" fill="#000000" stroke-width="0" x="62.59" y="165.46" font-size="4.63" opacity="1.00" font-family="MS Shell Dlg" font-weight="bold">BOM ID</text><text xml:space="preserve" fill="#000000" stroke-width="0" x="124.79" y="165.46" font-size="4.58" opacity="1.00" font-family="MS Shell Dlg" font-weight="bold">Qty</text><path style="stroke:#000000;stroke-width:0.353" d="M60.12,160.52L60.12,166.94"/><path style="stroke:#000000;stroke-width:0.353" d="M122.32,160.52L122.32,166.94"/></g><g id="Line504229-Ground Bar"><path style="stroke:#000000;stroke-width:0.353;fill:#ffffff" d="M31.23,166.94L134.58,166.94L134.58,173.36L31.23,173.36z"/><text xml:space="preserve" fill="#000000" stroke-width="0" x="33.70" y="171.88" font-size="4.79" opacity="1.00" font-family="MS Shell Dlg">504229</text><text xml:space="preserve" fill="#000000" stroke-width="0" x="62.59" y="171.88" font-size="4.83" opacity="1.00" font-family="MS Shell Dlg">504229-Ground Bar</text><text xml:space="preserve" fill="#000000" stroke-width="0" x="124.79" y="171.88" font-size="3.88" opacity="1.00" font-family="MS Shell Dlg">1</text><path style="stroke:#000000;stroke-width:0.353" d="M60.12,166.94L60.12,173.36"/><path style="stroke:#000000;stroke-width:0.353" d="M122.32,166.94L122.32,173.36"/></g><g id="Line509660-Signal Conditioner"><path style="stroke:#000000;stroke-width:0.353;fill:#f0f0ff" d="M31.23,173.36L134.58,173.36L134.58,179.78L31.23,179.78z"/><text xml:space="preserve" fill="#000000" stroke-width="0" x="33.70" y="178.30" font-size="4.79" opacity="1.00" font-family="MS Shell Dlg">509660</text><text xml:space="preserve" fill="#000000" stroke-width="0" x="62.59" y="178.30" font-size="4.82" opacity="1.00" font-family="MS Shell Dlg">509660-Signal Conditioner</text><text xml:space="preserve" fill="#000000" stroke-width="0" x="124.79" y="178.30" font-size="3.88" opacity="1.00" font-family="MS Shell Dlg">1</text><path style="stroke:#000000;stroke-width:0.353" d="M60.12,173.36L60.12,179.78"/><path style="stroke:#000000;stroke-width:0.353" d="M122.32,173.36L122.32,179.78"/></g><g id="Line513018-EWON"><path style="stroke:#000000;stroke-width:0.353;fill:#ffffff" d="M31.23,179.78L134.58,179.78L134.58,186.20L31.23,186.20z"/><text xml:space="preserve" fill="#000000" stroke-width="0" x="33.70" y="184.72" font-size="4.79" opacity="1.00" font-family="MS Shell Dlg">513018</text><text xml:space="preserve" fill="#000000" stroke-width="0" x="62.59" y="184.72" font-size="4.82" opacity="1.00" font-family="MS Shell Dlg">513018-EWON</text><text xml:space="preserve" fill="#000000" stroke-width="0" x="124.79" y="184.72" font-size="3.88" opacity="1.00" font-family="MS Shell Dlg">1</text><path style="stroke:#000000;stroke-width:0.353" d="M60.12,179.78L60.12,186.20"/><path style="stroke:#000000;stroke-width:0.353" d="M122.32,179.78L122.32,186.20"/></g><g id="Line518192-Term Stop"><path style="stroke:#000000;stroke-width:0.353;fill:#f0f0ff" d="M31.23,186.20L134.58,186.20L134.58,192.62L31.23,192.62z"/><text xml:space="preserve" fill="#000000" stroke-width="0" x="33.70" y="191.14" font-size="4.79" opacity="1.00" font-family="MS Shell Dlg">518192</text><text xml:space="preserve" fill="#000000" stroke-width="0" x="62.59" y="191.14" font-size="4.83" opacity="1.00" font-family="MS Shell Dlg">518192-Term Stop</text><text xml:space="preserve" fill="#000000" stroke-width="0" x="124.79" y="191.14" font-size="4.58" opacity="1.00" font-family="MS Shell Dlg">2</text><path style="stroke:#000000;stroke-width:0.353" d="M60.12,186.20L60.12,192.62"/><path style="stroke:#000000;stroke-width:0.353" d="M122.32,186.20L122.32,192.62"/></g></g><g id="hotspot.0" onmouseover="ShowHotSpot(evt,'0')" onmouseout="HideHotSpot(evt,'0')" onmousemove="ShowToolTip(evt,'0',&quot;Back&quot;)" opacity="0"><a xlink:href="javascript:history.go(-1)"><path style="fill:#00ff00;fill-rule:evenodd" d="M25.39,278.62L0.44,278.62L0.44,253.67L25.39,253.67z"/></a></g><g id="hotspot.1" onmouseover="ShowHotSpot(evt,'1')" onmouseout="HideHotSpot(evt,'1')" onmousemove="ShowToolTip(evt,'1',&quot;Home&quot;)" opacity="0"><a xlink:href="./Saw-Overview.svg"><path style="fill:#00ff00;fill-rule:evenodd" d="M25.05,25.05L0.44,25.05L0.44,0.44L25.05,0.44z"/></a></g><g id="hotspot.2" onmouseover="ShowHotSpot(evt,'2')" onmouseout="HideHotSpot(evt,'2')" onmousemove="ShowToolTip(evt,'2',&quot;Order&quot;)" opacity="0"><a xlink:href="./website.svg"><path style="fill:#00ff00;fill-rule:evenodd" d="M431.24,25.05L407.30,25.05L407.30,0.44L431.24,0.44z"/></a></g><g id="hotspot.3" onmouseover="ShowHotSpot(evt,'3')" onmouseout="HideHotSpot(evt,'3')" onmousemove="ShowToolTip(evt,'3',&quot;Forward&quot;)" opacity="0"><a xlink:href="javascript:history.go(1)"><path style="fill:#00ff00;fill-rule:evenodd" d="M431.24,278.96L407.30,278.96L407.30,254.01L431.24,254.01z"/></a></g><g id="hotspot.4" onmouseover="ShowHotSpot(evt,'4')" onmouseout="HideHotSpot(evt,'4')" onmousemove="ShowToolTip(evt,'4',&quot;504229-body-1&quot;)" opacity="0"><path style="fill:#00ff00;fill-rule:evenodd" d="M31.23,166.94L31.23,173.36L134.58,173.36L134.58,166.94zM120.23,27.63L120.23,40.35L57.88,40.58L40.33,40.22L2.48,40.01L2.59,28.42L3.13,27.26zM72.48,56.20L75.36,55.98L75.56,53.13L110.71,53.13L110.60,59.27L75.56,59.38L75.36,56.52zM24.04,32.04L25.05,33.41L25.07,34.93L23.89,35.78L21.27,35.83L19.97,34.76L19.58,34.13L19.61,32.52L20.51,31.73L22.31,31.36zM10.42,31.72L11.49,32.70L12.16,34.56L10.68,35.83L8.36,35.83L6.69,34.44L6.69,32.18L8.26,31.36L9.40,31.37zM115.11,32.07L116.49,33.40L116.49,34.92L115.03,36.17L112.72,36.16L111.35,35.15L111.05,34.77L111.01,33.17L111.58,32.39L113.32,31.70zM102.20,32.07L103.59,33.77L103.59,34.55L103.23,35.25L101.76,36.16L99.80,36.16L98.13,35.12L97.63,33.42L99.03,32.06L100.05,31.71L101.17,31.71zM89.32,32.36L90.33,33.40L90.32,34.92L89.84,35.45L88.51,36.17L86.88,36.16L85.22,35.10L84.84,34.47L84.87,32.86L85.77,32.07L86.78,31.72L88.28,31.71zM76.03,32.06L77.41,33.75L77.27,35.13L75.23,36.19L74.34,36.17L72.97,35.80L71.95,34.78L71.95,32.52L73.51,31.71L75.36,31.71zM63.50,32.35L64.47,34.43L64.01,35.10L61.98,36.18L60.05,35.80L58.66,34.12L58.69,32.87L60.26,31.71L62.45,31.71zM50.50,32.43L51.22,33.41L51.23,34.92L50.10,35.83L47.11,35.83L46.13,35.10L45.75,34.47L45.77,32.51L47.00,31.71L49.19,31.71zM37.67,32.69L38.33,34.56L36.85,35.83L34.19,35.83L33.21,35.11L32.36,33.07L33.55,31.85L36.27,31.71z"/></g><g id="hotspot.5" onmouseover="ShowHotSpot(evt,'5')" onmouseout="HideHotSpot(evt,'5')" onmousemove="ShowToolTip(evt,'5',&quot;509660-body-1&quot;)" opacity="0"><path style="fill:#00ff00;fill-rule:evenodd" d="M31.23,173.36L31.23,179.78L134.58,179.78L134.58,173.36zM255.83,56.20L256.20,56.85L258.21,71.16L258.21,149.44L257.87,218.44L257.21,245.31L220.02,245.31L219.80,243.82L218.78,226.15L218.78,205.86L219.46,137.44L219.46,115.68L219.06,88.15L218.71,87.83L219.06,87.58L219.34,55.84L242.91,55.86zM208.12,80.80L210.99,81.01L208.12,81.34L207.81,84.09L161.21,84.20L161.21,77.94L207.92,77.94z"/></g><g id="hotspot.6" onmouseover="ShowHotSpot(evt,'6')" onmouseout="HideHotSpot(evt,'6')" onmousemove="ShowToolTip(evt,'6',&quot;513018-body-1&quot;)" opacity="0"><path style="fill:#00ff00;fill-rule:evenodd" d="M31.23,179.78L31.23,186.20L134.58,186.20L134.58,179.78zM298.54,36.27L301.41,36.49L298.54,36.81L298.23,39.56L271.00,39.67L271.00,33.41L298.33,33.41zM363.94,55.16L365.63,56.53L370.73,71.49L369.70,243.25L369.37,244.63L368.25,245.55L299.65,245.55L298.33,244.50L296.96,237.03L294.90,223.56L295.49,137.44L295.81,56.86L297.18,55.17L298.69,54.87z"/></g><g id="hotspot.7" onmouseover="ShowHotSpot(evt,'7')" onmouseout="HideHotSpot(evt,'7')" onmousemove="ShowToolTip(evt,'7',&quot;518192-body-2&quot;)" opacity="0"><path style="fill:#00ff00;fill-rule:evenodd" d="M31.23,186.20L31.23,192.62L134.58,192.62L134.58,186.20zM210.20,112.70L213.99,112.70L214.28,112.31L219.14,112.27L219.45,118.73L219.13,183.44L218.78,184.45L206.21,184.34L204.38,184.13L204.72,112.27L209.92,112.31zM270.27,112.80L270.79,116.02L270.79,176.97L270.45,182.41L269.77,184.45L258.09,184.47L258.43,112.61L260.90,112.65L261.19,113.04L264.98,113.04L265.27,112.65L270.11,112.62zM191.81,156.93L195.02,157.15L191.81,157.48L191.60,160.33L158.50,160.33L158.50,154.08L191.60,154.08z"/></g><g id="ToolTip" visibility="hidden" opacity="0" transform="translate(0,0)"><rect id="ToolTipShadow" opacity="0.20" fill="black" stroke="none" x="0" y="0" width="30" height="8"/><rect id="ToolTipBG" fill="#ffffe1" stroke="black" x="0" y="0" width="30" height="8"/><text xml:space="preserve" id="ToolTipText" fill="black" x="0" y="0" width="30" height="8">tooltip</text></g></g></svg>
