<?xml version="1.0" encoding="UTF-8" standalone="no"?>
<svg xmlns="http://www.w3.org/2000/svg" xmlns:xlink="http://www.w3.org/1999/xlink" width="431.800mm" height="279.400mm" viewBox="0.000000 0.000000 431.799988 279.399994" stroke-linejoin="round" stroke-linecap="round" fill="none" fill-rule="evenodd"><desc>Composer Export</desc><script type="text/ecmascript"><![CDATA[
if(typeof(top) != "undefined")
{
	top.ShowPaper = ShowPaper;
}
function ShowHotSpot(evt,hotspotid)
{
	var svgDocument = evt.target.ownerDocument;
	var strId = "hotspot."+hotspotid;
	var hotspot = svgDocument.getElementById(strId);
	if(hotspot)
		hotspot.setAttribute("opacity",".5");
}
function HideHotSpot(evt,hotspotid)
{
	var svgDocument = evt.target.ownerDocument;
	var strId = "hotspot."+hotspotid;
	var hotspot = svgDocument.getElementById(strId);
	if(hotspot)
		hotspot.setAttribute("opacity","0");

	var toolTip = svgDocument.getElementById('ToolTip');
	if(toolTip)
		toolTip.setAttribute("visibility","hidden");
}
function ShowToolTip(evt,hotspotid,strTooltip)
{
	if(strTooltip=="")
	return;

	// change text
	var svgDocument = evt.target.ownerDocument;
	var tiptext = svgDocument.getElementById('ToolTipText');
	if( !tiptext )
	return;
	tiptext.firstChild.nodeValue = " " + strTooltip + "  " ;

	// show tooltip before, else some refresh issue

	var toolTip = svgDocument.getElementById('ToolTip');
	if(!toolTip)
	return;

	toolTip.setAttribute("visibility","visible");
	toolTip.setAttribute("opacity",".95");

	// move tooltip
	// get viewbox

	var root = svgDocument.documentElement;
	var vbox = (root.getAttribute("viewBox")).split(' ');
	var x0 = parseFloat(vbox[0]);
	var y0 = parseFloat(vbox[1]);
	var vboxW = parseFloat(vbox[2]);
	var vboxH = parseFloat(vbox[3]);

	// get default width of svg

	var strW = root.getAttribute("width");
	var svgW = parseFloat(strW);
	if(strW.indexOf('mm') != -1)
	svgW *= 3.779;

	var strH = root.getAttribute("height");
	var svgH = parseFloat(strH);
	if(strH.indexOf('mm') != -1)
	svgH *= 3.779;  	// 96 dpi  -> 96/25.4 = 3.779

	// update the viewbox / width / height if svg is embedded in html with zoom fit all
	var realx0 = x0;
	var realy0 = y0;
	var realvboxW = vboxW;
	var realvboxH = vboxH;
	var realsvgW = svgW;
	var realsvgH = svgH;

	if ((typeof(top) == "undefined") || (typeof(top.svgctl1) != "undefined")) // embedded in html
	{
		// get window size in pxl

		svgW = window.innerWidth;
		svgH = window.innerHeight;

		// calculate real viewbox

		realsvgW = svgW;
		realsvgH = svgH;
		if((svgW / svgH) > (vboxW / vboxH))
		{
			realvboxW = (vboxH * svgW) / svgH;
			realvboxH = vboxH;
			realx0 = x0 - (realvboxW - vboxW)/2 ;
		}
		else
		{
			realvboxH = (vboxW * svgH) / svgW;
			realvboxW = vboxW;
			realy0 = y0 - (realvboxH - vboxH)/2 ;
		}
	}

	// get user zoom/pan

	var newScale = root.currentScale;
	var translation = root.currentTranslate;

	// transform pxl to user unit

	var xPos = (((evt.clientX+10- translation.x)/newScale) * realvboxW)/realsvgW  + realx0 ;
	var yPos = (((evt.clientY+5- translation.y)/newScale) * realvboxH)/ realsvgH  + realy0 ;
	var scaleForWidth = ( (1 / newScale) * realvboxH) / realsvgH;

	// move tooltip

	toolTip.setAttribute("transform", "translate(" + xPos + "," + yPos + ")" );

	// resize tooltip

	var fontsize = 12;
	tiptext.setAttribute("font-size",fontsize*scaleForWidth);
	tiptext.setAttribute("y", fontsize*scaleForWidth);
	var tipBG = svgDocument.getElementById('ToolTipBG');
	var outline = tiptext.getBBox();
	if(tipBG)
	{
		tipBG.setAttribute("stroke-width", 1*scaleForWidth);
		tipBG.setAttribute("width", Number(outline.width) );
		tipBG.setAttribute("height", Number(outline.height) + fontsize*.5*scaleForWidth );
	}
	var ToolTipShadow = svgDocument.getElementById('ToolTipShadow');
	if(ToolTipShadow)
	{
		ToolTipShadow.setAttribute("width", Number(outline.width) );
		ToolTipShadow.setAttribute("height", Number(outline.height) + fontsize*.5*scaleForWidth );
		ToolTipShadow.setAttribute("x", 3*scaleForWidth);
		ToolTipShadow.setAttribute("y", 3*scaleForWidth);
	}
}
function ShowPaper()
{
  var svgDocument = getDocument();
  var paper = svgDocument.getElementById("paperID");
  if(paper)
  {
    paper.setAttribute("transform","scale(1)");
    paper.setAttribute("opacity","1");
    paper.setAttribute("visibility","visible");
  }
  var svg = svgDocument.getRootElement();
  if(svg)
  {
    svg.setAttribute("width","441.800mm");
    svg.setAttribute("height","289.400mm");
    svg.setAttribute("viewBox","-5.000000 -5.000000 441.799988 289.399994");
  }
}
]]></script><defs><mask id="mask0" x="0" y="0" height="100%" width="100%"><image x="0.000000" y="254.000015" height="25.000000" width="25.000000" xlink:href="Top-Clamp-Pneumatic_files/983751c8c3e469c5_mask_0.jpg"/></mask><mask id="mask1" x="0" y="0" height="100%" width="100%"><image x="0.629476" y="0.656952" height="25.000000" width="25.000000" xlink:href="Top-Clamp-Pneumatic_files/983751c8c3e469c5_mask_1.jpg"/></mask><mask id="mask2" x="0" y="0" height="100%" width="100%"><image x="407.000000" y="254.000015" height="25.000000" width="25.000000" xlink:href="Top-Clamp-Pneumatic_files/983751c8c3e469c5_mask_2.jpg"/></mask><mask id="mask3" x="0" y="0" height="100%" width="100%"><image x="407.000000" y="0.000000" height="25.000000" width="25.000000" xlink:href="Top-Clamp-Pneumatic_files/983751c8c3e469c5_mask_3.jpg"/></mask><mask id="mask4" x="0" y="0" height="100%" width="100%"><image x="187.289795" y="96.522736" height="15.000000" width="15.000000" xlink:href="Top-Clamp-Pneumatic_files/983751c8c3e469c5_mask_4.jpg"/></mask></defs><g><path style="fill:#ffffff" d="M431.81,279.31L0.08,279.31L0.08,0.08L431.81,0.08z"/><path style="fill:#c0c0c0" d="M199.80,193.27L220.42,192.94L221.34,195.62L221.95,197.75L222.07,230.15L222.07,230.92L221.99,250.20L187.36,250.03L179.00,250.31L178.79,250.60L168.83,250.79L72.39,251.78L71.70,252.40L71.48,251.55L50.83,252.06L50.68,252.74L49.39,248.77L49.14,246.99L48.97,232.74L50.44,232.62L50.46,231.94L50.42,201.05L49.40,197.78L49.00,197.60L49.12,195.28L49.32,194.72L69.70,194.80L69.86,193.95L135.59,193.19L158.27,193.18L159.77,193.71L165.03,193.70L166.03,193.44L166.30,192.94L199.39,192.66z"/><path style="fill:#404040" d="M221.34,195.62L229.62,195.67L229.59,196.07L225.18,196.21L226.18,199.11L244.04,199.10L243.96,198.49L246.59,198.34L246.32,196.98L246.09,196.71L243.46,196.55L243.24,196.26L241.88,196.08L241.85,195.66L243.44,195.48L249.35,195.48L250.37,198.77L250.51,212.39L250.51,219.49L250.51,221.77L250.51,224.32L250.42,229.91L222.07,230.15L221.95,197.75z"/><path style="fill:#404040" d="M41.67,198.10L41.64,197.70L49.00,197.60L49.40,197.78L50.42,201.05L50.46,231.94L21.89,232.28L21.81,232.88L20.71,229.75L20.56,226.93L21.23,224.23L21.26,221.77L21.24,216.01L20.50,214.92L20.63,198.00L29.15,197.69L29.12,198.36L27.01,198.51L27.04,198.75L24.42,199.03L24.95,200.63L27.60,200.78L28.01,201.40L45.85,201.07L45.10,198.50L44.86,198.24z"/><path style="fill:#808080" d="M230.36,186.06L230.36,186.46L229.99,186.60L229.98,187.45L230.61,187.53L230.69,195.67L230.72,196.07L236.19,196.07L236.22,195.67L236.33,188.09L237.21,188.19L237.33,187.09L240.22,187.10L240.40,187.93L240.97,188.13L241.16,189.97L241.73,190.16L241.85,195.66L241.88,196.08L243.24,196.26L243.46,196.55L246.09,196.71L246.32,196.98L246.59,198.34L243.96,198.49L244.04,199.10L226.18,199.11L225.18,196.21L229.59,196.07L229.62,195.67L229.74,185.80L230.07,185.77z"/><path style="fill:#808080" d="M41.12,187.72L41.29,188.52L40.95,188.62L40.94,189.47L41.54,189.58L41.64,197.70L41.67,198.10L44.86,198.24L45.10,198.50L45.85,201.07L28.01,201.40L27.60,200.78L24.95,200.63L24.42,199.03L27.04,198.75L27.01,198.51L29.12,198.36L29.15,197.69L29.26,190.39L30.12,190.24L30.27,189.12L33.19,189.10L33.60,189.96L34.20,190.37L34.36,191.98L34.66,192.20L34.79,197.70L34.82,198.10L40.29,198.10L40.32,197.70L40.49,188.18L40.72,187.59z"/><path style="fill:#c8cfee" d="M117.41,79.25L120.45,80.52L122.51,82.52L124.01,85.09L124.51,87.63L124.74,102.87L127.54,112.00L127.86,113.42L127.53,113.82L126.22,114.29L121.62,115.02L121.55,116.42L117.98,116.54L68.02,117.04L63.35,116.81L60.29,116.32L58.80,115.53L58.54,115.28L55.47,105.41L55.23,102.86L55.23,88.73L55.72,85.66L57.41,83.04L59.54,81.11L61.48,80.00L64.29,79.51L72.27,79.42L72.27,87.29L62.50,87.37L61.23,87.88L60.03,89.22L59.78,90.92L60.33,92.43L61.82,93.48L70.81,93.70L70.71,94.56L70.50,108.10L69.86,108.16L68.08,109.68L68.78,110.42L69.42,111.25L72.98,112.51L79.09,113.51L84.92,114.02L98.29,114.02L100.49,113.88L106.74,113.34L113.02,112.00L115.65,110.58L115.68,94.90L115.41,94.19L114.69,93.17L117.59,92.97L118.95,92.05L119.69,91.27L119.94,90.51L119.95,88.88L118.71,87.34L117.66,86.86L113.99,86.78L113.98,78.92z"/><path style="fill:#404040" d="M234.31,196.76L234.98,196.84L236.91,196.98L236.94,197.14L236.61,197.23L236.51,198.15L233.85,198.03L233.29,197.84L233.36,196.56L234.72,196.45z"/><path style="fill:#404040" d="M36.29,200.16L34.83,200.13L34.83,199.28L36.28,199.20z"/><path style="fill:#808080" d="M102.94,58.45L107.77,59.46L108.78,59.97L110.88,61.21L111.09,62.59L109.54,64.62L108.04,65.91L105.47,67.67L100.07,70.38L100.06,98.13L105.73,97.61L109.98,96.78L113.09,95.58L113.87,94.83L113.98,93.12L114.69,93.17L115.41,94.19L115.68,94.90L114.65,95.87L111.25,97.04L107.00,97.86L100.56,98.53L100.49,113.88L98.29,114.02L84.92,114.02L79.09,113.51L72.98,112.51L69.42,111.25L68.78,110.42L69.20,110.05L69.59,109.18L70.47,108.78L70.50,108.10L70.71,94.56L70.81,93.70L72.23,93.04L72.27,87.29L72.27,79.42L72.48,65.38L73.00,63.86L73.91,62.49L76.54,60.30L80.26,58.95L85.09,58.20L88.65,57.94L97.35,57.94z"/><path style="fill:#808080" d="M118.07,117.15L119.21,117.28L119.46,117.55L120.45,120.87L120.70,124.17L120.74,146.68L118.07,146.74L118.05,149.21L117.92,160.80L114.95,160.93L108.42,160.95L105.22,163.08L105.06,168.70L99.21,168.69L99.16,164.78L94.47,164.76L94.37,169.45L91.26,169.09L82.88,168.84L80.11,168.06L74.94,167.65L74.50,166.57L71.39,165.61L71.20,161.49L70.69,160.99L68.16,152.86L68.00,149.77L69.95,149.63L70.30,147.42L70.21,147.25L67.07,147.25L66.93,149.47L65.88,146.26L65.64,143.96L65.64,118.93L65.80,117.82L67.93,117.65L68.02,117.04L117.98,116.54z"/><path style="fill:#c0c0c0" d="M21.24,216.01L21.26,221.77L20.98,223.48L20.13,223.64L19.78,226.80L19.62,226.77L19.29,224.14L19.72,223.97L19.74,221.11L17.34,221.87L17.20,223.22L16.42,222.85L16.16,223.56L16.04,219.00L16.15,217.55L16.05,217.46L16.08,216.04L16.84,215.50L19.36,215.51L19.63,215.02L20.50,214.92z"/><path style="fill:#acacac" d="M207.65,195.46L210.56,194.98L210.56,195.27L208.41,195.75L207.71,195.72z"/><path style="fill:#acacac" d="M129.38,196.43L129.23,195.75L130.51,195.22L131.79,194.97L133.91,194.96L133.91,197.09L131.61,197.00z"/><path style="fill:#acacac" d="M104.95,196.08L106.15,195.47L109.82,194.98L109.82,197.58L105.97,197.01L104.95,196.47z"/><path style="fill:#acacac" d="M62.94,196.64L61.00,197.26L59.93,197.23L60.18,196.99L62.88,196.50z"/><path style="fill:#acacac" d="M82.56,199.03L84.08,198.52L84.93,198.50L84.85,209.19L82.88,209.53z"/><path style="fill:#acacac" d="M124.02,210.27L123.79,210.22L123.23,209.19L123.17,208.13L123.46,208.13z"/><path style="fill:#acacac" d="M98.15,210.52L97.62,209.92L97.60,208.15z"/><path style="fill:#acacac" d="M84.29,210.00L84.29,209.71L85.71,209.70L85.74,210.24z"/><path style="fill:#acacac" d="M254.98,216.94L254.93,221.43L254.32,221.86L251.88,221.60L251.65,224.25L250.71,224.27L250.61,221.87L250.51,221.77L250.51,219.49L250.79,220.95L251.65,220.95L251.80,219.83L254.19,219.42L254.35,216.77z"/><path style="fill:#acacac" d="M16.04,219.00L16.05,217.46L16.15,217.55z"/><path style="fill:#acacac" d="M17.20,223.22L17.34,221.87L19.74,221.11L19.72,223.97L19.29,224.14L16.63,224.18L16.16,223.56L16.42,222.85z"/><path style="fill:#acacac" d="M21.23,224.23L20.56,226.93L19.78,226.80L20.13,223.64L20.98,223.48L21.26,221.77z"/><path style="fill:#acacac" d="M112.10,245.54L111.58,245.21L111.30,244.47L111.24,243.40L111.53,243.41z"/><path style="fill:#acacac" d="M221.99,250.20L221.96,251.14L201.32,251.06L201.13,251.63L195.05,251.89L108.69,252.82L87.99,252.80L87.06,252.42L86.00,252.42L85.33,252.57L84.61,253.10L71.65,253.15L71.25,252.54L50.82,252.92L50.68,252.74L50.83,252.06L71.48,251.55L71.70,252.40L72.39,251.78L168.83,250.79L178.79,250.60L179.00,250.31L187.36,250.03z"/><path style="fill:#b3bad6" d="M68.08,109.68L69.86,108.16L70.50,108.10L70.47,108.78L69.59,109.18L69.20,110.05L68.78,110.42z"/><path style="fill:#b3bad6" d="M127.72,115.04L126.22,115.81L121.55,116.42L121.62,115.02L126.22,114.29L127.53,113.82L127.86,113.42z"/><path style="fill:#393939" d="M236.93,198.13L236.51,198.15L236.61,197.23L236.94,197.14z"/><path style="fill:#393939" d="M37.98,199.87L37.67,200.08L36.29,200.16L36.28,199.20L38.01,198.94z"/><path style="fill:#393939" d="M250.39,230.59L222.07,230.92L222.07,230.15L250.42,229.91z"/><path style="fill:#393939" d="M50.44,232.62L48.97,232.74L21.81,232.88L21.89,232.28L50.46,231.94z"/><path style="fill:#ff0000" d="M77.09,223.86L77.41,224.55L76.80,224.13L75.78,224.50L75.79,225.78L75.30,225.69L74.54,224.90L72.91,224.91L72.71,225.21L72.73,226.74L73.00,227.02L73.67,225.17L74.52,226.17L76.48,226.19L76.81,225.00L77.41,224.55L77.57,224.68L77.58,226.28L76.96,227.43L75.72,228.22L73.99,228.22L73.01,227.69L72.22,226.71L72.22,224.47L73.42,223.13L73.91,222.87L75.80,222.87z"/><path style="fill:#ff0000" d="M96.64,224.38L96.32,225.23L96.07,226.55L95.53,226.53L95.32,225.94L94.23,225.93L93.96,226.43L93.21,226.45L93.72,224.15L96.38,224.12z"/><path style="fill:#ff0000" d="M92.84,224.39L92.55,226.03L91.96,226.45L89.74,226.43L89.47,226.16L89.47,225.51L89.86,224.35L90.15,224.13L92.57,224.12z"/><path style="fill:#ff0000" d="M88.99,224.42L89.02,224.99L88.46,226.53L87.93,226.52L87.69,226.20L86.64,226.20L86.42,226.50L85.59,226.44L86.18,224.22L88.49,224.13z"/><path style="fill:#ff0000" d="M85.21,224.37L85.19,226.02L84.84,226.43L81.86,226.45L81.86,225.23L82.28,224.38L82.80,224.14L84.95,224.12z"/><path style="fill:#ff0000" d="M102.71,225.18L103.18,225.27L103.44,224.23L104.25,223.91L103.70,226.26L102.43,226.18L101.59,224.91L101.15,226.29L100.58,226.29L100.80,224.38L101.04,224.12L102.18,224.15z"/><path style="fill:#ff0000" d="M80.12,225.44L80.59,225.52L81.05,224.13L81.62,224.13L81.12,226.52L79.84,226.43L79.00,225.17L78.56,226.54L77.99,226.54L78.22,224.63L78.46,224.37L79.59,224.41z"/><path style="fill:#ff0000" d="M100.19,224.46L98.24,224.65L97.99,224.89L99.66,225.17L98.23,225.41L97.99,225.65L99.68,225.95L99.68,226.24L97.00,226.26L97.53,224.15L100.19,224.17z"/><path style="fill:#404040" d="M230.62,186.84L230.61,187.53L229.98,187.45L229.99,186.60L230.36,186.46z"/><path style="fill:#404040" d="M41.54,189.58L40.94,189.47L40.95,188.62L41.29,188.52z"/><path style="fill:#404040" d="M236.19,196.07L230.72,196.07L230.69,195.67L236.22,195.67z"/><path style="fill:#404040" d="M40.29,198.10L34.82,198.10L34.79,197.70L40.32,197.70z"/><path style="fill:#404040" d="M38.01,198.94L36.28,199.20L36.98,198.77L34.83,198.52L37.49,198.50z"/><path style="fill:#737373" d="M112.84,63.01L113.59,65.05L113.98,78.92L113.99,86.78L113.98,93.12L113.87,94.83L113.09,95.58L109.98,96.78L105.73,97.61L100.06,98.13L100.07,70.38L105.47,67.67L108.04,65.91L109.54,64.62L111.09,62.59L110.88,61.21L111.05,61.24z"/><path style="fill:#737373" d="M115.65,110.58L113.02,112.00L106.74,113.34L100.49,113.88L100.56,98.53L107.00,97.86L111.25,97.04L114.65,95.87L115.68,94.90z"/><path style="fill:#737373" d="M109.06,125.15L113.12,130.23L114.35,133.57L114.64,134.90L110.53,129.77L108.00,128.24L107.49,127.74L106.47,124.44L106.39,123.66L106.73,123.62z"/><path style="fill:#737373" d="M66.65,130.62L66.07,130.63L66.08,127.17L66.38,127.17z"/><path style="fill:#737373" d="M120.46,149.13L118.05,149.21L118.07,146.74L120.74,146.68z"/><path style="fill:#737373" d="M70.30,147.42L69.95,149.63L68.00,149.77L67.06,149.65L66.93,149.47L67.07,147.25L70.21,147.25z"/><path style="fill:#737373" d="M99.16,164.78L99.21,168.69L98.80,168.86L94.37,169.45L94.47,164.76z"/><path style="fill:#737373" d="M114.86,165.11L112.75,166.04L112.59,167.15L107.67,167.81L105.98,168.40L105.06,168.70L105.22,163.08L108.42,160.95L114.95,160.93z"/><path style="fill:#737373" d="M234.98,196.84L234.31,196.76L234.72,196.45z"/><path style="fill:#c0c0c0" d="M254.93,213.49L254.98,216.94L254.35,216.77L254.19,219.42L251.80,219.83L251.65,220.95L250.79,220.95L250.51,219.49L250.51,212.39L251.39,212.47L251.56,213.34L254.45,213.22z"/><path style="fill:#c0c0c0" d="M250.71,224.27L250.51,224.32L250.51,221.77L250.61,221.87z"/><path style="fill:#c0c0c0" d="M77.41,224.55L76.81,225.00L76.48,226.19L74.52,226.17L73.67,225.17L73.00,227.02L72.73,226.74L72.71,225.21L72.91,224.91L74.54,224.90L75.30,225.69L75.79,225.78L75.78,224.50L76.80,224.13z"/><path style="fill:#c0c0c0" d="M95.80,225.14L94.44,225.22L94.44,224.93L95.84,224.90z"/><path style="fill:#c0c0c0" d="M88.18,225.14L86.83,225.22L86.82,224.93L88.23,224.90z"/><path style="fill:#c0c0c0" d="M90.88,225.40L91.79,225.68L90.40,225.76L90.41,224.91L92.05,224.91z"/><path style="fill:#c0c0c0" d="M84.46,225.51L83.84,225.94L82.81,226.03L82.80,224.90L84.44,224.91z"/><path style="fill:#ffffff" d="M118.71,87.34L119.95,88.88L119.94,90.51L119.69,91.27L118.95,92.05L117.59,92.97L114.69,93.17L113.98,93.12L113.99,86.78L117.66,86.86z"/><path style="fill:#ffffff" d="M60.03,89.22L61.23,87.88L62.50,87.37L72.27,87.29L72.23,93.04L70.81,93.70L61.82,93.48L60.33,92.43L59.78,90.92z"/><g id="Actor_.0"><g style="stroke:#000000;stroke-width:0.176"><path d="M127.88,113.23L127.58,113.77L126.39,114.27L125.04,114.55L124.42,114.68L121.86,114.96L118.96,115.07L68.53,115.60L65.58,115.55L62.87,115.33L60.65,114.96L59.16,114.49L58.53,113.96L55.29,103.47L55.27,103.31L55.22,102.63L55.21,101.70L55.21,89.17L55.67,86.28L57.01,83.67L59.11,81.59L61.74,80.24L64.66,79.76L72.28,79.68"/><path d="M59.82,91.54L59.85,91.70L60.33,92.63L61.09,93.37L62.04,93.83L63.09,93.99L70.72,93.91"/><path d="M70.54,107.99L69.56,108.31L68.06,109.74L68.72,110.60"/><path d="M119.85,88.89L119.91,89.00L120.08,90.04L119.91,91.07L119.43,92.01L118.67,92.76L117.73,93.25L116.67,93.42L114.82,93.44"/><path d="M124.09,85.57L122.75,82.98L120.66,80.95L118.02,79.65L115.10,79.23L113.80,79.24"/><path d="M115.78,109.21L115.81,109.23L115.76,109.60"/></g><g style="stroke:#000000;stroke-width:0.529"><path d="M125.87,106.73L127.88,113.23L127.88,114.72L127.58,115.26L126.39,115.76L124.42,116.17L121.86,116.45L118.96,116.56L68.53,117.09L65.58,117.04L62.87,116.82L60.65,116.45L59.16,115.98L58.53,115.45L55.29,104.96L55.24,104.64L55.19,104.06L55.15,103.28L55.13,102.37L55.12,101.42L55.12,88.89L55.58,86.01L56.93,83.40L59.02,81.31L61.65,79.96L64.58,79.48L72.28,79.40"/><path d="M71.06,93.62L63.00,93.71L61.95,93.55L61.00,93.09L60.25,92.35L59.82,91.54L59.68,90.67L59.85,89.63L60.33,88.69L61.09,87.94L62.04,87.46L63.09,87.28L72.34,87.19"/><path d="M69.13,110.21L68.72,110.60L69.16,111.18L72.74,112.48L78.41,113.49L85.56,114.11L93.41,114.27L101.12,113.95L106.82,113.30"/><path d="M113.85,86.75L116.67,86.72L117.73,86.87L118.67,87.34L119.43,88.07L119.85,88.89L119.99,89.76L119.83,90.79L119.34,91.73L118.59,92.48L117.64,92.97L116.59,93.14L114.30,93.17"/><path d="M125.51,105.57L124.64,102.74L124.61,102.58L124.59,102.29L124.57,101.90L124.55,100.97L124.55,88.44L124.09,85.57L124.01,85.29L122.66,82.71L120.57,80.67L117.93,79.37L115.01,78.95L113.80,78.96"/></g></g><g id="Actor_.1"><g style="stroke:#000000;stroke-width:0.176"><path d="M66.11,139.70L66.16,140.20L66.29,140.81L66.42,140.67L66.53,139.77L66.61,138.23L66.65,136.21L66.65,133.92L66.61,131.61L66.53,129.55L66.42,127.94L66.29,126.96L66.16,126.72L66.04,127.25L65.94,128.48L65.88,130.29L65.86,132.47L65.88,134.80L65.94,137.02L66.04,138.88L66.11,139.70"/><path d="M68.06,117.75L68.78,117.75L70.04,121.81L66.89,121.85L65.63,117.78"/><path d="M66.89,149.78L67.07,147.25L67.07,136.37L67.07,125.53L66.89,121.85"/><path d="M68.06,149.76L70.04,149.74L70.22,147.22L67.07,147.25"/><path d="M67.07,125.53L70.22,125.50L70.04,121.81"/><path d="M69.69,111.37L69.13,109.56"/><path d="M70.76,117.07L70.76,161.38"/><path d="M71.21,161.37L74.43,161.34L74.43,166.53"/><path d="M70.22,147.22L70.22,125.50"/><path d="M81.04,113.72L77.23,113.23L72.79,112.12L70.54,110.81L70.54,106.09"/><path d="M70.54,95.17L72.79,96.48L77.23,97.59L83.39,98.38L90.59,98.75L94.34,98.77L98.06,98.67L104.99,98.15L110.62,97.24L114.35,96.05L115.78,94.69"/><path d="M72.38,92.97L72.39,95.12L74.45,96.33L78.53,97.35L84.18,98.07L90.79,98.41L94.24,98.42L97.65,98.34L104.01,97.86L109.18,97.02L112.60,95.93L113.91,94.68L113.89,93.02"/><path d="M79.99,168.09L79.99,161.28L74.76,161.34L74.76,167.61"/><path d="M74.76,161.34L74.43,161.34"/><path d="M77.11,151.60L75.68,146.95L74.56,140.40L75.68,133.82L78.90,127.92L83.87,123.36L90.07,120.62L96.81,120.00L103.37,121.57L109.03,125.15L113.19,130.36L115.39,136.64L116.82,141.29L114.63,135.01L110.47,129.80L104.81,126.22L98.25,124.65L91.51,125.27L85.31,128.01L80.33,132.58L77.35,138.04L77.11,138.47L76.00,145.05L77.11,151.60L80.33,157.43L85.31,161.89L91.51,164.50L98.25,164.98L104.81,163.27L110.47,159.57L114.63,154.27L116.82,147.95L117.10,144.62L116.82,141.29"/><path d="M79.99,161.28L83.21,161.25L83.21,169.00"/><path d="M83.21,161.25L84.58,161.23"/><path d="M89.06,168.94L89.06,163.47"/><path d="M94.29,164.70L94.29,169.42"/><path d="M99.20,168.83L99.20,164.73"/><path d="M105.05,168.77L105.05,163.12"/><path d="M107.68,161.39L107.68,167.80"/><path d="M108.31,160.98L114.89,160.91"/><path d="M112.59,160.94L112.59,166.01"/><path d="M115.78,107.01L115.78,109.49"/><path d="M120.47,121.29L118.04,121.31L118.04,149.24"/><path d="M118.04,146.72L120.65,146.69"/><path d="M118.04,125.00L120.65,124.97"/><path d="M118.04,121.31L118.04,117.23"/></g><g style="stroke:#000000;stroke-width:0.529"><path d="M68.06,149.76L66.89,149.78L65.63,145.71L65.45,142.02L65.45,133.05L65.45,120.30L65.63,117.78L68.06,117.75L68.06,117.08"/><path d="M118.04,117.23L119.22,117.22L120.47,121.29L120.65,124.97L120.65,138.04L120.65,146.69L120.47,149.21L118.04,149.24L118.04,160.88L114.89,160.91L114.89,165.17L112.59,166.01L112.59,167.21L107.68,167.80L105.05,168.77L99.20,168.83L94.29,169.42L89.06,168.94L83.21,169.00L79.99,168.09L74.76,167.61L74.43,166.53L71.21,165.62L71.21,161.37L70.76,161.38L68.06,152.66L68.06,149.76"/><path d="M70.54,106.09L70.54,95.17L70.73,93.79L72.38,92.97L72.19,66.68L72.50,64.76L73.40,63.04L75.94,60.58L77.59,59.82L80.30,58.95L84.39,58.29L89.41,57.91L94.84,57.85L100.07,58.12L104.54,58.69L107.76,59.50L109.33,60.23L111.13,61.29L112.52,62.63L113.40,64.33L113.71,66.24L113.89,93.02L114.73,93.32L115.78,94.69L115.78,107.01"/><path d="M118.04,116.57L118.04,117.23"/></g></g><g id="Actor_.2"><g style="stroke:#000000;stroke-width:0.176"><path d="M221.94,250.31L201.22,250.11"/><path d="M201.11,198.19L221.88,197.68"/><path d="M201.18,199.55L221.94,199.04"/><path d="M206.32,195.54L206.17,195.35L206.05,195.47L206.06,195.52L206.20,195.67L206.70,195.85L207.48,195.99L208.46,196.07L209.55,196.09L210.61,196.05L211.53,195.94L212.22,195.79L212.32,195.74L212.60,195.60L212.63,195.40L212.51,195.28L212.49,195.48L212.12,195.66L211.45,195.81L210.56,195.91L209.54,195.95L208.50,195.93L207.55,195.85L206.79,195.71L206.32,195.54"/><path d="M206.17,195.35L206.37,195.16L206.89,194.99L207.68,194.87L208.40,194.81L208.65,194.79L209.70,194.78L210.71,194.83L211.58,194.94L212.20,195.10L212.51,195.28"/><path d="M212.63,195.61L212.71,195.48L212.63,195.41L212.63,195.61L212.59,195.68L212.12,195.87L211.35,196.03L210.36,196.14L209.27,196.19L208.19,196.17L207.23,196.09L206.50,195.94L206.08,195.76L206.02,195.56L206.05,195.54L206.05,195.47"/><path d="M206.05,195.54L206.05,195.66"/><path d="M208.40,195.36L206.98,195.65L208.09,195.83L210.62,195.31L210.62,194.90L208.40,195.36"/><path d="M210.62,194.90L211.73,195.08L210.62,195.31"/><path d="M212.63,195.40L212.63,195.41"/><path d="M221.94,213.38L221.94,222.28"/><path d="M250.54,213.43L250.60,213.94L250.71,215.62L250.77,217.29L250.81,219.77L250.79,221.27L250.75,222.64L250.66,223.81L250.54,224.46"/><path d="M250.54,214.16L250.57,214.55L250.62,215.80L250.66,217.23L250.66,218.70L250.64,220.03L250.60,221.10L250.54,221.73"/><path d="M251.53,213.40L251.59,213.93L251.70,215.61L251.76,217.28L251.80,219.76L251.77,221.66"/><path d="M251.35,212.86L250.54,212.87"/><path d="M254.02,213.08L254.10,213.58L254.17,214.51L254.23,215.76L254.26,217.19L254.27,218.66L254.25,219.99L254.20,221.06L254.15,221.57L254.14,221.73L254.06,221.95"/></g><g style="stroke:#000000;stroke-width:0.529"><path d="M199.68,193.44L220.37,192.80L221.88,197.68L221.94,199.04L221.94,213.38"/><path d="M221.94,222.28L221.94,250.31L221.88,251.24L201.16,251.04"/><path d="M250.54,212.50L251.35,212.49L251.35,212.86L251.46,212.86L251.53,213.40L253.93,213.05L254.02,213.08L254.86,213.51L254.93,213.85L255.00,214.59L255.06,215.64L255.07,216.20L255.09,216.89L255.10,218.20L255.09,219.43L255.06,220.44L255.00,221.14L254.93,221.43L254.06,221.95L251.77,221.66L251.74,222.63L251.66,223.80L251.53,224.45L250.54,224.46"/></g></g><g id="Actor_.3"><g style="stroke:#000000;stroke-width:0.176"><path d="M93.16,226.57L93.72,224.14L96.11,224.11L96.40,224.20L96.53,224.40"/><path d="M95.76,225.01L95.77,225.04L95.67,225.23L95.54,225.30L95.47,225.30L94.20,225.32L94.21,225.28"/><path d="M93.71,224.11L93.72,224.14"/><path d="M95.43,225.97L95.46,226.06L95.38,226.54"/><path d="M95.77,225.04L95.77,224.84L95.75,224.83"/><path d="M96.17,225.68L96.17,225.71L95.99,225.58L96.02,225.57"/><path d="M96.17,225.71L96.23,225.87"/><path d="M95.67,225.23L95.66,225.20"/><path d="M96.40,224.20L96.39,224.17"/></g><g style="stroke:#000000;stroke-width:0.529"><path d="M93.15,226.54L93.16,226.57L93.92,226.56L94.06,225.94L95.32,225.92L95.36,225.93L95.43,225.97"/><path d="M95.75,224.83L95.68,224.76L95.59,224.75L94.32,224.76L94.21,225.28"/><path d="M95.37,226.51L95.38,226.54L96.14,226.53L96.24,225.94L96.23,225.87L96.23,225.84"/><path d="M96.52,224.37L96.53,224.40L96.56,224.57L96.53,224.77L96.48,225.02L96.46,225.13L96.29,225.44L96.09,225.56L96.02,225.57"/></g></g><g id="Actor_.4"><g style="stroke:#000000;stroke-width:0.176"><path d="M16.13,223.93L16.20,223.85L16.26,223.35L16.31,222.48L16.33,221.34L16.33,220.05L16.31,218.76L16.26,217.59L16.20,216.69L16.13,216.14L16.05,216.00"/><path d="M16.06,222.14L16.11,222.42L16.15,222.43L16.20,222.18L16.23,221.69L16.25,221.02L16.24,219.53L16.21,218.65L16.18,218.04L16.13,217.64L16.09,217.49L16.04,217.61L16.01,217.98L15.98,218.57L15.97,219.31L15.99,220.93L16.02,221.62L16.06,222.14"/><path d="M17.01,224.44L17.09,224.22L17.16,223.55L17.20,222.49L17.22,221.15L17.22,219.68L17.18,218.25L17.13,217.00L17.05,216.07L16.99,215.69L16.97,215.57L16.89,215.54"/><path d="M20.52,215.28L19.64,215.29L19.74,216.01L19.84,217.34L19.92,218.80L19.96,220.58L19.98,222.20L19.97,223.59L19.93,224.94L19.85,226.12L19.73,226.84"/><path d="M19.68,224.04L19.62,224.21L19.58,224.06L19.68,224.04L19.70,223.98L19.77,223.29L19.81,222.20L19.83,220.86L19.82,219.40L19.79,218.46L19.72,216.84L19.64,216.03L19.64,215.88L19.48,215.86L19.53,215.67L19.64,215.66L19.64,215.29"/><path d="M19.58,224.06L19.31,224.10"/><path d="M19.53,215.67L19.53,214.93"/><path d="M19.48,215.86L19.31,215.84"/><path d="M19.64,215.66L19.64,215.88"/><path d="M20.66,215.45L20.73,216.00L20.84,217.33L20.91,218.79L20.96,220.57L20.97,222.18L20.96,223.58L20.94,224.40"/><path d="M50.62,253.04L50.68,252.11L50.68,200.84L50.62,199.48L49.11,194.60"/><path d="M50.68,252.11L71.51,251.47"/><path d="M50.68,200.84L71.51,200.91"/><path d="M50.62,199.48L71.45,199.55"/><path d="M64.93,197.14L64.93,197.05L64.73,197.25L64.18,197.42L63.37,197.55L62.36,197.63L61.27,197.64L60.22,197.59L59.33,197.47L58.68,197.31L58.35,197.12L58.38,196.92L58.28,197.10L58.52,197.30L59.10,197.48L59.96,197.63L60.99,197.71L62.10,197.74L63.15,197.70L64.04,197.59L64.67,197.43L64.93,197.27L64.93,197.14L64.97,197.24L64.93,197.27"/><path d="M60.02,197.04L59.25,197.20L60.36,197.39L61.69,197.11L62.89,196.86L62.89,196.45L60.02,197.04"/><path d="M58.47,197.00L58.79,197.18L59.41,197.34L60.27,197.45L61.28,197.50L61.69,197.50L62.33,197.49L63.30,197.42L64.09,197.29L64.62,197.12L64.81,196.93L64.67,196.74L64.19,196.57L63.44,196.43L62.49,196.35L61.45,196.33L60.42,196.37L59.53,196.48L58.87,196.62L58.50,196.81L58.47,197.00"/><path d="M58.50,196.81L58.38,196.92"/><path d="M58.36,197.17L58.35,197.12"/><path d="M62.89,196.45L64.01,196.63L62.89,196.86"/><path d="M64.67,196.74L64.93,197.00L64.93,197.05"/></g><g style="stroke:#000000;stroke-width:0.529"><path d="M21.11,224.39L20.94,224.40L20.92,224.93L20.84,226.11L20.72,226.82L19.73,226.84L19.58,226.78L19.46,226.06L19.33,224.60L19.31,224.10L17.01,224.44L16.13,223.93L16.05,223.58L15.99,222.85L15.93,221.80L15.90,220.55L15.88,219.24L15.90,218.01L15.93,216.99L15.99,216.30L16.05,216.00L16.89,215.54L19.31,215.84L19.40,215.15L19.53,214.93L20.52,214.92L20.52,215.28L20.63,215.28L20.66,215.45L21.02,215.45"/><path d="M49.04,197.57L49.04,195.53L49.11,194.60L69.98,194.81L71.45,199.55L71.51,200.91L71.51,251.47L71.45,252.40L50.62,253.04L49.11,248.16L49.04,246.80L49.04,232.70"/></g></g><g id="Actor_.5"><g style="stroke:#000000;stroke-width:0.176"><path d="M201.10,198.05L178.76,198.28L177.11,192.92"/><path d="M201.23,249.94L178.90,250.18L178.90,201.00L201.23,200.76"/></g><g style="stroke:#000000;stroke-width:0.529"><path d="M178.80,252.04L201.10,251.80L201.23,249.94L201.23,200.76L201.10,198.05L199.44,192.68L177.11,192.92"/></g></g><g id="Actor_.6"><g style="stroke:#000000;stroke-width:0.176"><path d="M100.89,223.98L100.90,224.01L100.34,226.44"/><path d="M100.90,224.01L102.00,224.00L103.02,225.74L103.01,225.71"/><path d="M103.02,225.74L103.43,223.99L104.18,223.98"/><path d="M101.99,223.97L102.00,224.00"/><path d="M103.42,223.96L103.43,223.99"/></g><g style="stroke:#000000;stroke-width:0.529"><path d="M100.33,226.41L100.34,226.44L101.10,226.43L101.49,224.71L102.47,226.42L103.63,226.41L104.18,223.98L104.17,223.95"/></g></g><g id="Actor_.7"><g style="stroke:#000000;stroke-width:0.176"><path d="M20.45,197.87L21.69,201.90L21.70,232.20L21.64,232.99"/><path d="M21.20,224.10L21.21,224.05L21.24,223.76"/><path d="M21.16,224.26L21.14,224.39L21.12,224.37"/><path d="M21.29,222.84L21.27,223.37"/><path d="M21.32,221.61L21.31,222.27"/><path d="M21.33,220.92L21.32,220.19"/><path d="M21.32,219.46L21.30,218.75"/><path d="M21.25,217.43L21.28,218.05"/><path d="M21.22,216.84L21.18,216.38"/><path d="M21.06,215.51L21.05,215.47L21.04,215.48"/><path d="M21.13,215.85L21.14,215.88"/><path d="M21.70,232.20L50.49,231.89"/><path d="M21.69,201.90L50.49,201.60"/><path d="M45.85,201.19L45.88,201.19L44.92,198.07L44.92,198.17L45.85,201.19L27.82,201.38L27.62,200.74L24.83,200.77L24.26,198.93L27.06,198.90L26.86,198.26L29.25,198.24L29.25,198.72L29.35,199.05L29.87,199.05L29.87,200.74L29.97,201.06L30.77,201.06L30.77,200.88L33.89,200.84L33.89,192.34L33.94,192.52L33.94,201.02L33.89,200.84"/><path d="M27.06,198.90L27.06,199.00L24.29,199.03"/><path d="M26.89,198.37L29.25,198.34"/><path d="M29.97,201.06L29.97,192.56L29.87,192.23L29.87,199.05"/><path d="M29.25,190.22L29.35,190.55L29.35,199.05"/><path d="M29.25,198.24L29.25,197.78"/><path d="M29.97,192.56L30.77,192.55L30.77,200.88"/><path d="M29.87,192.23L30.67,192.22L30.71,192.37L30.70,191.08L33.88,191.05L33.89,192.34"/><path d="M29.35,190.55L30.15,190.54L30.14,189.25L30.11,189.14"/><path d="M31.55,195.23L31.48,194.97L31.51,194.71L31.61,194.46L31.80,194.26L32.03,194.13L32.30,194.09L32.56,194.13L32.80,194.26L32.98,194.45L33.09,194.69L33.12,194.95L33.05,195.21L32.90,195.43L32.69,195.60L32.43,195.69L32.16,195.69L31.91,195.61L31.70,195.45L31.55,195.23"/><path d="M33.05,194.60L33.07,194.81L33.00,195.06L32.86,195.29L32.64,195.45L32.39,195.54L32.12,195.55L31.86,195.46L31.65,195.30L31.52,195.10"/><path d="M30.77,192.55L30.71,192.37"/><path d="M30.70,191.08L30.67,190.97L30.67,192.22"/><path d="M30.15,190.54L30.10,190.39"/><path d="M30.67,190.97L33.85,190.94L33.88,191.05"/><path d="M30.14,189.25L33.32,189.22"/><path d="M34.12,190.50L33.32,190.51L33.32,190.18"/><path d="M33.94,201.02L34.74,201.01L34.74,199.29L35.61,199.31L36.41,199.28L37.10,199.20L37.62,199.08L37.91,198.94L37.93,198.79L37.68,198.65L37.20,198.52L36.53,198.44L35.74,198.40L34.92,198.41L34.74,198.42L34.74,199.29"/><path d="M37.93,198.79L37.93,199.77L37.91,199.92L37.62,200.06L37.10,200.18L36.41,200.26L35.61,200.29L34.74,200.27"/><path d="M40.35,197.66L40.35,198.12L34.74,198.18L34.74,198.42"/><path d="M34.74,198.18L34.74,197.72"/><path d="M34.74,198.62L34.90,198.60L35.38,198.58L35.87,198.59L36.32,198.63L36.67,198.69L36.89,198.77L36.96,198.86L36.87,198.95L36.62,199.03L36.25,199.09L35.80,199.12L35.31,199.13L34.83,199.10L34.74,199.09"/><path d="M44.92,198.07L41.50,198.11L41.50,200.35L40.71,200.36L40.35,199.20L40.35,198.22L34.74,198.28"/><path d="M33.94,192.52L34.74,192.51"/><path d="M34.12,192.19L33.89,192.19"/><path d="M40.71,200.36L40.71,189.60L41.50,189.60"/><path d="M41.50,198.11L41.50,197.65"/><path d="M40.35,198.12L40.35,198.22"/><path d="M41.50,198.21L44.92,198.17"/><path d="M40.49,191.26L40.49,191.71L40.50,192.24L40.52,192.61L40.54,192.68L40.55,192.66L40.56,192.56L40.58,192.24L40.58,191.88L40.56,191.26L40.54,191.07L40.52,191.04L40.51,191.10L40.49,191.26"/><path d="M40.71,189.60L40.82,188.45L40.58,187.65"/><path d="M41.28,188.44L40.82,188.45"/></g><g style="stroke:#000000;stroke-width:0.529"><path d="M34.74,197.72L40.35,197.66L40.36,188.45L40.58,187.65L41.04,187.65L41.28,188.44L41.50,189.60L41.50,197.65L49.24,197.57L50.49,201.60L50.49,231.89L50.43,232.69L21.64,232.99L20.51,229.33L20.45,228.17L20.45,226.83"/><path d="M34.74,197.72L34.74,192.51L34.64,192.18L34.12,192.19L34.12,190.50L34.01,190.17L33.32,190.18L33.32,189.22L33.28,189.11L30.11,189.14L30.10,190.39L30.04,190.21L29.25,190.22L29.25,197.78L20.45,197.87L20.45,214.92"/></g></g><g id="Actor_.8"><g style="stroke:#000000;stroke-width:0.176"><path d="M72.18,226.74L71.95,225.84L72.03,224.92L72.40,224.07L73.04,223.38L73.87,222.93L74.80,222.77L75.72,222.91L76.55,223.34L77.19,224.02L77.57,224.86"/><path d="M72.98,227.17L72.99,227.20L73.55,225.08L73.54,225.05"/><path d="M72.43,226.15L72.43,226.16L72.64,226.71L72.99,227.20"/><path d="M76.80,224.73L76.81,224.75L76.47,226.01L76.39,226.18L76.26,226.32L76.10,226.40L75.91,226.44L75.34,226.44L74.81,226.39L74.74,226.36L74.67,226.32L74.53,226.22L74.32,225.99L73.56,225.08L73.55,225.05"/><path d="M73.55,225.08L73.56,225.08"/><path d="M75.96,224.76L75.43,224.77L75.49,224.73"/><path d="M76.81,224.75L77.27,224.75L77.24,224.71"/></g><g style="stroke:#000000;stroke-width:0.529"><path d="M77.56,224.83L77.57,224.86L77.64,225.78L77.41,226.68L76.90,227.46L76.16,228.04L75.27,228.35L74.33,228.36L73.44,228.07L72.69,227.51L72.18,226.74L72.17,226.71"/><path d="M75.95,224.73L75.96,224.76L75.61,226.09L74.82,225.17L74.58,224.94L74.30,224.76L73.94,224.73L73.21,224.73L73.04,224.76L72.89,224.85L72.77,224.97L72.70,225.13L72.43,226.15"/><path d="M75.49,224.73L76.60,223.98L77.24,224.71"/></g></g><g id="Actor_.9"><g style="stroke:#000000;stroke-width:0.176"><path d="M92.52,224.20L92.53,224.22L92.04,224.07L91.83,224.07L91.32,224.07L90.64,224.09L90.02,224.24L89.73,224.49L89.64,224.69L89.56,225.01L89.44,225.49L89.38,225.74L89.37,225.86L89.42,226.14"/><path d="M90.02,224.24L90.01,224.21"/><path d="M91.81,225.67L91.84,225.66L91.83,225.69L91.77,225.84L91.63,225.90L91.56,225.90L91.06,225.93L90.63,225.93L90.44,225.92L90.43,225.89"/><path d="M90.44,225.92L90.25,225.79L90.25,225.76"/><path d="M90.88,225.67L90.99,225.18L90.98,225.16"/><path d="M90.99,225.18L92.70,225.16"/><path d="M91.99,224.85L92.00,224.87L92.00,224.92L91.99,224.98"/><path d="M91.77,225.84L91.76,225.81"/><path d="M92.76,224.91L92.76,224.91L92.76,224.90"/><path d="M92.53,224.22L92.74,224.51"/></g><g style="stroke:#000000;stroke-width:0.529"><path d="M92.69,225.14L92.70,225.16L92.62,225.47L92.55,225.77L92.50,225.95L92.41,226.15L92.12,226.41L91.50,226.56L90.84,226.57L90.31,226.57L90.10,226.57L89.62,226.43L89.42,226.14L89.41,226.11"/><path d="M90.87,225.65L90.88,225.67L91.81,225.67"/><path d="M91.99,224.85L91.95,224.78L91.76,224.72L91.60,224.72L91.20,224.71L90.70,224.73L90.62,224.75L90.47,224.83L90.34,225.05L90.28,225.31L90.25,225.45L90.24,225.50L90.23,225.60L90.25,225.76"/><path d="M91.98,224.95L91.99,224.98L92.75,224.97L92.76,224.91L92.77,224.78L92.74,224.51L92.73,224.48"/></g></g><g id="Actor_.10"><g style="stroke:#000000;stroke-width:0.176"><path d="M82.33,224.30L82.34,224.33L82.06,224.58L81.96,224.78L81.88,225.10L81.76,225.58L81.70,225.83L81.70,225.95L81.74,226.23"/><path d="M84.23,225.87L84.24,225.90L84.08,225.98L84.01,226.00L83.40,226.03L82.94,226.02L82.76,226.01L82.76,225.98"/><path d="M82.76,226.01L82.58,225.88L82.57,225.85"/><path d="M82.34,224.33L82.96,224.18L83.21,224.17L83.45,224.16L84.22,224.15L84.49,224.15L84.61,224.15L85.10,224.29L85.31,224.57"/><path d="M84.24,225.90L84.37,225.68L84.43,225.42L84.46,225.28L84.47,225.23L84.49,225.10L84.46,224.90L84.45,224.90"/><path d="M85.10,224.29L85.09,224.26"/></g><g style="stroke:#000000;stroke-width:0.529"><path d="M85.30,224.54L85.31,224.57L85.34,224.87L85.33,224.99L85.27,225.24L85.16,225.72L85.07,226.04L84.98,226.24L84.69,226.49L84.07,226.64L83.46,226.66L82.93,226.67L82.56,226.66L82.42,226.66L81.95,226.51L81.74,226.23L81.73,226.20"/><path d="M84.45,224.90L84.27,224.79L84.08,224.77L83.38,224.80L83.20,224.81L83.02,224.82L82.95,224.84L82.79,224.92L82.66,225.14L82.60,225.40L82.57,225.54L82.57,225.59L82.55,225.69L82.57,225.85"/></g></g><g id="Actor_.11"><g style="stroke:#000000;stroke-width:0.176"><path d="M78.30,224.22L78.31,224.25L77.75,226.68"/><path d="M78.31,224.25L79.41,224.24L80.43,225.98L80.42,225.95"/><path d="M79.41,224.24L79.40,224.21"/><path d="M80.43,225.98L80.84,224.22L80.83,224.20"/><path d="M80.84,224.22L81.59,224.22"/></g><g style="stroke:#000000;stroke-width:0.529"><path d="M81.58,224.19L81.59,224.22L81.04,226.64L79.88,226.66L78.90,224.95L78.51,226.67L77.75,226.68L77.74,226.65"/></g></g><g id="Actor_.12"><g style="stroke:#000000;stroke-width:0.176"><path d="M96.88,226.48L97.43,224.05L97.42,224.02"/><path d="M99.78,225.03L97.96,225.04L97.97,225.01"/><path d="M97.78,225.82L97.77,225.85L99.76,225.83"/><path d="M97.43,224.05L100.16,224.02"/></g><g style="stroke:#000000;stroke-width:0.529"><path d="M99.75,225.81L99.76,225.83L99.62,226.45L96.88,226.48L96.87,226.45"/><path d="M97.97,225.01L98.04,224.67L100.02,224.65L100.16,224.02L100.15,223.99"/><path d="M99.77,225.00L99.78,225.03L99.69,225.46L97.86,225.48L97.78,225.82"/></g></g><g id="Actor_.13"><g style="stroke:#000000;stroke-width:0.176"><path d="M85.56,226.65L86.12,224.22L88.51,224.19L88.80,224.28L88.93,224.48"/><path d="M88.16,225.09L88.17,225.12L88.07,225.31L87.94,225.38L87.87,225.38L86.60,225.40L86.61,225.36"/><path d="M86.11,224.19L86.12,224.22"/><path d="M87.78,226.62L87.86,226.14L87.83,226.05"/><path d="M88.07,225.31L88.06,225.28"/><path d="M88.17,225.12L88.17,224.92L88.15,224.91"/><path d="M88.42,225.65L88.39,225.66L88.57,225.79L88.57,225.76"/><path d="M88.57,225.79L88.63,225.95"/><path d="M88.80,224.28L88.79,224.25"/></g><g style="stroke:#000000;stroke-width:0.529"><path d="M85.55,226.62L85.56,226.65L86.32,226.64L86.46,226.02L87.72,226.00L87.76,226.01L87.83,226.05"/><path d="M88.15,224.91L88.08,224.84L87.99,224.83L86.72,224.84L86.61,225.36"/><path d="M87.77,226.59L87.78,226.62L88.54,226.61L88.64,226.02L88.63,225.95L88.63,225.92"/><path d="M88.92,224.45L88.93,224.48L88.96,224.65L88.93,224.85L88.88,225.10L88.86,225.21L88.69,225.52L88.49,225.64L88.42,225.65"/></g></g><g id="Actor_.14"><g style="stroke:#000000;stroke-width:0.176"><path d="M178.90,250.74L71.67,251.87L71.67,201.56L71.57,199.52L69.85,193.93"/><path d="M71.57,253.27L71.67,251.87"/><path d="M71.67,201.56L82.60,201.44L82.50,199.40L71.57,199.52"/><path d="M82.60,209.68L82.60,210.47L90.54,210.39L90.37,209.84L90.10,209.62L89.48,209.42L88.55,209.27L87.41,209.17L86.17,209.15L84.95,209.20L83.88,209.31L83.05,209.49L82.60,209.68L82.60,201.44"/><path d="M82.50,199.40L82.43,199.17L82.55,198.94L83.05,198.73L83.88,198.56L84.95,198.45L86.17,198.40L87.41,198.42L88.55,198.51L89.48,198.67L90.10,198.87L90.37,199.09L90.44,199.32L90.54,201.36L90.54,210.39"/><path d="M84.67,209.62L84.30,209.74L84.16,209.87L84.26,210.01L84.60,210.13L85.12,210.22L85.79,210.28L86.52,210.29L87.24,210.26L87.87,210.19L88.34,210.09L88.59,209.96L88.61,209.83L88.39,209.70L87.95,209.59L87.35,209.51L86.64,209.47L85.90,209.48L85.22,209.53L84.67,209.62"/><path d="M87.64,252.55L87.24,252.40L86.89,252.33L86.52,252.31L86.15,252.34L85.79,252.42L85.52,252.51"/><path d="M90.54,201.36L178.90,200.43"/><path d="M90.44,199.32L178.80,198.39"/><path d="M97.51,209.90L97.96,210.46L98.58,210.85L99.29,211.02L100.03,210.95L100.69,210.66L101.24,210.16L101.59,209.52L101.71,208.81L101.59,208.09L101.24,207.46L100.69,206.98L100.03,206.70L99.29,206.64L98.58,206.83L97.96,207.23L97.51,207.80L97.27,208.49L97.27,209.22L97.51,209.90"/><path d="M104.78,196.25L105.12,196.70L106.23,197.10L106.47,197.14L107.99,197.42L110.20,197.61L112.63,197.66L115.02,197.56L117.10,197.32L118.66,196.97L119.51,196.55L119.57,196.10L118.84,195.67L117.39,195.30L115.37,195.05L113.02,194.93L110.57,194.95L108.31,195.12L106.47,195.42L105.25,195.81L104.78,196.25"/><path d="M111.70,245.30L111.41,244.94L111.17,244.25L111.17,243.53L111.41,242.84L111.86,242.27L112.47,241.86L113.19,241.68L113.92,241.73L114.59,242.01L115.13,242.50L115.48,243.13L115.61,243.84L115.48,244.56L115.13,245.20L114.59,245.70L113.92,245.99L113.19,246.06L112.47,245.89L111.86,245.50L111.70,245.30"/><path d="M123.29,209.55L123.32,209.63L123.77,210.19L124.39,210.58L125.10,210.75L125.83,210.69L126.51,210.39L127.05,209.89L127.40,209.25L127.52,208.54L127.40,207.82L127.05,207.19L126.51,206.70L125.83,206.42L125.10,206.37L124.39,206.55L123.77,206.96L123.32,207.53L123.08,208.22L123.08,208.94L123.29,209.55"/><path d="M129.35,196.45L129.01,196.00L129.47,195.56L130.69,195.16L132.53,194.87L134.80,194.70L137.24,194.67L139.60,194.79L141.61,195.05L143.06,195.41L143.80,195.84L143.73,196.29L142.88,196.72L141.33,197.07L139.25,197.30L137.24,197.39L136.86,197.40L134.43,197.35L132.21,197.16L130.45,196.85L129.35,196.45"/><path d="M166.15,192.92L166.22,193.15L166.12,193.33"/></g><g style="stroke:#000000;stroke-width:0.529"><path d="M162.37,193.92L161.24,193.90L160.10,193.81L159.17,193.66L158.54,193.46L158.28,193.23L158.21,193.01L69.85,193.93L69.79,194.80"/><path d="M163.72,193.87L164.77,193.76L165.60,193.59L166.10,193.38L166.12,193.33L166.15,192.92L177.07,192.81L178.80,198.39L178.90,200.43L178.90,250.74L178.80,252.14L88.33,253.09L87.87,252.67L87.64,252.55L87.35,252.51L86.64,252.48L85.90,252.48L85.52,252.51L85.12,252.70L84.60,253.13L71.57,253.27L71.31,252.40"/></g></g><g id="Actor_.15"><g style="stroke:#000000;stroke-width:0.176"><path d="M250.54,229.79L221.94,230.09"/><path d="M221.94,199.80L250.54,199.49"/><path d="M244.10,199.10L244.13,199.10L243.93,198.47L243.93,198.56L244.10,199.10L226.07,199.29L225.11,196.18L229.48,196.13L229.48,195.67"/><path d="M225.14,196.28L228.40,196.24L226.74,196.26"/><path d="M228.40,196.24L229.48,196.23L229.48,197.21L229.84,198.37L230.63,198.36L230.63,196.12L236.25,196.06L236.25,196.32L236.87,196.37L236.87,197.13L236.07,197.20L235.25,197.21L234.46,197.17L233.79,197.08L233.30,196.96L233.06,196.82L233.08,196.67L233.36,196.52L233.88,196.41L234.58,196.33L235.38,196.29L236.25,196.32"/><path d="M229.84,198.37L229.84,187.62L229.95,186.46L230.41,186.45"/><path d="M229.48,196.13L229.48,196.23"/><path d="M229.62,190.13L229.62,189.36L229.64,189.08L229.66,189.06L229.67,189.13L229.69,189.28L229.70,189.76L229.70,190.28L229.70,190.49L229.69,190.63L229.67,190.69L229.66,190.67L229.64,190.55L229.62,190.13"/><path d="M229.95,186.46L229.71,185.67"/><path d="M229.84,187.62L230.63,187.61"/><path d="M230.63,196.12L230.63,195.66"/><path d="M230.63,196.22L236.25,196.16"/><path d="M236.87,197.13L236.87,198.11L236.07,198.18L235.25,198.19L234.46,198.14L233.79,198.06L233.30,197.94L233.06,197.79L233.06,196.82"/><path d="M236.87,196.86L236.81,196.89L236.50,196.96L236.08,197.01L235.60,197.03L235.11,197.02L234.67,196.98L234.32,196.92L234.09,196.83L234.03,196.75L234.12,196.66L234.36,196.58L234.73,196.52L235.19,196.48L235.68,196.48L236.15,196.50L236.56,196.55L236.85,196.63L236.87,196.64"/><path d="M236.35,196.32L236.35,188.37L236.25,188.04"/><path d="M236.25,196.06L236.25,195.60"/><path d="M236.35,188.37L237.14,188.36L237.14,187.07L240.31,187.04"/><path d="M240.89,198.67L240.94,198.85L240.94,190.35L240.89,190.16L240.89,198.67L237.77,198.70L237.77,190.38L236.97,190.39L236.97,198.89L236.87,198.56L236.87,198.11"/><path d="M236.97,198.89L237.77,198.88L237.77,198.70"/><path d="M236.87,196.37L236.87,190.06L236.97,190.39"/><path d="M236.87,190.06L237.66,190.05L237.77,190.38"/><path d="M237.66,190.05L237.67,188.80L237.70,188.91L240.88,188.87L240.89,190.16"/><path d="M237.71,190.20L237.70,188.91"/><path d="M237.14,188.36L237.10,188.22"/><path d="M237.67,188.80L240.82,188.77L240.85,188.77L240.88,188.87"/><path d="M237.14,187.07L237.10,186.97"/><path d="M239.80,193.35L239.56,193.48L239.30,193.53L239.03,193.49L238.79,193.36L238.61,193.17L238.50,192.93L238.48,192.66L238.55,192.40L238.69,192.18L238.91,192.02L239.16,191.93L239.43,191.92L239.69,192.01L239.90,192.17L240.05,192.39L240.11,192.64L240.09,192.91L239.98,193.15L239.80,193.35"/><path d="M238.50,192.87L238.57,193.02L238.75,193.22L238.99,193.34L239.25,193.38L239.52,193.33L239.76,193.20L239.94,193.01L240.05,192.76L240.07,192.50L240.04,192.37"/><path d="M240.94,198.85L241.74,198.84L241.74,195.55"/><path d="M241.74,196.01L243.17,195.99L243.36,196.63L243.36,196.73L243.17,196.09L243.17,195.99"/><path d="M240.94,190.35L241.74,190.34"/><path d="M240.89,190.02L241.11,190.01"/><path d="M240.32,188.00L240.32,188.33L241.11,188.32"/><path d="M243.36,196.63L246.15,196.60L246.72,198.44L243.93,198.47"/><path d="M243.36,196.73L246.15,196.70L246.15,196.60"/><path d="M241.74,196.10L243.17,196.09"/><path d="M246.69,198.44L246.15,196.70"/></g><g style="stroke:#000000;stroke-width:0.529"><path d="M221.28,195.76L229.48,195.67L229.48,186.46L229.71,185.67L230.16,185.66L230.41,186.45L230.63,187.61L230.63,195.66L236.25,195.60L236.25,188.04L237.04,188.03L237.10,188.22L237.10,186.97L240.28,186.93L240.31,187.04L240.32,188.00L241.01,187.99L241.11,188.32L241.11,190.01L241.63,190.01L241.74,190.34L241.74,195.55"/><path d="M221.94,230.89L250.48,230.59L250.54,229.79L250.54,199.49L249.29,195.47L241.74,195.55"/></g></g><g id="PMI434578-Fitting 1/2&quot; to 3/8&quot;NPT.0"><g><path style="stroke:#000000;stroke-width:0.250" d="M102.28,266.61L117.83,252.78"/></g><g/><g><path style="fill:#ffffa0" d="M75.78,267.39L128.78,267.39L128.78,261.18L75.78,261.18z"/><path style="stroke:#000000;stroke-width:0.250;stroke-opacity:0.98" d="M75.78,267.39L128.78,267.39L128.78,261.18L75.78,261.18z"/><text xml:space="preserve" fill="#000000" stroke-width="0" x="76.55" y="265.64" font-size="3.80" opacity="1.00" font-family="MS Shell Dlg">434578-Fitting 1/2" to 3/8"NPT</text></g></g><g id="PMI779125-Tube 3/8&quot;.0"><g><path style="stroke:#000000;stroke-width:0.250" d="M134.76,144.34L130.88,144.34L111.51,193.50"/></g><g><path style="fill:#000000" d="M112.18,194.34L112.17,194.24L112.16,194.14L112.14,194.05L112.10,193.95L112.06,193.87L112.01,193.78L111.95,193.70L111.89,193.63L111.81,193.56L111.73,193.51L111.65,193.45L111.56,193.41L111.47,193.38L111.37,193.36L111.28,193.34L111.18,193.34L111.08,193.34L110.98,193.36L110.89,193.38L110.80,193.41L110.71,193.45L110.62,193.51L110.55,193.56L110.47,193.63L110.41,193.70L110.35,193.78L110.30,193.87L110.26,193.95L110.22,194.05L110.20,194.14L110.18,194.24L110.18,194.34L110.18,194.43L110.20,194.53L110.22,194.63L110.26,194.72L110.30,194.81L110.35,194.89L110.41,194.97L110.47,195.04L110.55,195.11L110.62,195.17L110.71,195.22L110.80,195.26L110.89,195.29L110.98,195.32L111.08,195.33L111.18,195.34L111.28,195.33L111.37,195.32L111.47,195.29L111.56,195.26L111.65,195.22L111.73,195.17L111.81,195.11L111.89,195.04L111.95,194.97L112.01,194.89L112.06,194.81L112.10,194.72L112.14,194.63L112.16,194.53L112.17,194.43z"/></g><g><path style="fill:#ffffa0" d="M133.99,147.44L165.66,147.44L165.66,141.24L133.99,141.24z"/><path style="stroke:#000000;stroke-width:0.250;stroke-opacity:0.98" d="M133.99,147.44L165.66,147.44L165.66,141.24L133.99,141.24z"/><text xml:space="preserve" fill="#000000" stroke-width="0" x="134.76" y="145.70" font-size="3.79" opacity="1.00" font-family="MS Shell Dlg">779125-Tube 3/8"</text></g></g><g id="PMI779131-Tube 1/2&quot;.0"><g><path style="stroke:#000000;stroke-width:0.250" d="M143.12,274.73L128.41,252.67"/></g><g/><g><path style="fill:#ffffa0" d="M127.28,275.50L158.96,275.50L158.96,269.29L127.28,269.29z"/><path style="stroke:#000000;stroke-width:0.250;stroke-opacity:0.98" d="M127.28,275.50L158.96,275.50L158.96,269.29L127.28,269.29z"/><text xml:space="preserve" fill="#000000" stroke-width="0" x="128.06" y="273.76" font-size="3.79" opacity="1.00" font-family="MS Shell Dlg">779131-Tube 1/2"</text></g></g><g id="PMI438793-Muffler.0"><g><path style="stroke:#000000;stroke-width:0.250" d="M158.85,264.85L143.59,252.51"/></g><g/><g><path style="fill:#ffffa0" d="M145.27,265.62L172.42,265.62L172.42,259.42L145.27,259.42z"/><path style="stroke:#000000;stroke-width:0.250;stroke-opacity:0.98" d="M145.27,265.62L172.42,265.62L172.42,259.42L145.27,259.42z"/><text xml:space="preserve" fill="#000000" stroke-width="0" x="146.05" y="263.88" font-size="3.80" opacity="1.00" font-family="MS Shell Dlg">438793-Muffler</text></g></g><g id="PMI747823-Fitting 3/8&quot; to 1/4&quot;NPT.0"><g><path style="stroke:#000000;stroke-width:0.250" d="M28.84,124.44L65.45,133.26"/></g><g><path style="fill:#000000" d="M67.00,133.40L66.99,133.30L66.98,133.20L66.96,133.10L66.92,133.01L66.88,132.92L66.83,132.84L66.77,132.76L66.71,132.69L66.63,132.62L66.55,132.56L66.47,132.51L66.38,132.47L66.29,132.44L66.19,132.41L66.10,132.40L66.00,132.40L65.90,132.40L65.80,132.41L65.71,132.44L65.62,132.47L65.53,132.51L65.44,132.56L65.36,132.62L65.29,132.69L65.23,132.76L65.17,132.84L65.12,132.92L65.08,133.01L65.04,133.10L65.02,133.20L65.00,133.30L65.00,133.40L65.00,133.49L65.02,133.59L65.04,133.69L65.08,133.78L65.12,133.87L65.17,133.95L65.23,134.03L65.29,134.10L65.36,134.17L65.44,134.23L65.53,134.28L65.62,134.32L65.71,134.35L65.80,134.38L65.90,134.39L66.00,134.40L66.10,134.39L66.19,134.38L66.29,134.35L66.38,134.32L66.47,134.28L66.55,134.23L66.63,134.17L66.71,134.10L66.77,134.03L66.83,133.95L66.88,133.87L66.92,133.78L66.96,133.69L66.98,133.59L66.99,133.49z"/></g><g><path style="fill:#ffffa0" d="M2.40,125.22L55.28,125.22L55.28,119.01L2.40,119.01z"/><path style="stroke:#000000;stroke-width:0.250;stroke-opacity:0.98" d="M2.40,125.22L55.28,125.22L55.28,119.01L2.40,119.01z"/><text xml:space="preserve" fill="#000000" stroke-width="0" x="3.18" y="123.47" font-size="3.79" opacity="1.00" font-family="MS Shell Dlg">747823-Fitting 3/8" to 1/4"NPT</text></g></g><g id="PMI426014-Fitting 3/8&quot;.0"><g><path style="stroke:#000000;stroke-width:0.250" d="M150.76,153.37L135.68,193.24"/></g><g><path style="fill:#000000" d="M136.35,194.13L136.35,194.03L136.33,193.93L136.31,193.84L136.27,193.74L136.23,193.65L136.18,193.57L136.12,193.49L136.06,193.42L135.99,193.35L135.91,193.29L135.82,193.24L135.73,193.20L135.64,193.17L135.55,193.14L135.45,193.13L135.35,193.13L135.25,193.13L135.16,193.14L135.06,193.17L134.97,193.20L134.88,193.24L134.80,193.29L134.72,193.35L134.64,193.42L134.58,193.49L134.52,193.57L134.47,193.65L134.43,193.74L134.39,193.84L134.37,193.93L134.36,194.03L134.35,194.13L134.36,194.22L134.37,194.32L134.39,194.42L134.43,194.51L134.47,194.60L134.52,194.68L134.58,194.76L134.64,194.83L134.72,194.90L134.80,194.96L134.88,195.01L134.97,195.05L135.06,195.08L135.16,195.11L135.25,195.12L135.35,195.13L135.45,195.12L135.55,195.11L135.64,195.08L135.73,195.05L135.82,195.01L135.91,194.96L135.99,194.90L136.06,194.83L136.12,194.76L136.18,194.68L136.23,194.60L136.27,194.51L136.31,194.42L136.33,194.32L136.35,194.22z"/></g><g><path style="fill:#ffffa0" d="M133.99,154.15L167.53,154.15L167.53,147.94L133.99,147.94z"/><path style="stroke:#000000;stroke-width:0.250;stroke-opacity:0.98" d="M133.99,154.15L167.53,154.15L167.53,147.94L133.99,147.94z"/><text xml:space="preserve" fill="#000000" stroke-width="0" x="134.76" y="152.40" font-size="3.79" opacity="1.00" font-family="MS Shell Dlg">426014-Fitting 3/8"</text></g></g><g id="PMI434596-Valve.0"><g><path style="stroke:#000000;stroke-width:0.250" d="M161.10,198.08L171.80,175.03L175.68,175.03"/></g><g><path style="fill:#000000" d="M149.60,225.02L149.59,224.92L149.58,224.82L149.56,224.73L149.52,224.63L149.48,224.54L149.43,224.46L149.37,224.38L149.31,224.31L149.23,224.24L149.15,224.18L149.07,224.13L148.98,224.09L148.89,224.06L148.79,224.03L148.70,224.02L148.60,224.02L148.50,224.02L148.40,224.03L148.31,224.06L148.22,224.09L148.13,224.13L148.04,224.18L147.96,224.24L147.89,224.31L147.83,224.38L147.77,224.46L147.72,224.54L147.68,224.63L147.64,224.73L147.62,224.82L147.60,224.92L147.60,225.02L147.60,225.11L147.62,225.21L147.64,225.31L147.68,225.40L147.72,225.49L147.77,225.57L147.83,225.65L147.89,225.72L147.96,225.79L148.04,225.85L148.13,225.90L148.22,225.94L148.31,225.97L148.40,226.00L148.50,226.01L148.60,226.02L148.70,226.01L148.79,226.00L148.89,225.97L148.98,225.94L149.07,225.90L149.15,225.85L149.23,225.79L149.31,225.72L149.37,225.65L149.43,225.57L149.48,225.49L149.52,225.40L149.56,225.31L149.58,225.21L149.59,225.11z"/></g><g><path style="fill:#ffffa0" d="M174.91,178.13L199.92,178.13L199.92,171.93L174.91,171.93z"/><path style="stroke:#000000;stroke-width:0.250;stroke-opacity:0.98" d="M174.91,178.13L199.92,178.13L199.92,171.93L174.91,171.93z"/><text xml:space="preserve" fill="#000000" stroke-width="0" x="175.68" y="176.39" font-size="3.80" opacity="1.00" font-family="MS Shell Dlg">434596-Valve</text></g></g><g id="PMISB211KIT-A-30psi Regulator.0"><g><path style="stroke:#000000;stroke-width:0.250" d="M93.87,119.31L100.03,116.76"/><path style="stroke:#000000;stroke-width:0.250" d="M107.70,113.59L132.29,103.42L136.17,103.42"/></g><g><path style="fill:#000000" d="M94.87,119.31L94.87,119.21L94.86,119.11L94.83,119.02L94.80,118.92L94.76,118.83L94.71,118.75L94.65,118.67L94.58,118.60L94.51,118.53L94.43,118.47L94.35,118.42L94.26,118.38L94.17,118.35L94.07,118.32L93.97,118.31L93.87,118.31L93.78,118.31L93.68,118.32L93.58,118.35L93.49,118.38L93.40,118.42L93.32,118.47L93.24,118.53L93.17,118.60L93.10,118.67L93.04,118.75L92.99,118.83L92.95,118.92L92.92,119.02L92.89,119.11L92.88,119.21L92.87,119.31L92.88,119.40L92.89,119.50L92.92,119.60L92.95,119.69L92.99,119.78L93.04,119.86L93.10,119.94L93.17,120.01L93.24,120.08L93.32,120.14L93.40,120.19L93.49,120.23L93.58,120.26L93.68,120.29L93.78,120.30L93.87,120.31L93.97,120.30L94.07,120.29L94.17,120.26L94.26,120.23L94.35,120.19L94.43,120.14L94.51,120.08L94.58,120.01L94.65,119.94L94.71,119.86L94.76,119.78L94.80,119.69L94.83,119.60L94.86,119.50L94.87,119.40z"/></g><g><path style="fill:#ffffa0" d="M135.40,106.52L185.90,106.52L185.90,100.31L135.40,100.31z"/><path style="stroke:#000000;stroke-width:0.250;stroke-opacity:0.98" d="M135.40,106.52L185.90,106.52L185.90,100.31L135.40,100.31z"/><text xml:space="preserve" fill="#000000" stroke-width="0" x="136.17" y="104.77" font-size="3.79" opacity="1.00" font-family="MS Shell Dlg">SB211KIT-A-30psi Regulator</text></g></g><g/><g><g/><g><image x="0.000000" y="254.000015" height="25.000000" width="25.000000" xlink:href="Top-Clamp-Pneumatic_files/983751c8c3e469c5_image_0.jpg" mask="url(#mask0)"/></g></g><g><g/><g><image x="0.629476" y="0.656952" height="25.000000" width="25.000000" xlink:href="Top-Clamp-Pneumatic_files/983751c8c3e469c5_image_1.jpg" mask="url(#mask1)"/></g></g><g><g/><g><image x="407.000000" y="254.000015" height="25.000000" width="25.000000" xlink:href="Top-Clamp-Pneumatic_files/983751c8c3e469c5_image_2.jpg" mask="url(#mask2)"/></g></g><g><g/><g><image x="407.000000" y="0.000000" height="25.000000" width="25.000000" xlink:href="Top-Clamp-Pneumatic_files/983751c8c3e469c5_image_3.jpg" mask="url(#mask3)"/></g></g><g><g/><g><path style="stroke:#000000;stroke-width:0.125;fill:#ffffff" d="M144.04,15.52L255.86,15.52L255.86,32.44L144.04,32.44z"/><text xml:space="preserve" fill="#000000" stroke-width="0" x="146.16" y="27.15" font-size="10.36" opacity="1.00" font-family="MS Shell Dlg">Top Clamp Pneumatics</text></g></g><g><g/><g><path style="stroke:#000000;stroke-width:0.125;fill:#ffffff" d="M74.22,41.88L111.85,41.88L111.85,51.97L74.22,51.97z"/><text xml:space="preserve" fill="#000000" stroke-width="0" x="75.00" y="46.15" font-size="3.80" opacity="1.00" font-family="MS Shell Dlg">Top Clamp Regulator</text><text xml:space="preserve" fill="#000000" stroke-width="0" x="75.00" y="50.03" font-size="3.78" opacity="1.00" font-family="MS Shell Dlg">30 PSI Max</text></g></g><g><g/><g><image x="187.289795" y="96.522736" height="15.000000" width="15.000000" xlink:href="Top-Clamp-Pneumatic_files/983751c8c3e469c5_image_4.jpg" mask="url(#mask4)"/></g></g><g/><g id="paperID" visibility="hidden" opacity="0.00" transform="scale(0.000100)"><path style="stroke:#000000;stroke-width:0.500;fill:#e6e6e6;fill-rule:evenodd" d="M-2000.00,-2000.00L2431.80,-2000.00L2431.80,2279.40L-2000.00,2279.40zM0.00,0.00L431.80,0.00L431.80,279.40L0.00,279.40z"/><path style="fill:#000000;fill-opacity:0.118" d="M3.00,279.40L431.80,279.40L431.80,3.00L434.80,3.00L434.80,282.40L3.00,282.40z"/></g><g><g><path style="stroke:#000000;stroke-width:0.353;fill:#f0f0ff" d="M281.32,111.30L395.67,111.30L395.67,117.72L281.32,117.72z"/><text xml:space="preserve" fill="#000000" stroke-width="0" x="283.79" y="116.24" font-size="4.62" opacity="1.00" font-family="MS Shell Dlg" font-weight="bold">Description</text><text xml:space="preserve" fill="#000000" stroke-width="0" x="315.45" y="116.24" font-size="4.63" opacity="1.00" font-family="MS Shell Dlg" font-weight="bold">BOM ID</text><text xml:space="preserve" fill="#000000" stroke-width="0" x="385.87" y="116.24" font-size="4.58" opacity="1.00" font-family="MS Shell Dlg" font-weight="bold">Qty</text><path style="stroke:#000000;stroke-width:0.353" d="M312.98,111.30L312.98,117.72"/><path style="stroke:#000000;stroke-width:0.353" d="M383.41,111.30L383.41,117.72"/></g><g id="Line426014-Fitting 3/8&quot;"><path style="stroke:#000000;stroke-width:0.353;fill:#ffffff" d="M281.32,117.72L395.67,117.72L395.67,124.14L281.32,124.14z"/><text xml:space="preserve" fill="#000000" stroke-width="0" x="283.79" y="122.65" font-size="4.83" opacity="1.00" font-family="MS Shell Dlg">426014</text><text xml:space="preserve" fill="#000000" stroke-width="0" x="315.45" y="122.65" font-size="4.83" opacity="1.00" font-family="MS Shell Dlg">426014-Fitting 3/8"</text><text xml:space="preserve" fill="#000000" stroke-width="0" x="385.87" y="122.65" font-size="4.58" opacity="1.00" font-family="MS Shell Dlg">2</text><path style="stroke:#000000;stroke-width:0.353" d="M312.98,117.72L312.98,124.14"/><path style="stroke:#000000;stroke-width:0.353" d="M383.41,117.72L383.41,124.14"/></g><g id="Line434578-Fitting 1/2&quot; to 3/8&quot;NPT"><path style="stroke:#000000;stroke-width:0.353;fill:#f0f0ff" d="M281.32,124.14L395.67,124.14L395.67,130.56L281.32,130.56z"/><text xml:space="preserve" fill="#000000" stroke-width="0" x="283.79" y="129.07" font-size="4.83" opacity="1.00" font-family="MS Shell Dlg">434578</text><text xml:space="preserve" fill="#000000" stroke-width="0" x="315.45" y="129.07" font-size="4.84" opacity="1.00" font-family="MS Shell Dlg">434578-Fitting 1/2" to 3/8"NPT</text><text xml:space="preserve" fill="#000000" stroke-width="0" x="385.87" y="129.07" font-size="3.88" opacity="1.00" font-family="MS Shell Dlg">1</text><path style="stroke:#000000;stroke-width:0.353" d="M312.98,124.14L312.98,130.56"/><path style="stroke:#000000;stroke-width:0.353" d="M383.41,124.14L383.41,130.56"/></g><g id="Line434596-Valve"><path style="stroke:#000000;stroke-width:0.353;fill:#ffffff" d="M281.32,130.56L395.67,130.56L395.67,136.97L281.32,136.97z"/><text xml:space="preserve" fill="#000000" stroke-width="0" x="283.79" y="135.49" font-size="4.83" opacity="1.00" font-family="MS Shell Dlg">434596</text><text xml:space="preserve" fill="#000000" stroke-width="0" x="315.45" y="135.49" font-size="4.83" opacity="1.00" font-family="MS Shell Dlg">434596-Valve</text><text xml:space="preserve" fill="#000000" stroke-width="0" x="385.87" y="135.49" font-size="3.88" opacity="1.00" font-family="MS Shell Dlg">1</text><path style="stroke:#000000;stroke-width:0.353" d="M312.98,130.56L312.98,136.97"/><path style="stroke:#000000;stroke-width:0.353" d="M383.41,130.56L383.41,136.97"/></g><g id="Line438793-Muffler"><path style="stroke:#000000;stroke-width:0.353;fill:#f0f0ff" d="M281.32,136.97L395.67,136.97L395.67,143.39L281.32,143.39z"/><text xml:space="preserve" fill="#000000" stroke-width="0" x="283.79" y="141.91" font-size="4.83" opacity="1.00" font-family="MS Shell Dlg">438793</text><text xml:space="preserve" fill="#000000" stroke-width="0" x="315.45" y="141.91" font-size="4.84" opacity="1.00" font-family="MS Shell Dlg">438793-Muffler</text><text xml:space="preserve" fill="#000000" stroke-width="0" x="385.87" y="141.91" font-size="4.58" opacity="1.00" font-family="MS Shell Dlg">2</text><path style="stroke:#000000;stroke-width:0.353" d="M312.98,136.97L312.98,143.39"/><path style="stroke:#000000;stroke-width:0.353" d="M383.41,136.97L383.41,143.39"/></g><g id="Line747823-Fitting 3/8&quot; to 1/4&quot;NPT"><path style="stroke:#000000;stroke-width:0.353;fill:#ffffff" d="M281.32,143.39L395.67,143.39L395.67,149.81L281.32,149.81z"/><text xml:space="preserve" fill="#000000" stroke-width="0" x="283.79" y="148.33" font-size="4.78" opacity="1.00" font-family="MS Shell Dlg">747823</text><text xml:space="preserve" fill="#000000" stroke-width="0" x="315.45" y="148.33" font-size="4.82" opacity="1.00" font-family="MS Shell Dlg">747823-Fitting 3/8" to 1/4"NPT</text><text xml:space="preserve" fill="#000000" stroke-width="0" x="385.87" y="148.33" font-size="4.58" opacity="1.00" font-family="MS Shell Dlg">2</text><path style="stroke:#000000;stroke-width:0.353" d="M312.98,143.39L312.98,149.81"/><path style="stroke:#000000;stroke-width:0.353" d="M383.41,143.39L383.41,149.81"/></g><g id="Line779125-Tube 3/8&quot;"><path style="stroke:#000000;stroke-width:0.353;fill:#f0f0ff" d="M281.32,149.81L395.67,149.81L395.67,156.23L281.32,156.23z"/><text xml:space="preserve" fill="#000000" stroke-width="0" x="283.79" y="154.75" font-size="4.78" opacity="1.00" font-family="MS Shell Dlg">779125</text><text xml:space="preserve" fill="#000000" stroke-width="0" x="315.45" y="154.75" font-size="4.82" opacity="1.00" font-family="MS Shell Dlg">779125-Tube 3/8"</text><text xml:space="preserve" fill="#000000" stroke-width="0" x="385.87" y="154.75" font-size="3.88" opacity="1.00" font-family="MS Shell Dlg">1</text><path style="stroke:#000000;stroke-width:0.353" d="M312.98,149.81L312.98,156.23"/><path style="stroke:#000000;stroke-width:0.353" d="M383.41,149.81L383.41,156.23"/></g><g id="Line779131-Tube 1/2&quot;"><path style="stroke:#000000;stroke-width:0.353;fill:#ffffff" d="M281.32,156.23L395.67,156.23L395.67,162.65L281.32,162.65z"/><text xml:space="preserve" fill="#000000" stroke-width="0" x="283.79" y="161.17" font-size="4.78" opacity="1.00" font-family="MS Shell Dlg">779131</text><text xml:space="preserve" fill="#000000" stroke-width="0" x="315.45" y="161.17" font-size="4.82" opacity="1.00" font-family="MS Shell Dlg">779131-Tube 1/2"</text><text xml:space="preserve" fill="#000000" stroke-width="0" x="385.87" y="161.17" font-size="3.88" opacity="1.00" font-family="MS Shell Dlg">1</text><path style="stroke:#000000;stroke-width:0.353" d="M312.98,156.23L312.98,162.65"/><path style="stroke:#000000;stroke-width:0.353" d="M383.41,156.23L383.41,162.65"/></g><g id="LineSB211KIT-A-30psi Regulator"><path style="stroke:#000000;stroke-width:0.353;fill:#f0f0ff" d="M281.32,162.65L395.67,162.65L395.67,169.07L281.32,169.07z"/><text xml:space="preserve" fill="#000000" stroke-width="0" x="283.79" y="167.59" font-size="4.81" opacity="1.00" font-family="MS Shell Dlg">SB211KIT-A</text><text xml:space="preserve" fill="#000000" stroke-width="0" x="315.45" y="167.59" font-size="4.83" opacity="1.00" font-family="MS Shell Dlg">SB211KIT-A-30psi Regulator</text><text xml:space="preserve" fill="#000000" stroke-width="0" x="385.87" y="167.59" font-size="3.88" opacity="1.00" font-family="MS Shell Dlg">1</text><path style="stroke:#000000;stroke-width:0.353" d="M312.98,162.65L312.98,169.07"/><path style="stroke:#000000;stroke-width:0.353" d="M383.41,162.65L383.41,169.07"/></g></g><g id="hotspot.0" onmouseover="ShowHotSpot(evt,'0')" onmouseout="HideHotSpot(evt,'0')" onmousemove="ShowToolTip(evt,'0',&quot;Order&quot;)" opacity="0"><a xlink:href="https://www.mitek-us.com/resources/machinery/Find-and-Order-Parts/" target="_blank"><path style="fill:#00ff00;fill-rule:evenodd" d="M431.24,25.05L407.30,25.05L407.30,0.44L431.24,0.44z"/></a></g><g id="hotspot.1" onmouseover="ShowHotSpot(evt,'1')" onmouseout="HideHotSpot(evt,'1')" onmousemove="ShowToolTip(evt,'1',&quot;Back&quot;)" opacity="0"><a xlink:href="javascript:history.go(-1)"><path style="fill:#00ff00;fill-rule:evenodd" d="M25.05,278.96L0.44,278.96L0.44,254.01L25.05,254.01z"/></a></g><g id="hotspot.2" onmouseover="ShowHotSpot(evt,'2')" onmouseout="HideHotSpot(evt,'2')" onmousemove="ShowToolTip(evt,'2',&quot;Home&quot;)" opacity="0"><a xlink:href="./Saw-Overview.svg"><path style="fill:#00ff00;fill-rule:evenodd" d="M25.73,25.39L0.78,25.39L0.78,0.78L25.73,0.78z"/></a></g><g id="hotspot.3" onmouseover="ShowHotSpot(evt,'3')" onmouseout="HideHotSpot(evt,'3')" onmousemove="ShowToolTip(evt,'3',&quot;28&quot;)" opacity="0"><a xlink:href="https://www.mitek-us.com/uploadedFiles/_RedesignSite/Content/documents/machinery/service-bulletins/SB211_Replacing%20Regulator_Low.pdf" target="_Blank"><path style="fill:#00ff00;fill-rule:evenodd" d="M202.14,111.39L187.39,111.39L187.39,96.63L202.14,96.63z"/></a></g><g id="hotspot.4" onmouseover="ShowHotSpot(evt,'4')" onmouseout="HideHotSpot(evt,'4')" onmousemove="ShowToolTip(evt,'4',&quot;Forward&quot;)" opacity="0"><a xlink:href="javascript:history.go(1)"><path style="fill:#00ff00;fill-rule:evenodd" d="M431.24,278.96L407.30,278.96L407.30,254.01L431.24,254.01z"/></a></g><g id="hotspot.5" onmouseover="ShowHotSpot(evt,'5')" onmouseout="HideHotSpot(evt,'5')" onmousemove="ShowToolTip(evt,'5',&quot;426014&quot;)" opacity="0"><path style="fill:#00ff00;fill-rule:evenodd" d="M281.32,117.72L281.32,124.14L395.67,124.14L395.67,117.72zM167.84,148.27L167.81,154.22L150.71,154.45L150.25,154.98L150.14,154.42L134.02,154.22L134.02,147.96L167.50,147.93zM150.11,155.93L150.04,155.16L150.25,154.98zM149.09,158.64L149.00,157.90L149.22,157.71zM148.07,161.36L147.98,160.62L148.20,160.43zM147.06,164.08L146.96,163.34L147.18,163.15zM145.36,168.50L145.26,167.76L145.48,167.57zM144.34,171.22L144.24,170.48L144.46,170.29zM143.32,173.94L143.22,173.19L143.44,173.01zM142.30,176.66L142.20,175.91L142.42,175.73zM141.28,179.38L141.18,178.63L141.40,178.45zM139.58,183.80L139.48,183.05L139.70,182.87zM138.56,186.52L138.46,185.77L138.68,185.59zM137.54,189.23L137.44,188.49L137.66,188.31zM136.52,191.95L136.42,191.21L136.64,191.03zM135.85,193.26L135.05,193.20L135.94,192.89z"/></g><g id="hotspot.6" onmouseover="ShowHotSpot(evt,'6')" onmouseout="HideHotSpot(evt,'6')" onmousemove="ShowToolTip(evt,'6',&quot;434578&quot;)" opacity="0"><path style="fill:#00ff00;fill-rule:evenodd" d="M281.32,124.14L281.32,130.56L395.67,130.56L395.67,124.14zM128.75,261.12L129.09,261.46L129.06,267.40L75.90,267.40L75.90,261.15L109.02,260.85z"/></g><g id="hotspot.7" onmouseover="ShowHotSpot(evt,'7')" onmouseout="HideHotSpot(evt,'7')" onmousemove="ShowToolTip(evt,'7',&quot;V62S711A-body-1&quot;)" opacity="0"><path style="fill:#00ff00;fill-rule:evenodd" d="M281.32,130.56L281.32,136.97L395.67,136.97L395.67,130.56zM172.08,174.83L174.61,174.61L174.81,172.09L200.10,172.09L200.10,178.35L174.92,178.24L174.61,175.15zM230.68,187.07L230.89,195.68L235.71,195.60L236.12,195.33L236.36,188.10L237.10,187.81L237.38,187.08L240.18,187.08L240.47,187.81L241.20,188.09L241.58,190.09L241.91,190.45L242.11,195.34L249.37,195.56L250.40,198.61L250.64,212.31L251.37,212.59L251.68,213.35L254.52,213.19L255.16,214.59L255.17,221.18L254.70,221.73L251.99,221.70L251.80,223.93L250.63,224.45L250.41,230.35L247.23,230.57L222.06,230.89L221.86,251.09L201.37,251.33L201.08,251.72L178.67,252.09L88.29,252.98L87.93,252.65L85.41,252.64L84.77,253.02L71.63,252.98L71.28,252.65L50.76,252.77L49.50,248.93L49.19,232.93L21.63,232.62L20.25,226.86L19.57,225.85L19.30,224.12L16.54,224.11L16.18,223.45L16.20,216.06L16.76,215.58L19.24,215.72L19.84,214.94L20.27,214.69L20.49,197.92L29.13,197.72L29.36,190.47L30.12,190.21L30.36,189.09L33.18,189.11L33.46,189.86L34.25,190.42L34.58,192.13L34.91,192.48L35.11,197.72L40.35,197.72L40.69,187.80L41.01,187.74L41.37,188.39L41.57,197.38L49.19,197.38L49.39,194.87L69.87,194.62L70.16,194.23L71.84,193.86L158.30,193.16L158.94,193.54L162.04,193.88L162.91,193.86L163.35,193.21L163.61,193.57L165.96,193.49L166.31,193.16L169.05,192.84L199.42,192.82L199.77,193.15L206.44,193.18L220.48,192.85L221.40,195.66L229.33,195.68L229.62,186.10L229.94,185.66L230.31,185.66z"/></g><g id="hotspot.8" onmouseover="ShowHotSpot(evt,'8')" onmouseout="HideHotSpot(evt,'8')" onmousemove="ShowToolTip(evt,'8',&quot;438793&quot;)" opacity="0"><path style="fill:#00ff00;fill-rule:evenodd" d="M281.32,136.97L281.32,143.39L395.67,143.39L395.67,136.97zM172.57,259.45L172.57,265.70L145.24,265.70L145.24,259.45L152.14,259.11z"/></g><g id="hotspot.9" onmouseover="ShowHotSpot(evt,'9')" onmouseout="HideHotSpot(evt,'9')" onmousemove="ShowToolTip(evt,'9',&quot;747823&quot;)" opacity="0"><path style="fill:#00ff00;fill-rule:evenodd" d="M281.32,143.39L281.32,149.81L395.67,149.81L395.67,143.39zM2.48,125.32L2.48,119.07L55.30,119.07L55.30,125.32L34.43,125.57L34.31,125.76L32.86,125.54zM63.90,132.91L65.53,132.68L65.49,134.18L65.13,133.39z"/></g><g id="hotspot.10" onmouseover="ShowHotSpot(evt,'10')" onmouseout="HideHotSpot(evt,'10')" onmousemove="ShowToolTip(evt,'10',&quot;779125&quot;)" opacity="0"><path style="fill:#00ff00;fill-rule:evenodd" d="M281.32,149.81L281.32,156.23L395.67,156.23L395.67,149.81zM131.04,144.67L130.94,144.28L133.82,144.02L134.02,141.50L165.77,141.50L165.77,147.42L134.02,147.42L133.82,144.56zM127.34,154.22L127.25,153.48L127.46,153.30zM122.92,165.44L122.83,164.70L123.04,164.51zM117.82,178.36L117.73,177.61L117.95,177.43zM113.40,189.57L113.31,188.83L113.53,188.65z"/></g><g id="hotspot.11" onmouseover="ShowHotSpot(evt,'11')" onmouseout="HideHotSpot(evt,'11')" onmousemove="ShowToolTip(evt,'11',&quot;779131&quot;)" opacity="0"><path style="fill:#00ff00;fill-rule:evenodd" d="M281.32,156.23L281.32,162.65L395.67,162.65L395.67,156.23zM158.97,269.30L158.97,275.56L127.22,275.56L127.33,269.41L139.61,269.01z"/></g><g id="hotspot.12" onmouseover="ShowHotSpot(evt,'12')" onmouseout="HideHotSpot(evt,'12')" onmousemove="ShowToolTip(evt,'12',&quot;747823&quot;)" opacity="0"><path style="fill:#00ff00;fill-rule:evenodd" d="M281.32,162.65L281.32,169.07L395.67,169.07L395.67,162.65zM101.52,58.24L105.59,58.92L109.34,60.28L112.06,61.97L113.07,63.34L113.75,65.72L113.97,78.76L117.85,79.29L120.56,80.67L122.63,82.67L124.31,85.75L124.63,88.15L124.95,103.47L128.04,113.29L128.05,114.79L127.76,115.18L125.21,116.03L118.34,116.73L118.36,117.10L119.57,117.69L120.56,121.11L120.57,149.12L118.39,149.32L118.19,160.67L114.99,160.87L114.81,165.12L112.97,165.99L112.74,167.12L108.55,167.69L105.17,168.73L97.33,169.05L90.98,169.05L82.47,168.72L79.76,168.03L74.90,167.45L74.00,166.31L71.60,165.65L71.24,161.60L70.55,160.58L68.52,153.77L68.21,150.01L67.08,149.78L65.81,145.95L65.81,117.82L68.26,117.46L68.26,117.07L62.43,116.70L60.36,116.38L58.60,115.43L55.62,105.50L55.29,102.09L55.29,88.60L55.86,85.77L57.35,83.18L60.04,80.78L61.62,79.97L63.34,79.66L72.30,79.44L72.61,64.79L74.01,62.45L76.36,60.38L80.32,58.91L84.41,58.24L89.17,57.90L96.76,57.90zM131.86,103.66L132.03,103.47L135.18,103.23L135.38,100.37L186.17,100.37L186.17,106.63L135.38,106.63L135.18,103.77zM131.70,103.88L130.95,103.79L131.86,103.66zM118.51,87.13L119.89,88.81L119.89,91.00L119.40,91.87L117.74,92.92L113.97,93.03L113.97,86.78L117.50,86.78zM60.07,89.30L61.29,87.80L61.96,87.45L72.30,87.46L72.28,93.02L71.88,93.29L69.46,93.59L62.41,93.61L60.75,92.89L60.02,91.91z"/></g><g id="ToolTip" visibility="hidden" opacity="0" transform="translate(0,0)"><rect id="ToolTipShadow" opacity="0.20" fill="black" stroke="none" x="0" y="0" width="30" height="8"/><rect id="ToolTipBG" fill="#ffffe1" stroke="black" x="0" y="0" width="30" height="8"/><text xml:space="preserve" id="ToolTipText" fill="black" x="0" y="0" width="30" height="8">tooltip</text></g></g></svg>
