<?xml version="1.0" encoding="UTF-8" standalone="no"?>
<svg xmlns="http://www.w3.org/2000/svg" xmlns:xlink="http://www.w3.org/1999/xlink" width="431.800mm" height="279.400mm" viewBox="0.000000 0.000000 431.799988 279.399994" stroke-linejoin="round" stroke-linecap="round" fill="none" fill-rule="evenodd"><desc>Composer Export</desc><script type="text/ecmascript"><![CDATA[
if(typeof(top) != "undefined")
{
	top.ShowPaper = ShowPaper;
}
function ShowHotSpot(evt,hotspotid)
{
	var svgDocument = evt.target.ownerDocument;
	var strId = "hotspot."+hotspotid;
	var hotspot = svgDocument.getElementById(strId);
	if(hotspot)
		hotspot.setAttribute("opacity",".5");
}
function HideHotSpot(evt,hotspotid)
{
	var svgDocument = evt.target.ownerDocument;
	var strId = "hotspot."+hotspotid;
	var hotspot = svgDocument.getElementById(strId);
	if(hotspot)
		hotspot.setAttribute("opacity","0");

	var toolTip = svgDocument.getElementById('ToolTip');
	if(toolTip)
		toolTip.setAttribute("visibility","hidden");
}
function ShowToolTip(evt,hotspotid,strTooltip)
{
	if(strTooltip=="")
	return;

	// change text
	var svgDocument = evt.target.ownerDocument;
	var tiptext = svgDocument.getElementById('ToolTipText');
	if( !tiptext )
	return;
	tiptext.firstChild.nodeValue = " " + strTooltip + "  " ;

	// show tooltip before, else some refresh issue

	var toolTip = svgDocument.getElementById('ToolTip');
	if(!toolTip)
	return;

	toolTip.setAttribute("visibility","visible");
	toolTip.setAttribute("opacity",".95");

	// move tooltip
	// get viewbox

	var root = svgDocument.documentElement;
	var vbox = (root.getAttribute("viewBox")).split(' ');
	var x0 = parseFloat(vbox[0]);
	var y0 = parseFloat(vbox[1]);
	var vboxW = parseFloat(vbox[2]);
	var vboxH = parseFloat(vbox[3]);

	// get default width of svg

	var strW = root.getAttribute("width");
	var svgW = parseFloat(strW);
	if(strW.indexOf('mm') != -1)
	svgW *= 3.779;

	var strH = root.getAttribute("height");
	var svgH = parseFloat(strH);
	if(strH.indexOf('mm') != -1)
	svgH *= 3.779;  	// 96 dpi  -> 96/25.4 = 3.779

	// update the viewbox / width / height if svg is embedded in html with zoom fit all
	var realx0 = x0;
	var realy0 = y0;
	var realvboxW = vboxW;
	var realvboxH = vboxH;
	var realsvgW = svgW;
	var realsvgH = svgH;

	if ((typeof(top) == "undefined") || (typeof(top.svgctl1) != "undefined")) // embedded in html
	{
		// get window size in pxl

		svgW = window.innerWidth;
		svgH = window.innerHeight;

		// calculate real viewbox

		realsvgW = svgW;
		realsvgH = svgH;
		if((svgW / svgH) > (vboxW / vboxH))
		{
			realvboxW = (vboxH * svgW) / svgH;
			realvboxH = vboxH;
			realx0 = x0 - (realvboxW - vboxW)/2 ;
		}
		else
		{
			realvboxH = (vboxW * svgH) / svgW;
			realvboxW = vboxW;
			realy0 = y0 - (realvboxH - vboxH)/2 ;
		}
	}

	// get user zoom/pan

	var newScale = root.currentScale;
	var translation = root.currentTranslate;

	// transform pxl to user unit

	var xPos = (((evt.clientX+10- translation.x)/newScale) * realvboxW)/realsvgW  + realx0 ;
	var yPos = (((evt.clientY+5- translation.y)/newScale) * realvboxH)/ realsvgH  + realy0 ;
	var scaleForWidth = ( (1 / newScale) * realvboxH) / realsvgH;

	// move tooltip

	toolTip.setAttribute("transform", "translate(" + xPos + "," + yPos + ")" );

	// resize tooltip

	var fontsize = 12;
	tiptext.setAttribute("font-size",fontsize*scaleForWidth);
	tiptext.setAttribute("y", fontsize*scaleForWidth);
	var tipBG = svgDocument.getElementById('ToolTipBG');
	var outline = tiptext.getBBox();
	if(tipBG)
	{
		tipBG.setAttribute("stroke-width", 1*scaleForWidth);
		tipBG.setAttribute("width", Number(outline.width) );
		tipBG.setAttribute("height", Number(outline.height) + fontsize*.5*scaleForWidth );
	}
	var ToolTipShadow = svgDocument.getElementById('ToolTipShadow');
	if(ToolTipShadow)
	{
		ToolTipShadow.setAttribute("width", Number(outline.width) );
		ToolTipShadow.setAttribute("height", Number(outline.height) + fontsize*.5*scaleForWidth );
		ToolTipShadow.setAttribute("x", 3*scaleForWidth);
		ToolTipShadow.setAttribute("y", 3*scaleForWidth);
	}
}
function ShowPaper()
{
  var svgDocument = getDocument();
  var paper = svgDocument.getElementById("paperID");
  if(paper)
  {
    paper.setAttribute("transform","scale(1)");
    paper.setAttribute("opacity","1");
    paper.setAttribute("visibility","visible");
  }
  var svg = svgDocument.getRootElement();
  if(svg)
  {
    svg.setAttribute("width","441.800mm");
    svg.setAttribute("height","289.400mm");
    svg.setAttribute("viewBox","-5.000000 -5.000000 441.799988 289.399994");
  }
}
]]></script><defs><mask id="mask0" x="0" y="0" height="100%" width="100%"><image x="0.000000" y="254.000015" height="25.000000" width="25.000000" xlink:href="Waste-Conv-Overview_files/acc73c8d48c872ff_mask_0.jpg"/></mask><mask id="mask1" x="0" y="0" height="100%" width="100%"><image x="0.629476" y="0.656952" height="25.000000" width="25.000000" xlink:href="Waste-Conv-Overview_files/acc73c8d48c872ff_mask_1.jpg"/></mask><mask id="mask2" x="0" y="0" height="100%" width="100%"><image x="407.000000" y="254.000015" height="25.000000" width="25.000000" xlink:href="Waste-Conv-Overview_files/acc73c8d48c872ff_mask_2.jpg"/></mask><mask id="mask3" x="0" y="0" height="100%" width="100%"><image x="407.000000" y="0.000000" height="25.000000" width="25.000000" xlink:href="Waste-Conv-Overview_files/acc73c8d48c872ff_mask_3.jpg"/></mask></defs><g><path style="fill:#ffffff" d="M431.81,279.31L0.08,279.31L0.08,0.08L431.81,0.08z"/><path style="fill:#404040" d="M155.31,61.09L334.87,86.36L338.26,86.72L338.67,86.89L346.37,88.10L346.53,88.37L347.12,88.62L347.56,88.89L347.91,89.52L332.92,116.42L331.88,116.78L324.62,115.70L324.36,115.46L324.24,115.30L323.12,115.29L322.96,115.46L321.25,115.15L321.20,113.48L320.94,113.23L134.66,85.35L130.08,84.58L129.06,84.66L128.89,86.47L128.23,86.63L126.11,86.73L133.41,79.11L147.09,65.38L149.00,63.18L150.46,61.70L151.82,60.97z"/><path style="fill:#0000c0" d="M134.66,85.35L320.94,113.23L321.20,113.48L321.25,115.15L318.52,115.01L318.10,115.61L317.96,117.17L317.23,116.94L316.86,116.86L316.72,119.79L316.55,119.97L316.29,119.87L316.36,119.36L315.51,119.16L315.31,118.61L314.42,118.18L313.14,118.05L312.87,117.95L311.43,117.82L311.40,121.79L311.29,122.06L311.27,125.29L311.41,122.55L320.64,124.00L322.55,120.57L322.78,120.59L322.76,121.25L321.59,123.15L321.33,123.98L322.03,124.39L319.90,128.31L317.87,128.23L306.43,126.48L305.86,126.28L305.97,121.81L306.19,117.03L306.05,116.92L304.77,116.78L304.49,116.68L303.23,116.54L302.73,116.41L301.46,116.28L300.95,116.16L299.94,116.02L299.43,115.90L298.16,115.77L297.65,115.65L296.39,115.51L296.12,115.41L294.86,115.27L294.35,115.14L293.08,115.01L292.57,114.89L291.57,114.76L291.06,114.63L289.83,114.45L289.73,113.23L289.48,112.97L240.72,105.65L239.55,105.63L238.95,105.38L237.84,105.38L237.81,108.12L237.44,108.23L237.21,105.61L236.95,105.36L233.86,104.90L232.36,104.37L183.63,97.02L181.98,96.91L181.54,96.74L180.85,97.62L180.67,107.04L168.11,105.17L167.80,104.95L167.88,104.49L173.56,97.99L177.30,98.13L177.29,96.26L176.80,95.98L148.21,91.63L148.10,91.43L147.87,89.90L146.87,88.35L146.24,88.04L143.03,87.38L139.98,87.38L133.16,86.38L131.85,86.38L131.37,86.09L129.49,86.10L128.89,86.47L129.06,84.66L130.08,84.58z"/><path style="fill:#0000ac" d="M311.41,122.55L311.27,125.29L311.29,122.06z"/><path style="fill:#0000c0" d="M132.20,100.79L130.86,102.18L130.99,107.34L130.83,107.54L130.27,107.54L130.09,104.38L129.85,103.35L129.09,102.84L126.62,102.58L118.15,101.09L118.15,97.09L120.61,91.60L120.71,92.78L120.48,93.37L118.66,97.34L118.67,100.42L119.25,100.00L119.33,100.40L127.63,101.71L128.08,101.45L128.09,101.25L128.90,100.28L129.84,100.31z"/><path style="fill:#0000c0" d="M48.73,168.70L49.13,168.85L327.51,218.31L328.31,218.73L328.15,221.02L328.06,222.04L327.84,222.73L327.34,222.87L326.64,222.77L311.73,220.10L311.50,220.40L310.00,220.34L295.79,217.81L294.15,217.77L293.90,218.03L293.69,223.20L294.09,223.57L292.58,223.35L265.94,218.53L264.25,218.28L264.08,218.70L263.97,223.22L271.70,224.64L272.21,224.93L272.22,225.49L270.91,227.80L250.84,224.18L250.53,223.96L250.60,223.20L251.65,221.45L251.66,216.03L251.23,215.87L115.72,191.38L113.42,191.03L113.32,190.90L113.09,188.35L113.10,191.58L113.23,193.86L113.34,196.85L113.49,195.89L114.36,195.98L115.17,196.42L114.48,196.96L114.22,197.64L113.94,198.00L113.61,198.09L113.15,198.88L110.80,198.52L94.45,195.55L94.55,195.08L96.50,192.92L97.61,192.94L101.95,193.77L101.69,188.88L72.27,183.50L72.36,183.22L72.49,180.00L72.23,178.23L72.06,178.16L71.75,177.94L70.86,177.87L69.96,177.19L69.58,177.09L65.64,176.19L62.85,176.19L57.19,175.24L56.67,174.82L48.12,173.15L45.43,172.85L44.68,172.75L42.46,172.22L42.20,167.80L43.31,167.82z"/><path style="fill:#404040" d="M314.42,118.18L315.31,118.61L315.51,119.16L316.36,119.36L316.29,119.87L316.55,119.97L316.72,119.79L317.52,118.83L318.21,118.28L318.97,118.31L320.18,118.77L320.39,119.61L321.42,119.69L321.56,119.52L321.69,119.54L321.85,120.19L322.55,120.57L320.64,124.00L311.41,122.55L311.29,122.06L311.40,121.79L311.68,118.07L312.87,117.95L313.14,118.05z"/><path style="fill:#c9d0ef" d="M323.52,118.95L324.04,119.08L325.01,119.28L325.81,119.49L333.73,120.60L333.28,121.14L333.19,122.06L332.14,122.12L331.57,121.86L330.92,121.85L330.52,122.18L330.43,123.07L330.28,123.51L330.29,124.42L330.65,124.65L330.71,124.87L330.45,125.21L329.81,125.20L329.62,125.04L329.56,124.68L329.13,125.05L326.76,124.94L326.33,124.79L325.25,123.90L324.71,122.40L324.21,120.88L324.06,120.85L323.56,120.81L323.19,120.57L322.78,120.59L322.55,120.57L321.85,120.19L321.69,119.54L321.97,118.81L322.26,118.84z"/><path style="fill:#0000ac" d="M120.47,97.61L120.27,97.93L119.71,98.18L119.44,98.70L119.25,100.00L118.67,100.42L118.66,97.34L120.48,93.37z"/><path style="fill:#868c8c" d="M310.00,220.34L311.50,220.40L311.73,220.10L326.64,222.77L327.29,223.61L328.28,225.41L328.12,227.88L328.00,226.70L327.86,226.59L327.51,225.42L326.73,224.36L326.44,224.36L326.45,224.64L327.86,226.59L327.95,227.80L328.12,227.88L328.29,228.24L328.14,229.64L327.76,231.59L327.03,232.63L325.99,233.62L324.64,234.05L321.93,234.05L311.19,232.08L310.95,231.49L310.86,227.16L311.07,226.70L310.63,226.53L309.65,226.46L309.55,226.61L309.09,226.40L309.24,226.17L308.06,226.14L307.79,226.05L306.80,225.89L306.52,225.79L305.27,225.64L305.00,225.53L303.74,225.33L303.64,225.19L302.48,225.13L302.21,225.03L300.95,224.83L300.85,224.68L299.69,224.62L299.42,224.52L298.17,224.37L297.89,224.27L296.91,224.11L296.63,224.01L295.38,223.86L295.10,223.76L294.09,223.57L293.69,223.20L293.90,218.03L294.15,217.77L295.79,217.81z"/><path style="fill:#808080" d="M131.85,86.38L133.16,86.38L139.98,87.38L143.03,87.38L146.24,88.04L145.06,90.25L142.68,97.03L139.14,96.60L138.99,95.75L138.71,96.05L137.67,96.04L137.37,95.83L136.96,91.69L135.68,92.79L135.75,101.21L132.20,100.79L129.84,100.31L128.90,100.28L128.06,100.12L127.89,101.19L127.67,101.31L127.31,101.06L125.76,100.84L125.28,100.56L122.48,100.07L119.25,100.00L119.44,98.70L120.01,98.95L120.65,98.80L120.75,98.30L120.61,98.21L120.27,97.93L120.47,97.61L120.48,93.37L120.71,92.78L120.61,91.60L120.44,91.18L120.43,89.73L121.10,88.36L122.13,87.37L126.11,86.73L128.23,86.63L128.89,86.47L129.49,86.10L131.37,86.09z"/><path style="fill:#808080" d="M51.16,174.43L56.52,174.97L56.67,174.82L57.19,175.24L62.85,176.19L65.64,176.19L69.58,177.09L68.96,178.07L67.67,180.33L66.14,184.90L64.86,188.21L60.72,187.45L60.56,185.56L60.31,186.95L58.00,186.62L57.44,186.42L57.26,185.32L57.00,181.74L56.69,181.72L54.73,183.64L54.72,187.61L55.05,193.32L45.44,191.51L45.33,190.90L45.16,191.51L43.80,191.43L42.56,190.89L36.12,189.98L36.21,188.71L38.01,186.93L37.64,182.03L37.74,180.23L37.46,179.76L37.46,178.03L38.12,176.67L39.65,175.16L43.14,174.79L47.55,174.43L48.54,173.88L49.91,173.94z"/><path style="fill:#737373" d="M70.86,177.87L71.48,178.98L72.07,180.67L71.85,183.70L71.73,184.91L70.63,187.87L69.22,189.75L67.85,190.42L65.89,190.40L62.83,189.91L61.33,189.13L58.79,188.63L57.68,188.61L57.53,190.75L57.16,191.14L55.89,192.66L55.05,193.32L54.72,187.61L54.73,183.64L56.69,181.72L57.00,181.74L57.26,185.32L57.44,186.42L58.00,186.62L60.31,186.95L60.56,185.56L60.72,187.45L64.86,188.21L66.14,184.90L67.67,180.33L68.96,178.07L69.58,177.09L69.96,177.19z"/><path style="fill:#007847" d="M320.14,223.67L321.93,223.65L323.70,224.15L325.29,225.38L325.15,225.64L326.33,227.61L326.39,229.16L325.79,230.61L325.66,230.72L326.16,231.95L325.67,232.57L324.97,232.56L324.22,232.01L321.40,231.78L319.64,231.01L318.39,229.97L317.60,228.48L317.60,226.25L317.88,225.77L317.86,223.20L319.40,223.12z"/><path style="fill:#0000c0" d="M159.29,58.18L159.77,58.46L308.73,79.51L310.49,79.50L333.85,82.81L335.53,82.79L335.79,82.54L336.69,82.53L336.90,82.77L336.89,83.30L338.51,83.98L338.35,84.06L338.31,85.01L338.26,86.72L334.87,86.36L155.31,61.09L155.46,57.75z"/><path style="fill:#404040" d="M332.15,177.83L333.18,177.88L333.29,178.03L334.69,178.08L334.96,178.19L336.21,178.34L336.49,178.44L337.74,178.59L338.01,178.69L339.26,178.85L339.53,178.95L340.78,179.10L341.05,179.20L342.30,179.35L342.58,179.45L344.26,179.99L346.03,181.01L346.68,181.71L346.55,182.37L328.15,221.02L328.31,218.73L327.51,218.31L49.13,168.85L48.73,168.70L55.76,161.32L65.38,151.66L67.44,149.40L77.05,139.73L79.35,137.21L80.70,136.47L82.48,136.46z"/><path style="fill:#c8cfee" d="M320.18,118.77L320.21,118.29L320.83,116.56L322.22,116.56L322.03,117.03L321.64,117.36L321.56,119.52L321.42,119.69L320.39,119.61z"/><path style="fill:#787e7e" d="M323.52,118.95L322.26,118.84L322.78,118.68L323.54,118.81z"/><path style="fill:#b3bad6" d="M322.01,117.66L321.83,117.83L321.80,118.48L321.97,118.81L321.69,119.54L321.56,119.52L321.64,117.36L322.03,117.03z"/><path style="fill:#c9d0ef" d="M350.93,89.11L350.68,90.27L350.46,90.42L349.40,90.37L348.85,90.57L347.91,89.52L347.56,88.89L347.12,88.62L348.57,88.65z"/><path style="fill:#0000ac" d="M181.98,96.91L181.98,98.72L181.99,100.99L182.11,104.98L182.46,104.89L182.01,105.63L181.11,106.77L180.67,107.04L180.85,97.62L181.54,96.74z"/><path style="fill:#0000ac" d="M317.23,116.94L316.97,117.72L317.15,118.06L317.29,118.45L317.68,118.26L317.70,118.07L317.97,117.98L318.21,118.28L317.52,118.83L316.72,119.79L316.86,116.86z"/><path style="fill:#868c8c" d="M339.78,84.18L340.73,84.26L340.96,84.86L341.28,84.95L342.16,84.84L342.32,84.49L349.12,85.58L349.25,85.93L349.63,86.09L350.52,86.12L350.70,85.75L351.87,85.84L351.91,86.01L351.51,86.34L351.78,87.82L351.62,88.31L351.35,87.36L351.14,88.72L346.37,88.10L338.67,86.89L338.26,86.72L338.31,85.01L338.51,83.98z"/><path style="fill:#868c8c" d="M120.04,98.48L120.01,98.95L119.44,98.70L119.71,98.18z"/><path style="fill:#868c8c" d="M126.66,99.46L126.61,99.95L126.43,99.89L126.41,99.31L126.56,99.21z"/><path style="fill:#868c8c" d="M125.28,100.56L125.76,100.84L127.31,101.06L127.67,101.31L127.63,101.71L119.33,100.40L119.25,100.00L122.48,100.07z"/><path style="fill:#868c8c" d="M321.25,115.15L322.96,115.46L323.11,116.16L323.50,116.18L324.39,116.04L324.62,115.70L331.88,116.78L331.99,117.41L332.35,117.52L332.85,117.71L333.18,117.25L333.47,117.00L334.45,117.30L334.29,117.83L334.62,117.97L334.63,118.25L334.52,119.80L334.20,120.34L326.11,119.03L326.02,118.23L325.96,118.04L324.47,118.09L322.01,117.66L322.03,117.03L322.22,116.56L320.83,116.56L320.21,118.29L319.76,118.16L319.67,117.56L319.42,117.28L317.96,117.17L318.10,115.61L318.52,115.01z"/><path style="fill:#868c8c" d="M323.56,120.81L323.55,121.25L323.02,121.36L322.76,121.25L322.78,120.59L323.19,120.57z"/><path style="fill:#868c8c" d="M332.14,122.12L332.14,122.49L332.01,122.63L332.17,122.88L332.08,123.25L330.65,124.65L330.29,124.42L330.28,123.51L330.43,123.07L330.82,122.48L330.92,121.85L331.57,121.86z"/><path style="fill:#868c8c" d="M72.06,178.16L71.98,178.29L72.07,180.67L71.48,178.98L70.86,177.87L71.75,177.94z"/><path style="fill:#868c8c" d="M346.94,180.14L347.15,180.70L347.30,181.26L347.90,181.68L348.60,184.23L348.60,185.50L348.47,185.49L347.81,183.29L347.08,181.98L346.68,181.71L346.03,181.01L344.26,179.99L342.58,179.45L343.75,179.49z"/><path style="fill:#868c8c" d="M41.59,184.69L41.47,184.81L41.67,186.25L41.28,186.70L40.51,186.87L39.47,186.12L39.50,184.64L40.70,184.03L41.03,184.03z"/><path style="fill:#868c8c" d="M322.18,227.19L322.83,227.63L322.35,228.69L322.84,229.90L322.70,230.35L321.86,231.02L320.64,231.02L319.65,230.23L319.63,228.53L320.42,227.29L321.41,226.92z"/><path style="fill:#0000c0" d="M186.74,99.78L186.54,100.03L186.03,100.26L185.78,100.98L185.25,101.57L184.77,101.78L184.51,102.50L183.73,103.34L183.24,103.55L182.99,104.27L182.46,104.89L182.11,104.98L181.99,100.99L183.52,99.20z"/><path style="fill:#0000c0" d="M348.33,175.93L348.21,178.65L348.08,180.09L346.94,180.14L343.75,179.49L342.58,179.45L342.30,179.35L341.05,179.20L340.78,179.10L339.53,178.95L339.26,178.85L338.01,178.69L337.74,178.59L336.49,178.44L336.21,178.34L334.96,178.19L334.69,178.08L333.18,177.88L333.07,177.73L332.15,177.83L82.48,136.46L80.94,136.21L78.49,135.68L78.23,131.52L79.85,131.53z"/><path style="fill:#404040" d="M232.36,104.37L233.86,104.90L236.95,105.36L237.21,105.61L237.44,108.23L237.81,108.12L239.47,105.98L239.55,105.63L240.72,105.65L289.48,112.97L289.73,113.23L289.83,114.45L289.86,114.61L291.06,114.63L291.57,114.76L292.57,114.89L293.08,115.01L294.35,115.14L294.86,115.27L296.12,115.41L296.39,115.51L297.65,115.65L298.16,115.77L299.43,115.90L299.94,116.02L300.95,116.16L301.46,116.28L302.73,116.41L303.23,116.54L304.49,116.68L304.77,116.78L306.05,116.92L306.19,117.03L305.97,121.81L261.02,114.28L228.29,108.19L201.38,102.87L186.74,99.78L183.52,99.20L181.98,98.72L181.98,96.91L183.63,97.02z"/><path style="fill:#404040" d="M324.71,122.40L325.25,123.90L326.33,124.79L322.03,124.39L321.33,123.98L321.59,123.15L322.76,121.25L323.02,121.36L323.70,121.51L323.80,121.35L324.06,120.85L324.21,120.88z"/><path style="fill:#404040" d="M328.06,223.60L329.04,225.92L329.18,227.88L328.14,229.64L328.29,228.24L328.12,227.88L328.28,225.41L327.29,223.61L326.64,222.77L327.34,222.87z"/><path style="fill:#393939" d="M348.85,90.57L348.93,90.86L349.07,92.79L348.83,93.81L334.76,119.28L334.63,118.25L334.62,117.97L334.64,117.33L334.45,117.30L333.47,117.00L332.92,116.42L347.91,89.52z"/><path style="fill:#393939" d="M347.08,181.98L347.81,183.29L348.47,185.49L348.40,186.51L348.25,186.61L348.21,187.54L347.45,188.85L329.18,227.88L329.04,225.92L328.06,223.60L327.34,222.87L327.84,222.73L328.02,222.70L328.06,222.04L328.15,221.02L346.55,182.37L346.68,181.71z"/><path style="fill:#c6c1bc" d="M341.99,84.08L342.32,84.49L341.36,84.61L341.28,84.95L340.96,84.86L340.73,84.26L341.25,83.74z"/><path style="fill:#c6c1bc" d="M350.70,85.75L349.63,86.09L349.25,85.93L349.12,85.58L349.49,85.33L350.62,85.35z"/><path style="fill:#c6c1bc" d="M120.04,98.48L119.71,98.18L120.27,97.93z"/><path style="fill:#c6c1bc" d="M127.16,99.40L126.66,99.46L126.56,99.21L126.71,99.00L127.04,99.01z"/><path style="fill:#c6c1bc" d="M324.36,115.46L323.62,115.84L323.50,116.18L323.11,116.16L322.96,115.46L323.12,115.29L324.24,115.30z"/><path style="fill:#c6c1bc" d="M333.47,117.00L333.18,117.25L332.87,117.06L332.35,117.52L331.99,117.41L331.88,116.78L332.92,116.42z"/><path style="fill:#c6c1bc" d="M317.96,117.17L319.42,117.28L319.67,117.56L319.76,118.16L319.48,118.19L317.97,117.98L316.97,117.72L317.23,116.94z"/><path style="fill:#c6c1bc" d="M324.47,118.09L325.96,118.04L326.02,118.23L325.86,119.26L325.81,119.49L325.01,119.28L324.58,118.93L323.54,118.81L322.78,118.68L321.80,118.48L321.83,117.83L322.01,117.66z"/><path style="fill:#c6c1bc" d="M323.70,121.51L323.02,121.36L323.55,121.25L323.80,121.35z"/><path style="fill:#c6c1bc" d="M332.17,122.88L332.01,122.63L332.14,122.49L332.68,122.64z"/><path style="fill:#b2adaa" d="M342.16,84.84L341.28,84.95L341.36,84.61L342.32,84.49z"/><path style="fill:#b2adaa" d="M350.52,86.12L349.63,86.09L350.70,85.75z"/><path style="fill:#b2adaa" d="M120.61,98.21L120.04,98.48L120.27,97.93z"/><path style="fill:#b2adaa" d="M324.62,115.70L324.39,116.04L323.50,116.18L323.62,115.84L324.36,115.46z"/><path style="fill:#b2adaa" d="M333.18,117.25L332.85,117.71L332.35,117.52L332.87,117.06z"/><path style="fill:#b2adaa" d="M317.97,117.98L317.70,118.07L317.15,118.06L316.97,117.72z"/><path style="fill:#b2adaa" d="M319.48,118.19L318.97,118.31L318.21,118.28L317.97,117.98z"/><path style="fill:#b2adaa" d="M322.78,118.68L322.26,118.84L321.97,118.81L321.80,118.48z"/><path style="fill:#b2adaa" d="M324.58,118.93L324.04,119.08L323.52,118.95L323.54,118.81z"/><path style="fill:#b2adaa" d="M326.11,119.03L325.86,119.26L326.02,118.23z"/><path style="fill:#b4bbd7" d="M351.37,89.23L350.68,90.27L350.93,89.11L351.39,89.04z"/><path style="fill:#b4bbd7" d="M333.62,121.73L333.19,122.06L333.28,121.14L333.73,120.60L334.14,120.52z"/><path style="fill:#b4bbd7" d="M325.76,123.74L325.52,123.69L325.20,123.17L325.21,122.39z"/><path style="fill:#b4bbd7" d="M330.82,122.48L330.43,123.07L330.52,122.18L330.92,121.85z"/><path style="fill:#c8cfee" d="M341.25,83.74L340.73,84.26L339.78,84.18L340.20,83.32z"/><path style="fill:#c8cfee" d="M123.33,95.74L123.06,96.52L122.64,96.35L122.61,95.52L122.80,95.40z"/><path style="fill:#787e7e" d="M351.51,86.34L351.91,86.01L351.78,87.82z"/><path style="fill:#787e7e" d="M351.62,88.31L351.39,89.04L350.93,89.11L348.57,88.65L347.12,88.62L346.53,88.37L346.37,88.10L351.14,88.72L351.35,87.36z"/><path style="fill:#787e7e" d="M349.83,91.32L349.38,91.09L349.40,90.37L350.46,90.42z"/><path style="fill:#787e7e" d="M183.52,99.20L181.99,100.99L181.98,98.72z"/><path style="fill:#787e7e" d="M120.65,98.80L120.01,98.95L120.04,98.48L120.61,98.21L120.75,98.30z"/><path style="fill:#787e7e" d="M127.34,99.91L126.61,99.95L126.66,99.46L127.16,99.40z"/><path style="fill:#787e7e" d="M128.08,101.45L127.63,101.71L127.67,101.31L127.89,101.19L128.09,101.25z"/><path style="fill:#787e7e" d="M334.62,117.97L334.29,117.83L334.45,117.30L334.64,117.33z"/><path style="fill:#787e7e" d="M318.97,118.31L319.48,118.19L319.76,118.16L320.21,118.29L320.18,118.77z"/><path style="fill:#787e7e" d="M334.20,120.34L334.14,120.52L333.73,120.60L325.81,119.49L325.86,119.26L326.11,119.03z"/><path style="fill:#787e7e" d="M325.01,119.28L324.04,119.08L324.58,118.93z"/><path style="fill:#787e7e" d="M334.76,119.28L334.52,119.80L334.63,118.25z"/><path style="fill:#787e7e" d="M323.80,121.35L323.55,121.25L323.56,120.81L324.06,120.85z"/><path style="fill:#787e7e" d="M332.96,122.65L332.68,122.64L332.14,122.49L332.14,122.12L333.19,122.06z"/><path style="fill:#787e7e" d="M71.98,178.29L72.06,178.16L72.23,178.23L72.49,180.00L72.36,183.22L72.21,180.78L72.07,180.67z"/><path style="fill:#787e7e" d="M347.60,180.96L347.90,181.68L347.30,181.26L347.15,180.70z"/><path style="fill:#787e7e" d="M348.58,182.78L348.60,184.23L347.90,181.68z"/><path style="fill:#787e7e" d="M41.89,184.96L42.07,185.94L41.67,186.25L41.47,184.81L41.59,184.69z"/><path style="fill:#787e7e" d="M348.67,185.77L348.40,186.51L348.47,185.49L348.60,185.50z"/><path style="fill:#787e7e" d="M294.90,219.01L294.75,219.41L294.67,218.84L294.86,218.79z"/><path style="fill:#787e7e" d="M327.51,225.42L327.86,226.59L326.45,224.64L326.44,224.36L326.73,224.36z"/><path style="fill:#787e7e" d="M328.12,227.88L327.95,227.80L327.86,226.59L328.00,226.70z"/><path style="fill:#787e7e" d="M323.05,227.83L323.21,229.33L322.84,229.90L322.35,228.69L322.83,227.63z"/><path style="fill:#787e7e" d="M313.30,225.50L313.05,226.52L312.27,228.05L312.27,224.73L313.30,222.61z"/><path style="fill:#b3bad6" d="M123.58,95.40L122.80,95.40L122.87,95.15z"/><path style="fill:#b3bad6" d="M124.03,96.09L123.64,96.53L123.06,96.52L123.33,95.74L123.58,95.40L123.83,95.38z"/><path style="fill:#0000ac" d="M338.31,85.01L338.35,84.06L338.51,83.98z"/><path style="fill:#0000ac" d="M139.57,98.41L138.64,99.30L134.66,103.70L130.99,107.34L130.86,102.18L132.20,100.79L135.75,101.21L136.19,100.93L137.21,99.66L137.37,98.01z"/><path style="fill:#0000ac" d="M186.51,100.21L185.78,100.98L186.03,100.26L186.54,100.03z"/><path style="fill:#0000ac" d="M185.17,101.91L184.51,102.50L184.77,101.78L185.25,101.57z"/><path style="fill:#0000ac" d="M183.65,103.69L182.99,104.27L183.24,103.55L183.73,103.34z"/><path style="fill:#0000ac" d="M239.55,105.63L239.47,105.98L237.81,108.12L237.84,105.38L238.95,105.38z"/><path style="fill:#0000ac" d="M291.06,114.63L289.86,114.61L289.83,114.45z"/><path style="fill:#0000ac" d="M312.87,117.95L311.68,118.07L311.40,121.79L311.43,117.82z"/><path style="fill:#0000ac" d="M307.19,124.74L306.17,126.03L306.37,118.34L306.60,117.06L307.71,117.04z"/><path style="fill:#0000ac" d="M113.32,190.90L113.42,191.03L113.10,191.58L113.09,188.35z"/><path style="fill:#0000ac" d="M96.83,194.53L96.51,194.44L96.88,194.24z"/><path style="fill:#0000ac" d="M113.49,195.89L113.34,196.85L113.23,193.86L113.33,193.95z"/><path style="fill:#0000ac" d="M115.16,196.82L114.22,197.64L114.48,196.96L115.17,196.42z"/><path style="fill:#0000ac" d="M113.77,198.51L113.15,198.88L113.61,198.09L113.94,198.00z"/><path style="fill:#0000ac" d="M328.02,222.70L327.84,222.73L328.06,222.04z"/><path style="fill:#0000ac" d="M302.21,225.03L301.06,224.97L300.95,224.83z"/><path style="fill:#0000ac" d="M305.00,225.53L303.85,225.48L303.74,225.33z"/><path style="fill:#0000ac" d="M267.61,225.74L267.28,225.65L267.66,225.45z"/><path style="fill:#0000ac" d="M309.09,226.40L308.06,226.14L309.24,226.17z"/><path style="fill:#868c8c" d="M348.93,90.86L348.85,90.57L349.40,90.37L349.38,91.09z"/><path style="fill:#868c8c" d="M123.83,95.38L123.58,95.40L122.87,95.15L123.39,94.72L123.54,94.72z"/><path style="fill:#868c8c" d="M123.33,95.74L122.80,95.40L123.58,95.40z"/><path style="fill:#868c8c" d="M179.83,100.33L179.76,101.34L178.72,101.42L178.79,100.36L178.99,100.06L179.31,100.02z"/><path style="fill:#868c8c" d="M328.29,122.39L328.29,123.25L327.92,123.68L327.25,123.70L326.75,123.41L326.75,122.22L327.17,121.86L327.76,121.86z"/><path style="fill:#868c8c" d="M82.48,136.46L80.70,136.47L80.94,136.21z"/><path style="fill:#868c8c" d="M48.12,173.15L56.67,174.82L56.52,174.97L51.16,174.43L49.91,173.94L48.54,173.88L47.55,174.43L43.14,174.79L43.92,173.80L45.36,172.98L45.43,172.85z"/><path style="fill:#868c8c" d="M333.18,177.88L332.15,177.83L333.07,177.73z"/><path style="fill:#868c8c" d="M334.69,178.08L333.29,178.03L333.18,177.88z"/><path style="fill:#868c8c" d="M72.36,183.22L72.27,183.50L71.85,183.70L72.07,180.67L72.21,180.78z"/><path style="fill:#868c8c" d="M348.21,187.54L348.25,186.61L348.40,186.51z"/><path style="fill:#868c8c" d="M318.58,223.86L318.87,223.91L318.92,224.20L318.63,224.15z"/><path style="fill:#006c3f" d="M326.26,226.67L326.33,227.61L325.15,225.64L325.29,225.38z"/><path style="fill:#006c3f" d="M325.22,226.95L325.74,228.47L325.46,229.57L325.24,227.94L324.38,226.37L324.71,226.19z"/><path style="fill:#006c3f" d="M326.39,229.16L326.33,227.61L326.47,227.72z"/><path style="fill:#006c3f" d="M326.27,230.99L326.16,231.95L325.66,230.72L325.79,230.61z"/><path style="fill:#737373" d="M146.87,88.35L147.87,89.90L148.10,91.43L148.21,91.63L148.10,93.29L147.50,96.20L146.84,97.61L145.98,98.78L144.99,99.32L142.78,99.30L140.00,98.79L139.57,98.41L137.37,98.01L137.21,99.66L136.19,100.93L135.75,101.21L135.68,92.79L136.96,91.69L137.37,95.83L137.67,96.04L138.71,96.05L138.99,95.75L139.14,96.60L142.68,97.03L145.06,90.25L146.24,88.04z"/><path style="fill:#737373" d="M127.07,93.43L127.05,96.60L126.77,97.34L126.28,97.63L126.25,97.11L126.55,96.02L126.02,94.48L125.68,93.95L126.46,93.18L126.80,93.16z"/><path style="fill:#737373" d="M128.90,100.28L128.09,101.25L127.89,101.19L128.06,100.12z"/><path style="fill:#737373" d="M43.55,183.14L44.59,182.28L44.83,187.18L44.50,187.40L43.97,187.37L44.34,186.69L44.33,185.06L43.56,183.77z"/><path style="fill:#737373" d="M41.98,184.27L42.26,184.28L42.39,184.70L42.02,184.52z"/><path style="fill:#737373" d="M42.55,185.68L42.39,184.70L42.55,184.83z"/><path style="fill:#737373" d="M36.91,188.59L37.20,188.64L37.25,188.93L36.96,188.88z"/><path style="fill:#737373" d="M44.81,190.21L44.49,190.13L44.86,189.92z"/><path style="fill:#737373" d="M45.44,191.51L45.16,191.51L45.33,190.90z"/><path style="fill:#0000c0" d="M149.00,63.18L149.11,61.82L150.46,61.70z"/><path style="fill:#0000c0" d="M317.68,118.26L317.29,118.45L317.15,118.06L317.70,118.07z"/><path style="fill:#0000c0" d="M310.01,221.34L310.80,221.85L309.74,221.86L295.52,219.34L294.90,219.01L294.86,218.79L296.04,218.83z"/><path style="fill:#0000c0" d="M309.50,224.65L310.55,225.14L308.98,225.16L295.02,222.62L294.71,222.09z"/><path style="fill:#0000c0" d="M300.95,224.83L299.69,224.62L300.85,224.68z"/><path style="fill:#0000c0" d="M303.74,225.33L302.48,225.13L303.64,225.19z"/><path style="fill:#0000c0" d="M310.63,226.53L309.55,226.61L309.65,226.46z"/><path style="fill:#404040" d="M176.80,95.98L177.29,96.26L177.30,98.13L173.56,97.99L147.50,96.20L148.10,93.29L148.21,91.63z"/><path style="fill:#404040" d="M332.23,123.90L330.71,124.87L330.65,124.65L332.08,123.25L332.17,122.88L332.68,122.64L332.96,122.65z"/><path style="fill:#404040" d="M329.62,125.04L329.13,125.05L329.56,124.68z"/><path style="fill:#404040" d="M45.36,172.98L43.92,173.80L44.19,173.10L44.68,172.75L45.43,172.85z"/><path style="fill:#404040" d="M309.55,226.61L310.63,226.53L311.07,226.70L310.86,227.16z"/><g id="Actor_.0"><g style="stroke:#000000;stroke-width:0.176"><path d="M326.68,122.38L326.55,122.61L326.52,122.87L326.58,123.14L326.73,123.39L326.96,123.59L327.23,123.71L327.52,123.75L327.80,123.70L328.04,123.57L328.21,123.36L328.29,123.11L328.27,122.84L328.17,122.58L327.98,122.36L327.72,122.19L327.44,122.11L327.15,122.12L326.88,122.21L326.68,122.38L326.81,122.15"/><path d="M328.21,123.36L328.34,123.13"/><path d="M332.14,123.15L332.22,122.92"/></g><g style="stroke:#000000;stroke-width:0.529"><path d="M329.12,124.92L329.68,124.82"/><path d="M332.21,123.03L332.14,123.15L331.36,124.10L330.84,124.45L330.55,124.58"/></g></g><g id="Actor_.1"><g style="stroke:#000000;stroke-width:0.176"><path d="M341.23,83.51L340.76,84.32"/></g><g style="stroke:#000000;stroke-width:0.529"><path d="M339.65,84.16L340.11,83.35L341.23,83.51L341.20,84.01"/></g></g><g id="Actor_.2"><g style="stroke:#000000;stroke-width:0.176"><path d="M351.28,89.08L351.24,89.06L351.21,88.97L351.20,88.80L351.20,88.58L351.27,87.53L351.30,87.28L351.34,87.01L351.39,86.76L351.45,86.55L351.51,86.41L351.76,85.95L351.82,85.88"/><path d="M351.31,88.65L351.30,88.60L351.30,88.60L351.29,88.52L351.30,88.40L351.37,87.36L351.38,87.23L351.40,87.10L351.43,86.98L351.46,86.87L351.49,86.80L351.74,86.34L351.77,86.31L351.79,86.32L351.80,86.37L351.81,86.45L351.81,86.56L351.74,87.60L351.72,87.73L351.70,87.86L351.68,87.99L351.65,88.09L351.62,88.16L351.36,88.62L351.34,88.66L351.31,88.65"/></g><g style="stroke:#000000;stroke-width:0.529"><path d="M340.84,84.33L338.40,83.99"/><path d="M349.26,85.52L342.26,84.53"/><path d="M346.69,88.43L351.28,89.08L351.34,89.01L351.59,88.55L351.65,88.41L351.71,88.20L351.76,87.95L351.80,87.69L351.83,87.43L351.90,86.44L351.90,86.39L351.91,86.17L351.89,86.00L351.86,85.90L351.82,85.88L350.69,85.72"/></g></g><g id="Actor_.3"><g style="stroke:#000000;stroke-width:0.176"><path d="M323.42,121.38L323.45,120.71"/><path d="M322.73,121.19L322.76,120.54"/></g><g style="stroke:#000000;stroke-width:0.529"><path d="M322.73,120.53L322.71,120.83L322.73,121.19L323.42,121.38L324.09,121.23L324.11,120.88"/></g></g><g id="Actor_.4"><g style="stroke:#000000;stroke-width:0.176"><path d="M148.97,61.90L150.21,62.08"/><path d="M155.17,58.00L159.49,58.61L159.79,58.30"/><path d="M159.49,58.61L159.55,61.66"/></g><g style="stroke:#000000;stroke-width:0.529"><path d="M150.54,61.78L149.28,61.60L148.97,61.90L149.01,63.30"/><path d="M159.79,58.48L159.79,58.30L155.47,57.70L155.17,58.00L155.24,61.05"/></g></g><g id="Actor_.5"><g style="stroke:#000000;stroke-width:0.176"><path d="M316.69,120.02L316.70,119.96L316.74,119.10"/></g><g style="stroke:#000000;stroke-width:0.529"><path d="M317.41,118.77L316.69,120.02L316.65,120.07L316.60,120.11L316.54,120.13L316.47,120.13L316.25,120.10L316.29,119.35"/></g></g><g id="Actor_.6"><g style="stroke:#000000;stroke-width:0.176"><path d="M178.95,100.07L178.95,100.07L178.89,100.09L178.84,100.13L178.81,100.18L178.80,100.25L178.80,100.46"/><path d="M180.66,106.72L180.54,97.94L180.34,97.91L180.28,97.89L180.23,97.87L180.20,97.84L180.19,97.81L180.21,97.79L181.05,96.81L181.08,96.75L181.06,96.69L181.04,96.67"/><path d="M180.29,105.25L180.19,97.81"/><path d="M179.55,101.38L179.62,101.38L179.68,101.36L179.73,101.32L179.76,101.27L179.77,101.20"/><path d="M180.54,97.94L181.56,96.75"/></g><g style="stroke:#000000;stroke-width:0.529"><path d="M181.77,96.78L181.87,105.29L180.66,106.72L180.45,106.69L180.39,106.68L180.35,106.66L180.32,106.63L180.31,106.60L180.29,105.25L177.58,104.83L177.53,104.82L177.48,104.80L177.45,104.77L177.44,104.74L177.32,96.11"/><path d="M179.70,101.20L179.77,101.20L179.76,100.39L179.75,100.32L179.71,100.26L179.67,100.21L179.60,100.17L179.54,100.15L179.01,100.07L178.95,100.07L178.96,100.28"/></g></g><g id="Actor_.7"><g style="stroke:#000000;stroke-width:0.176"><path d="M319.73,128.54L319.76,128.14L305.71,125.98"/><path d="M316.36,126.61L316.48,126.62L318.24,126.89L318.34,126.91L318.43,126.95L318.49,127.00L318.52,127.05L318.51,127.10L318.46,127.15L318.42,127.17L318.38,127.19L318.28,127.21L318.17,127.22L318.05,127.21L316.30,126.94L316.19,126.91L316.10,126.87L316.04,126.83L316.01,126.77L316.02,126.72L316.07,126.67L316.15,126.64L316.25,126.61L316.36,126.61"/><path d="M319.76,128.14L321.96,124.25"/></g><g style="stroke:#000000;stroke-width:0.529"><path d="M305.71,125.98L305.69,126.38L319.73,128.54L322.15,124.28"/></g></g><g id="Actor_.8"><g style="stroke:#000000;stroke-width:0.176"><path d="M317.84,118.05L317.82,118.51L317.82,118.55L317.83,118.58L317.85,118.58L317.87,118.56L318.05,118.24"/><path d="M317.79,118.83L317.76,118.77L317.75,118.68L317.75,118.55L317.78,118.04"/><path d="M318.70,114.39L318.66,114.43L318.19,115.25L318.02,115.53L317.98,115.62L317.95,115.75L317.91,115.89L317.89,116.05L317.88,116.20L317.83,117.13"/><path d="M317.88,117.14L317.94,116.10L317.96,115.94L317.99,115.81L318.01,115.76L318.44,115.02L318.65,114.66L318.67,114.64L318.69,114.64L318.70,114.67L318.70,114.72L318.70,114.88"/></g><g style="stroke:#000000;stroke-width:0.529"><path d="M315.43,118.47L289.71,114.57L289.68,114.52L289.67,114.42L289.67,114.29L289.73,112.69L289.76,111.96L289.77,111.81L289.79,111.66L289.83,111.51L289.87,111.38L289.91,111.30L290.60,110.21L290.64,110.17L318.73,114.39L318.75,114.45L318.77,114.55L318.76,114.68L318.75,114.88"/><path d="M318.16,118.26L317.85,118.79L317.82,118.83L316.98,118.70"/></g></g><g id="Actor_.9"><g style="stroke:#000000;stroke-width:0.176"><path d="M133.50,85.34L321.20,113.49L321.27,113.37"/><path d="M321.20,113.49L321.11,115.24"/></g><g style="stroke:#000000;stroke-width:0.529"><path d="M133.54,86.45L133.50,85.34L133.61,85.23L321.29,113.38L321.30,113.50L321.21,115.25"/><path d="M289.71,113.10L148.03,91.68"/></g></g><g id="Actor_.10"><g style="stroke:#000000;stroke-width:0.176"/><g style="stroke:#000000;stroke-width:0.529"><path d="M311.64,117.90L311.29,125.15L311.23,125.25L311.20,125.28L311.15,125.30L311.09,125.31L311.08,125.31L311.02,125.32L310.95,125.31L307.39,124.76L307.25,124.75L307.11,124.76L306.99,124.79L306.89,124.83L306.84,124.89L306.21,125.95L306.18,125.98L306.13,126.00L306.07,126.01L306.00,126.02L305.93,126.01L305.71,125.98L306.13,117.06"/></g></g><g id="Actor_.11"><g style="stroke:#000000;stroke-width:0.176"><path d="M128.82,84.83L133.34,85.51L133.67,85.17"/><path d="M133.37,86.42L133.34,85.51"/></g><g style="stroke:#000000;stroke-width:0.529"><path d="M133.67,85.24L133.67,85.17L129.15,84.49L128.82,84.83L128.89,86.63"/></g></g><g id="Actor_.12"><g style="stroke:#000000;stroke-width:0.176"><path d="M132.29,100.72L130.72,102.38L117.95,100.40"/><path d="M130.91,107.58L130.72,102.38"/></g><g style="stroke:#000000;stroke-width:0.529"><path d="M117.95,100.40L117.97,100.79L117.99,100.91L118.05,101.03L118.15,101.13L118.26,101.20L118.38,101.24L129.15,102.91L129.40,102.99L129.63,103.13L129.81,103.33L129.93,103.57L129.98,103.82L130.12,107.45L130.91,107.58L139.54,98.37"/></g></g><g id="Actor_.13"><g style="stroke:#000000;stroke-width:0.176"><path d="M336.84,82.64L336.51,83.21"/></g><g style="stroke:#000000;stroke-width:0.529"><path d="M335.40,83.05L335.73,82.48L336.84,82.64L336.80,83.25"/></g></g><g id="Actor_.14"><g style="stroke:#000000;stroke-width:0.176"><path d="M167.64,104.72L180.66,106.72L180.66,107.12"/><path d="M169.88,104.20L169.82,104.24L169.80,104.29L169.81,104.34L169.85,104.39L169.93,104.42L170.03,104.44L171.65,104.69L171.76,104.70L171.79,104.70L171.87,104.70L171.97,104.67L172.06,104.64L172.08,104.62L172.11,104.60L172.13,104.55L172.12,104.50L172.08,104.46L172.00,104.42L171.90,104.40L171.79,104.38L170.28,104.15L170.17,104.14L170.06,104.15L169.96,104.17L169.88,104.20"/><path d="M180.66,106.72L186.54,99.77"/></g><g style="stroke:#000000;stroke-width:0.529"><path d="M186.82,99.83L180.66,107.12L167.65,105.11L167.64,104.72L173.59,97.91"/></g></g><g id="Actor_.15"><g style="stroke:#000000;stroke-width:0.176"><path d="M336.68,83.49L336.68,83.49L336.70,83.45L336.73,83.41L336.79,83.29L336.83,83.25"/><path d="M336.78,83.50L336.80,83.49L336.81,83.49L336.82,83.51"/></g><g style="stroke:#000000;stroke-width:0.529"><path d="M336.88,83.52L336.88,83.41L336.87,83.32L336.85,83.26L336.83,83.25L310.23,79.49L310.19,79.53L310.06,79.73"/></g></g><g id="Actor_.16"><g style="stroke:#000000;stroke-width:0.176"><path d="M338.42,83.73L338.35,83.85L338.31,84.10L338.14,86.85"/></g><g style="stroke:#000000;stroke-width:0.529"><path d="M338.23,86.86L338.42,83.73L159.64,58.46L159.54,58.57L159.49,58.80L159.55,61.66"/></g></g><g id="Actor_.17"><g style="stroke:#000000;stroke-width:0.176"><path d="M122.64,95.85L122.74,95.79L122.87,95.77L123.00,95.80L123.06,95.83L123.12,95.86L123.23,95.96L123.30,96.08L123.33,96.21L123.32,96.34L123.27,96.45"/><path d="M122.80,96.49L122.91,96.53L123.02,96.53L123.12,96.50L123.19,96.43L123.24,96.34L123.25,96.23L123.22,96.12L123.16,96.02L123.07,95.94L122.96,95.88L122.85,95.86L122.75,95.88L122.66,95.93L122.60,96.01L122.57,96.11L122.58,96.22L122.63,96.33L122.70,96.42L122.80,96.49"/><path d="M122.97,96.30L123.10,96.28L123.08,96.38L122.86,96.41L122.69,96.22L122.80,96.11L122.97,96.30L122.86,96.41"/><path d="M122.69,96.22L122.74,96.01L122.82,96.00L122.80,96.11"/><path d="M122.82,96.00L122.96,95.99L123.13,96.17L123.10,96.28"/><path d="M123.11,95.57L123.13,95.57L123.26,95.62L123.38,95.70L123.47,95.81L123.52,95.94L123.53,95.98"/></g><g style="stroke:#000000;stroke-width:0.529"><path d="M123.53,95.98L123.54,96.07L123.50,96.19L123.43,96.28L123.27,96.45L123.18,96.52L123.07,96.56L122.94,96.56L122.81,96.52L122.69,96.43L122.60,96.32L122.55,96.20L122.54,96.07L122.57,95.95L122.64,95.85L122.84,95.65L122.89,95.61L123.00,95.57L123.11,95.57"/></g></g><g id="Actor_.18"><g style="stroke:#000000;stroke-width:0.176"><path d="M147.55,95.78L177.34,97.77"/><path d="M305.93,121.34L289.09,118.68L261.15,113.92L233.63,108.87L206.51,103.55L181.79,98.38"/><path d="M320.61,124.05L320.64,123.64L311.43,122.21"/><path d="M322.45,120.46L320.64,123.64"/><path d="M321.22,123.73L325.73,124.42"/><path d="M331.57,123.84L331.70,123.75L331.90,123.44"/><path d="M332.76,122.98L332.84,122.63"/></g><g style="stroke:#000000;stroke-width:0.529"><path d="M125.86,86.83L150.28,62.02L151.12,61.24L152.22,60.82L153.46,60.80L345.00,87.82L346.34,88.21L347.52,88.95L348.42,89.98L348.97,91.19L349.10,92.47L348.81,93.68L334.21,120.34"/><path d="M147.43,96.16L177.35,98.17"/><path d="M305.91,121.74L289.07,119.08L261.13,114.32L233.61,109.27L206.49,103.95L181.79,98.78"/><path d="M322.63,120.51L320.61,124.05L311.41,122.61"/><path d="M326.67,124.97L321.20,124.14L321.22,123.73L322.72,121.09"/><path d="M328.14,125.19L329.67,125.22L329.79,125.18"/><path d="M333.29,122.01L332.75,123.00L332.04,124.04L330.98,124.82L330.64,124.92"/></g></g><g id="Actor_.19"><g style="stroke:#000000;stroke-width:0.176"><path d="M321.74,119.23L321.75,119.24L321.84,119.28L321.91,119.29L324.89,119.74L324.92,119.74L324.93,119.74L324.94,119.73L325.17,119.32"/><path d="M321.81,120.30L321.82,120.30"/><path d="M324.68,122.56L324.54,121.95L324.77,122.96"/><path d="M324.54,121.95L324.36,121.18L324.54,121.95"/><path d="M324.28,120.99L324.28,120.99"/><path d="M325.27,123.15L325.48,123.58L325.56,123.71L325.99,124.17L326.17,124.29L326.57,124.53L326.39,124.46"/><path d="M325.99,124.17L325.92,124.12"/><path d="M325.56,123.71L325.64,123.83L325.63,123.82"/><path d="M325.97,121.26L325.84,121.38L325.59,121.94L325.55,122.56L325.74,123.19L325.99,123.54L326.13,123.74L326.68,124.17L327.33,124.42L327.76,124.45L328.01,124.47L328.65,124.32L329.18,123.97L329.53,123.47L329.59,123.24"/><path d="M326.12,124.69L326.14,124.70"/><path d="M325.61,124.31L325.60,124.30"/><path d="M325.48,123.58L325.34,123.37"/><path d="M325.33,124.02L325.09,123.67"/><path d="M325.87,124.53L325.62,124.31L325.38,124.08"/><path d="M329.24,124.21L329.23,124.22L328.62,124.56L327.90,124.68L327.15,124.58L326.44,124.26L325.87,123.75L325.48,123.12L325.32,122.42L325.41,121.74L325.61,121.38L325.58,121.41"/><path d="M325.75,124.43L325.53,124.23"/><path d="M325.97,124.60L326.15,124.71"/><path d="M325.14,122.65L325.20,122.95L325.17,122.88"/><path d="M325.20,122.95L325.27,123.16"/><path d="M325.30,123.40L325.17,123.14L325.13,122.91"/><path d="M325.24,121.99L325.32,121.85"/><path d="M325.15,122.38L325.15,122.35L325.14,122.65L325.14,122.64"/><path d="M325.61,121.38L326.12,120.98L326.60,120.82"/><path d="M325.32,121.85L325.58,121.40"/><path d="M327.13,125.11L327.10,125.10L327.68,125.19"/><path d="M326.57,124.53L326.85,124.65L326.92,124.67"/><path d="M329.64,123.76L329.44,124.08L329.20,124.35L329.08,124.46L328.65,124.68L328.46,124.75L327.83,124.84"/><path d="M326.81,120.75L326.80,120.75"/><path d="M328.48,125.14L328.92,125.02"/><path d="M328.26,125.18L328.29,125.18"/><path d="M328.46,124.75L328.35,124.79L328.36,124.79"/><path d="M328.65,124.68L328.84,124.61"/><path d="M329.08,124.46L329.04,124.50"/><path d="M329.20,124.35L329.41,124.17"/><path d="M329.66,123.79L329.57,124.03L329.42,124.21"/><path d="M329.25,124.86L329.24,124.86"/><path d="M329.79,124.30L329.41,124.70L329.41,124.70"/><path d="M329.23,124.22L329.61,123.77L329.59,123.83"/><path d="M329.74,123.36L329.74,123.36L329.61,123.77"/><path d="M329.53,123.47L329.50,123.52"/><path d="M328.92,125.00L329.17,124.86L329.42,124.71"/><path d="M329.36,124.77L328.97,125.00"/><path d="M329.44,121.99L329.44,122.00"/><path d="M329.74,123.35L329.70,123.49L329.74,123.36L329.75,123.06L329.71,122.67L329.63,122.49"/><path d="M330.06,122.77L330.06,122.82L330.07,122.03L330.09,121.57L330.15,120.53L330.15,120.53L330.16,120.54L330.17,120.54L330.19,120.55L333.17,121.00L333.25,121.01L333.35,121.00L333.44,120.98L333.51,120.95L333.54,120.91L333.70,120.61"/><path d="M330.06,122.78L330.05,122.82L330.06,122.74"/><path d="M330.66,121.98L330.69,121.95L330.68,121.96L330.63,122.01"/><path d="M330.69,121.95L330.73,121.93L330.72,121.93"/><path d="M330.68,121.96L330.68,121.96"/><path d="M330.05,122.79L330.06,122.70"/><path d="M330.55,123.04L330.47,123.18"/><path d="M330.48,123.16L330.50,123.13"/><path d="M331.08,121.91L331.20,121.92L330.87,121.90L331.08,121.91"/><path d="M331.74,121.95L330.92,121.90"/><path d="M331.75,121.95L331.20,121.92L331.69,121.94"/><path d="M331.20,121.92L331.25,121.92"/><path d="M330.99,121.91L330.87,121.90"/><path d="M330.87,121.90L330.79,121.91L330.73,121.93"/><path d="M330.15,120.53L330.15,120.52L330.38,120.11"/><path d="M333.11,122.00L333.19,121.99"/><path d="M333.35,121.99L333.31,122.00"/><path d="M333.48,121.89L333.66,121.55"/><path d="M333.47,121.90L333.48,121.89"/><path d="M333.61,121.64L333.96,121.01"/></g><g style="stroke:#000000;stroke-width:0.529"><path d="M321.67,119.35L321.63,120.12L321.63,120.12"/><path d="M321.63,120.12L321.64,120.17L321.65,120.18L321.68,120.22L321.71,120.24L321.75,120.27L321.81,120.30L321.86,120.31L321.82,120.30"/><path d="M321.86,120.31L324.08,120.87L324.16,120.90L324.22,120.94L324.28,120.99L324.31,121.05L324.34,121.11L324.68,122.56"/><path d="M333.31,122.00L333.25,122.01L333.19,122.02L333.12,122.02L330.99,121.91L330.76,122.60L330.50,123.13L330.47,123.18L329.93,124.16L329.92,124.19L329.86,124.29L329.61,124.58L329.47,124.71L329.36,124.77L329.25,124.86L328.95,125.01L328.92,125.02L328.80,125.06L328.48,125.14L328.34,125.18L327.69,125.21L327.10,125.12L326.45,124.89L326.15,124.71L326.03,124.64L325.97,124.60L325.86,124.54L325.75,124.43L325.60,124.30L325.53,124.23L325.37,124.08L325.33,124.02L325.25,123.93L325.09,123.67L324.99,123.54L324.77,122.96L324.68,122.56"/><path d="M324.77,122.96L324.77,122.95"/><path d="M325.97,121.26L326.29,120.95L326.60,120.82L326.81,120.75L327.56,120.75L328.30,120.98L328.95,121.41L329.44,121.99L329.63,122.49L329.68,122.88L329.59,123.24"/><path d="M331.74,121.95L331.96,121.96"/><path d="M331.69,121.94L331.75,121.95L331.75,121.95"/><path d="M333.47,121.90L333.45,121.93L333.40,121.97L333.35,121.99"/><path d="M334.21,120.27L334.19,120.57L334.18,120.60L333.96,121.01"/><path d="M334.08,120.78L333.48,121.89"/></g></g><g id="Actor_.20"><g style="stroke:#000000;stroke-width:0.176"><path d="M326.39,123.53L326.07,123.08L325.91,122.56L325.94,122.05L326.15,121.59L326.15,121.59L325.95,122.04L325.92,122.55L326.07,123.07L326.39,123.53L326.85,123.88L327.39,124.09L327.95,124.13L328.47,124.00L328.91,123.72L329.20,123.31L329.20,123.32L328.90,123.73L328.47,124.01L327.94,124.14L327.38,124.10L326.84,123.89L326.39,123.53"/><path d="M325.60,122.67L325.57,122.21L325.60,122.04L325.74,121.62L325.82,121.47L326.11,121.13L326.25,121.02L326.65,120.80"/><path d="M326.54,122.71L326.52,122.58L326.59,122.30L326.76,122.06L327.02,121.89L327.32,121.82L327.64,121.84L327.65,121.84L327.96,121.96L328.22,122.17L328.33,122.32L328.41,122.43L328.50,122.73L328.48,123.03L328.36,123.30L328.15,123.50L328.06,123.54"/><path d="M326.37,122.73L326.48,123.08L326.70,123.39L327.00,123.62L327.36,123.76L327.74,123.79L328.09,123.71L328.38,123.51L328.58,123.24L328.66,122.91L328.62,122.56L328.60,122.52L328.46,122.23L328.19,121.95L327.85,121.76L327.48,121.67L327.11,121.70L326.78,121.84L326.54,122.08L326.39,122.39L326.37,122.73"/><path d="M326.51,122.04L326.59,121.91L326.84,121.67L327.18,121.52L327.56,121.49L327.95,121.58L328.29,121.78L328.57,122.06L328.73,122.41L328.78,122.77L328.69,123.11L328.62,123.24L328.71,122.90L328.66,122.54L328.50,122.19L328.22,121.91L327.87,121.71L327.49,121.62L327.10,121.65L326.77,121.80L326.51,122.04L326.37,122.36L326.35,122.72L326.45,123.07L326.49,123.12L326.68,123.39L326.99,123.63L327.36,123.78L327.75,123.81L328.12,123.72L328.42,123.52L328.62,123.24"/><path d="M326.51,122.04L326.58,121.91L326.83,121.66L327.17,121.51L327.56,121.48L327.95,121.57L328.30,121.77L328.58,122.06L328.75,122.40L328.79,122.77L328.71,123.11L328.64,123.20"/><path d="M325.66,121.79L325.60,122.04L325.58,122.10"/><path d="M329.20,123.31L329.32,122.82L329.25,122.30L329.01,121.81L328.62,121.39L328.12,121.11L328.12,121.11L328.11,121.11L327.56,120.98L327.00,121.03L326.52,121.24L326.15,121.59"/><path d="M326.71,122.33L326.72,122.30L326.76,122.23"/><path d="M326.95,122.03L326.87,122.08L326.84,122.12"/><path d="M327.19,121.91L327.09,121.93L327.06,121.96"/><path d="M326.58,121.91L326.59,121.87L326.85,121.63L327.19,121.48L327.58,121.45L327.97,121.54L328.32,121.74L328.60,122.03L328.76,122.37L328.81,122.74L328.72,123.08L328.71,123.11"/><path d="M327.32,121.88L327.37,121.87L327.45,121.87"/><path d="M329.63,122.47L329.65,122.91L329.62,123.09L329.48,123.51L329.40,123.66L329.11,124.00L329.00,124.08"/><path d="M328.56,124.32L328.97,124.11"/><path d="M328.42,122.78L328.42,122.69L328.41,122.65"/><path d="M328.41,122.91L328.41,122.95L328.37,123.04"/><path d="M328.37,122.51L328.34,122.42L328.32,122.38"/></g><g style="stroke:#000000;stroke-width:0.529"><path d="M325.57,122.37L325.60,122.67L325.64,122.85L325.83,123.29L325.93,123.45L325.97,123.50L326.25,123.82L326.40,123.95L326.84,124.22L327.02,124.30L327.50,124.43L327.72,124.45L327.91,124.45L328.39,124.38L328.56,124.32L328.61,124.31"/><path d="M327.90,121.98L327.94,122.00L328.02,122.06"/><path d="M327.45,121.87L327.54,121.87"/><path d="M327.58,121.88L327.59,121.88L327.66,121.89L327.76,121.93"/><path d="M328.92,124.14L328.97,124.11L329.00,124.08L329.05,124.05"/><path d="M328.14,122.15L328.17,122.18L328.23,122.26"/></g></g><g id="Actor_.21"><g style="stroke:#000000;stroke-width:0.176"><path d="M329.55,124.63L329.58,124.66"/><path d="M330.01,124.28L329.60,124.65"/><path d="M329.64,124.67L329.63,124.67"/><path d="M329.95,124.13L329.96,124.12L330.06,124.24"/><path d="M329.96,124.12L330.11,123.85"/></g><g style="stroke:#000000;stroke-width:0.529"><path d="M329.38,124.76L329.58,124.66L329.60,124.65L329.63,124.67L329.66,124.70L329.68,124.75L329.68,124.78L329.67,124.91L329.71,125.05L329.72,125.08L329.80,125.20L329.91,125.29L330.04,125.35L330.19,125.36L330.22,125.35L330.27,125.33L330.34,125.28L330.41,125.22L330.49,125.16L330.55,125.09L330.61,125.03L330.63,124.98L330.64,124.95L330.65,124.81L330.61,124.67L330.53,124.55L330.42,124.46L330.29,124.40L330.26,124.39L330.14,124.39L330.11,124.38L330.06,124.36L330.02,124.32L330.01,124.28L330.06,124.24L330.21,123.96L330.11,123.85L330.10,123.86"/></g></g><g id="Actor_.22"><g style="stroke:#000000;stroke-width:0.176"><path d="M332.08,121.97L332.11,121.98L332.21,121.97"/><path d="M332.07,122.71L332.11,121.98"/><path d="M332.83,122.65L332.87,122.01"/></g><g style="stroke:#000000;stroke-width:0.529"><path d="M331.54,121.94L331.51,122.44L332.07,122.71L332.83,122.65L333.03,122.32L333.05,122.02"/></g></g><g id="Actor_.23"><g style="stroke:#000000;stroke-width:0.176"><path d="M123.47,95.21L123.48,95.14L123.59,95.20L123.81,95.39L123.97,95.63L124.05,95.88L124.04,96.14L123.95,96.36"/><path d="M122.64,95.23L122.83,95.10L123.04,95.06"/><path d="M123.48,95.14L123.63,94.97"/></g><g style="stroke:#000000;stroke-width:0.529"><path d="M123.39,96.62L123.56,96.62L123.78,96.53L123.95,96.36L124.11,96.20"/><path d="M122.79,95.07L122.64,95.23L122.51,95.43L122.46,95.67L122.47,95.73"/></g></g><g id="Actor_.24"><g style="stroke:#000000;stroke-width:0.176"><path d="M119.85,101.63L120.05,101.69L120.32,101.69L120.31,101.54"/><path d="M120.32,101.69L120.56,101.65L120.65,101.59"/><path d="M119.78,101.61L119.78,101.46"/><path d="M120.40,98.07L120.40,98.06L120.39,98.10L120.36,98.14L120.30,98.18L120.21,98.20L120.12,98.21L120.03,98.21L119.94,98.19L119.87,98.17L119.83,98.13L119.82,98.09L119.82,98.09"/><path d="M120.30,97.98L120.32,98.01L120.32,98.04L120.30,98.07L120.25,98.09L120.19,98.11L120.12,98.12L120.04,98.12L119.98,98.11L119.93,98.09L119.90,98.06L119.89,98.03L119.90,98.00"/></g><g style="stroke:#000000;stroke-width:0.529"><path d="M120.66,101.60L120.65,101.60L120.56,101.65L120.44,101.68L120.31,101.70L120.18,101.70L120.05,101.69L119.94,101.66L119.85,101.63L119.78,101.61L119.75,101.52L119.73,101.45"/><path d="M120.41,98.31L120.40,98.07"/><path d="M119.83,98.34L119.82,98.09"/><path d="M120.40,98.06L120.37,98.03L120.30,97.98L120.26,97.95L120.20,97.94L120.13,97.93L120.06,97.94L119.99,97.95L119.94,97.97L119.90,98.00L119.84,98.05L119.82,98.09"/></g></g><g id="Actor_.25"><g style="stroke:#000000;stroke-width:0.176"><path d="M332.64,122.80L332.54,122.85L332.41,122.87L332.26,122.88L332.11,122.86L331.98,122.83L331.87,122.77"/><path d="M331.80,122.64L331.80,122.64"/><path d="M331.94,117.42L332.34,117.62L332.37,117.18L332.10,116.99L331.99,116.92L331.93,116.84L331.91,116.76L331.94,116.68L332.01,116.61L332.13,116.56"/><path d="M332.10,117.53L332.15,117.55L332.27,117.58"/><path d="M332.43,117.62L332.58,117.63L332.80,117.62L333.00,117.58L333.00,117.58L332.34,117.62"/><path d="M332.01,116.61L331.99,116.63"/><path d="M333.37,116.81L333.26,116.92L333.18,116.98L333.07,117.04L332.92,117.08L332.76,117.10L332.58,117.10L332.40,117.08L332.24,117.04L332.10,116.99L331.82,116.90"/><path d="M332.37,117.18L332.76,117.10L333.14,117.13L333.26,116.92L333.29,116.84L333.27,116.76L333.20,116.68"/><path d="M333.14,117.13L333.11,117.57"/><path d="M333.17,117.49L333.24,117.39"/><path d="M333.00,117.58L333.01,117.58"/></g><g style="stroke:#000000;stroke-width:0.529"><path d="M331.80,122.64L331.81,122.71L331.87,122.77L331.94,122.83L332.03,122.88L332.13,122.91L332.25,122.92L332.37,122.92L332.48,122.89L332.56,122.86L332.64,122.80L332.70,122.74L332.71,122.68L332.71,122.66"/><path d="M331.80,122.64L331.80,122.58"/><path d="M332.10,117.53L332.07,117.51L332.00,117.47L331.94,117.42L331.80,117.34L331.82,116.90L331.94,116.68L332.05,116.57L332.13,116.56L332.27,116.52L332.44,116.50L332.62,116.50L332.80,116.52L332.96,116.56L333.10,116.61L333.20,116.68L333.23,116.71L333.37,116.81L333.34,117.25L333.24,117.39L333.24,117.43L333.17,117.49L333.11,117.57L333.01,117.58"/></g></g><g id="Actor_.26"><g style="stroke:#000000;stroke-width:0.176"><path d="M237.66,108.29L237.70,105.24"/></g><g style="stroke:#000000;stroke-width:0.529"><path d="M239.69,105.54L237.66,108.29L237.45,108.25L237.38,108.23L237.32,108.20L237.28,108.15L237.25,108.09L237.24,108.02L237.27,105.97L237.24,105.80L237.16,105.64L237.04,105.50L236.88,105.40L236.71,105.35L233.41,104.85L233.35,104.83L233.29,104.79L233.24,104.74L233.21,104.68L233.20,104.62L233.21,104.56"/></g></g><g id="Actor_.27"><g style="stroke:#000000;stroke-width:0.176"><path d="M315.50,117.05L316.68,117.22L316.57,119.40"/><path d="M316.68,117.22L317.28,116.20"/></g><g style="stroke:#000000;stroke-width:0.529"><path d="M317.19,117.95L317.17,118.37L316.57,119.40L315.39,119.22L315.50,117.05L316.10,116.02L317.28,116.20L317.24,117.04"/></g></g><g id="Actor_.28"><g style="stroke:#000000;stroke-width:0.176"><path d="M322.97,121.39L323.05,121.45L323.17,121.50L323.32,121.53L323.47,121.53L323.61,121.52L323.72,121.48L323.81,121.43"/><path d="M322.93,121.32L322.93,121.33"/><path d="M324.31,115.35L324.38,115.42L324.39,115.50L324.36,115.58L324.29,115.65L324.18,115.70L324.03,115.74L323.86,115.76L323.47,115.84L323.45,116.28L324.09,116.24L324.01,116.27L323.80,116.29L323.57,116.28L323.53,116.28"/><path d="M323.47,115.84L323.21,115.65L323.10,115.58L323.04,115.50L323.02,115.42L323.05,115.35L323.13,115.28L323.24,115.22"/><path d="M323.21,116.19L323.36,116.24L323.39,116.25L323.05,116.07"/><path d="M323.45,116.28L323.39,116.25"/><path d="M322.94,115.56L323.21,115.65L323.34,115.70L323.51,115.74L323.69,115.76L323.86,115.76L324.24,115.79L324.22,116.24"/><path d="M323.11,115.29L323.13,115.28"/><path d="M324.24,115.79L324.36,115.58L324.48,115.47L324.48,115.47"/><path d="M324.09,116.24L324.12,116.24"/><path d="M324.28,116.16L324.36,116.04"/></g><g style="stroke:#000000;stroke-width:0.529"><path d="M322.93,121.32L322.94,121.25"/><path d="M322.93,121.33L322.97,121.39L323.05,121.46L323.12,121.51L323.21,121.55L323.33,121.57L323.45,121.57L323.56,121.56L323.65,121.53L323.72,121.49L323.81,121.43L323.84,121.36L323.85,121.29"/><path d="M324.48,115.47L324.34,115.37L324.31,115.35L324.21,115.28L324.07,115.22L323.91,115.18L323.73,115.16L323.55,115.16L323.39,115.18L323.24,115.22L323.17,115.24L323.05,115.35L322.94,115.56L322.91,116.00L323.05,116.07L323.05,116.09L323.18,116.18L323.21,116.19"/><path d="M324.12,116.24L324.22,116.24L324.28,116.16L324.31,116.14L324.36,116.04L324.36,116.04L324.45,115.91L324.48,115.47"/></g></g><g id="Actor_.29"><g style="stroke:#000000;stroke-width:0.176"><path d="M119.12,99.88L127.63,101.20L127.66,101.17"/><path d="M127.63,101.20L127.65,101.72"/></g><g style="stroke:#000000;stroke-width:0.529"><path d="M129.07,100.23L127.65,101.72L119.14,100.40L119.12,99.88L119.15,99.85"/></g></g><g id="Actor_.30"><g style="stroke:#000000;stroke-width:0.176"><path d="M118.48,100.48L118.37,97.88L117.84,97.80"/><path d="M118.37,97.88L120.40,93.23"/><path d="M120.73,92.49L120.45,93.13"/></g><g style="stroke:#000000;stroke-width:0.529"><path d="M119.14,99.81L118.48,100.48L117.95,100.40L117.84,97.80L120.55,91.61"/></g></g><g id="Actor_.31"><g style="stroke:#000000;stroke-width:0.176"><path d="M123.71,96.51L123.85,96.35L123.92,96.14L123.91,95.90L123.83,95.66L123.67,95.45L123.46,95.29L123.22,95.20L122.98,95.18L122.77,95.24L122.59,95.38"/></g><g style="stroke:#000000;stroke-width:0.529"><path d="M123.47,95.21L123.52,95.23L123.73,95.39L123.89,95.60L123.98,95.83L123.99,96.07L123.92,96.28L123.77,96.45L123.71,96.51L123.51,96.61L123.28,96.63L123.04,96.58L123.01,96.56"/><path d="M123.04,95.12L122.83,95.18L122.66,95.31L122.59,95.38L122.49,95.57L122.46,95.80L122.51,96.04L122.54,96.10"/></g></g><g id="Actor_.32"><g style="stroke:#000000;stroke-width:0.176"><path d="M342.13,84.14L342.19,84.21L342.21,84.28L342.18,84.35L342.11,84.41L342.01,84.46L341.87,84.49L341.71,84.51L341.35,84.59L341.32,85.01L340.93,84.82"/><path d="M341.32,85.01L341.94,84.97L341.85,85.00L341.65,85.02L341.44,85.01L341.39,85.00"/><path d="M341.09,84.92L341.23,84.98L341.27,84.98"/><path d="M341.94,84.97L341.94,84.97"/><path d="M341.35,84.59L341.09,84.41L340.99,84.35L340.93,84.28L340.91,84.21L340.94,84.14L341.01,84.08L340.99,84.10"/><path d="M342.28,84.26L342.18,84.35L342.07,84.54L341.71,84.51L341.55,84.51L341.38,84.49L341.22,84.46L341.09,84.41L340.83,84.34"/><path d="M341.11,84.03L341.01,84.08"/><path d="M342.05,84.97L342.07,84.54"/><path d="M342.17,84.79L342.10,84.90"/></g><g style="stroke:#000000;stroke-width:0.529"><path d="M340.99,84.10L340.99,84.10L340.94,84.14L340.83,84.34L340.81,84.76L340.93,84.82L340.94,84.84L341.06,84.91L341.09,84.92"/><path d="M341.94,84.97L342.05,84.97L342.10,84.90L342.13,84.88L342.17,84.80L342.17,84.79L342.26,84.68L342.28,84.26"/><path d="M340.99,84.10L341.04,84.05L341.11,84.03L341.25,83.99L341.41,83.98L341.57,83.98L341.74,83.99L341.90,84.03L342.03,84.08L342.13,84.14L342.15,84.17L342.28,84.25"/></g></g><g id="Actor_.33"><g style="stroke:#000000;stroke-width:0.176"><path d="M123.67,96.06L123.67,96.05"/><path d="M123.58,96.26L123.58,96.25"/><path d="M123.56,96.26L123.57,96.26"/><path d="M122.66,95.81L122.66,95.81"/></g><g style="stroke:#000000;stroke-width:0.529"><path d="M123.67,96.05L123.66,95.89L123.66,95.89L123.59,95.72L123.48,95.58L123.32,95.48L123.16,95.43L123.15,95.43L122.99,95.44L122.85,95.51L122.84,95.51L122.81,95.54L122.71,95.66L122.71,95.66L122.66,95.81"/><path d="M122.66,95.83L122.66,95.81"/><path d="M123.46,96.24L123.52,96.30L123.52,96.30L123.53,96.31L123.53,96.31L123.53,96.32L123.52,96.32L123.52,96.32L123.52,96.33L123.48,96.37L123.48,96.37L123.34,96.43L123.28,96.43"/><path d="M123.58,96.25L123.62,96.21L123.62,96.21L123.63,96.21L123.67,96.06"/><path d="M123.57,96.26L123.58,96.26"/><path d="M123.56,96.26L123.56,96.25L123.55,96.25L123.50,96.20"/></g></g><g id="Actor_.34"><g style="stroke:#000000;stroke-width:0.176"><path d="M349.39,90.32L349.49,90.37L349.88,90.34"/><path d="M349.45,91.07L349.49,90.37"/><path d="M350.17,91.02L350.21,90.36"/></g><g style="stroke:#000000;stroke-width:0.529"><path d="M348.95,90.30L348.91,90.83L349.45,91.07L350.17,91.02L350.35,90.73L350.37,90.37"/></g></g><g id="Actor_.35"><g style="stroke:#000000;stroke-width:0.176"><path d="M349.98,91.17L349.88,91.21L349.76,91.24L349.62,91.24L349.48,91.23L349.36,91.19L349.26,91.15"/><path d="M349.18,91.03L349.18,91.03"/><path d="M349.41,85.29L349.41,85.29L349.43,85.27L349.36,85.33L349.34,85.40L349.35,85.47L349.42,85.54L349.52,85.60L349.25,85.53"/><path d="M350.37,86.16L349.75,86.20L349.78,85.78L349.52,85.60L349.65,85.65L349.81,85.69L349.98,85.70L350.14,85.70L350.30,85.69L350.44,85.65L350.54,85.60L350.71,85.45"/><path d="M349.51,86.12L349.57,86.14L349.69,86.17L349.36,86.01"/><path d="M349.69,86.17L349.75,86.20"/><path d="M349.43,85.27L349.53,85.22"/><path d="M350.55,85.33L350.61,85.40L350.63,85.47L350.61,85.54L350.50,85.74L350.14,85.70L349.78,85.78"/><path d="M350.50,85.74L350.47,86.16"/><path d="M350.37,86.17L350.36,86.17L350.18,86.21L349.97,86.21L349.82,86.20"/><path d="M350.52,86.09L350.59,86.00"/></g><g style="stroke:#000000;stroke-width:0.529"><path d="M349.18,91.03L349.20,91.09L349.32,91.21L349.40,91.24L349.50,91.27L349.62,91.28L349.73,91.28L349.83,91.26L349.90,91.23L349.98,91.17L350.03,91.12L350.04,91.06L350.04,91.03"/><path d="M349.18,91.03L349.19,90.95"/><path d="M350.37,86.17L350.37,86.16L350.47,86.16L350.52,86.09L350.58,86.03L350.59,86.00L350.68,85.87L350.71,85.45L350.57,85.35L350.55,85.33L350.45,85.27L350.32,85.22L350.16,85.18L349.99,85.17L349.82,85.17L349.67,85.18L349.46,85.24L349.36,85.33L349.25,85.53L349.23,85.95L349.36,86.01L349.42,86.07L349.49,86.11L349.51,86.12"/></g></g><g id="Actor_.36"><g style="stroke:#000000;stroke-width:0.176"><path d="M333.93,120.64L333.89,120.55L333.88,120.38L333.88,120.14L333.95,119.06L333.97,118.78L334.02,118.50L334.07,118.24L334.14,118.01L334.21,117.85L334.49,117.34L334.55,117.26"/><path d="M334.30,119.75L334.07,120.17L334.04,120.21L334.01,120.20L334.00,120.15L333.99,120.15L333.99,120.07L333.99,119.95L334.05,118.86L334.07,118.73L334.09,118.59L334.12,118.45L334.15,118.34L334.18,118.26L334.47,117.75L334.50,117.71L334.52,117.71L334.54,117.76L334.55,117.85L334.55,117.96L334.48,119.05L334.47,119.19L334.45,119.33L334.42,119.46L334.39,119.57L334.35,119.65L334.30,119.75"/></g><g style="stroke:#000000;stroke-width:0.529"><path d="M317.83,118.21L319.64,118.48"/><path d="M318.54,114.85L322.96,115.52"/><path d="M325.18,119.32L321.96,118.83"/><path d="M331.85,116.85L324.46,115.74"/><path d="M333.35,117.08L334.61,117.27L334.64,117.37L334.66,117.54L334.65,117.77L334.59,118.86L334.56,119.13L334.52,119.41L334.46,119.67L334.40,119.87L334.40,119.90L334.33,120.06L334.05,120.57L333.98,120.65L325.86,119.42"/></g></g><g id="Actor_.37"><g style="stroke:#000000;stroke-width:0.176"><path d="M320.35,117.43L321.54,117.61L322.12,116.59"/><path d="M321.42,119.79L321.54,117.61"/><path d="M322.09,117.27L322.09,117.27"/></g><g style="stroke:#000000;stroke-width:0.529"><path d="M322.01,118.68L322.01,118.76L321.42,119.79L320.24,119.61L320.35,117.43L320.94,116.41L322.12,116.59L322.09,117.27"/><path d="M322.09,117.27L322.06,117.77"/></g></g><g id="Actor_.38"><g style="stroke:#000000;stroke-width:0.176"><path d="M179.51,101.43L179.50,100.90L179.02,100.56L178.55,100.75L178.56,101.28L179.04,101.62L179.51,101.43L179.77,101.13"/><path d="M179.50,100.90L179.76,100.60"/><path d="M179.02,100.56L179.39,100.13"/><path d="M178.55,100.75L179.12,100.09"/></g><g style="stroke:#000000;stroke-width:0.529"><path d="M183.56,99.15L181.82,101.19"/></g></g><g id="Actor_.39"><g style="stroke:#000000;stroke-width:0.176"><path d="M344.80,84.86L344.79,84.89"/></g><g style="stroke:#000000;stroke-width:0.529"><path d="M344.33,84.83L344.34,84.79L344.80,84.86L344.88,84.90"/></g></g><g id="Actor_.40"><g style="stroke:#000000;stroke-width:0.176"><path d="M126.53,99.38L126.53,99.39L126.54,99.40"/><path d="M126.25,99.41L126.67,99.58L127.23,99.50L127.25,99.97"/><path d="M127.10,99.25L127.14,99.29L127.15,99.33L127.14,99.36L127.12,99.38L127.06,99.42L126.98,99.45L126.97,99.45L126.87,99.47L126.76,99.47L126.65,99.46L126.57,99.43L126.51,99.39L126.48,99.35L126.49,99.30L126.53,99.27"/><path d="M126.68,100.05L126.67,99.58"/><path d="M127.10,99.36L127.11,99.38L127.10,99.38"/><path d="M127.23,99.50L127.26,99.46"/><path d="M127.10,99.40L127.10,99.40L127.10,99.39"/></g><g style="stroke:#000000;stroke-width:0.529"><path d="M127.27,99.93L127.25,99.97L126.68,100.05L126.27,99.88L126.25,99.41L126.40,99.16L126.52,99.15"/><path d="M127.25,99.19L127.10,99.13"/></g></g><g id="Actor_.41"><g style="stroke:#000000;stroke-width:0.176"><path d="M127.01,102.58L127.01,102.73L126.75,102.73L126.55,102.67"/><path d="M126.47,102.65L126.47,102.50"/><path d="M127.10,99.10L127.10,99.10L127.09,99.14L127.06,99.18L127.00,99.21L126.92,99.23L126.82,99.25L126.73,99.24L126.64,99.23L126.57,99.20L126.53,99.17L126.52,99.12L126.52,99.13"/><path d="M127.00,99.01L127.03,99.04L127.02,99.07L127.00,99.10L126.95,99.13L126.89,99.14L126.82,99.15L126.75,99.15L126.68,99.14L126.63,99.12L126.60,99.09L126.59,99.06L126.60,99.03"/><path d="M127.01,102.73L127.25,102.68L127.34,102.63"/></g><g style="stroke:#000000;stroke-width:0.529"><path d="M126.42,102.49L126.44,102.56L126.47,102.65L126.55,102.67L126.63,102.70L126.75,102.73L126.87,102.74L127.01,102.73L127.14,102.72L127.25,102.68L127.34,102.64L127.35,102.63"/><path d="M126.53,99.37L126.52,99.13"/><path d="M127.10,99.10L127.07,99.06L127.00,99.01L126.96,98.99L126.90,98.97L126.83,98.96L126.76,98.97L126.69,98.98L126.64,99.00L126.60,99.03L126.54,99.08L126.52,99.12"/><path d="M127.11,99.35L127.10,99.10"/></g></g><g id="Actor_.42"><g style="stroke:#000000;stroke-width:0.176"><path d="M126.96,91.66L135.45,92.96L135.74,101.25"/><path d="M128.39,90.19L128.54,90.03L137.02,91.32L135.45,92.96"/><path d="M130.83,90.38L131.19,89.05L131.76,87.73L132.41,86.81L132.09,87.08L131.48,87.95L130.95,89.18L130.63,90.35"/><path d="M132.41,86.81L132.60,86.69"/><path d="M137.02,91.32L137.24,97.98"/><path d="M139.18,97.75L138.83,96.68L138.68,95.25L138.73,93.60L138.98,91.89L139.41,90.30L139.98,88.97L140.62,88.05L140.76,87.95L140.28,88.64L139.69,89.98L139.23,91.60L138.93,93.35L138.83,95.07L138.94,96.62L139.23,97.82L139.18,97.75"/><path d="M139.23,97.82L139.23,97.84L139.52,98.33"/><path d="M141.11,87.59L140.94,87.70L140.76,87.95"/></g><g style="stroke:#000000;stroke-width:0.529"><path d="M127.27,99.95L135.74,101.25L137.29,99.60L137.24,97.98L139.52,98.33L139.70,98.64L140.28,98.95L143.91,99.50L144.36,99.50L144.83,99.38L145.37,99.20L145.82,98.83L146.22,98.49L146.64,97.93L147.02,97.18L147.17,96.85L147.47,96.05L147.73,95.14L147.91,94.18L148.03,93.20L148.06,92.25L148.02,91.38L147.98,91.03L147.84,90.18L147.62,89.50L147.32,89.02L147.02,88.54L146.64,88.26L146.15,87.92L145.72,87.79L142.24,87.30L141.61,87.24L141.11,87.59L133.07,86.38L132.60,86.69L131.30,86.14L130.68,86.04L130.02,86.47L129.37,87.39L128.80,88.70L128.39,90.19L126.96,91.66L127.27,99.95"/></g></g><g id="Actor_.43"><g style="stroke:#000000;stroke-width:0.176"><path d="M122.17,94.72L122.48,94.42L122.89,94.26L123.36,94.26L123.83,94.41L124.26,94.69L124.41,94.87L124.60,95.09L124.81,95.55L124.87,96.02L124.77,96.46L124.52,96.81L124.15,97.04"/><path d="M123.58,94.77L123.57,94.74L123.17,94.68L123.18,94.76"/><path d="M122.97,94.95L122.94,94.96L122.87,95.02"/><path d="M123.90,95.16L123.83,95.10L123.79,95.07"/><path d="M124.06,96.25L124.03,96.29L124.00,96.31"/><path d="M124.20,95.78L124.21,95.84L124.20,95.90"/><path d="M124.18,96.03L124.17,96.09L124.13,96.14"/><path d="M124.18,95.64L124.17,95.57L124.14,95.52"/><path d="M124.07,95.39L124.04,95.31L124.00,95.27"/></g><g style="stroke:#000000;stroke-width:0.529"><path d="M124.68,96.67L124.57,96.78L124.20,97.02L124.15,97.04L123.71,97.12L123.23,97.05L122.77,96.83L122.38,96.48L122.11,96.05L121.97,95.58L121.99,95.12L122.17,94.72L122.19,94.67L122.30,94.55"/></g></g><g id="Actor_.44"><g style="stroke:#000000;stroke-width:0.176"><path d="M119.11,99.03L127.91,100.39L127.94,101.21"/><path d="M122.54,97.99L120.65,97.70L120.63,94.65L120.70,93.22L120.40,93.18"/><path d="M120.58,97.52L120.65,97.53"/><path d="M120.72,94.35L120.67,94.49L120.66,95.45L120.96,96.36L121.10,96.63L121.77,97.45L122.67,98.08L123.67,98.41L124.66,98.39L125.52,98.03L126.13,97.40L126.26,97.17L126.48,96.35L126.40,95.37L126.00,94.41L125.31,93.57L124.43,92.97L123.44,92.65L122.47,92.67L121.62,93.01L121.00,93.64L120.72,94.35"/><path d="M120.70,93.22L120.71,92.86"/><path d="M121.07,100.15L121.06,99.90L121.27,99.94"/><path d="M126.14,95.71L126.14,95.72L126.10,96.55L125.79,97.26L125.23,97.79L124.50,98.07L123.66,98.08L122.81,97.81L122.27,97.45L122.04,97.30L121.44,96.59L121.06,95.77L120.96,94.94L120.96,94.93L121.14,94.15L121.58,93.51L122.23,93.10L123.03,92.95L123.88,93.08L124.71,93.48L125.40,94.10L125.90,94.87L126.14,95.72"/><path d="M127.03,93.58L127.00,93.52L126.25,92.60L125.27,91.93L124.18,91.58L123.11,91.60L122.17,91.98L121.48,92.67L121.00,93.64"/><path d="M126.97,91.65L126.97,91.47L127.15,90.76L127.65,89.70L127.96,88.58L128.26,87.88L126.20,88.06L123.84,88.39L121.64,88.79L121.02,88.89L120.77,91.57L120.76,91.73"/><path d="M121.02,88.89L121.15,88.51L121.24,88.33"/><path d="M122.42,94.44L122.52,94.32L122.57,94.30"/><path d="M122.97,94.12L122.91,94.13L122.77,94.20"/><path d="M123.92,94.22L123.86,94.19L123.69,94.15"/><path d="M123.21,94.10L123.38,94.08L123.44,94.09"/><path d="M124.78,98.34L127.23,98.71"/><path d="M124.83,96.46L124.75,96.59L124.71,96.63"/><path d="M124.98,96.05L124.96,96.21L124.94,96.26"/><path d="M124.99,95.59L125.02,95.76L125.02,95.81"/><path d="M124.15,94.36L124.31,94.45L124.36,94.50"/><path d="M124.84,95.12L124.93,95.28L124.94,95.34"/><path d="M124.55,94.69L124.68,94.83L124.71,94.88"/><path d="M126.90,97.15L126.88,96.76L126.52,97.00L126.13,97.40L126.90,97.15L126.48,97.52L125.52,98.03"/><path d="M126.52,97.00L126.26,97.17"/><path d="M126.88,96.76L127.15,96.58"/><path d="M127.91,100.39L128.19,100.09"/><path d="M126.97,92.02L126.97,92.11L126.97,92.13"/><path d="M127.36,91.25L127.52,90.16L127.65,89.70"/><path d="M130.68,86.04L130.02,86.47L129.37,87.39L128.80,88.70L128.39,90.19"/><path d="M128.26,87.88L128.52,87.26L128.97,86.63"/></g><g style="stroke:#000000;stroke-width:0.529"><path d="M119.56,98.57L119.11,99.03L119.14,99.85L121.07,100.15L121.27,99.94L125.24,100.55L125.25,100.80L127.94,101.21L128.90,100.20"/><path d="M131.30,86.14L130.68,86.04L129.84,85.92L129.17,86.34L128.97,86.63L127.54,86.69L125.33,86.87L123.29,87.13L122.67,87.22L122.27,87.29L121.91,87.48L121.68,87.68L121.39,88.05L121.24,88.33L121.09,88.34L120.86,88.52L120.65,88.87L120.47,89.34L120.35,89.89L120.30,90.45L120.32,90.96L120.41,91.38L120.57,91.64L120.76,91.73L120.71,92.86L120.40,93.18L120.58,97.52L120.18,97.94"/></g></g><g id="Actor_.45"><g style="stroke:#000000;stroke-width:0.176"><path d="M123.64,94.78L123.44,94.98L123.44,95.24"/><path d="M123.44,94.98L123.04,94.89"/></g><g style="stroke:#000000;stroke-width:0.529"><path d="M123.04,95.15L123.04,94.89L123.24,94.70L123.24,94.69"/></g></g><g id="Actor_.46"><g style="stroke:#000000;stroke-width:0.176"><path d="M154.02,60.88L154.32,60.79"/><path d="M154.67,60.77L154.80,60.76L154.76,60.76"/><path d="M154.67,60.77L154.53,60.78"/><path d="M154.28,60.79L154.25,60.80L154.22,60.81"/></g><g style="stroke:#000000;stroke-width:0.529"><path d="M155.24,60.81L154.81,60.75L154.80,60.75L154.53,60.78L154.32,60.79L154.28,60.79L154.26,60.80L154.22,60.81L154.01,60.88"/></g></g><g id="Actor_.47"><g style="stroke:#000000;stroke-width:0.176"><path d="M347.87,88.59L347.67,88.96L347.66,88.97L347.67,88.98L347.68,88.98L347.69,88.99L347.70,88.99L350.52,89.39L350.60,89.40L350.70,89.39L350.78,89.37L350.84,89.34L350.87,89.32L351.02,89.04"/><path d="M347.66,88.97L347.66,89.11"/><path d="M350.46,90.34L350.53,90.34"/><path d="M350.96,89.96L350.80,90.25"/><path d="M350.81,90.24L351.23,89.47"/><path d="M350.79,90.27L350.78,90.28"/><path d="M350.80,90.26L350.81,90.24"/><path d="M351.43,89.09L351.44,89.07L351.44,89.08"/></g><g style="stroke:#000000;stroke-width:0.529"><path d="M348.56,90.29L350.48,90.37L350.54,90.37"/><path d="M351.23,89.47L351.32,89.30L350.81,90.24"/><path d="M350.80,90.26L350.79,90.27L350.78,90.29L350.77,90.30L350.73,90.32L350.69,90.34L350.68,90.34L350.65,90.35L350.60,90.36L350.54,90.37"/><path d="M351.34,89.27L351.32,89.30L351.43,89.10L351.44,89.08L351.46,88.79"/></g></g><g id="Actor_.48"><g style="stroke:#000000;stroke-width:0.176"><path d="M317.04,117.91L317.03,117.85L317.02,117.74L317.03,117.61L317.04,117.46L317.07,117.32L317.11,117.19L317.14,117.10L317.18,117.04"/><path d="M325.80,119.49L325.77,119.47L325.75,119.41L325.74,119.30L325.73,119.17L325.74,119.01L325.76,118.83L325.79,118.66L325.83,118.49L325.86,118.14L326.00,118.13L326.03,118.15L326.01,118.12L326.00,118.13L325.96,118.16L325.92,118.24L325.87,118.35L325.83,118.49L325.68,118.83L325.73,119.17L325.67,119.49"/><path d="M325.19,119.36L325.20,118.76L325.68,118.83"/><path d="M325.16,119.16L325.16,119.11L325.17,118.91L325.20,118.69L325.24,118.47L325.29,118.28L325.30,118.26"/><path d="M326.03,118.15L326.05,118.21"/><path d="M325.20,118.76L325.37,118.10"/><path d="M325.38,118.07L325.86,118.14"/><path d="M326.02,118.11L326.01,118.12"/><path d="M325.39,118.06L325.46,118.05"/></g><g style="stroke:#000000;stroke-width:0.529"><path d="M319.75,117.42L317.21,117.04L317.18,117.04L317.08,117.12L317.05,117.16L317.02,117.24L317.00,117.34L316.97,117.45L316.96,117.57L316.95,117.68L316.96,117.76L316.97,117.82L317.04,117.91L317.07,117.93L319.60,118.32"/><path d="M321.84,117.74L325.30,118.26L325.34,118.14L325.37,118.10L325.38,118.07L325.39,118.06L325.40,118.06L325.42,118.05L325.46,118.05L325.53,118.04L326.02,118.11L326.05,118.21L326.06,118.32L326.07,118.45L326.06,118.61L326.04,118.79L326.01,118.96L325.97,119.13L325.93,119.27L325.89,119.38L325.84,119.46L325.80,119.49L325.67,119.49L325.19,119.42L325.19,119.36L325.16,119.27L325.16,119.16L321.70,118.63"/></g></g><g id="Actor_.49"><g style="stroke:#000000;stroke-width:0.176"><path d="M120.55,98.93L120.53,98.46L119.96,98.54L119.55,98.38"/><path d="M119.98,99.01L119.96,98.54"/><path d="M120.40,98.35L120.41,98.34L120.40,98.33"/><path d="M119.83,98.35L119.83,98.36L119.84,98.37"/><path d="M120.53,98.46L120.68,98.22"/><path d="M120.40,98.21L120.44,98.25L120.45,98.30L120.45,98.30L120.44,98.32L120.42,98.35L120.36,98.39L120.29,98.41L120.27,98.42L120.17,98.44L120.06,98.44L120.04,98.44L119.95,98.43L119.87,98.40L119.81,98.36L119.78,98.32L119.79,98.27L119.83,98.24"/><path d="M120.40,98.36L120.40,98.36L120.40,98.36"/></g><g style="stroke:#000000;stroke-width:0.529"><path d="M119.82,98.11L119.71,98.13L119.55,98.38L119.57,98.85L119.98,99.01L120.55,98.93L120.70,98.69L120.68,98.22L120.40,98.10"/></g></g><g id="Actor_.50"><g style="stroke:#000000;stroke-width:0.176"><path d="M319.71,117.53L320.34,117.62"/><path d="M319.60,118.30L320.30,118.41"/></g><g style="stroke:#000000;stroke-width:0.529"><path d="M320.49,117.20L319.90,117.11L319.71,117.53L319.60,118.30L319.68,118.67L320.28,118.76"/></g></g><g id="Actor_.51"><g style="stroke:#000000;stroke-width:0.176"><path d="M43.97,173.42L44.70,172.70"/><path d="M45.50,172.84L45.02,173.31"/><path d="M78.48,138.15L78.45,138.21"/><path d="M326.26,222.64L327.50,223.99L328.22,225.51L328.23,225.63"/><path d="M328.70,228.86L329.12,227.20L328.91,225.44L328.09,223.73L327.27,222.82"/><path d="M328.37,227.24L328.41,227.08L328.32,226.33"/><path d="M328.17,228.02L328.26,227.67"/></g><g style="stroke:#000000;stroke-width:0.529"><path d="M44.67,172.69L43.97,173.42L43.68,174.16"/><path d="M328.13,229.66L328.70,228.86L348.00,187.49L348.40,185.90L348.22,184.21L347.46,182.59L346.21,181.19L344.58,180.16L342.75,179.59L82.72,136.53L81.02,136.53L79.55,137.09L48.52,168.77"/><path d="M308.41,226.30L310.93,227.25"/></g></g><g id="Actor_.52"><g style="stroke:#000000;stroke-width:0.176"><path d="M323.78,231.23L323.78,231.23L323.52,231.57L323.51,231.58L323.47,231.60L322.39,231.81L321.24,231.70L320.14,231.30L319.16,230.64L318.42,229.78L317.96,228.79L317.83,227.77L318.06,226.80L318.26,226.39"/><path d="M318.34,223.90L318.30,223.92L318.21,224.01L318.16,224.12L318.16,224.25L318.21,224.38L318.30,224.49L318.42,224.58L318.56,224.63L318.70,224.64L318.84,224.60L318.94,224.53L319.01,224.43L319.04,224.31L319.02,224.23"/><path d="M317.96,224.93L317.95,224.93"/><path d="M318.01,225.31L318.01,225.31"/><path d="M324.83,231.37L324.78,231.39L324.69,231.48L324.64,231.59L324.64,231.72L324.69,231.84L324.78,231.96L324.90,232.04L325.04,232.10L325.19,232.11L325.32,232.07L325.43,232.00L325.50,231.90L325.52,231.78L325.51,231.69"/><path d="M323.78,231.23L324.12,231.02L324.59,230.91L324.63,230.88L324.64,230.87L325.20,230.07L325.39,229.65"/><path d="M325.88,230.22L325.79,230.42"/></g><g style="stroke:#000000;stroke-width:0.529"><path d="M318.82,230.43L318.09,229.60L317.57,228.55L317.36,227.47L317.49,226.41L317.93,225.47L318.01,225.31L318.01,225.12L317.95,224.93L317.64,224.47L317.56,224.17L317.57,223.88L317.58,223.87L317.59,223.83L317.86,223.28L318.08,223.08L318.37,222.96L318.67,222.94L318.70,222.94L319.03,223.01L319.34,223.17L319.76,223.55L319.96,223.66L320.18,223.71L321.74,223.63L323.11,223.92L324.38,224.57L325.01,225.12L325.43,225.49L326.16,226.62L326.50,227.83L326.43,229.03L326.24,229.48L325.87,230.26L325.86,230.45L325.92,230.65L326.22,231.10L326.31,231.40L326.29,231.69L326.14,232.02L326.01,232.28L326.00,232.29L325.78,232.49L325.50,232.60L325.49,232.60L325.16,232.63L324.83,232.55L324.52,232.40L324.11,232.01L323.90,231.90L323.68,231.85L323.45,231.86L322.27,231.94L321.06,231.73L319.90,231.24L318.89,230.51L318.82,230.43"/><path d="M318.82,223.94L318.71,223.88L318.56,223.85L318.42,223.86L318.34,223.90L318.38,224.01L318.47,224.12L318.59,224.21L318.74,224.26L318.88,224.27L319.01,224.24L319.02,224.23L319.02,224.18L318.95,224.05L318.84,223.95L318.82,223.94"/><path d="M324.95,231.59L325.07,231.67L325.22,231.73L325.36,231.74L325.49,231.70L325.51,231.69L325.50,231.65L325.43,231.53L325.33,231.43L325.19,231.36L325.05,231.32L324.91,231.34L324.83,231.37L324.86,231.47L324.95,231.59"/></g></g><g id="Actor_.53"><g style="stroke:#000000;stroke-width:0.176"><path d="M332.65,177.67L332.51,177.67L332.17,177.61"/><path d="M345.66,179.84L346.49,180.37L347.67,181.69L348.38,183.22L348.55,184.81L348.43,186.57L348.09,187.89"/></g><g style="stroke:#000000;stroke-width:0.529"><path d="M347.29,189.01L347.30,189.00L348.09,187.89L348.24,187.57L348.58,186.25L348.70,184.49L348.53,182.90L347.82,181.37L346.64,180.05L346.54,179.99"/></g></g><g id="Actor_.54"><g style="stroke:#000000;stroke-width:0.176"><path d="M293.81,218.23L293.89,218.10L294.02,218.02L294.18,217.97L294.35,217.98L310.90,220.95L311.08,220.95L311.24,220.91L311.37,220.83L311.46,220.70L311.49,220.56L311.50,220.50"/><path d="M294.65,222.17L294.57,222.22L294.49,222.34L294.45,222.49L294.47,222.64L294.55,222.79L294.66,222.91L294.81,223.01L294.98,223.06L310.02,225.78L310.19,225.79L310.34,225.74L310.47,225.66L310.56,225.54L310.59,225.40L310.58,225.34"/><path d="M294.79,218.79L294.71,218.85L294.63,218.97L294.60,219.11L294.62,219.26L294.69,219.41L294.81,219.54L294.96,219.63L295.12,219.69L310.19,222.39L310.36,222.40L310.52,222.36L310.64,222.28L310.73,222.16L310.76,222.01L310.76,221.96"/><path d="M311.06,224.70L312.34,222.14L313.39,222.33L312.13,224.89L311.06,224.70L310.96,226.66"/><path d="M311.09,228.44L311.93,228.59L313.20,226.02L313.39,222.33"/><path d="M311.93,228.59L312.13,224.89"/><path d="M312.49,226.38L312.55,226.17L312.61,225.93L312.65,225.68L312.67,225.45L312.67,225.26L312.65,225.13L312.61,225.08L312.56,225.11L312.49,225.22L312.43,225.40L312.37,225.62L312.32,225.87L312.29,226.12L312.28,226.33L312.29,226.49L312.32,226.58L312.37,226.60L312.43,226.52L312.49,226.38"/><path d="M327.58,231.93L327.93,230.55L328.04,228.70L327.84,227.03L327.07,225.41L325.80,224.01L324.16,222.96L322.32,222.37L311.50,220.43"/></g><g style="stroke:#000000;stroke-width:0.529"><path d="M293.94,223.45L293.79,223.35L293.67,223.22L293.60,223.07L293.58,222.91L293.77,218.37L293.81,218.23L294.00,217.87L294.08,217.74L294.21,217.66L294.37,217.61L294.54,217.62L311.08,220.58L311.26,220.59L311.42,220.55L311.50,220.50L311.50,220.43L311.68,220.07L322.49,222.00L324.34,222.59L325.98,223.64L327.24,225.04L328.01,226.66L328.21,228.33L328.10,230.18L327.75,231.56L327.58,231.93L326.75,233.07L325.52,233.88L324.00,234.26L322.35,234.19L311.46,232.20L311.29,232.15L311.13,232.05L311.02,231.92L310.94,231.77L310.92,231.61L311.09,228.44L310.87,228.40L310.96,226.66L310.95,226.64L310.79,226.54L310.62,226.49L294.11,223.51L293.94,223.45"/><path d="M294.73,222.42L294.85,222.55L295.00,222.65L295.17,222.70L310.20,225.41L310.37,225.42L310.53,225.38L310.58,225.34L310.57,225.24L310.50,225.10L310.38,224.97L310.23,224.87L310.07,224.82L295.02,222.11L294.85,222.10L294.69,222.14L294.65,222.17L294.66,222.28L294.73,222.42"/><path d="M295.14,219.27L295.31,219.33L310.37,222.03L310.54,222.04L310.70,222.00L310.76,221.96L310.74,221.86L310.67,221.71L310.56,221.58L310.41,221.49L310.24,221.43L295.16,218.73L294.99,218.72L294.84,218.76L294.79,218.79L294.81,218.90L294.88,219.05L295.00,219.18L295.14,219.27"/></g></g><g id="Actor_.55"><g style="stroke:#000000;stroke-width:0.176"><path d="M101.52,186.14L112.84,188.17L112.98,188.00"/><path d="M112.84,188.17L113.27,197.31L113.28,197.40L113.30,197.46L113.34,197.49"/><path d="M114.36,196.00L113.47,197.06L113.45,197.08L113.43,197.08L113.42,197.07L113.41,197.05L113.41,197.04L113.40,197.00L113.35,195.81"/></g><g style="stroke:#000000;stroke-width:0.529"><path d="M102.07,195.43L102.04,195.40L102.01,195.34L102.00,195.26L101.52,186.14L101.67,185.97L112.98,188.00L113.35,195.81L114.36,196.00L114.37,196.30L113.42,197.45L113.38,197.48L113.34,197.49L102.07,195.43"/></g></g><g id="Actor_.56"><g style="stroke:#000000;stroke-width:0.176"/><g style="stroke:#000000;stroke-width:0.529"><path d="M92.05,138.07L92.12,138.01L158.12,149.01"/></g></g><g id="Actor_.57"><g style="stroke:#000000;stroke-width:0.176"><path d="M250.35,223.67L270.82,227.42L270.81,227.85"/><path d="M267.49,225.86L267.41,225.83L267.31,225.78L267.24,225.71L267.22,225.64L267.23,225.57L267.29,225.50L267.39,225.45L267.51,225.42L267.65,225.41L267.78,225.42L269.83,225.80L269.96,225.83L270.06,225.89L270.13,225.95L270.15,226.03L270.13,226.10L270.08,226.16L269.98,226.21L269.87,226.24"/><path d="M272.27,224.80L270.82,227.42"/></g><g style="stroke:#000000;stroke-width:0.529"><path d="M264.64,223.41L272.27,224.80L272.26,225.24L270.81,227.85L250.34,224.11L250.35,223.67L251.60,221.55"/><path d="M267.75,225.91L267.53,225.87L267.49,225.86L267.63,225.84L267.77,225.86L269.82,226.23L269.87,226.24L269.72,226.26L269.59,226.24L267.75,225.91"/></g></g><g id="Actor_.58"><g style="stroke:#000000;stroke-width:0.176"><path d="M251.78,213.18L264.09,215.40L264.19,215.21"/><path d="M264.64,223.36L263.98,224.52L263.96,224.54L263.95,224.55L263.94,224.53L263.94,224.52L263.93,224.46L263.97,223.24"/><path d="M263.86,224.97L263.84,224.95L263.83,224.88L263.82,224.80L264.09,215.40"/></g><g style="stroke:#000000;stroke-width:0.529"><path d="M252.27,222.86L251.62,222.74L251.60,222.71L251.58,222.65L251.58,222.56L251.78,213.18L251.89,213.00L264.19,215.21L263.97,223.24L264.64,223.36L264.63,223.68L263.92,224.92L263.89,224.97L263.86,224.97L252.27,222.86"/></g></g><g id="Actor_.59"><g style="stroke:#000000;stroke-width:0.176"><path d="M43.11,174.70L44.16,173.80L45.45,173.38L45.55,173.35L47.13,173.39L56.46,175.07L56.46,175.12"/><path d="M56.76,174.75L56.46,175.07"/><path d="M72.23,183.51L72.29,183.40L72.30,183.26L72.01,178.90L71.98,178.75L71.90,178.61L71.79,178.48L71.64,178.39L71.49,178.34L71.04,178.26"/></g><g style="stroke:#000000;stroke-width:0.529"><path d="M56.92,175.20L56.88,175.16L56.80,175.02L56.77,174.87L56.76,174.75L47.43,173.08L45.85,173.04L44.47,173.49L43.42,174.39L43.11,174.70L43.07,174.78"/><path d="M70.73,177.83L71.78,178.02L71.94,178.07L72.08,178.17L72.20,178.29L72.27,178.43L72.31,178.58L72.60,182.94L72.58,183.08L72.52,183.19L72.23,183.51L72.13,183.60L71.99,183.64L71.85,183.64"/></g></g><g id="Actor_.60"><g style="stroke:#000000;stroke-width:0.176"><path d="M42.09,167.89L328.14,218.75L327.89,222.93"/><path d="M77.48,180.61L77.34,178.54L77.57,178.58"/><path d="M97.98,184.29L97.87,182.22L98.09,182.26"/><path d="M128.88,189.84L128.80,187.76L129.01,187.79"/><path d="M183.14,199.59L183.11,197.48L183.29,197.51"/><path d="M239.07,209.63L239.10,207.51L239.24,207.53"/><path d="M272.70,213.52L272.58,213.50L272.51,215.64"/><path d="M295.40,219.34L295.42,218.78"/><path d="M295.47,217.79L295.47,217.60L295.58,217.62"/><path d="M310.89,220.36L310.92,219.90L311.03,219.92"/><path d="M328.14,218.75L328.26,218.48"/></g><g style="stroke:#000000;stroke-width:0.529"><path d="M46.74,173.06L42.45,172.29L42.09,167.89L42.31,167.66L328.26,218.48L328.01,222.67L327.89,222.93L311.03,219.92L311.02,220.10L310.89,220.36L295.60,217.62L295.59,217.81"/><path d="M64.11,176.17L56.77,174.86"/><path d="M293.73,219.45L287.73,218.38L287.81,216.23L272.72,213.52L272.66,215.39L272.51,215.64L264.95,214.28L265.01,212.14L239.26,207.53L239.23,209.38L239.07,209.63L231.65,208.30L231.67,206.18L183.29,197.51L183.31,199.34L183.14,199.59L175.94,198.29L175.90,196.19L129.01,187.79L129.08,189.60L128.88,189.84L121.90,188.59L121.81,186.50L98.09,182.26L98.19,184.06L97.98,184.29L91.12,183.06L91.00,180.99L77.57,178.58L77.69,180.38L77.48,180.61L73.77,179.94L73.64,177.88L69.94,177.22"/><path d="M295.52,219.36L295.55,218.80"/></g></g><g id="Actor_.61"><g style="stroke:#000000;stroke-width:0.176"><path d="M311.02,220.10L311.55,220.19L311.54,220.34"/><path d="M311.64,220.03L311.55,220.19"/></g><g style="stroke:#000000;stroke-width:0.529"><path d="M57.16,175.25L57.14,174.92"/><path d="M101.67,188.93L72.13,183.59"/><path d="M251.72,216.06L113.12,191.00"/><path d="M310.96,226.76L264.11,218.29"/><path d="M311.65,220.03L311.64,220.15"/></g></g><g id="Actor_.62"><g style="stroke:#000000;stroke-width:0.176"><path d="M78.13,131.51L348.31,176.24L348.03,180.24"/><path d="M111.50,141.24L111.70,141.27"/><path d="M130.96,144.49L131.15,144.52"/><path d="M332.17,177.59L332.07,177.58L332.06,177.82"/><path d="M348.42,176.01L348.31,176.24"/></g><g style="stroke:#000000;stroke-width:0.529"><path d="M107.99,140.66L78.40,135.72L78.13,131.51L78.33,131.31L348.42,176.01L348.14,180.01L348.03,180.24L332.17,177.59L332.14,177.83"/><path d="M111.70,141.27L124.45,143.40"/><path d="M153.64,148.27L131.15,144.52"/></g></g><g id="Actor_.63"><g style="stroke:#000000;stroke-width:0.176"><path d="M94.44,195.15L113.20,198.59L113.22,199.01"/><path d="M98.81,195.00L98.92,194.97L99.02,194.93L99.09,194.87L99.13,194.80L99.12,194.74L99.07,194.68L98.99,194.63L98.88,194.60L97.01,194.25L96.89,194.24L96.76,194.25L96.63,194.28L96.53,194.33L96.46,194.39L96.42,194.45L96.43,194.52L96.47,194.58L96.56,194.63L96.67,194.66L96.76,194.68"/><path d="M113.20,198.59L115.18,196.19"/></g><g style="stroke:#000000;stroke-width:0.529"><path d="M114.36,196.05L115.18,196.19L115.20,196.62L113.22,199.01L94.46,195.58L94.44,195.15L96.48,192.79L101.92,193.78"/><path d="M97.04,194.68L98.81,195.00L98.79,195.00L98.66,195.01L98.53,195.00L96.76,194.68L96.78,194.67L96.91,194.66L97.04,194.68"/></g></g><g id="Actor_.64"><g style="stroke:#000000;stroke-width:0.176"><path d="M81.24,136.20L80.78,136.35L80.21,136.84"/></g><g style="stroke:#000000;stroke-width:0.529"><path d="M80.96,136.15L80.12,136.87"/></g></g><g id="Actor_.65"><g style="stroke:#000000;stroke-width:0.176"><path d="M42.11,186.66L42.38,186.27L42.47,185.78L42.39,185.31L42.38,185.25L42.12,184.72L41.72,184.26L41.21,183.92L40.66,183.73L40.12,183.72L39.66,183.89L39.32,184.21"/><path d="M39.93,184.32L40.03,184.24L40.04,184.24"/><path d="M41.73,186.32L41.78,186.29L41.84,186.19"/><path d="M40.38,183.96L40.39,184.15L40.63,183.90L40.37,183.85L40.38,183.96"/><path d="M41.47,184.56L41.40,184.49L41.30,184.43"/><path d="M40.39,184.15L40.39,184.15"/><path d="M40.63,183.90L40.98,183.96L41.01,184.26"/><path d="M41.63,184.73L41.72,184.82L41.76,184.90"/><path d="M42.00,185.51L42.02,185.62L42.01,185.68"/><path d="M41.94,186.04L41.97,185.99L41.98,185.88"/><path d="M41.88,185.10L41.94,185.21L41.95,185.29"/></g><g style="stroke:#000000;stroke-width:0.529"><path d="M39.51,183.99L39.36,184.15L39.32,184.21L39.14,184.65L39.14,185.17L39.21,185.40"/><path d="M42.33,186.46L42.17,186.62L41.70,186.90L41.20,186.98L40.79,186.90"/></g></g><g id="Actor_.66"><g style="stroke:#000000;stroke-width:0.176"><path d="M321.93,231.01L322.25,230.85L322.57,230.50L322.72,230.05L322.69,229.56L322.48,229.08L322.12,228.66L321.64,228.35L321.09,228.18L320.54,228.17L320.05,228.32L319.66,228.62L319.42,229.03L319.36,229.50L319.43,229.79"/><path d="M319.42,229.03L319.99,227.84"/><path d="M320.11,221.54L320.04,221.56"/><path d="M322.57,230.50L323.13,229.31"/><path d="M325.72,222.55L326.29,222.91L327.51,224.32L328.20,225.93L328.29,227.58L328.16,227.95"/></g><g style="stroke:#000000;stroke-width:0.529"><path d="M318.63,221.28L318.62,221.31"/><path d="M321.93,231.01L321.80,231.08L321.27,231.15L320.72,231.06L320.20,230.82L319.77,230.45L319.48,229.99L319.43,229.79"/></g></g><g id="Actor_.67"><g style="stroke:#000000;stroke-width:0.176"><path d="M36.72,188.66L36.81,188.58L36.93,188.53L37.08,188.49L37.24,188.48L37.40,188.49L37.52,188.53L37.61,188.59L37.66,188.66L37.65,188.74L37.59,188.82L37.50,188.87L37.48,188.88L37.34,188.93L37.19,188.96L37.03,188.96L36.88,188.93L36.77,188.88L36.71,188.81L36.69,188.74L36.72,188.66"/><path d="M45.24,190.72L45.17,190.79L35.91,189.09"/><path d="M38.20,190.42L38.18,190.14L38.43,190.19"/><path d="M37.89,185.52L37.97,187.25L39.44,187.52L40.09,187.98L41.26,188.38L42.39,188.40L43.35,188.03L44.02,187.34L44.94,186.94"/><path d="M37.93,187.00L37.96,187.01"/><path d="M39.44,187.52L39.04,187.24L38.24,186.28L38.06,185.97L37.78,185.21"/><path d="M40.24,187.68L41.22,188.01L42.18,188.03L43.01,187.74L43.62,187.17L43.78,186.78L43.95,186.38L43.95,185.45L43.64,184.49L43.03,183.59L42.21,182.87L41.79,182.66L41.25,182.39L40.26,182.21L39.36,182.35L38.63,182.79L38.16,183.49L37.99,184.36L38.15,185.32L38.62,186.25L39.34,187.07L40.24,187.68L40.24,187.68"/><path d="M37.66,183.79L37.97,182.91L38.66,182.22L39.61,181.87L40.72,181.89L41.86,182.28L42.91,183.00L43.73,183.96L44.24,185.06L44.37,186.17L44.15,187.09L44.02,187.34L44.48,186.86L44.15,187.09"/><path d="M37.97,182.91L38.69,181.62L39.44,180.86L40.50,180.46L41.72,180.48L42.98,180.92L44.13,181.71L44.56,182.21"/><path d="M37.52,182.11L37.82,182.16L37.81,183.36"/><path d="M37.82,182.16L37.82,181.80"/><path d="M47.36,174.65L46.71,175.43L46.23,176.41L43.72,176.57L40.84,176.90L38.69,177.25L37.98,177.33L37.82,180.37"/><path d="M37.98,177.33L38.13,176.94L38.41,176.41"/><path d="M39.64,183.87L39.75,183.74L39.81,183.71"/><path d="M40.03,183.60L40.19,183.53L40.25,183.53"/><path d="M41.85,184.00L41.80,183.95L41.61,183.84"/><path d="M41.34,183.68L41.27,183.64L41.07,183.59"/><path d="M40.78,183.51L40.72,183.50L40.53,183.51"/><path d="M42.98,188.17L45.07,188.55"/><path d="M42.48,186.23L42.40,186.38L42.36,186.42"/><path d="M42.65,185.78L42.63,185.96L42.60,186.01"/><path d="M42.67,185.51L42.68,185.45L42.63,185.24"/><path d="M42.28,184.45L42.24,184.39L42.08,184.23"/><path d="M42.56,184.97L42.54,184.91L42.43,184.72"/><path d="M45.18,189.93L45.10,189.91L44.95,189.89L44.79,189.91L44.64,189.94L44.51,190.00L44.43,190.08L44.39,190.16L44.41,190.23L44.48,190.30L44.59,190.35L44.74,190.38L44.89,190.38L45.05,190.35L45.19,190.30L45.21,190.29"/><path d="M44.48,186.86L44.91,186.56"/><path d="M43.35,188.03L44.63,187.26L44.94,187.00"/><path d="M45.24,191.72L45.17,190.79"/><path d="M44.94,181.19L44.95,181.22L44.95,181.17L45.24,179.30L45.08,179.67L44.91,180.47L44.94,181.19"/><path d="M44.94,181.82L44.95,181.22"/><path d="M46.29,179.12L46.25,179.24L46.23,179.38"/><path d="M46.23,176.41L45.89,177.08L45.28,179.07L45.24,179.30"/><path d="M46.91,177.16L46.86,177.26L46.82,177.39"/><path d="M47.63,175.72L47.68,175.61L47.73,175.54"/><path d="M48.68,174.44L48.62,174.47L48.56,174.55"/><path d="M49.52,174.00L49.58,173.97"/></g><g style="stroke:#000000;stroke-width:0.529"><path d="M45.36,191.59L45.24,191.72L43.02,191.31L43.00,191.03L38.43,190.19L38.20,190.42L35.99,190.01L35.91,189.09L37.93,187.00L37.78,185.21L37.68,184.94L37.63,183.85L37.66,183.79L37.52,182.11L37.82,181.80L37.82,180.37L37.69,180.31L37.47,180.05L37.32,179.60L37.27,179.02L37.33,178.37L37.48,177.72L37.71,177.14L37.99,176.69L38.30,176.43L38.41,176.41L38.47,176.29L38.90,175.75L39.15,175.53L39.67,175.21L40.23,175.03L40.94,174.95L42.91,174.78L45.58,174.66L47.36,174.65L47.65,174.30L48.62,173.79L49.63,173.98"/></g></g><g id="Actor_.68"><g style="stroke:#000000;stroke-width:0.176"><path d="M40.24,185.82L40.22,185.79L40.19,185.71L40.18,185.64L40.20,185.57L40.25,185.52L40.31,185.49L40.39,185.48L40.47,185.50L40.55,185.55L40.61,185.61L40.64,185.65L40.66,185.69L40.68,185.77L40.67,185.84L40.64,185.90L40.58,185.94L40.51,185.96L40.43,185.95L40.35,185.92L40.28,185.86L40.24,185.82"/><path d="M40.63,183.90L40.03,184.52L39.68,184.61L39.40,184.82"/><path d="M40.03,184.52L40.04,184.72L40.66,184.83L40.64,184.63L40.83,184.73L41.19,185.00L41.46,185.36L41.62,185.75L41.65,186.14L41.55,186.48L41.33,186.74"/><path d="M40.04,184.72L40.81,183.93"/><path d="M40.64,184.63L41.01,184.26"/><path d="M45.62,172.86L45.04,173.30"/></g><g style="stroke:#000000;stroke-width:0.529"><path d="M39.77,184.44L39.40,184.82L39.24,185.13L39.20,185.50L39.30,185.89L39.52,186.27L39.84,186.58L40.22,186.81L40.63,186.91L41.01,186.89L41.33,186.74L41.69,186.36"/></g></g><g id="Actor_.69"><g style="stroke:#000000;stroke-width:0.176"><path d="M44.56,182.22L54.37,184.00L55.08,193.39"/><path d="M48.78,179.88L49.20,178.32L49.92,176.67L50.79,175.47L51.14,175.17L50.21,176.46L49.44,178.22L48.98,179.92L47.10,179.58L45.99,180.73"/><path d="M48.98,179.92L56.88,181.34L54.37,184.00"/><path d="M51.73,174.76L51.14,175.17"/><path d="M57.40,188.41L56.88,181.34"/><path d="M63.76,176.42L63.12,176.88L62.99,177.06L62.77,177.26L62.30,177.83L61.45,179.39L60.79,181.33L60.38,183.44L60.28,185.49L60.49,187.25L60.81,188.06L60.90,188.44L61.34,189.13"/><path d="M60.81,188.06L60.51,186.77L60.45,184.68L60.72,182.40L61.31,180.19L62.14,178.28L62.99,177.06"/></g><g style="stroke:#000000;stroke-width:0.529"><path d="M44.80,185.24L45.31,191.58L55.08,193.39L57.57,190.70L57.40,188.41L61.34,189.13L61.58,189.50L62.47,189.86L66.70,190.61L67.23,190.63L67.88,190.43L68.54,190.20L69.04,189.79L69.66,189.26L70.26,188.45L70.80,187.40L71.34,185.99L71.66,184.79L71.87,183.56L71.95,182.35L71.96,182.09L71.91,180.83L71.73,179.74L71.41,178.88L71.12,178.36L70.65,177.72L70.13,177.32L69.53,176.99L69.03,176.83L65.10,176.15L64.14,176.15L63.76,176.42L53.01,174.51L52.10,174.50L51.73,174.76L50.21,174.02L49.77,173.95L49.31,174.04L48.83,174.31L48.34,174.74L47.87,175.32L47.43,176.03L47.05,176.81L47.02,176.87L46.66,177.79L46.36,178.79L46.13,179.82L45.99,180.73L44.56,182.22L44.80,185.24"/></g></g><g/><g><g/><g><image x="0.000000" y="254.000015" height="25.000000" width="25.000000" xlink:href="Waste-Conv-Overview_files/acc73c8d48c872ff_image_0.jpg" mask="url(#mask0)"/></g></g><g><g/><g><image x="0.629476" y="0.656952" height="25.000000" width="25.000000" xlink:href="Waste-Conv-Overview_files/acc73c8d48c872ff_image_1.jpg" mask="url(#mask1)"/></g></g><g><g/><g><image x="407.000000" y="254.000015" height="25.000000" width="25.000000" xlink:href="Waste-Conv-Overview_files/acc73c8d48c872ff_image_2.jpg" mask="url(#mask2)"/></g></g><g><g/><g><image x="407.000000" y="0.000000" height="25.000000" width="25.000000" xlink:href="Waste-Conv-Overview_files/acc73c8d48c872ff_image_3.jpg" mask="url(#mask3)"/></g></g><g><g/><g><path style="stroke:#000000;stroke-width:0.125;fill:#ffffff" d="M193.30,39.68L336.37,39.68L336.37,54.35L193.30,54.35z"/><text xml:space="preserve" fill="#000000" stroke-width="0" x="195.13" y="49.77" font-size="9.00" opacity="1.00" font-family="MS Shell Dlg">Waste Conveyor Frames 001 - 090</text></g></g><g><g/><g><path style="stroke:#000000;stroke-width:0.125;fill:#ffffff" d="M78.75,219.49L230.33,219.49L230.33,234.16L78.75,234.16z"/><text xml:space="preserve" fill="#000000" stroke-width="0" x="80.58" y="229.58" font-size="9.00" opacity="1.00" font-family="MS Shell Dlg">Waste Conveyor Frames 091 and Up</text></g></g><g id="paperID" visibility="hidden" opacity="0.00" transform="scale(0.000100)"><path style="stroke:#000000;stroke-width:0.500;fill:#e6e6e6;fill-rule:evenodd" d="M-2000.00,-2000.00L2431.80,-2000.00L2431.80,2279.40L-2000.00,2279.40zM0.00,0.00L431.80,0.00L431.80,279.40L0.00,279.40z"/><path style="fill:#000000;fill-opacity:0.118" d="M3.00,279.40L431.80,279.40L431.80,3.00L434.80,3.00L434.80,282.40L3.00,282.40z"/></g><g id="hotspot.0" onmouseover="ShowHotSpot(evt,'0')" onmouseout="HideHotSpot(evt,'0')" onmousemove="ShowToolTip(evt,'0',&quot;Order&quot;)" opacity="0"><a xlink:href="https://www.mitek-us.com/resources/machinery/Find-and-Order-Parts/" target="_blank"><path style="fill:#00ff00;fill-rule:evenodd" d="M431.24,25.05L407.30,25.05L407.30,0.44L431.24,0.44z"/></a></g><g id="hotspot.1" onmouseover="ShowHotSpot(evt,'1')" onmouseout="HideHotSpot(evt,'1')" onmousemove="ShowToolTip(evt,'1',&quot;Back&quot;)" opacity="0"><a xlink:href="javascript:history.go(-1)"><path style="fill:#00ff00;fill-rule:evenodd" d="M25.05,278.96L0.44,278.96L0.44,254.01L25.05,254.01z"/></a></g><g id="hotspot.2" onmouseover="ShowHotSpot(evt,'2')" onmouseout="HideHotSpot(evt,'2')" onmousemove="ShowToolTip(evt,'2',&quot;2D Text 5&quot;)" opacity="0"><a xlink:href="./89195-501.svg"><path style="fill:#00ff00;fill-rule:evenodd" d="M336.74,54.62L193.18,54.64L193.17,39.53L336.71,39.50z"/></a></g><g id="hotspot.3" onmouseover="ShowHotSpot(evt,'3')" onmouseout="HideHotSpot(evt,'3')" onmousemove="ShowToolTip(evt,'3',&quot;2D Text 6&quot;)" opacity="0"><a xlink:href="./89195-901.svg"><path style="fill:#00ff00;fill-rule:evenodd" d="M230.69,234.43L78.63,234.45L78.62,219.34L230.67,219.31z"/></a></g><g id="hotspot.4" onmouseover="ShowHotSpot(evt,'4')" onmouseout="HideHotSpot(evt,'4')" onmousemove="ShowToolTip(evt,'4',&quot;Home&quot;)" opacity="0"><a xlink:href="./Saw-Overview.svg"><path style="fill:#00ff00;fill-rule:evenodd" d="M25.73,25.39L0.78,25.39L0.78,0.78L25.73,0.78z"/></a></g><g id="hotspot.5" onmouseover="ShowHotSpot(evt,'5')" onmouseout="HideHotSpot(evt,'5')" onmousemove="ShowToolTip(evt,'5',&quot;Forward&quot;)" opacity="0"><a xlink:href="javascript:history.go(1)"><path style="fill:#00ff00;fill-rule:evenodd" d="M431.24,278.96L407.30,278.96L407.30,254.01L431.24,254.01z"/></a></g><g id="ToolTip" visibility="hidden" opacity="0" transform="translate(0,0)"><rect id="ToolTipShadow" opacity="0.20" fill="black" stroke="none" x="0" y="0" width="30" height="8"/><rect id="ToolTipBG" fill="#ffffe1" stroke="black" x="0" y="0" width="30" height="8"/><text xml:space="preserve" id="ToolTipText" fill="black" x="0" y="0" width="30" height="8">tooltip</text></g></g></svg>
